<svg xmlns="http://www.w3.org/2000/svg" xmlns:xlink="http://www.w3.org/1999/xlink" preserveAspectRatio="xMidYMid" width="33" height="50" viewBox="0 0 33 50">
  <defs>
    <style>
      .cls-1 {
        fill: #4d5686;
        stroke: #fff;
        stroke-linejoin: round;
        stroke-width: 1px;
        fill-rule: evenodd;
      }
    </style>
  </defs>
  <path d="M28.263,6.215 L28.263,4.586 L32.319,4.586 L32.319,6.215 L28.263,6.215 ZM27.900,2.230 L31.145,0.602 L31.871,2.058 L28.626,3.686 L27.900,2.230 ZM22.584,49.366 L7.982,49.366 C5.743,49.363 3.928,47.542 3.925,45.295 L3.925,12.728 C3.925,12.279 4.289,11.914 4.737,11.914 L5.548,11.914 L5.548,10.286 L1.492,10.286 C1.044,10.286 0.681,9.921 0.681,9.471 C0.686,4.528 4.678,0.521 9.604,0.516 L22.584,0.516 C23.032,0.516 23.395,0.880 23.395,1.330 L23.395,2.144 L25.829,2.144 C26.277,2.144 26.641,2.508 26.641,2.958 L26.641,7.843 C26.641,8.293 26.277,8.657 25.829,8.657 L23.395,8.657 L23.395,9.279 L26.555,15.621 C26.756,16.023 26.593,16.512 26.192,16.713 C26.080,16.770 25.955,16.799 25.829,16.799 L22.584,16.799 C22.277,16.799 21.996,16.625 21.858,16.349 L18.838,10.286 L15.283,10.286 L15.283,11.914 L16.094,11.914 C16.542,11.914 16.906,12.279 16.906,12.728 L16.906,17.276 L25.453,25.854 C26.216,26.616 26.644,27.652 26.641,28.732 L26.641,45.295 C26.638,47.542 24.823,49.363 22.584,49.366 ZM25.018,7.029 L25.018,3.772 L23.395,3.772 L23.395,7.029 L25.018,7.029 ZM23.086,15.171 L24.517,15.171 L22.083,10.286 L20.652,10.286 L23.086,15.171 ZM21.773,8.657 L21.773,2.144 L9.604,2.144 C5.887,2.148 2.765,4.951 2.348,8.657 L6.359,8.657 L21.773,8.657 ZM7.171,10.286 L7.171,11.914 L13.661,11.914 L13.661,10.286 L7.171,10.286 ZM15.283,13.542 L5.548,13.542 L5.548,16.799 L15.283,16.799 L15.283,13.542 ZM15.758,18.427 L5.548,18.427 L5.548,21.684 L19.003,21.684 L15.758,18.427 ZM25.018,28.732 C25.020,28.084 24.764,27.462 24.306,27.005 L20.626,23.312 L5.548,23.312 L5.548,45.295 C5.548,46.644 6.638,47.738 7.982,47.738 L22.584,47.738 C23.928,47.738 25.018,46.644 25.018,45.295 L25.018,28.732 ZM31.871,8.743 L31.145,10.199 L27.900,8.571 L28.626,7.115 L31.871,8.743 Z" class="cls-1"/>
</svg>
