<svg xmlns="http://www.w3.org/2000/svg" xmlns:xlink="http://www.w3.org/1999/xlink" preserveAspectRatio="xMidYMid" width="33" height="50" viewBox="0 0 33 50">
  <defs>
    <style>
      .cls-1 {
        fill: #ffd68e;
      }

      .cls-1, .cls-2, .cls-3, .cls-4, .cls-5 {
        fill-rule: evenodd;
      }

      .cls-2 {
        fill: #a753b4;
      }

      .cls-3 {
        fill: #e88ff5;
      }

      .cls-4 {
        fill: #dfb5f5;
      }

      .cls-5 {
        fill: #863d91;
      }
    </style>
  </defs>
  <g>
    <path d="M1.052,9.297 C1.052,9.297 1.735,4.846 3.861,3.293 C5.986,1.740 6.650,1.035 8.542,0.983 C10.433,0.932 22.586,1.445 22.586,1.445 L22.586,2.831 L26.331,2.831 L26.331,7.911 L22.586,7.911 L22.586,9.759 L25.862,15.763 L22.586,16.225 L19.309,9.759 L14.627,9.759 L14.627,12.530 L5.733,12.530 L6.201,9.297 L1.052,9.297 Z" class="cls-1"/>
    <path d="M4.797,22.691 L20.245,22.691 L25.862,27.771 L26.331,46.245 C26.331,46.245 25.555,48.829 23.522,49.017 C21.488,49.204 7.137,49.017 7.137,49.017 C7.137,49.017 4.607,48.482 4.329,46.707 C4.051,44.932 4.797,22.691 4.797,22.691 Z" class="cls-2"/>
    <path d="M4.329,17.610 L16.032,17.610 L20.713,22.691 L4.329,23.153 L4.329,17.610 Z" class="cls-3"/>
    <path d="M4.329,12.992 L16.032,12.992 L16.032,17.610 L4.329,17.610 L4.329,12.992 Z" class="cls-4"/>
    <path d="M28.683,6.287 L28.683,4.640 L32.884,4.640 L32.884,6.287 L28.683,6.287 ZM28.308,2.256 L31.668,0.609 L32.420,2.082 L29.059,3.729 L28.308,2.256 ZM22.802,49.940 L7.678,49.940 C5.359,49.937 3.479,48.095 3.476,45.822 L3.476,12.876 C3.476,12.421 3.853,12.053 4.317,12.053 L5.157,12.053 L5.157,10.405 L0.956,10.405 C0.492,10.405 0.116,10.036 0.116,9.582 C0.121,4.580 4.256,0.527 9.358,0.522 L22.802,0.522 C23.266,0.522 23.642,0.890 23.642,1.345 L23.642,2.169 L26.162,2.169 C26.626,2.169 27.003,2.538 27.003,2.992 L27.003,7.934 C27.003,8.389 26.626,8.758 26.162,8.758 L23.642,8.758 L23.642,9.387 L26.914,15.803 C27.122,16.209 26.954,16.704 26.538,16.908 C26.422,16.965 26.293,16.994 26.162,16.994 L22.802,16.994 C22.483,16.994 22.192,16.818 22.050,16.539 L18.921,10.405 L15.240,10.405 L15.240,12.053 L16.080,12.053 C16.544,12.053 16.920,12.421 16.920,12.876 L16.920,17.477 L25.773,26.154 C26.563,26.925 27.006,27.974 27.003,29.067 L27.003,45.822 C27.000,48.095 25.121,49.937 22.802,49.940 ZM25.322,7.111 L25.322,3.816 L23.642,3.816 L23.642,7.111 L25.322,7.111 ZM23.321,15.347 L24.803,15.347 L22.282,10.405 L20.800,10.405 L23.321,15.347 ZM21.961,8.758 L21.961,2.169 L9.358,2.169 C5.508,2.173 2.275,5.008 1.842,8.758 L5.997,8.758 L21.961,8.758 ZM6.837,10.405 L6.837,12.053 L13.559,12.053 L13.559,10.405 L6.837,10.405 ZM15.240,13.700 L5.157,13.700 L5.157,16.994 L15.240,16.994 L15.240,13.700 ZM15.732,18.642 L5.157,18.642 L5.157,21.936 L19.093,21.936 L15.732,18.642 ZM25.322,29.067 C25.324,28.411 25.059,27.781 24.584,27.319 L20.773,23.584 L5.157,23.584 L5.157,45.822 C5.157,47.187 6.285,48.293 7.678,48.293 L22.802,48.293 C24.194,48.293 25.322,47.187 25.322,45.822 L25.322,29.067 ZM32.420,8.845 L31.668,10.318 L28.308,8.671 L29.059,7.197 L32.420,8.845 Z" class="cls-5"/>
  </g>
</svg>
