<svg xmlns="http://www.w3.org/2000/svg" xmlns:xlink="http://www.w3.org/1999/xlink" preserveAspectRatio="xMidYMid" width="40" height="50" viewBox="0 0 40 50">
  <defs>
    <style>
      .cls-1 {
        fill: #449be4;
      }

      .cls-1, .cls-2, .cls-3, .cls-4, .cls-5, .cls-6 {
        fill-rule: evenodd;
      }

      .cls-2 {
        fill: #aaecf2;
      }

      .cls-3 {
        fill: #2668a0;
      }

      .cls-4 {
        fill: #ffd68e;
      }

      .cls-5 {
        fill: #ad6e36;
      }

      .cls-6 {
        fill: #2c76b4;
      }
    </style>
  </defs>
  <g>
    <path d="M4.053,19.920 C4.053,19.920 13.109,22.734 19.250,22.691 C25.390,22.647 35.857,20.014 35.828,20.843 C35.799,21.672 35.368,46.707 35.368,46.707 C35.368,46.707 23.094,49.045 21.092,49.017 C19.089,48.988 4.081,47.990 4.053,46.707 C4.024,45.425 4.053,19.920 4.053,19.920 Z" class="cls-1"/>
    <path d="M4.513,18.996 C4.513,18.996 10.134,16.188 13.263,16.225 C16.392,16.262 25.236,16.225 25.236,16.225 C25.236,16.225 35.199,17.573 35.368,18.534 C35.536,19.495 34.081,20.608 32.605,21.305 C31.128,22.002 24.542,22.060 22.473,22.229 C20.405,22.398 12.305,22.126 10.500,21.767 C8.695,21.408 4.250,20.777 4.513,18.996 Z" class="cls-2"/>
    <path d="M4.058,26.399 L36.286,26.399 L36.286,37.009 L4.058,37.009 L4.058,26.399 Z" class="cls-3"/>
    <path d="M10.960,22.229 L10.500,31.004 C10.500,31.004 10.567,31.918 12.342,31.928 C14.117,31.937 14.184,29.157 14.184,29.157 C14.184,29.157 15.633,31.302 16.026,31.004 C16.419,30.706 17.407,27.771 17.407,27.771 C17.407,27.771 17.628,28.993 18.329,29.157 C19.029,29.320 21.092,27.309 21.092,27.309 C21.092,27.309 21.185,30.020 22.473,30.080 C23.762,30.141 24.315,27.309 24.315,27.309 L24.315,22.691 C24.315,22.691 11.881,22.625 10.960,22.229 Z" class="cls-4"/>
    <path d="M10.960,21.305 C10.960,21.305 13.487,19.463 16.947,19.458 C20.407,19.452 24.408,19.265 26.618,19.920 C28.827,20.574 29.841,21.767 29.841,21.767 C29.841,21.767 25.790,22.234 22.934,22.229 C20.078,22.224 14.118,22.889 10.960,21.305 Z" class="cls-4"/>
    <path d="M14.184,2.369 C14.184,2.369 15.565,0.911 18.329,0.983 C21.092,1.056 22.148,0.565 22.934,0.983 C23.719,1.402 25.717,2.066 25.697,3.293 C25.677,4.520 25.026,5.876 23.855,5.602 C22.683,5.328 23.414,4.029 21.092,4.216 C18.769,4.404 17.312,5.068 16.026,5.140 C14.739,5.212 14.184,2.369 14.184,2.369 Z" class="cls-5"/>
    <path d="M38.877,21.744 C38.409,22.255 37.745,22.548 37.051,22.548 L36.315,22.548 L36.315,26.627 C36.315,26.628 36.315,26.628 36.315,26.629 L36.315,36.422 C36.315,36.423 36.315,36.423 36.315,36.424 L36.315,47.032 C36.315,47.417 36.045,47.749 35.669,47.830 C30.553,48.929 25.202,49.478 19.874,49.478 C14.544,49.478 9.237,48.928 4.210,47.829 C3.834,47.746 3.566,47.415 3.566,47.032 L3.566,22.548 L2.830,22.548 C2.137,22.548 1.471,22.255 1.004,21.744 C0.543,21.239 0.314,20.564 0.377,19.890 C1.090,12.282 6.150,5.832 13.342,3.281 C13.364,2.903 13.473,2.532 13.665,2.198 C14.004,1.608 14.578,1.185 15.240,1.037 C18.315,0.348 21.567,0.348 24.642,1.037 C25.303,1.185 25.877,1.608 26.216,2.198 C26.409,2.532 26.517,2.903 26.540,3.281 C33.731,5.831 38.791,12.282 39.504,19.890 C39.566,20.564 39.339,21.239 38.877,21.744 ZM5.204,46.372 C14.653,48.339 25.066,48.339 34.677,46.370 L34.677,37.238 L5.204,37.238 L5.204,46.372 ZM22.397,30.710 C21.528,30.710 20.764,30.258 20.327,29.578 C19.711,29.925 18.882,29.985 18.217,29.721 C17.933,30.760 16.978,31.526 15.847,31.526 C15.528,31.526 15.222,31.465 14.942,31.353 C14.658,32.392 13.703,33.158 12.572,33.158 C11.218,33.158 10.116,32.059 10.116,30.710 L10.116,27.445 L5.204,27.445 L5.204,35.606 L34.677,35.606 L34.677,27.445 L24.853,27.445 L24.853,28.261 C24.853,29.611 23.751,30.710 22.397,30.710 ZM11.754,30.710 C11.754,31.159 12.121,31.526 12.572,31.526 C13.024,31.526 13.391,31.159 13.391,30.710 L13.391,29.077 C13.391,28.627 13.757,28.261 14.210,28.261 C14.663,28.261 15.028,28.627 15.028,29.077 C15.028,29.527 15.395,29.893 15.847,29.893 C16.299,29.893 16.666,29.527 16.666,29.077 L16.666,27.445 C16.666,26.995 17.032,26.629 17.484,26.629 C17.937,26.629 18.303,26.995 18.303,27.445 C18.303,27.895 18.670,28.261 19.122,28.261 C19.574,28.261 19.941,27.895 19.941,27.445 C19.941,26.995 20.306,26.629 20.759,26.629 C21.212,26.629 21.578,26.995 21.578,27.445 L21.578,28.261 C21.578,28.711 21.945,29.077 22.397,29.077 C22.849,29.077 23.216,28.711 23.216,28.261 L23.216,23.288 C22.053,23.341 20.940,23.365 19.941,23.365 C17.566,23.365 14.549,23.234 11.754,22.882 L11.754,30.710 ZM19.940,21.733 C23.224,21.733 26.016,21.523 28.258,21.215 C26.082,20.509 23.269,20.100 20.350,20.100 C17.302,20.100 14.400,20.538 12.201,21.293 C14.339,21.557 16.934,21.733 19.940,21.733 ZM24.853,23.195 L24.853,25.813 L34.677,25.813 L34.677,21.246 C32.530,22.356 28.596,22.938 24.853,23.195 ZM5.204,21.731 C5.204,21.731 5.204,21.732 5.204,21.732 C5.204,21.733 5.204,21.733 5.204,21.734 L5.204,25.813 L10.116,25.813 L10.116,22.645 C8.151,22.320 6.400,21.865 5.204,21.246 L5.204,21.731 ZM5.204,19.317 C5.368,19.724 6.777,20.326 9.278,20.828 C11.758,19.346 15.858,18.468 20.350,18.468 C24.679,18.468 28.693,19.297 31.192,20.695 C33.291,20.221 34.488,19.679 34.670,19.284 C34.270,18.414 28.958,16.836 19.940,16.836 C10.857,16.836 5.533,18.438 5.204,19.303 L5.204,19.317 ZM24.797,3.010 C24.683,2.813 24.501,2.678 24.284,2.629 C21.441,1.994 18.438,1.994 15.597,2.629 C15.380,2.678 15.199,2.813 15.085,3.010 C14.986,3.182 14.953,3.384 14.989,3.576 C14.995,3.593 15.001,3.609 15.006,3.626 C15.010,3.643 15.017,3.672 15.022,3.698 C15.160,4.087 15.571,4.304 15.987,4.215 C18.573,3.642 21.308,3.642 23.895,4.215 L23.894,4.215 C24.310,4.306 24.723,4.086 24.859,3.698 C24.864,3.670 24.871,3.642 24.875,3.626 C24.880,3.611 24.886,3.595 24.891,3.580 C24.928,3.386 24.896,3.183 24.797,3.010 ZM26.085,4.853 C25.630,5.487 24.890,5.869 24.091,5.869 C23.910,5.869 23.725,5.849 23.539,5.808 L23.538,5.808 C21.184,5.286 18.696,5.286 16.342,5.808 C15.345,6.029 14.356,5.632 13.796,4.852 C7.255,7.213 2.657,13.101 2.008,20.041 C1.987,20.262 2.060,20.476 2.214,20.645 C2.372,20.817 2.596,20.916 2.830,20.916 L3.566,20.916 L3.566,19.284 C3.566,19.264 3.568,19.245 3.569,19.225 C3.695,16.053 13.896,15.204 19.940,15.204 C25.985,15.204 36.186,16.053 36.312,19.225 C36.313,19.245 36.315,19.264 36.315,19.284 L36.315,20.916 L37.051,20.916 C37.285,20.916 37.510,20.817 37.667,20.645 C37.821,20.476 37.894,20.262 37.873,20.041 C37.223,13.102 32.627,7.213 26.085,4.853 ZM22.397,33.974 L17.484,33.974 C17.032,33.974 16.666,33.608 16.666,33.158 C16.666,32.707 17.032,32.342 17.484,32.342 L22.397,32.342 C22.849,32.342 23.215,32.707 23.215,33.158 C23.215,33.608 22.849,33.974 22.397,33.974 Z" class="cls-6"/>
  </g>
</svg>
