<svg xmlns="http://www.w3.org/2000/svg" xmlns:xlink="http://www.w3.org/1999/xlink" preserveAspectRatio="xMidYMid" width="57" height="50" viewBox="0 0 57 50">
  <defs>
    <style>
      .cls-1 {
        fill: #4d5686;
        stroke: #fff;
        stroke-linejoin: round;
        stroke-width: 1px;
        fill-rule: evenodd;
      }
    </style>
  </defs>
  <path d="M55.577,23.764 C55.998,24.216 56.217,24.831 56.176,25.450 C55.621,33.653 50.418,37.772 42.778,41.432 C41.925,41.841 41.220,42.521 40.794,43.348 C40.378,44.156 40.443,45.198 40.966,46.069 C41.377,46.754 41.388,47.557 41.005,48.236 C40.623,48.914 39.931,49.320 39.154,49.320 L17.845,49.320 C17.068,49.320 16.376,48.915 15.994,48.236 C15.612,47.557 15.623,46.754 16.024,46.086 C16.556,45.199 16.622,44.156 16.205,43.347 C15.778,42.520 15.074,41.841 14.221,41.432 C6.580,37.772 1.377,33.652 0.824,25.449 C0.782,24.831 0.999,24.216 1.421,23.763 C1.839,23.315 2.428,23.058 3.038,23.058 L3.917,23.058 C3.595,22.622 3.401,22.097 3.401,21.541 C3.401,20.707 3.806,19.922 4.486,19.441 L4.816,19.207 C5.089,19.015 5.185,18.655 5.045,18.351 L4.876,17.985 C4.526,17.226 4.566,16.344 4.982,15.621 C5.397,14.900 6.140,14.423 6.968,14.348 L7.370,14.312 C7.702,14.282 7.964,14.018 7.994,13.685 L8.031,13.281 C8.105,12.451 8.580,11.706 9.300,11.290 C10.018,10.873 10.900,10.833 11.655,11.184 L12.021,11.354 C12.117,11.398 12.209,11.407 12.296,11.403 C12.406,11.118 12.538,10.840 12.718,10.584 L18.103,2.917 C19.291,1.225 21.628,0.820 23.315,2.011 C24.129,2.586 24.671,3.448 24.842,4.438 C25.014,5.427 24.792,6.422 24.218,7.239 L21.276,11.428 C21.877,11.841 22.297,12.494 22.368,13.282 L22.404,13.684 C22.427,13.934 22.580,14.145 22.794,14.247 C22.878,14.031 22.941,13.829 22.954,13.685 L22.991,13.281 C23.065,12.451 23.540,11.705 24.260,11.289 C24.981,10.872 25.861,10.831 26.616,11.184 L26.982,11.354 C27.283,11.495 27.643,11.397 27.835,11.125 L28.068,10.793 C28.546,10.112 29.328,9.705 30.159,9.705 C30.359,9.705 30.556,9.731 30.747,9.776 C30.829,4.676 34.985,0.550 40.089,0.550 C45.194,0.550 49.351,4.679 49.431,9.781 C52.817,11.261 55.048,14.629 55.048,18.370 C55.048,20.029 54.601,21.640 53.779,23.059 L53.961,23.059 C54.570,23.059 55.159,23.316 55.577,23.764 ZM22.691,6.159 C22.977,5.753 23.086,5.255 23.001,4.759 C22.916,4.264 22.645,3.833 22.239,3.546 C21.397,2.950 20.227,3.153 19.633,3.999 L14.247,11.667 C14.099,11.877 14.001,12.112 13.949,12.358 C13.916,12.520 13.911,12.682 13.919,12.842 C13.922,12.882 13.924,12.922 13.929,12.963 C13.947,13.122 13.979,13.279 14.036,13.427 C14.040,13.436 14.046,13.444 14.049,13.453 C14.106,13.593 14.183,13.723 14.272,13.846 C14.296,13.879 14.320,13.912 14.347,13.943 C14.449,14.065 14.561,14.180 14.694,14.275 C14.696,14.276 14.697,14.278 14.699,14.279 C15.105,14.567 15.602,14.674 16.095,14.591 C16.589,14.506 17.018,14.234 17.304,13.826 L19.042,11.352 C19.042,11.352 19.043,11.352 19.043,11.352 L22.691,6.159 ZM23.507,19.305 C23.470,19.169 23.447,19.031 23.433,18.891 C23.433,18.885 23.431,18.879 23.430,18.873 C23.390,18.435 23.461,17.983 23.656,17.560 L23.828,17.192 C23.873,17.092 23.893,16.985 23.889,16.880 C23.889,16.877 23.890,16.871 23.890,16.867 C23.886,16.772 23.854,16.679 23.809,16.591 C23.790,16.554 23.763,16.525 23.739,16.493 C23.700,16.442 23.659,16.394 23.609,16.356 C23.576,16.331 23.540,16.314 23.503,16.295 C23.428,16.258 23.352,16.222 23.264,16.214 L22.862,16.178 C21.630,16.066 20.655,15.088 20.543,13.852 L20.506,13.450 C20.486,13.219 20.365,13.050 20.209,12.946 L18.834,14.904 C18.261,15.720 17.401,16.264 16.415,16.437 C16.198,16.474 15.981,16.493 15.765,16.493 C15.749,16.493 15.734,16.489 15.718,16.489 C15.657,16.488 15.599,16.479 15.538,16.475 C15.376,16.465 15.216,16.447 15.058,16.416 C14.981,16.402 14.908,16.383 14.833,16.364 C14.684,16.325 14.539,16.276 14.396,16.219 C14.331,16.194 14.266,16.170 14.203,16.141 C14.002,16.048 13.806,15.941 13.622,15.810 C13.413,15.663 13.223,15.494 13.051,15.311 C13.000,15.257 12.963,15.194 12.915,15.137 C12.803,15.002 12.691,14.867 12.599,14.718 C12.547,14.633 12.512,14.542 12.467,14.454 C12.401,14.323 12.330,14.194 12.278,14.055 C12.235,13.937 12.211,13.814 12.179,13.693 C12.152,13.589 12.113,13.491 12.094,13.384 C12.091,13.368 12.093,13.351 12.090,13.334 C12.087,13.315 12.078,13.295 12.075,13.275 C11.788,13.253 11.504,13.180 11.237,13.057 L10.868,12.885 C10.663,12.789 10.430,12.800 10.234,12.913 C10.038,13.028 9.913,13.223 9.893,13.450 L9.857,13.854 C9.745,15.090 8.769,16.068 7.537,16.179 L7.136,16.215 C6.909,16.235 6.714,16.361 6.600,16.558 C6.487,16.756 6.476,16.988 6.572,17.195 L6.741,17.561 C7.261,18.690 6.904,20.027 5.891,20.741 L5.562,20.973 C5.376,21.105 5.270,21.311 5.270,21.540 C5.270,21.769 5.376,21.974 5.562,22.105 L5.893,22.339 C6.165,22.531 6.396,22.778 6.575,23.059 L23.824,23.059 C23.833,23.044 23.847,23.031 23.857,23.016 C23.918,22.925 23.986,22.841 24.058,22.758 C24.088,22.722 24.116,22.683 24.149,22.648 C24.258,22.536 24.375,22.431 24.503,22.340 L24.823,22.115 L24.835,22.106 C24.902,22.059 24.945,21.995 24.990,21.931 C25.008,21.905 25.038,21.888 25.052,21.860 C25.103,21.763 25.129,21.655 25.129,21.541 C25.129,21.313 25.022,21.107 24.835,20.971 L24.732,20.898 L24.504,20.738 C24.000,20.381 23.657,19.869 23.507,19.305 ZM30.957,12.205 L30.724,11.873 C30.463,11.503 29.859,11.500 29.597,11.874 L29.364,12.206 C28.652,13.218 27.319,13.577 26.198,13.058 L25.829,12.886 C25.624,12.788 25.392,12.801 25.195,12.914 C24.998,13.028 24.873,13.224 24.853,13.450 L24.817,13.855 C24.789,14.163 24.706,14.477 24.609,14.762 C24.651,14.789 24.681,14.831 24.721,14.861 C24.856,14.961 24.985,15.069 25.098,15.196 C25.152,15.257 25.195,15.325 25.244,15.391 C25.303,15.470 25.370,15.540 25.420,15.625 C25.446,15.672 25.458,15.724 25.482,15.772 C25.499,15.806 25.527,15.834 25.543,15.870 C25.569,15.931 25.581,15.996 25.603,16.058 C25.629,16.133 25.655,16.206 25.675,16.283 C25.705,16.401 25.721,16.521 25.734,16.642 C25.742,16.712 25.753,16.782 25.755,16.852 C25.757,16.987 25.743,17.121 25.725,17.256 C25.717,17.314 25.717,17.371 25.705,17.428 C25.666,17.619 25.609,17.808 25.525,17.988 L25.354,18.357 C25.215,18.659 25.310,19.018 25.583,19.210 L25.914,19.445 C26.184,19.636 26.396,19.884 26.572,20.155 C26.727,20.395 26.857,20.652 26.925,20.931 C26.947,21.015 26.945,21.105 26.957,21.191 C26.973,21.308 26.999,21.422 26.999,21.543 L26.999,21.544 C26.998,21.729 26.972,21.910 26.933,22.087 C26.923,22.131 26.914,22.173 26.902,22.216 C26.854,22.390 26.794,22.561 26.712,22.721 C26.709,22.726 26.706,22.730 26.704,22.735 C26.644,22.847 26.578,22.957 26.503,23.060 L38.784,23.060 C38.802,23.032 38.826,23.008 38.845,22.981 C38.893,22.909 38.948,22.842 39.004,22.775 C39.043,22.730 39.078,22.682 39.119,22.640 C39.223,22.533 39.334,22.434 39.456,22.347 C39.460,22.344 39.462,22.342 39.465,22.340 L39.797,22.105 C39.982,21.974 40.089,21.769 40.089,21.541 C40.089,21.313 39.982,21.106 39.797,20.973 L39.465,20.738 C39.353,20.659 39.251,20.570 39.156,20.475 C39.105,20.426 39.062,20.372 39.016,20.320 C38.980,20.277 38.944,20.237 38.911,20.193 C38.850,20.113 38.797,20.032 38.746,19.946 C38.741,19.937 38.735,19.927 38.730,19.917 C38.335,19.229 38.266,18.378 38.599,17.613 C38.605,17.596 38.608,17.581 38.615,17.564 L38.788,17.193 C38.883,16.987 38.873,16.755 38.759,16.558 C38.645,16.360 38.450,16.234 38.223,16.214 L37.821,16.178 C36.589,16.067 35.614,15.088 35.502,13.852 L35.466,13.450 C35.446,13.222 35.321,13.027 35.124,12.912 C34.929,12.799 34.697,12.788 34.490,12.884 L34.125,13.055 C33.996,13.115 33.863,13.161 33.728,13.197 C33.653,13.218 33.577,13.228 33.500,13.242 C33.447,13.252 33.394,13.264 33.341,13.269 C33.228,13.283 33.114,13.285 33.001,13.283 C32.991,13.283 32.983,13.283 32.974,13.283 C32.189,13.259 31.434,12.883 30.957,12.205 ZM40.089,2.426 C35.964,2.426 32.609,5.792 32.609,9.929 C32.609,10.383 32.655,10.852 32.746,11.326 C32.835,11.376 32.933,11.403 33.032,11.410 C33.037,11.410 33.042,11.411 33.048,11.411 C33.148,11.414 33.247,11.398 33.340,11.354 L33.705,11.185 C33.885,11.101 34.072,11.043 34.263,11.004 C34.329,10.990 34.395,10.990 34.461,10.982 C34.568,10.968 34.674,10.947 34.781,10.947 C34.799,10.947 34.817,10.955 34.834,10.955 C34.977,10.958 35.115,10.983 35.255,11.010 C35.325,11.023 35.395,11.025 35.465,11.045 C35.670,11.102 35.871,11.182 36.060,11.292 C36.343,11.456 36.574,11.681 36.772,11.931 L38.106,10.593 C38.471,10.226 39.062,10.226 39.428,10.593 C39.794,10.959 39.794,11.552 39.428,11.919 L37.430,13.922 C37.533,14.138 37.742,14.291 37.990,14.313 L38.393,14.350 C39.220,14.425 39.963,14.900 40.379,15.623 C40.473,15.786 40.542,15.959 40.597,16.136 C40.614,16.187 40.624,16.240 40.637,16.292 C40.669,16.424 40.691,16.556 40.702,16.691 C40.707,16.746 40.714,16.800 40.715,16.855 C40.718,17.027 40.708,17.198 40.677,17.368 C40.675,17.380 40.675,17.392 40.673,17.404 L40.673,17.405 C40.698,17.403 40.722,17.403 40.746,17.401 C40.867,17.390 40.987,17.372 41.107,17.355 C41.225,17.338 41.344,17.324 41.461,17.302 C41.574,17.281 41.684,17.253 41.795,17.226 C41.916,17.198 42.038,17.172 42.155,17.137 C42.259,17.107 42.359,17.072 42.461,17.037 C42.583,16.997 42.704,16.956 42.823,16.909 C42.917,16.873 43.009,16.830 43.102,16.788 C43.222,16.735 43.344,16.682 43.462,16.622 C43.546,16.578 43.628,16.531 43.710,16.485 C43.831,16.417 43.952,16.350 44.068,16.276 C44.143,16.229 44.214,16.179 44.286,16.129 C44.406,16.047 44.525,15.964 44.640,15.876 C44.702,15.828 44.762,15.776 44.823,15.726 C44.942,15.627 45.060,15.529 45.172,15.424 C45.222,15.376 45.270,15.327 45.319,15.278 C45.436,15.162 45.552,15.045 45.662,14.921 C45.699,14.879 45.735,14.835 45.771,14.792 C45.887,14.656 46.000,14.517 46.106,14.372 C46.130,14.339 46.153,14.304 46.178,14.269 C46.291,14.111 46.399,13.948 46.499,13.780 C46.513,13.757 46.525,13.735 46.538,13.712 C46.645,13.527 46.746,13.340 46.838,13.146 C46.842,13.137 46.845,13.129 46.849,13.120 C47.246,12.275 47.490,11.344 47.546,10.358 C47.546,10.355 47.549,10.349 47.549,10.349 C47.557,10.209 47.569,10.070 47.569,9.929 C47.569,5.792 44.213,2.426 40.089,2.426 ZM49.253,11.777 C49.156,12.263 49.012,12.732 48.843,13.189 C48.828,13.230 48.813,13.273 48.797,13.315 C48.722,13.508 48.641,13.696 48.554,13.883 C48.522,13.951 48.489,14.018 48.456,14.085 C48.372,14.255 48.285,14.423 48.191,14.587 C48.146,14.666 48.097,14.742 48.051,14.819 C47.957,14.971 47.864,15.124 47.762,15.271 C47.705,15.353 47.642,15.430 47.583,15.510 C47.416,15.736 47.240,15.953 47.054,16.162 C46.956,16.273 46.859,16.385 46.756,16.491 C46.665,16.583 46.570,16.670 46.475,16.758 C46.365,16.862 46.255,16.965 46.140,17.063 C46.044,17.146 45.945,17.224 45.845,17.302 C45.723,17.398 45.599,17.492 45.473,17.582 C45.373,17.653 45.272,17.723 45.169,17.790 C45.031,17.881 44.888,17.965 44.745,18.049 C44.648,18.106 44.551,18.164 44.451,18.218 C44.272,18.313 44.088,18.400 43.903,18.483 C43.834,18.515 43.766,18.551 43.695,18.581 C43.440,18.689 43.179,18.783 42.913,18.869 C42.829,18.896 42.743,18.916 42.658,18.940 C42.468,18.994 42.276,19.047 42.082,19.089 C41.976,19.112 41.868,19.130 41.762,19.150 C41.581,19.183 41.399,19.211 41.215,19.233 C41.104,19.248 40.991,19.259 40.879,19.268 C40.805,19.274 40.733,19.286 40.658,19.291 L40.874,19.444 C41.552,19.922 41.958,20.706 41.958,21.541 C41.958,21.726 41.931,21.907 41.893,22.086 C41.883,22.131 41.873,22.174 41.861,22.217 C41.813,22.390 41.754,22.561 41.672,22.721 C41.669,22.725 41.665,22.730 41.663,22.735 C41.604,22.847 41.538,22.956 41.463,23.059 L44.764,23.059 L44.764,19.308 C44.764,18.789 45.182,18.370 45.699,18.370 C46.216,18.370 46.634,18.789 46.634,19.308 L46.634,23.059 L51.526,23.059 C52.595,21.726 53.179,20.077 53.179,18.370 C53.179,15.593 51.641,13.073 49.253,11.777 ZM51.958,24.935 L39.439,24.935 L39.380,24.935 L24.420,24.935 L5.980,24.935 L3.039,24.935 C2.916,24.935 2.835,24.994 2.788,25.045 C2.748,25.089 2.681,25.183 2.690,25.323 C3.184,32.643 7.776,36.266 15.027,39.738 C16.245,40.321 17.254,41.296 17.866,42.484 C18.579,43.868 18.490,45.611 17.635,47.036 C17.561,47.160 17.588,47.254 17.622,47.313 C17.656,47.373 17.722,47.444 17.845,47.444 L39.152,47.444 C39.276,47.444 39.342,47.372 39.376,47.313 C39.410,47.254 39.436,47.160 39.373,47.053 C38.508,45.612 38.419,43.869 39.133,42.486 C39.746,41.298 40.754,40.323 41.972,39.739 C49.222,36.266 53.815,32.643 54.309,25.323 C54.320,25.182 54.252,25.089 54.212,25.045 C54.165,24.994 54.083,24.935 53.962,24.935 L51.958,24.935 ZM35.414,45.568 L21.389,45.568 C20.873,45.568 20.454,45.149 20.454,44.630 C20.454,44.112 20.873,43.692 21.389,43.692 L35.414,43.692 C35.930,43.692 36.349,44.112 36.349,44.630 C36.349,45.149 35.930,45.568 35.414,45.568 ZM47.569,18.370 C47.052,18.370 46.634,17.950 46.634,17.432 C46.634,16.913 47.052,16.494 47.569,16.494 L51.309,16.494 C51.826,16.494 52.244,16.913 52.244,17.432 C52.244,17.950 51.826,18.370 51.309,18.370 L47.569,18.370 ZM42.072,9.266 C41.890,9.449 41.650,9.541 41.411,9.541 C41.172,9.541 40.932,9.449 40.750,9.266 C40.385,8.899 40.385,8.306 40.750,7.940 L43.395,5.287 C43.761,4.921 44.352,4.921 44.717,5.287 C45.083,5.654 45.082,6.247 44.717,6.613 L42.072,9.266 ZM42.071,10.592 L44.716,13.244 C45.081,13.611 45.082,14.204 44.716,14.570 C44.534,14.753 44.295,14.845 44.055,14.845 C43.816,14.845 43.577,14.753 43.394,14.570 L40.749,11.918 C40.384,11.551 40.384,10.959 40.749,10.592 C41.115,10.225 41.706,10.225 42.071,10.592 ZM38.767,9.541 C38.528,9.541 38.288,9.449 38.106,9.266 L35.461,6.613 C35.095,6.247 35.095,5.654 35.461,5.287 C35.826,4.921 36.417,4.921 36.783,5.287 L39.428,7.940 C39.794,8.306 39.794,8.899 39.428,9.266 C39.246,9.449 39.006,9.541 38.767,9.541 ZM34.205,17.707 L35.140,18.645 C35.506,19.011 35.506,19.604 35.140,19.971 C34.958,20.154 34.718,20.245 34.479,20.245 C34.240,20.245 34.000,20.154 33.818,19.971 L32.883,19.033 C32.517,18.666 32.517,18.073 32.883,17.707 C33.249,17.340 33.839,17.340 34.205,17.707 ZM30.465,21.846 C30.283,22.029 30.043,22.121 29.804,22.121 C29.565,22.121 29.325,22.029 29.143,21.846 C28.777,21.480 28.777,20.887 29.143,20.520 L30.078,19.582 C30.443,19.216 31.035,19.216 31.400,19.582 C31.766,19.949 31.766,20.542 31.400,20.909 L30.465,21.846 ZM29.998,17.626 C29.815,17.809 29.576,17.901 29.337,17.901 C29.097,17.901 28.858,17.809 28.676,17.626 C28.310,17.259 28.310,16.666 28.676,16.300 L30.078,14.893 C30.444,14.526 31.035,14.526 31.400,14.893 C31.766,15.260 31.766,15.852 31.400,16.219 L29.998,17.626 Z" class="cls-1"/>
</svg>
