<svg xmlns="http://www.w3.org/2000/svg" xmlns:xlink="http://www.w3.org/1999/xlink" preserveAspectRatio="xMidYMid" width="56" height="50" viewBox="0 0 56 50">
  <defs>
    <style>
      .cls-1 {
        fill: #216b06;
      }

      .cls-1, .cls-2, .cls-3, .cls-4, .cls-5, .cls-6, .cls-7 {
        fill-rule: evenodd;
      }

      .cls-2 {
        fill: #009753;
      }

      .cls-3 {
        fill: #67c14d;
      }

      .cls-4 {
        fill: #ffd68e;
      }

      .cls-5 {
        fill: #b66f38;
      }

      .cls-6 {
        fill: #009b38;
      }

      .cls-7 {
        fill: #22571b;
      }
    </style>
  </defs>
  <g>
    <path d="M45.337,10.319 C50.205,10.319 53.667,13.613 53.667,18.519 C53.667,23.425 50.980,24.962 46.112,24.962 C41.244,24.962 37.589,23.230 37.589,18.324 C37.589,13.418 40.469,10.319 45.337,10.319 Z" class="cls-1"/>
    <path d="M39.037,1.342 C43.902,1.342 47.847,5.320 47.847,10.226 C47.847,15.133 43.902,19.111 39.037,19.111 C34.171,19.111 30.227,15.133 30.227,10.226 C30.227,5.320 34.171,1.342 39.037,1.342 Z" class="cls-2"/>
    <path d="M23.448,14.419 C23.448,14.419 22.725,13.577 24.029,12.271 C25.332,10.966 25.696,13.252 27.128,12.662 C28.561,12.072 27.955,10.844 29.453,10.905 C30.950,10.966 31.055,12.601 31.971,12.662 C32.887,12.723 33.250,11.364 34.683,12.271 C36.116,13.178 35.446,14.618 36.233,15.200 C37.020,15.781 38.610,14.553 39.332,16.567 C40.054,18.580 38.158,18.328 38.557,19.495 C38.957,20.662 41.128,20.605 40.688,22.228 C40.248,23.851 39.526,24.571 39.526,24.571 L24.223,24.376 C24.223,24.376 25.696,24.120 25.579,21.838 C25.461,19.556 24.146,21.126 24.029,19.300 C23.912,17.474 24.598,16.831 24.223,16.176 C23.847,15.521 23.448,14.419 23.448,14.419 Z" class="cls-3"/>
    <path d="M8.537,14.419 C8.537,14.419 7.817,13.577 9.116,12.271 C10.415,10.966 10.776,13.252 12.204,12.662 C13.631,12.072 13.028,10.844 14.519,10.905 C16.011,10.966 16.115,12.601 17.028,12.662 C17.941,12.723 18.302,11.364 19.730,12.271 C21.157,13.178 20.490,14.618 21.273,15.200 C22.057,15.781 23.641,14.553 24.361,16.567 C25.081,18.580 23.191,18.328 23.589,19.495 C23.987,20.662 26.150,20.605 25.712,22.228 C25.274,23.851 24.554,24.571 24.554,24.571 L9.309,24.376 C9.309,24.376 4.387,24.315 4.270,22.033 C4.154,19.751 5.743,21.517 5.626,19.690 C5.510,17.864 6.000,17.221 5.626,16.567 C5.252,15.912 8.537,14.419 8.537,14.419 Z" class="cls-4"/>
    <path d="M12.521,11.131 L18.518,3.506 C19.390,2.398 21.116,2.314 22.373,3.319 C23.631,4.324 23.944,6.037 23.072,7.145 L17.075,14.769 C16.203,15.878 14.477,15.962 13.220,14.957 C11.962,13.952 11.649,12.239 12.521,11.131 Z" class="cls-5"/>
    <path d="M1.365,24.571 L54.442,24.376 C54.442,24.376 55.721,30.237 52.311,33.552 C48.901,36.867 42.226,40.845 41.075,41.752 C39.925,42.659 39.255,45.270 39.526,48.195 C39.796,51.119 25.566,49.045 21.898,49.171 C18.230,49.297 15.493,50.281 16.474,46.633 C17.455,42.984 16.462,41.951 13.762,40.776 C11.062,39.600 3.354,35.248 2.139,31.405 C0.925,27.561 1.365,24.571 1.365,24.571 Z" class="cls-6"/>
    <path d="M55.199,24.069 C55.621,24.527 55.841,25.149 55.800,25.776 C55.243,34.085 50.016,38.256 42.342,41.963 C41.485,42.378 40.777,43.066 40.349,43.904 C39.931,44.722 39.997,45.777 40.522,46.660 C40.934,47.353 40.946,48.167 40.561,48.855 C40.177,49.542 39.482,49.952 38.702,49.952 L17.298,49.952 C16.517,49.952 15.822,49.543 15.438,48.855 C15.054,48.167 15.065,47.353 15.468,46.677 C16.002,45.778 16.069,44.722 15.650,43.903 C15.221,43.065 14.514,42.378 13.657,41.963 C5.981,38.256 0.756,34.084 0.200,25.775 C0.157,25.149 0.376,24.526 0.800,24.068 C1.220,23.614 1.811,23.354 2.424,23.354 L3.307,23.354 C2.983,22.912 2.788,22.380 2.788,21.817 C2.788,20.972 3.196,20.177 3.878,19.690 L4.210,19.453 C4.484,19.259 4.581,18.894 4.440,18.586 L4.270,18.216 C3.919,17.447 3.958,16.553 4.376,15.821 C4.793,15.091 5.540,14.608 6.371,14.532 L6.775,14.495 C7.108,14.465 7.372,14.198 7.402,13.860 L7.439,13.451 C7.514,12.610 7.990,11.856 8.713,11.434 C9.436,11.013 10.321,10.972 11.079,11.327 L11.447,11.500 C11.543,11.545 11.636,11.553 11.724,11.549 C11.833,11.261 11.967,10.979 12.147,10.720 L17.557,2.955 C18.750,1.241 21.098,0.831 22.792,2.037 C23.609,2.619 24.154,3.492 24.326,4.495 C24.498,5.497 24.275,6.504 23.699,7.332 L20.744,11.574 C21.347,11.993 21.769,12.654 21.841,13.452 L21.877,13.860 C21.900,14.113 22.054,14.326 22.269,14.429 C22.352,14.211 22.416,14.007 22.429,13.860 L22.466,13.451 C22.541,12.610 23.017,11.855 23.741,11.433 C24.466,11.012 25.349,10.970 26.107,11.327 L26.475,11.500 C26.778,11.642 27.139,11.543 27.332,11.267 L27.566,10.931 C28.046,10.241 28.832,9.829 29.667,9.829 C29.868,9.829 30.065,9.856 30.257,9.901 C30.339,4.736 34.514,0.557 39.641,0.557 C44.769,0.557 48.945,4.739 49.025,9.906 C52.426,11.405 54.667,14.816 54.667,18.605 C54.667,20.286 54.218,21.918 53.393,23.355 L53.575,23.355 C54.187,23.355 54.779,23.615 55.199,24.069 ZM22.165,6.238 C22.452,5.827 22.562,5.323 22.476,4.820 C22.391,4.319 22.119,3.882 21.711,3.591 C20.865,2.988 19.690,3.193 19.093,4.050 L13.683,11.816 C13.534,12.029 13.436,12.267 13.384,12.516 C13.350,12.681 13.346,12.845 13.354,13.006 C13.357,13.047 13.359,13.088 13.363,13.129 C13.382,13.290 13.414,13.449 13.471,13.599 C13.475,13.609 13.481,13.616 13.485,13.626 C13.542,13.767 13.619,13.899 13.708,14.024 C13.732,14.057 13.757,14.090 13.783,14.122 C13.886,14.245 13.998,14.362 14.133,14.458 C14.134,14.459 14.135,14.461 14.137,14.462 C14.545,14.753 15.045,14.862 15.540,14.778 C16.035,14.692 16.466,14.416 16.754,14.003 L18.500,11.498 C18.500,11.497 18.501,11.497 18.501,11.497 L22.165,6.238 ZM22.984,19.552 C22.948,19.415 22.924,19.275 22.910,19.133 C22.910,19.127 22.908,19.121 22.907,19.115 C22.867,18.672 22.938,18.214 23.135,17.785 L23.307,17.412 C23.353,17.311 23.372,17.203 23.369,17.097 C23.369,17.093 23.370,17.087 23.370,17.083 C23.365,16.987 23.333,16.893 23.288,16.803 C23.269,16.766 23.242,16.737 23.217,16.704 C23.179,16.653 23.138,16.604 23.087,16.566 C23.054,16.540 23.017,16.523 22.981,16.504 C22.906,16.467 22.829,16.430 22.740,16.422 L22.336,16.385 C21.100,16.272 20.120,15.282 20.007,14.030 L19.971,13.622 C19.950,13.388 19.829,13.217 19.672,13.112 L18.290,15.095 C17.715,15.922 16.852,16.473 15.861,16.647 C15.643,16.685 15.425,16.704 15.208,16.704 C15.192,16.704 15.177,16.701 15.161,16.701 C15.100,16.700 15.041,16.690 14.980,16.686 C14.817,16.676 14.657,16.658 14.498,16.627 C14.421,16.612 14.347,16.593 14.272,16.573 C14.122,16.534 13.977,16.485 13.833,16.427 C13.767,16.401 13.702,16.378 13.639,16.348 C13.438,16.253 13.240,16.145 13.055,16.013 C12.845,15.864 12.654,15.693 12.481,15.508 C12.431,15.452 12.393,15.389 12.345,15.331 C12.233,15.194 12.120,15.057 12.028,14.906 C11.975,14.821 11.941,14.729 11.895,14.639 C11.829,14.506 11.757,14.376 11.706,14.236 C11.663,14.116 11.638,13.992 11.606,13.869 C11.579,13.764 11.539,13.664 11.521,13.556 C11.518,13.539 11.520,13.522 11.517,13.505 C11.513,13.485 11.505,13.465 11.502,13.445 C11.213,13.423 10.928,13.349 10.660,13.224 L10.289,13.050 C10.083,12.953 9.849,12.964 9.653,13.079 C9.455,13.195 9.330,13.392 9.310,13.622 L9.273,14.031 C9.161,15.283 8.181,16.274 6.943,16.386 L6.540,16.423 C6.312,16.443 6.117,16.571 6.002,16.770 C5.888,16.970 5.877,17.206 5.974,17.416 L6.144,17.786 C6.666,18.930 6.307,20.284 5.290,21.007 L4.960,21.242 C4.773,21.376 4.666,21.584 4.666,21.816 C4.666,22.048 4.773,22.256 4.960,22.389 L5.292,22.625 C5.565,22.820 5.797,23.070 5.977,23.355 L23.303,23.355 C23.312,23.340 23.326,23.326 23.337,23.311 C23.398,23.219 23.466,23.133 23.538,23.050 C23.569,23.014 23.596,22.974 23.630,22.939 C23.739,22.825 23.857,22.718 23.986,22.626 L24.307,22.398 L24.319,22.390 C24.386,22.342 24.429,22.277 24.474,22.212 C24.493,22.185 24.523,22.168 24.537,22.140 C24.588,22.042 24.614,21.933 24.614,21.817 C24.614,21.586 24.507,21.378 24.319,21.240 L24.215,21.166 L23.987,21.004 C23.479,20.643 23.136,20.124 22.984,19.552 ZM30.468,12.362 L30.234,12.025 C29.972,11.650 29.365,11.647 29.101,12.026 L28.868,12.362 C28.153,13.387 26.814,13.751 25.687,13.225 L25.317,13.051 C25.111,12.952 24.878,12.965 24.681,13.080 C24.482,13.195 24.357,13.393 24.337,13.623 L24.300,14.032 C24.272,14.345 24.189,14.662 24.092,14.951 C24.134,14.979 24.164,15.021 24.205,15.052 C24.340,15.153 24.469,15.263 24.583,15.391 C24.637,15.452 24.681,15.522 24.730,15.588 C24.789,15.668 24.856,15.739 24.906,15.826 C24.932,15.873 24.945,15.926 24.968,15.974 C24.986,16.009 25.014,16.037 25.030,16.074 C25.056,16.135 25.068,16.201 25.090,16.264 C25.116,16.340 25.143,16.414 25.162,16.492 C25.192,16.611 25.208,16.733 25.222,16.856 C25.229,16.927 25.240,16.997 25.242,17.068 C25.245,17.205 25.231,17.341 25.212,17.478 C25.205,17.536 25.205,17.594 25.192,17.652 C25.153,17.845 25.096,18.036 25.012,18.219 L24.840,18.592 C24.700,18.898 24.796,19.262 25.069,19.456 L25.402,19.694 C25.673,19.888 25.887,20.139 26.063,20.414 C26.219,20.657 26.350,20.916 26.418,21.199 C26.440,21.285 26.438,21.375 26.450,21.463 C26.466,21.581 26.492,21.697 26.492,21.819 L26.492,21.821 C26.491,22.008 26.465,22.191 26.426,22.371 C26.416,22.414 26.407,22.457 26.395,22.501 C26.347,22.677 26.287,22.850 26.204,23.013 C26.201,23.017 26.198,23.021 26.196,23.026 C26.135,23.140 26.070,23.251 25.994,23.356 L38.330,23.356 C38.348,23.327 38.372,23.303 38.391,23.276 C38.440,23.203 38.495,23.134 38.552,23.067 C38.590,23.021 38.626,22.973 38.667,22.930 C38.771,22.822 38.883,22.722 39.005,22.634 C39.009,22.631 39.011,22.628 39.014,22.626 L39.348,22.389 C39.534,22.256 39.641,22.048 39.641,21.817 C39.641,21.586 39.534,21.377 39.348,21.242 L39.015,21.004 C38.902,20.924 38.800,20.834 38.704,20.738 C38.653,20.688 38.609,20.633 38.563,20.580 C38.527,20.537 38.491,20.496 38.458,20.452 C38.397,20.371 38.343,20.288 38.292,20.202 C38.287,20.193 38.281,20.182 38.275,20.173 C37.879,19.475 37.810,18.614 38.144,17.839 C38.151,17.822 38.153,17.806 38.161,17.789 L38.334,17.413 C38.429,17.205 38.419,16.970 38.305,16.770 C38.191,16.570 37.995,16.442 37.766,16.422 L37.363,16.385 C36.126,16.273 35.146,15.282 35.033,14.030 L34.997,13.622 C34.977,13.391 34.851,13.194 34.654,13.078 C34.458,12.963 34.225,12.952 34.017,13.049 L33.650,13.222 C33.520,13.283 33.387,13.329 33.252,13.367 C33.176,13.387 33.100,13.398 33.023,13.412 C32.969,13.422 32.916,13.434 32.863,13.440 C32.749,13.453 32.635,13.455 32.521,13.453 C32.512,13.453 32.503,13.453 32.494,13.453 C31.706,13.429 30.947,13.048 30.468,12.362 ZM39.641,2.457 C35.497,2.457 32.127,5.866 32.127,10.056 C32.127,10.516 32.174,10.991 32.265,11.471 C32.355,11.522 32.453,11.549 32.552,11.556 C32.558,11.556 32.562,11.557 32.568,11.557 C32.669,11.561 32.768,11.544 32.862,11.500 L33.228,11.328 C33.410,11.243 33.597,11.185 33.789,11.145 C33.855,11.131 33.921,11.131 33.988,11.123 C34.095,11.109 34.201,11.088 34.309,11.088 C34.327,11.088 34.345,11.095 34.363,11.095 C34.506,11.098 34.645,11.124 34.785,11.151 C34.856,11.165 34.926,11.167 34.996,11.186 C35.202,11.244 35.404,11.325 35.594,11.436 C35.878,11.603 36.111,11.830 36.309,12.084 L37.649,10.729 C38.016,10.357 38.610,10.357 38.977,10.729 C39.344,11.100 39.344,11.700 38.977,12.072 L36.970,14.101 C37.073,14.319 37.284,14.474 37.533,14.497 L37.937,14.534 C38.768,14.610 39.514,15.092 39.932,15.823 C40.027,15.988 40.096,16.164 40.151,16.343 C40.168,16.395 40.178,16.448 40.191,16.501 C40.223,16.634 40.246,16.768 40.257,16.905 C40.262,16.961 40.268,17.015 40.269,17.071 C40.273,17.245 40.263,17.419 40.232,17.591 C40.230,17.603 40.230,17.614 40.228,17.627 L40.228,17.628 C40.252,17.626 40.277,17.626 40.300,17.624 C40.422,17.613 40.543,17.595 40.664,17.577 C40.782,17.560 40.901,17.546 41.019,17.524 C41.132,17.502 41.243,17.474 41.355,17.447 C41.476,17.419 41.598,17.392 41.717,17.357 C41.821,17.327 41.921,17.291 42.024,17.255 C42.146,17.215 42.268,17.174 42.387,17.126 C42.482,17.089 42.574,17.045 42.667,17.004 C42.788,16.950 42.910,16.895 43.029,16.835 C43.113,16.791 43.196,16.742 43.279,16.696 C43.400,16.627 43.521,16.560 43.638,16.485 C43.713,16.438 43.785,16.386 43.857,16.336 C43.977,16.252 44.097,16.169 44.212,16.079 C44.275,16.031 44.335,15.979 44.396,15.927 C44.515,15.828 44.634,15.728 44.746,15.622 C44.797,15.573 44.845,15.524 44.894,15.474 C45.012,15.357 45.129,15.238 45.239,15.112 C45.276,15.070 45.312,15.025 45.348,14.981 C45.465,14.844 45.579,14.703 45.685,14.557 C45.709,14.523 45.733,14.487 45.757,14.452 C45.871,14.292 45.980,14.126 46.080,13.956 C46.093,13.934 46.105,13.911 46.119,13.888 C46.227,13.701 46.328,13.511 46.420,13.314 C46.424,13.306 46.428,13.297 46.431,13.289 C46.830,12.433 47.076,11.490 47.131,10.491 C47.131,10.487 47.134,10.482 47.134,10.482 C47.142,10.340 47.155,10.200 47.155,10.056 C47.155,5.866 43.784,2.457 39.641,2.457 ZM48.846,11.928 C48.748,12.420 48.604,12.895 48.434,13.358 C48.419,13.400 48.404,13.443 48.388,13.485 C48.313,13.681 48.231,13.872 48.144,14.061 C48.112,14.130 48.079,14.198 48.046,14.266 C47.961,14.438 47.874,14.608 47.779,14.774 C47.734,14.854 47.685,14.931 47.638,15.009 C47.544,15.163 47.450,15.318 47.348,15.467 C47.291,15.550 47.228,15.628 47.169,15.709 C47.001,15.938 46.824,16.157 46.637,16.369 C46.538,16.481 46.442,16.595 46.337,16.703 C46.246,16.796 46.150,16.884 46.056,16.973 C45.945,17.078 45.835,17.182 45.719,17.282 C45.623,17.366 45.523,17.444 45.423,17.524 C45.301,17.621 45.176,17.716 45.049,17.807 C44.948,17.880 44.847,17.950 44.744,18.018 C44.605,18.110 44.462,18.196 44.318,18.280 C44.221,18.338 44.123,18.397 44.022,18.451 C43.843,18.548 43.658,18.636 43.472,18.720 C43.402,18.752 43.335,18.789 43.263,18.819 C43.007,18.928 42.745,19.024 42.477,19.111 C42.393,19.138 42.306,19.158 42.221,19.183 C42.030,19.238 41.838,19.291 41.642,19.334 C41.536,19.358 41.428,19.376 41.321,19.396 C41.140,19.429 40.957,19.457 40.772,19.480 C40.660,19.494 40.547,19.506 40.435,19.515 C40.360,19.521 40.288,19.533 40.213,19.538 L40.429,19.693 C41.111,20.177 41.519,20.971 41.519,21.817 C41.519,22.005 41.491,22.188 41.453,22.369 C41.443,22.414 41.433,22.458 41.421,22.502 C41.373,22.677 41.314,22.850 41.231,23.012 C41.228,23.017 41.225,23.021 41.222,23.026 C41.163,23.140 41.097,23.250 41.021,23.355 L44.337,23.355 L44.337,19.555 C44.337,19.030 44.757,18.605 45.276,18.605 C45.796,18.605 46.215,19.030 46.215,19.555 L46.215,23.355 L51.129,23.355 C52.203,22.005 52.790,20.334 52.790,18.605 C52.790,15.793 51.245,13.240 48.846,11.928 ZM51.563,25.255 L38.988,25.255 L38.929,25.255 L23.902,25.255 L5.379,25.255 L2.425,25.255 C2.302,25.255 2.220,25.314 2.173,25.366 C2.133,25.410 2.065,25.506 2.074,25.648 C2.570,33.062 7.184,36.731 14.467,40.248 C15.690,40.838 16.703,41.826 17.318,43.029 C18.035,44.430 17.946,46.196 17.086,47.639 C17.012,47.764 17.039,47.859 17.073,47.919 C17.107,47.980 17.174,48.052 17.298,48.052 L38.700,48.052 C38.825,48.052 38.891,47.979 38.924,47.919 C38.959,47.859 38.986,47.764 38.922,47.656 C38.053,46.197 37.964,44.431 38.680,43.031 C39.296,41.827 40.309,40.840 41.533,40.249 C48.815,36.731 53.428,33.062 53.925,25.648 C53.936,25.505 53.868,25.410 53.828,25.366 C53.780,25.314 53.698,25.255 53.576,25.255 L51.563,25.255 ZM34.945,46.152 L20.857,46.152 C20.339,46.152 19.918,45.728 19.918,45.202 C19.918,44.677 20.339,44.253 20.857,44.253 L34.945,44.253 C35.463,44.253 35.884,44.677 35.884,45.202 C35.884,45.728 35.463,46.152 34.945,46.152 ZM47.155,18.605 C46.635,18.605 46.215,18.181 46.215,17.655 C46.215,17.130 46.635,16.705 47.155,16.705 L50.911,16.705 C51.431,16.705 51.851,17.130 51.851,17.655 C51.851,18.181 51.431,18.605 50.911,18.605 L47.155,18.605 ZM41.633,9.385 C41.450,9.570 41.209,9.663 40.969,9.663 C40.729,9.663 40.488,9.570 40.305,9.385 C39.938,9.013 39.938,8.413 40.305,8.041 L42.962,5.355 C43.329,4.984 43.923,4.984 44.290,5.355 C44.657,5.726 44.656,6.327 44.290,6.698 L41.633,9.385 ZM41.632,10.728 L44.289,13.414 C44.655,13.785 44.656,14.386 44.289,14.757 C44.106,14.942 43.866,15.035 43.625,15.035 C43.385,15.035 43.144,14.942 42.961,14.757 L40.304,12.071 C39.937,11.699 39.937,11.099 40.304,10.728 C40.671,10.356 41.265,10.356 41.632,10.728 ZM38.313,9.663 C38.073,9.663 37.832,9.570 37.649,9.385 L34.992,6.698 C34.625,6.327 34.625,5.726 34.992,5.355 C35.359,4.984 35.953,4.984 36.320,5.355 L38.977,8.041 C39.344,8.413 39.344,9.013 38.977,9.385 C38.794,9.570 38.553,9.663 38.313,9.663 ZM33.731,17.934 L34.670,18.884 C35.037,19.255 35.037,19.855 34.670,20.227 C34.487,20.412 34.246,20.505 34.006,20.505 C33.765,20.505 33.525,20.412 33.342,20.227 L32.403,19.277 C32.035,18.905 32.035,18.305 32.403,17.934 C32.770,17.562 33.364,17.562 33.731,17.934 ZM29.974,22.127 C29.791,22.312 29.550,22.405 29.310,22.405 C29.070,22.405 28.829,22.312 28.646,22.127 C28.279,21.755 28.279,21.155 28.646,20.783 L29.585,19.833 C29.951,19.462 30.546,19.462 30.913,19.833 C31.280,20.205 31.280,20.805 30.913,21.177 L29.974,22.127 ZM29.504,17.852 C29.321,18.037 29.081,18.130 28.840,18.130 C28.600,18.130 28.360,18.037 28.176,17.852 C27.809,17.481 27.809,16.880 28.176,16.509 L29.585,15.084 C29.952,14.713 30.546,14.713 30.913,15.084 C31.280,15.455 31.280,16.056 30.913,16.427 L29.504,17.852 Z" class="cls-7"/>
  </g>
</svg>
