<svg xmlns="http://www.w3.org/2000/svg" xmlns:xlink="http://www.w3.org/1999/xlink" preserveAspectRatio="xMidYMid" width="61" height="60" viewBox="0 0 61 60">
  <defs>
    <style>
      .cls-1 {
        fill: #fff;
      }

      .cls-1, .cls-2, .cls-3, .cls-4, .cls-5 {
        fill-rule: evenodd;
      }

      .cls-2 {
        fill: #c7e5ee;
      }

      .cls-3 {
        fill: #ffc;
      }

      .cls-4, .cls-5 {
        fill: #4c6897;
      }

      .cls-4 {
        stroke: #fff;
        stroke-linejoin: round;
        stroke-width: 1px;
      }
    </style>
  </defs>
  <g>
    <path d="M6.373,1.525 L53.151,1.525 C55.929,1.525 58.181,3.767 58.181,6.532 L58.181,32.065 C58.181,34.830 55.929,37.072 53.151,37.072 L6.373,37.072 C3.595,37.072 1.343,34.830 1.343,32.065 L1.343,6.532 C1.343,3.767 3.595,1.525 6.373,1.525 Z" class="cls-1"/>
    <path d="M44.098,57.849 L47.870,50.590 L54.409,57.098 L58.684,52.593 L52.648,46.835 L58.936,42.830 L36.553,34.318 L34.289,34.569 L44.098,57.849 Z" class="cls-1"/>
    <path d="M19.954,36.071 L4.864,36.071 C4.864,36.071 2.474,38.949 2.349,31.064 C2.223,23.179 2.349,4.529 2.349,4.529 C2.349,4.529 3.732,2.401 6.373,2.026 C9.013,1.650 55.163,1.525 55.163,1.525 C55.163,1.525 57.301,2.151 57.678,4.529 C58.056,6.907 58.181,33.067 58.181,33.067 C58.181,33.067 57.301,36.947 55.163,36.571 C53.026,36.196 19.954,36.071 19.954,36.071 Z" class="cls-2"/>
    <path d="M36.553,36.571 C36.553,36.571 42.463,56.973 43.595,57.098 C44.726,57.224 47.618,52.092 47.618,52.092 L54.660,57.098 L58.181,54.595 L52.648,46.585 L58.684,43.080 L38.565,35.069 L36.553,36.571 Z" class="cls-3"/>
    <path d="M23.182,20.758 L23.182,21.161 C23.182,24.154 21.505,25.229 19.328,25.229 L15.242,25.229 C14.567,25.229 14.143,24.864 14.143,24.461 L14.143,11.989 C14.143,11.471 14.683,11.202 15.242,11.202 L18.961,11.202 C20.966,11.202 22.835,11.854 22.835,14.579 C22.835,16.153 22.218,17.189 21.197,17.630 C22.373,18.091 23.182,18.839 23.182,20.758 ZM18.769,13.389 L16.630,13.389 L16.630,16.651 L18.788,16.651 C19.829,16.651 20.330,15.980 20.330,15.001 C20.330,14.003 19.752,13.389 18.769,13.389 ZM20.677,20.643 C20.677,19.146 19.983,18.609 18.807,18.609 L16.630,18.609 L16.630,23.041 L18.807,23.041 C19.983,23.041 20.677,22.408 20.677,20.950 L20.677,20.643 ZM54.945,37.504 L51.445,37.504 C50.801,37.504 50.280,36.985 50.280,36.344 C50.280,35.703 50.801,35.183 51.445,35.183 L54.945,35.183 C56.206,35.183 57.233,34.162 57.233,32.906 L57.233,5.104 C57.233,3.848 56.206,2.826 54.945,2.826 L5.352,2.826 C4.091,2.826 3.065,3.848 3.065,5.104 L3.065,32.906 C3.065,34.162 4.091,35.183 5.352,35.183 L26.835,35.183 C26.853,35.183 26.868,35.193 26.885,35.194 L30.697,35.194 C31.341,35.194 31.863,35.713 31.863,36.354 C31.863,36.995 31.341,37.514 30.697,37.514 L26.040,37.514 C26.022,37.514 26.007,37.505 25.989,37.504 L5.352,37.504 C2.806,37.504 0.734,35.441 0.734,32.906 L0.734,5.104 C0.734,2.568 2.806,0.505 5.352,0.505 L54.945,0.505 C57.492,0.505 59.564,2.568 59.564,5.104 L59.564,32.906 C59.564,35.441 57.492,37.504 54.945,37.504 ZM30.928,40.583 C31.383,40.130 32.121,40.130 32.576,40.583 C33.032,41.036 33.032,41.771 32.576,42.224 L29.283,45.504 C29.055,45.730 28.757,45.844 28.459,45.844 C28.161,45.844 27.862,45.730 27.635,45.504 C27.180,45.051 27.180,44.316 27.635,43.863 L30.928,40.583 ZM32.914,11.202 C33.531,11.202 34.167,11.432 34.167,11.969 L34.167,20.950 C34.167,24.154 32.124,25.344 29.542,25.344 C26.940,25.344 24.916,24.154 24.916,20.950 L24.916,11.969 C24.916,11.432 25.533,11.202 26.169,11.202 C26.786,11.202 27.422,11.432 27.422,11.969 L27.422,20.950 C27.422,22.447 28.212,23.157 29.542,23.157 C30.871,23.157 31.662,22.447 31.662,20.950 L31.662,11.969 C31.662,11.432 32.278,11.202 32.914,11.202 ZM28.986,29.732 C28.531,29.279 28.531,28.544 28.986,28.091 C29.442,27.638 30.180,27.638 30.635,28.091 L33.928,31.371 C34.383,31.824 34.383,32.559 33.928,33.012 C33.701,33.238 33.402,33.352 33.104,33.352 C32.806,33.352 32.507,33.238 32.280,33.012 L28.986,29.732 ZM47.170,26.053 C47.625,26.506 47.625,27.240 47.170,27.694 L43.877,30.973 C43.649,31.200 43.351,31.313 43.052,31.313 C42.754,31.313 42.456,31.200 42.228,30.973 C41.773,30.520 41.773,29.785 42.228,29.332 L45.522,26.053 C45.977,25.599 46.715,25.600 47.170,26.053 ZM38.551,25.057 L38.551,29.695 C38.551,30.336 38.029,30.855 37.385,30.855 C36.742,30.855 36.220,30.336 36.220,29.695 L36.220,25.057 C36.220,24.416 36.742,23.897 37.385,23.897 C38.029,23.897 38.551,24.416 38.551,25.057 ZM35.439,12.238 C35.439,11.624 36.422,11.202 37.096,11.202 C37.501,11.202 37.693,11.355 37.867,11.701 L40.796,17.246 L43.745,11.701 C43.918,11.375 44.092,11.202 44.496,11.202 C45.171,11.202 46.154,11.624 46.154,12.238 C46.154,12.296 46.154,12.392 46.096,12.488 L42.126,19.357 C42.087,19.415 42.049,19.511 42.049,19.607 L42.049,24.442 C42.049,24.960 41.432,25.229 40.796,25.229 C40.179,25.229 39.544,24.960 39.544,24.442 L39.544,19.607 C39.544,19.511 39.524,19.415 39.486,19.357 L35.496,12.488 C35.458,12.392 35.439,12.296 35.439,12.238 ZM39.428,33.990 L58.705,41.111 L58.705,41.111 C59.567,41.430 60.143,42.227 60.173,43.142 C60.203,44.057 59.679,44.889 58.840,45.262 L54.310,47.275 L58.534,51.482 C59.124,52.070 59.449,52.851 59.449,53.681 C59.449,54.512 59.124,55.293 58.534,55.881 L56.883,57.523 C55.665,58.736 53.684,58.735 52.466,57.523 L48.188,53.262 L46.215,57.772 C45.854,58.596 45.049,59.120 44.151,59.120 C44.130,59.120 44.108,59.119 44.087,59.119 C43.163,59.093 42.358,58.519 42.037,57.656 L34.904,38.493 C34.420,37.194 34.731,35.777 35.715,34.797 C36.700,33.817 38.122,33.508 39.428,33.990 ZM57.895,43.288 L58.300,42.199 L57.894,43.287 C57.895,43.287 57.895,43.287 57.895,43.288 ZM37.089,37.687 L44.155,56.668 L46.734,50.773 C46.888,50.421 47.207,50.168 47.586,50.097 C47.965,50.025 48.354,50.145 48.627,50.416 L54.115,55.882 C54.264,56.031 54.463,56.113 54.675,56.113 L54.675,56.113 C54.887,56.113 55.086,56.031 55.235,55.882 L56.886,54.239 C57.195,53.932 57.195,53.431 56.886,53.123 L51.464,47.724 C51.193,47.453 51.073,47.068 51.142,46.692 C51.212,46.316 51.463,45.999 51.813,45.843 L57.714,43.221 L38.617,36.166 C38.465,36.110 38.323,36.087 38.193,36.087 C37.758,36.087 37.461,36.342 37.363,36.439 C37.237,36.565 36.843,37.027 37.089,37.687 Z" class="cls-4"/>
    <path d="M58.840,45.262 L54.310,47.275 L58.534,51.482 C59.124,52.070 59.449,52.851 59.449,53.681 C59.449,54.512 59.124,55.293 58.534,55.881 L56.883,57.523 C55.665,58.736 53.684,58.735 52.466,57.523 L48.188,53.262 L46.215,57.772 C45.854,58.596 45.049,59.120 44.151,59.120 C44.130,59.120 44.108,59.119 44.087,59.119 C43.163,59.093 42.358,58.519 42.037,57.656 L34.904,38.493 C34.420,37.194 34.731,35.777 35.715,34.797 C36.700,33.817 38.122,33.508 39.428,33.990 L58.705,41.111 L58.705,41.111 C59.567,41.430 60.143,42.227 60.173,43.142 C60.203,44.057 59.679,44.889 58.840,45.262 ZM38.617,36.166 C38.465,36.110 38.323,36.087 38.193,36.087 C37.758,36.087 37.461,36.342 37.363,36.439 C37.237,36.565 36.843,37.027 37.089,37.687 L44.155,56.668 L46.734,50.773 C46.888,50.421 47.207,50.168 47.586,50.097 C47.965,50.025 48.354,50.145 48.627,50.416 L54.115,55.882 C54.264,56.031 54.463,56.113 54.675,56.113 L54.675,56.113 C54.887,56.113 55.086,56.031 55.235,55.882 L56.886,54.239 C57.195,53.932 57.195,53.431 56.886,53.123 L51.464,47.724 C51.193,47.453 51.073,47.068 51.142,46.692 C51.212,46.316 51.463,45.999 51.813,45.843 L57.714,43.221 L38.617,36.166 ZM57.894,43.287 C57.895,43.287 57.895,43.287 57.895,43.288 L58.300,42.199 L57.894,43.287 ZM43.877,30.973 C43.649,31.200 43.351,31.313 43.052,31.313 C42.754,31.313 42.456,31.200 42.228,30.973 C41.773,30.520 41.773,29.785 42.228,29.332 L45.522,26.053 C45.977,25.599 46.715,25.600 47.170,26.053 C47.625,26.506 47.625,27.240 47.170,27.694 L43.877,30.973 ZM37.385,30.855 C36.742,30.855 36.220,30.336 36.220,29.695 L36.220,25.057 C36.220,24.416 36.742,23.897 37.385,23.897 C38.029,23.897 38.551,24.416 38.551,25.057 L38.551,29.695 C38.551,30.336 38.029,30.855 37.385,30.855 ZM33.104,33.352 C32.806,33.352 32.507,33.238 32.280,33.012 L28.986,29.732 C28.531,29.279 28.531,28.544 28.986,28.091 C29.442,27.638 30.180,27.638 30.635,28.091 L33.928,31.371 C34.383,31.824 34.383,32.559 33.928,33.012 C33.701,33.238 33.402,33.352 33.104,33.352 ZM31.863,36.354 C31.863,36.995 31.341,37.514 30.697,37.514 L26.040,37.514 C25.396,37.514 24.874,36.995 24.874,36.354 C24.874,35.713 25.396,35.194 26.040,35.194 L30.697,35.194 C31.341,35.194 31.863,35.713 31.863,36.354 ZM30.928,40.583 C31.383,40.130 32.121,40.130 32.576,40.583 C33.032,41.036 33.032,41.771 32.576,42.224 L29.283,45.504 C29.055,45.730 28.757,45.844 28.459,45.844 C28.161,45.844 27.862,45.730 27.635,45.504 C27.180,45.051 27.180,44.316 27.635,43.863 L30.928,40.583 Z" class="cls-5"/>
    <path d="M46.096,12.488 L42.126,19.357 C42.087,19.415 42.049,19.511 42.049,19.607 L42.049,24.442 C42.049,24.960 41.432,25.229 40.796,25.229 C40.179,25.229 39.544,24.960 39.544,24.442 L39.544,19.607 C39.544,19.511 39.524,19.415 39.486,19.357 L35.496,12.488 C35.458,12.392 35.439,12.296 35.439,12.238 C35.439,11.624 36.422,11.202 37.096,11.202 C37.501,11.202 37.693,11.355 37.867,11.701 L40.796,17.246 L43.745,11.701 C43.918,11.375 44.092,11.202 44.496,11.202 C45.171,11.202 46.154,11.624 46.154,12.238 C46.154,12.296 46.154,12.392 46.096,12.488 ZM29.542,25.344 C26.940,25.344 24.916,24.154 24.916,20.950 L24.916,11.969 C24.916,11.432 25.533,11.202 26.169,11.202 C26.786,11.202 27.422,11.432 27.422,11.969 L27.422,20.950 C27.422,22.447 28.212,23.157 29.542,23.157 C30.871,23.157 31.662,22.447 31.662,20.950 L31.662,11.969 C31.662,11.432 32.278,11.202 32.914,11.202 C33.531,11.202 34.167,11.432 34.167,11.969 L34.167,20.950 C34.167,24.154 32.124,25.344 29.542,25.344 ZM19.328,25.229 L15.242,25.229 C14.567,25.229 14.143,24.864 14.143,24.461 L14.143,11.989 C14.143,11.471 14.683,11.202 15.242,11.202 L18.961,11.202 C20.966,11.202 22.835,11.854 22.835,14.579 C22.835,16.153 22.218,17.189 21.197,17.630 C22.373,18.091 23.182,18.839 23.182,20.758 L23.182,21.161 C23.182,24.154 21.505,25.229 19.328,25.229 ZM18.769,13.389 L16.630,13.389 L16.630,16.651 L18.788,16.651 C19.829,16.651 20.330,15.980 20.330,15.001 C20.330,14.003 19.752,13.389 18.769,13.389 ZM20.677,20.643 C20.677,19.146 19.983,18.609 18.807,18.609 L16.630,18.609 L16.630,23.041 L18.807,23.041 C19.983,23.041 20.677,22.408 20.677,20.950 L20.677,20.643 Z" class="cls-5"/>
  </g>
</svg>
