<svg xmlns="http://www.w3.org/2000/svg" xmlns:xlink="http://www.w3.org/1999/xlink" preserveAspectRatio="xMidYMid" width="59.998" height="59.998" viewBox="0 0 77 77">
  <defs>
    <style>
      .cls-1 {
        fill: #4c6897;
        stroke: #fff;
        stroke-linejoin: round;
        stroke-width: 1px;
        fill-rule: evenodd;
      }
    </style>
  </defs>
  <path d="M29.471,26.761 L29.471,27.275 C29.471,31.090 27.347,32.460 24.588,32.460 L19.412,32.460 C18.558,32.460 18.021,31.995 18.021,31.481 L18.021,15.584 C18.021,14.924 18.704,14.582 19.412,14.582 L24.124,14.582 C26.663,14.582 29.031,15.413 29.031,18.886 C29.031,20.891 28.250,22.212 26.956,22.775 C28.445,23.362 29.471,24.315 29.471,26.761 ZM23.880,17.370 L21.170,17.370 L21.170,21.527 L23.904,21.527 C25.223,21.527 25.857,20.671 25.857,19.424 C25.857,18.152 25.125,17.370 23.880,17.370 ZM26.297,26.614 C26.297,24.707 25.418,24.022 23.929,24.022 L21.170,24.022 L21.170,29.672 L23.929,29.672 C25.418,29.672 26.297,28.864 26.297,27.006 L26.297,26.614 ZM69.708,48.105 L65.274,48.105 C64.459,48.105 63.798,47.443 63.798,46.626 C63.798,45.809 64.459,45.147 65.274,45.147 L69.708,45.147 C71.306,45.147 72.606,43.845 72.606,42.244 L72.606,6.809 C72.606,5.208 71.306,3.906 69.708,3.906 L6.884,3.906 C5.286,3.906 3.986,5.208 3.986,6.809 L3.986,42.244 C3.986,43.845 5.286,45.147 6.884,45.147 L34.099,45.147 C34.121,45.147 34.140,45.159 34.162,45.160 L38.991,45.160 C39.806,45.160 40.468,45.822 40.468,46.639 C40.468,47.456 39.806,48.118 38.991,48.118 L33.091,48.118 C33.068,48.118 33.050,48.106 33.027,48.105 L6.884,48.105 C3.658,48.105 1.033,45.476 1.033,42.244 L1.033,6.809 C1.033,3.577 3.658,0.948 6.884,0.948 L69.708,0.948 C72.934,0.948 75.559,3.577 75.559,6.809 L75.559,42.244 C75.559,45.476 72.934,48.105 69.708,48.105 ZM39.284,52.029 C39.860,51.452 40.795,51.452 41.372,52.029 C41.948,52.607 41.948,53.543 41.372,54.121 L37.199,58.301 C36.911,58.589 36.533,58.734 36.155,58.734 C35.777,58.734 35.400,58.589 35.111,58.301 C34.535,57.723 34.535,56.786 35.111,56.209 L39.284,52.029 ZM41.799,14.582 C42.581,14.582 43.386,14.875 43.386,15.560 L43.386,27.006 C43.386,31.090 40.798,32.606 37.527,32.606 C34.231,32.606 31.668,31.090 31.668,27.006 L31.668,15.560 C31.668,14.875 32.449,14.582 33.255,14.582 C34.036,14.582 34.842,14.875 34.842,15.560 L34.842,27.006 C34.842,28.913 35.842,29.818 37.527,29.818 C39.211,29.818 40.212,28.913 40.212,27.006 L40.212,15.560 C40.212,14.875 40.994,14.582 41.799,14.582 ZM36.824,38.199 C36.247,37.622 36.247,36.685 36.824,36.108 C37.400,35.530 38.335,35.530 38.912,36.108 L43.084,40.287 C43.661,40.865 43.661,41.801 43.084,42.379 C42.796,42.668 42.418,42.812 42.040,42.812 C41.662,42.812 41.284,42.668 40.996,42.379 L36.824,38.199 ZM59.859,33.509 C60.435,34.087 60.435,35.023 59.859,35.601 L55.687,39.781 C55.398,40.069 55.020,40.214 54.642,40.214 C54.265,40.214 53.887,40.069 53.598,39.781 C53.022,39.203 53.022,38.267 53.598,37.689 L57.771,33.509 C58.347,32.932 59.282,32.932 59.859,33.509 ZM48.940,32.241 L48.940,38.151 C48.940,38.968 48.279,39.631 47.463,39.631 C46.648,39.631 45.987,38.968 45.987,38.151 L45.987,32.241 C45.987,31.424 46.648,30.762 47.463,30.762 C48.279,30.762 48.940,31.424 48.940,32.241 ZM44.997,15.902 C44.997,15.119 46.243,14.582 47.097,14.582 C47.610,14.582 47.854,14.777 48.073,15.217 L51.784,22.285 L55.520,15.217 C55.739,14.802 55.959,14.582 56.472,14.582 C57.326,14.582 58.571,15.119 58.571,15.902 C58.571,15.976 58.571,16.098 58.498,16.220 L53.469,24.976 C53.420,25.049 53.371,25.171 53.371,25.294 L53.371,31.457 C53.371,32.117 52.590,32.460 51.784,32.460 C51.003,32.460 50.197,32.117 50.197,31.457 L50.197,25.294 C50.197,25.171 50.173,25.049 50.124,24.976 L45.071,16.220 C45.022,16.098 44.997,15.976 44.997,15.902 ZM50.051,43.626 L74.471,52.702 L74.471,52.702 C75.563,53.108 76.293,54.124 76.331,55.290 C76.368,56.456 75.706,57.517 74.642,57.992 L68.904,60.559 L74.255,65.920 C75.002,66.669 75.414,67.665 75.413,68.723 C75.413,69.782 75.002,70.778 74.254,71.526 L72.164,73.620 C70.620,75.165 68.110,75.165 66.568,73.619 L61.148,68.188 L58.648,73.937 C58.192,74.988 57.172,75.654 56.034,75.654 C56.007,75.654 55.980,75.654 55.953,75.653 C54.783,75.621 53.763,74.889 53.356,73.789 L44.320,49.366 C43.707,47.709 44.101,45.904 45.348,44.655 C46.595,43.406 48.397,43.011 50.051,43.626 ZM73.445,55.476 L73.958,54.088 L73.444,55.475 C73.445,55.475 73.445,55.475 73.445,55.476 ZM47.088,48.338 L56.040,72.530 L59.307,65.017 C59.502,64.568 59.905,64.245 60.385,64.154 C60.865,64.064 61.359,64.216 61.704,64.562 L68.656,71.528 C68.846,71.718 69.098,71.822 69.366,71.822 L69.366,71.822 C69.634,71.822 69.886,71.718 70.076,71.528 L72.166,69.434 C72.558,69.042 72.558,68.404 72.167,68.012 L65.299,61.130 C64.955,60.785 64.803,60.294 64.891,59.815 C64.979,59.336 65.297,58.932 65.741,58.733 L73.216,55.391 L49.024,46.399 C48.831,46.328 48.651,46.299 48.487,46.299 C47.936,46.299 47.559,46.623 47.436,46.747 C47.275,46.907 46.777,47.496 47.088,48.338 Z" class="cls-1"/>
</svg>
