<svg xmlns="http://www.w3.org/2000/svg" xmlns:xlink="http://www.w3.org/1999/xlink" preserveAspectRatio="xMidYMid" width="53" height="60" viewBox="0 0 53 60">
  <defs>
    <style>
      .cls-1, .cls-2, .cls-3 {
        fill: #4c6897;
        fill-rule: evenodd;
      }

      .cls-1 {
        stroke: #fff;
        stroke-linejoin: round;
        stroke-width: 1px;
      }

      .cls-2 {
        stroke: #4c6897;
        stroke-width: 2px;
      }
    </style>
  </defs>
  <g>
    <path d="M51.601,50.883 C51.589,50.861 51.576,50.839 51.563,50.817 C51.386,50.533 35.439,24.897 35.429,24.881 C34.867,23.977 34.570,22.939 34.570,21.878 L34.570,9.727 C34.769,5.881 37.304,0.723 33.417,0.723 L19.586,0.723 C15.578,0.843 18.113,5.520 18.433,9.727 L18.433,21.878 C18.433,22.939 18.136,23.977 17.575,24.881 L1.441,50.817 C1.427,50.839 1.415,50.861 1.403,50.883 C0.449,52.672 0.507,54.774 1.559,56.508 C2.611,58.242 4.457,59.277 6.497,59.277 L46.507,59.277 C48.546,59.277 50.392,58.242 51.444,56.508 C52.496,54.775 52.555,52.672 51.601,50.883 ZM19.537,26.082 C20.323,24.816 20.739,23.363 20.739,21.878 L20.739,9.872 C20.739,9.872 20.333,7.468 19.586,3.010 L33.417,3.010 C32.187,8.673 32.265,9.872 32.265,9.872 L32.265,21.878 C32.265,23.363 32.680,24.816 33.467,26.082 L37.551,32.648 C36.233,32.773 34.945,33.347 33.851,34.337 C32.197,35.833 30.143,35.833 28.489,34.337 C25.956,32.045 22.553,32.045 20.020,34.337 C18.366,35.833 16.311,35.833 14.659,34.338 C14.604,34.288 14.547,34.241 14.491,34.193 L19.537,26.082 ZM49.469,55.328 C48.838,56.369 47.730,56.990 46.507,56.990 L6.497,56.990 C5.273,56.990 4.165,56.369 3.534,55.328 C2.909,54.298 2.868,53.051 3.424,51.984 L13.264,36.165 C14.495,37.218 15.916,37.746 17.338,37.746 C18.822,37.746 20.307,37.172 21.573,36.027 C23.227,34.531 25.282,34.531 26.935,36.027 C29.468,38.319 32.871,38.319 35.404,36.027 C36.510,35.026 37.788,34.684 39.038,35.039 L49.580,51.984 C50.135,53.051 50.095,54.298 49.469,55.328 Z" class="cls-1"/>
    <path d="M18.877,10.843 L24.685,10.843 " class="cls-2"/>
    <path d="M18.877,15.181 L24.685,15.181 " class="cls-2"/>
    <path d="M18.877,19.518 L24.685,19.518 " class="cls-2"/>
  </g>
  <path d="M47.712,54.940 L47.712,52.435 L46.060,54.938 L45.297,54.938 L43.786,52.423 L43.786,52.419 L42.854,52.419 L42.854,51.325 L43.786,51.325 L43.786,51.328 L44.097,51.328 L45.763,54.050 L47.429,51.328 L47.712,51.328 L47.712,51.325 L48.644,51.325 L48.644,54.940 L47.712,54.940 ZM36.825,51.549 C37.027,51.371 37.403,51.325 37.403,51.325 L42.105,51.325 L42.105,52.243 L36.556,52.243 C36.556,52.243 36.604,51.745 36.825,51.549 ZM42.077,53.550 L37.375,53.550 L37.375,53.577 C37.375,53.961 37.663,54.050 38.053,54.050 L42.091,54.050 L42.091,54.940 L37.657,54.940 C37.033,54.940 36.527,54.442 36.527,53.828 L36.527,53.550 L36.527,52.938 L36.527,52.799 L42.077,52.799 L42.077,53.550 ZM34.833,53.550 L30.963,53.550 L30.963,54.940 L30.031,54.940 L30.031,51.325 L30.963,51.325 L30.963,52.799 L34.833,52.799 L34.833,51.325 L35.765,51.325 L35.765,54.940 L34.833,54.940 L34.833,53.550 ZM23.705,53.828 L23.705,52.437 C23.705,51.823 24.211,51.325 24.835,51.325 L29.269,51.325 L29.269,52.243 L25.230,52.243 C24.840,52.243 24.552,52.304 24.552,52.688 L24.552,53.577 C24.552,53.961 24.840,54.050 25.230,54.050 L29.269,54.050 L29.269,54.940 L24.835,54.940 C24.211,54.940 23.705,54.442 23.705,53.828 ZM17.322,53.828 L17.322,51.353 L18.169,51.353 L18.169,53.577 C18.169,53.961 18.457,54.050 18.847,54.050 L22.886,54.050 L22.886,54.940 L18.452,54.940 C17.828,54.940 17.322,54.442 17.322,53.828 ZM15.429,54.940 L11.956,54.940 C11.332,54.940 10.826,54.442 10.826,53.828 L10.826,52.437 C10.826,51.823 11.332,51.325 11.956,51.325 L15.429,51.325 C16.053,51.325 16.559,51.823 16.559,52.437 L16.559,53.828 C16.559,54.442 16.053,54.940 15.429,54.940 ZM15.684,52.827 C15.684,52.443 15.367,52.243 14.978,52.243 L12.238,52.243 C11.848,52.243 11.730,52.401 11.730,52.938 L11.730,53.605 C11.730,53.989 11.933,54.050 12.323,54.050 L14.978,54.050 C15.367,54.050 15.684,54.003 15.684,53.619 L15.684,52.827 ZM9.339,54.938 L4.357,54.938 L4.365,52.689 L5.336,52.689 L5.336,54.025 L8.763,54.025 C9.190,54.025 9.451,53.938 9.451,53.518 L9.451,52.774 C9.451,52.353 9.190,52.266 8.763,52.266 L4.357,52.266 L4.357,51.328 L9.339,51.328 C9.908,51.328 10.370,51.782 10.370,52.342 L10.370,53.924 C10.370,54.484 9.908,54.938 9.339,54.938 ZM43.786,54.940 L42.854,54.940 L42.854,52.799 L43.786,52.799 L43.786,54.940 Z" class="cls-3"/>
</svg>
