<svg xmlns="http://www.w3.org/2000/svg" xmlns:xlink="http://www.w3.org/1999/xlink" preserveAspectRatio="xMidYMid" width="71" height="81" viewBox="0 0 71 81">
  <defs>
    <style>
      .cls-1 {
        fill: #4c6897;
      }

      .cls-1, .cls-2, .cls-3, .cls-4 {
        fill-rule: evenodd;
      }

      .cls-2 {
        fill: #aa67b5;
      }

      .cls-3 {
        stroke: #aa67b5;
        stroke-width: 3px;
        fill: none;
      }

      .cls-4 {
        fill: #fff;
      }
    </style>
  </defs>
  <g>
    <path d="M17.000,46.000 C17.000,46.000 17.687,49.952 22.000,50.000 C26.312,50.048 29.687,44.952 32.000,45.000 C34.312,45.048 40.354,50.285 43.000,50.000 C45.646,49.715 49.354,46.285 52.000,46.000 C54.646,45.715 61.000,56.000 61.000,56.000 C61.000,56.000 70.021,70.285 70.000,73.000 C69.979,75.715 68.021,78.952 65.000,80.000 C61.979,81.048 38.000,80.000 38.000,80.000 L9.000,80.000 C9.000,80.000 -0.313,80.285 2.000,71.000 C4.312,61.715 17.000,46.000 17.000,46.000 Z" class="cls-1"/>
    <path d="M70.073,69.388 C70.056,69.357 70.039,69.327 70.021,69.297 C69.777,68.904 47.812,33.441 47.798,33.419 C47.024,32.168 46.615,30.732 46.615,29.264 L46.615,12.456 C48.190,5.169 49.356,-0.000 45.028,-0.000 L25.977,-0.000 C20.848,1.000 23.215,5.169 24.389,12.456 L24.389,29.264 C24.389,30.732 23.980,32.168 23.207,33.418 L0.984,69.297 C0.966,69.327 0.948,69.357 0.932,69.388 C-0.382,71.862 -0.301,74.771 1.148,77.170 C2.597,79.568 5.139,81.000 7.949,81.000 L63.056,81.000 C65.865,81.000 68.408,79.568 69.857,77.170 C71.306,74.771 71.387,71.862 70.073,69.388 ZM25.909,35.080 C26.992,33.329 27.565,31.318 27.565,29.264 L27.565,12.656 C27.565,12.656 25.672,8.764 25.977,3.164 L45.028,3.164 C44.532,9.564 43.440,12.656 43.440,12.656 L43.440,29.264 C43.440,31.318 44.013,33.329 45.096,35.080 L50.721,44.163 C48.905,44.336 47.131,45.130 45.625,46.499 C43.347,48.569 40.517,48.569 38.239,46.499 C34.751,43.329 30.063,43.329 26.574,46.499 C24.296,48.569 21.466,48.569 19.190,46.501 C19.114,46.432 19.037,46.366 18.959,46.300 L25.909,35.080 ZM67.137,75.538 C66.268,76.977 64.742,77.836 63.056,77.836 L7.949,77.836 C6.263,77.836 4.737,76.977 3.868,75.538 C3.006,74.112 2.951,72.387 3.716,70.911 L17.269,49.029 C18.964,50.485 20.922,51.215 22.881,51.215 C24.925,51.215 26.970,50.422 28.714,48.837 C30.992,46.767 33.822,46.767 36.099,48.837 C39.588,52.008 44.276,52.007 47.764,48.837 C49.287,47.453 51.047,46.979 52.770,47.471 L67.289,70.912 C68.054,72.387 67.998,74.112 67.137,75.538 Z" class="cls-2"/>
    <path d="M26.000,14.000 L34.000,14.000 " class="cls-3"/>
    <path d="M26.000,20.000 L34.000,20.000 " class="cls-3"/>
    <path d="M26.000,26.000 L34.000,26.000 " class="cls-3"/>
  </g>
  <path d="M63.737,76.000 L63.737,72.536 L61.499,75.998 L60.466,75.998 L58.419,72.519 L58.419,72.513 L57.156,72.513 L57.156,71.000 L58.419,71.000 L58.419,71.004 L58.840,71.004 L61.097,74.769 L63.355,71.004 L63.737,71.004 L63.737,71.000 L65.000,71.000 L65.000,76.000 L63.737,76.000 ZM48.989,71.310 C49.261,71.063 49.771,71.000 49.771,71.000 L56.142,71.000 L56.142,72.269 L48.623,72.269 C48.623,72.269 48.689,71.581 48.989,71.310 ZM56.104,74.077 L49.733,74.077 L49.733,74.115 C49.733,74.646 50.123,74.769 50.651,74.769 L56.123,74.769 L56.123,76.000 L50.115,76.000 C49.270,76.000 48.585,75.311 48.585,74.462 L48.585,74.077 L48.585,73.231 L48.585,73.038 L56.104,73.038 L56.104,74.077 ZM46.289,74.077 L41.047,74.077 L41.047,76.000 L39.784,76.000 L39.784,71.000 L41.047,71.000 L41.047,73.038 L46.289,73.038 L46.289,71.000 L47.552,71.000 L47.552,76.000 L46.289,76.000 L46.289,74.077 ZM31.213,74.462 L31.213,72.538 C31.213,71.689 31.898,71.000 32.744,71.000 L38.751,71.000 L38.751,72.269 L33.279,72.269 C32.751,72.269 32.361,72.354 32.361,72.885 L32.361,74.115 C32.361,74.646 32.751,74.769 33.279,74.769 L38.751,74.769 L38.751,76.000 L32.744,76.000 C31.898,76.000 31.213,75.311 31.213,74.462 ZM22.566,74.462 L22.566,71.038 L23.713,71.038 L23.713,74.115 C23.713,74.646 24.103,74.769 24.632,74.769 L30.104,74.769 L30.104,76.000 L24.096,76.000 C23.251,76.000 22.566,75.311 22.566,74.462 ZM20.002,76.000 L15.295,76.000 C14.450,76.000 13.765,75.311 13.765,74.462 L13.765,72.538 C13.765,71.689 14.450,71.000 15.295,71.000 L20.002,71.000 C20.847,71.000 21.532,71.689 21.532,72.538 L21.532,74.462 C21.532,75.311 20.847,76.000 20.002,76.000 ZM20.346,73.077 C20.346,72.546 19.918,72.269 19.390,72.269 L15.678,72.269 C15.150,72.269 14.989,72.488 14.989,73.231 L14.989,74.154 C14.989,74.685 15.265,74.769 15.793,74.769 L19.390,74.769 C19.918,74.769 20.346,74.704 20.346,74.173 L20.346,73.077 ZM11.750,75.998 L5.001,75.998 L5.012,72.886 L6.327,72.886 L6.327,74.735 L10.971,74.735 C11.549,74.735 11.902,74.614 11.902,74.033 L11.902,73.003 C11.902,72.422 11.549,72.301 10.971,72.301 L5.001,72.301 L5.001,71.003 L11.750,71.003 C12.522,71.003 13.147,71.632 13.147,72.407 L13.147,74.594 C13.147,75.370 12.522,75.998 11.750,75.998 ZM58.419,76.000 L57.156,76.000 L57.156,73.038 L58.419,73.038 L58.419,76.000 Z" class="cls-4"/>
</svg>
