<svg xmlns="http://www.w3.org/2000/svg" xmlns:xlink="http://www.w3.org/1999/xlink" preserveAspectRatio="xMidYMid" width="70" height="60" viewBox="0 0 70 60">
  <defs>
    <style>
      .cls-1 {
        fill: #ffc;
      }

      .cls-1, .cls-2, .cls-3, .cls-4, .cls-5, .cls-6 {
        fill-rule: evenodd;
      }

      .cls-2 {
        fill: #fcf0be;
      }

      .cls-3 {
        fill: #fbdeac;
      }

      .cls-4 {
        fill: #f3b87f;
      }

      .cls-5 {
        fill: #fafa8e;
      }

      .cls-6 {
        fill: #c63;
      }
    </style>
  </defs>
  <g>
    <path d="M10.134,0.538 L38.272,0.538 L38.272,26.436 L10.134,26.436 L10.134,0.538 Z" class="cls-1"/>
    <path d="M38.926,10.248 L64.447,10.248 L64.447,33.564 L38.926,33.564 L38.926,10.248 Z" class="cls-2"/>
    <path d="M1.627,26.436 L38.272,26.436 L38.272,58.812 L1.627,58.812 L1.627,26.436 Z" class="cls-3"/>
    <path d="M38.926,33.564 L68.373,33.564 L68.373,59.462 L38.926,59.462 L38.926,33.564 Z" class="cls-4"/>
    <path d="M20.607,0.546 L20.607,10.256 L28.458,10.256 L27.804,0.546 L20.607,0.546 Z" class="cls-5"/>
    <path d="M48.084,10.256 L48.084,19.966 L55.280,19.966 L54.681,10.256 L48.084,10.256 Z" class="cls-5"/>
    <path d="M15.374,27.734 L15.374,37.444 L24.533,37.444 L23.769,27.734 L15.374,27.734 Z" class="cls-5"/>
    <path d="M50.701,33.560 L50.701,43.270 L57.243,43.270 L56.698,33.560 L50.701,33.560 Z" class="cls-5"/>
    <path d="M68.828,59.995 L38.499,59.995 L1.172,59.995 C0.472,59.995 0.006,59.534 0.006,58.842 L0.006,26.539 C0.006,25.847 0.472,25.385 1.172,25.385 L9.337,25.385 L9.337,1.158 C9.337,0.466 9.804,0.004 10.504,0.004 L21.002,0.004 L28.001,0.004 L38.499,0.004 C39.199,0.004 39.666,0.466 39.666,1.158 L39.666,9.234 L47.831,9.234 L54.830,9.234 L64.162,9.234 C64.862,9.234 65.328,9.695 65.328,10.387 L65.328,32.307 L68.828,32.307 C69.528,32.307 69.994,32.769 69.994,33.461 L69.994,58.842 C69.994,59.534 69.528,59.995 68.828,59.995 ZM26.835,2.312 L22.169,2.312 L22.169,9.234 L26.835,9.234 L26.835,2.312 ZM37.333,10.387 L37.333,2.312 L29.168,2.312 L29.168,10.387 C29.168,11.080 28.701,11.541 28.001,11.541 L21.002,11.541 C20.302,11.541 19.836,11.080 19.836,10.387 L19.836,2.312 L11.670,2.312 L11.670,25.385 L15.170,25.385 L24.502,25.385 L37.333,25.385 L37.333,10.387 ZM16.336,27.693 L16.336,36.922 L23.335,36.922 L23.335,27.693 L16.336,27.693 ZM37.333,33.461 L37.333,27.693 L25.668,27.693 L25.668,38.076 C25.668,38.768 25.201,39.229 24.502,39.229 L15.170,39.229 C14.470,39.229 14.003,38.768 14.003,38.076 L14.003,27.693 L10.504,27.693 L2.339,27.693 L2.339,57.688 L37.333,57.688 L37.333,33.461 ZM53.664,11.541 L48.998,11.541 L48.998,18.463 L53.664,18.463 L53.664,11.541 ZM62.995,11.541 L55.996,11.541 L55.996,19.617 C55.996,20.309 55.530,20.771 54.830,20.771 L47.831,20.771 C47.131,20.771 46.665,20.309 46.665,19.617 L46.665,11.541 L39.666,11.541 L39.666,26.539 L39.666,32.307 L50.164,32.307 L57.163,32.307 L62.995,32.307 L62.995,11.541 ZM51.331,34.615 L51.331,41.537 L55.996,41.537 L55.996,34.615 L51.331,34.615 ZM67.661,34.615 L64.162,34.615 L58.329,34.615 L58.329,42.690 C58.329,43.383 57.863,43.844 57.163,43.844 L50.164,43.844 C49.464,43.844 48.998,43.383 48.998,42.690 L48.998,34.615 L39.666,34.615 L39.666,57.688 L67.661,57.688 L67.661,34.615 ZM48.998,50.766 L41.999,50.766 L41.999,48.459 L48.998,48.459 L48.998,50.766 ZM51.331,55.381 L41.999,55.381 L41.999,53.073 L51.331,53.073 L51.331,55.381 ZM60.662,50.766 L58.329,50.766 L58.329,48.459 L60.662,48.459 L60.662,50.766 ZM60.662,55.381 L58.329,55.381 L58.329,53.073 L60.662,53.073 L60.662,55.381 ZM65.328,50.766 L62.995,50.766 L62.995,48.459 L65.328,48.459 L65.328,50.766 ZM65.328,55.381 L62.995,55.381 L62.995,53.073 L65.328,53.073 L65.328,55.381 ZM60.662,25.385 L58.329,25.385 L58.329,23.078 L60.662,23.078 L60.662,25.385 ZM60.662,30.000 L58.329,30.000 L58.329,27.693 L60.662,27.693 L60.662,30.000 ZM53.664,27.693 L55.996,27.693 L55.996,30.000 L53.664,30.000 L53.664,27.693 ZM53.664,23.078 L55.996,23.078 L55.996,25.385 L53.664,25.385 L53.664,23.078 ZM41.999,27.693 L51.331,27.693 L51.331,30.000 L41.999,30.000 L41.999,27.693 ZM41.999,23.078 L48.998,23.078 L48.998,25.385 L41.999,25.385 L41.999,23.078 ZM11.670,50.766 L4.671,50.766 L4.671,48.459 L11.670,48.459 L11.670,50.766 ZM14.003,55.381 L4.671,55.381 L4.671,53.073 L14.003,53.073 L14.003,55.381 ZM30.334,50.766 L28.001,50.766 L28.001,48.459 L30.334,48.459 L30.334,50.766 ZM30.334,55.381 L28.001,55.381 L28.001,53.073 L30.334,53.073 L30.334,55.381 ZM35.000,50.766 L32.667,50.766 L32.667,48.459 L35.000,48.459 L35.000,50.766 ZM35.000,55.381 L32.667,55.381 L32.667,53.073 L35.000,53.073 L35.000,55.381 ZM30.334,18.463 L28.001,18.463 L28.001,16.156 L30.334,16.156 L30.334,18.463 ZM30.334,23.078 L28.001,23.078 L28.001,20.771 L30.334,20.771 L30.334,23.078 ZM35.000,18.463 L32.667,18.463 L32.667,16.156 L35.000,16.156 L35.000,18.463 ZM35.000,23.078 L32.667,23.078 L32.667,20.771 L35.000,20.771 L35.000,23.078 ZM14.003,20.771 L23.335,20.771 L23.335,23.078 L14.003,23.078 L14.003,20.771 ZM14.003,16.156 L21.002,16.156 L21.002,18.463 L14.003,18.463 L14.003,16.156 Z" class="cls-6"/>
  </g>
</svg>
