<svg xmlns="http://www.w3.org/2000/svg" xmlns:xlink="http://www.w3.org/1999/xlink" preserveAspectRatio="xMidYMid" width="69" height="60" viewBox="0 0 69 60">
  <defs>
    <style>
      .cls-1 {
        fill: #2b4673;
        stroke: #fff;
        stroke-linejoin: round;
        stroke-width: 1px;
        fill-rule: evenodd;
      }
    </style>
  </defs>
  <path d="M67.284,59.413 L37.891,59.413 L1.716,59.413 C1.037,59.413 0.585,58.960 0.585,58.282 L0.585,26.606 C0.585,25.927 1.037,25.475 1.716,25.475 L9.629,25.475 L9.629,1.718 C9.629,1.039 10.081,0.587 10.760,0.587 L20.934,0.587 L27.717,0.587 L37.891,0.587 C38.570,0.587 39.022,1.039 39.022,1.718 L39.022,9.637 L46.935,9.637 L53.718,9.637 L62.762,9.637 C63.440,9.637 63.893,10.090 63.893,10.768 L63.893,32.262 L67.284,32.262 C67.962,32.262 68.415,32.715 68.415,33.394 L68.415,58.282 C68.415,58.960 67.962,59.413 67.284,59.413 ZM26.586,2.849 L22.065,2.849 L22.065,9.637 L26.586,9.637 L26.586,2.849 ZM36.761,10.768 L36.761,2.849 L28.847,2.849 L28.847,10.768 C28.847,11.447 28.395,11.899 27.717,11.899 L20.934,11.899 C20.256,11.899 19.804,11.447 19.804,10.768 L19.804,2.849 L11.890,2.849 L11.890,25.475 L15.282,25.475 L24.326,25.475 L36.761,25.475 L36.761,10.768 ZM16.412,27.737 L16.412,36.788 L23.195,36.788 L23.195,27.737 L16.412,27.737 ZM36.761,33.394 L36.761,27.737 L25.456,27.737 L25.456,37.919 C25.456,38.598 25.004,39.050 24.326,39.050 L15.282,39.050 C14.603,39.050 14.151,38.598 14.151,37.919 L14.151,27.737 L10.760,27.737 L2.846,27.737 L2.846,57.150 L36.761,57.150 L36.761,33.394 ZM52.588,11.899 L48.066,11.899 L48.066,18.687 L52.588,18.687 L52.588,11.899 ZM61.632,11.899 L54.849,11.899 L54.849,19.818 C54.849,20.497 54.397,20.950 53.718,20.950 L46.935,20.950 C46.257,20.950 45.805,20.497 45.805,19.818 L45.805,11.899 L39.022,11.899 L39.022,26.606 L39.022,32.262 L49.196,32.262 L55.979,32.262 L61.632,32.262 L61.632,11.899 ZM50.327,34.525 L50.327,41.313 L54.849,41.313 L54.849,34.525 L50.327,34.525 ZM66.154,34.525 L62.762,34.525 L57.110,34.525 L57.110,42.444 C57.110,43.123 56.657,43.575 55.979,43.575 L49.196,43.575 C48.518,43.575 48.066,43.123 48.066,42.444 L48.066,34.525 L39.022,34.525 L39.022,57.150 L66.154,57.150 L66.154,34.525 ZM48.066,50.363 L41.283,50.363 L41.283,48.100 L48.066,48.100 L48.066,50.363 ZM50.327,54.888 L41.283,54.888 L41.283,52.625 L50.327,52.625 L50.327,54.888 ZM59.371,50.363 L57.110,50.363 L57.110,48.100 L59.371,48.100 L59.371,50.363 ZM59.371,54.888 L57.110,54.888 L57.110,52.625 L59.371,52.625 L59.371,54.888 ZM63.893,50.363 L61.632,50.363 L61.632,48.100 L63.893,48.100 L63.893,50.363 ZM63.893,54.888 L61.632,54.888 L61.632,52.625 L63.893,52.625 L63.893,54.888 ZM59.371,25.475 L57.110,25.475 L57.110,23.212 L59.371,23.212 L59.371,25.475 ZM59.371,30.000 L57.110,30.000 L57.110,27.737 L59.371,27.737 L59.371,30.000 ZM52.588,27.737 L54.849,27.737 L54.849,30.000 L52.588,30.000 L52.588,27.737 ZM52.588,23.212 L54.849,23.212 L54.849,25.475 L52.588,25.475 L52.588,23.212 ZM41.283,27.737 L50.327,27.737 L50.327,30.000 L41.283,30.000 L41.283,27.737 ZM41.283,23.212 L48.066,23.212 L48.066,25.475 L41.283,25.475 L41.283,23.212 ZM11.890,50.363 L5.107,50.363 L5.107,48.100 L11.890,48.100 L11.890,50.363 ZM14.151,54.888 L5.107,54.888 L5.107,52.625 L14.151,52.625 L14.151,54.888 ZM29.978,50.363 L27.717,50.363 L27.717,48.100 L29.978,48.100 L29.978,50.363 ZM29.978,54.888 L27.717,54.888 L27.717,52.625 L29.978,52.625 L29.978,54.888 ZM34.500,50.363 L32.239,50.363 L32.239,48.100 L34.500,48.100 L34.500,50.363 ZM34.500,54.888 L32.239,54.888 L32.239,52.625 L34.500,52.625 L34.500,54.888 ZM29.978,18.687 L27.717,18.687 L27.717,16.425 L29.978,16.425 L29.978,18.687 ZM29.978,23.212 L27.717,23.212 L27.717,20.950 L29.978,20.950 L29.978,23.212 ZM34.500,18.687 L32.239,18.687 L32.239,16.425 L34.500,16.425 L34.500,18.687 ZM34.500,23.212 L32.239,23.212 L32.239,20.950 L34.500,20.950 L34.500,23.212 ZM14.151,20.950 L23.195,20.950 L23.195,23.212 L14.151,23.212 L14.151,20.950 ZM14.151,16.425 L20.934,16.425 L20.934,18.687 L14.151,18.687 L14.151,16.425 Z" class="cls-1"/>
</svg>
