<svg xmlns="http://www.w3.org/2000/svg" xmlns:xlink="http://www.w3.org/1999/xlink" preserveAspectRatio="xMidYMid" width="53" height="60" viewBox="0 0 53 60">
  <defs>
    <style>
      .cls-1 {
        fill: #b7cff7;
      }

      .cls-1, .cls-2, .cls-3 {
        fill-rule: evenodd;
      }

      .cls-2 {
        fill: #8ddaeb;
      }

      .cls-3 {
        fill: #517fcd;
      }
    </style>
  </defs>
  <g>
    <path d="M0.736,3.704 C0.736,3.704 1.395,0.813 2.944,0.741 C4.493,0.669 49.319,0.741 49.319,0.741 C49.319,0.741 52.187,1.553 52.264,3.704 C52.340,5.854 52.264,54.815 52.264,54.815 L48.583,54.074 L48.583,57.778 C48.583,57.778 48.016,59.084 46.375,59.259 C44.734,59.434 4.417,59.259 4.417,59.259 C4.417,59.259 3.604,58.590 3.680,57.037 C3.757,55.483 3.680,54.815 3.680,54.815 L-0.000,54.815 L0.736,3.704 Z" class="cls-1"/>
    <path d="M0.736,46.667 L51.528,46.667 L51.528,54.815 L0.736,54.074 L0.736,46.667 Z" class="cls-2"/>
    <path d="M49.871,55.723 C49.871,55.723 49.876,56.734 49.876,57.997 C49.876,60.019 48.834,59.989 48.834,59.989 L4.629,59.989 C4.629,59.989 3.163,60.233 3.124,58.466 C3.097,57.208 3.129,55.723 3.129,55.723 L-0.000,55.723 L-0.000,55.714 L-0.000,46.415 L-0.000,3.861 C-0.000,1.732 1.711,-0.000 3.814,-0.000 L15.509,-0.000 L16.634,-0.000 L49.186,-0.000 C51.289,-0.000 53.000,1.732 53.000,3.861 L53.000,46.415 L53.000,55.714 L53.000,55.723 L49.871,55.723 ZM4.889,58.207 L48.111,58.207 L48.111,55.723 L9.455,55.723 L8.075,55.723 L4.889,55.723 L4.889,58.207 ZM51.240,3.861 C51.240,2.714 50.318,1.782 49.186,1.782 L16.634,1.782 L15.509,1.782 L3.814,1.782 C2.681,1.782 1.760,2.714 1.760,3.861 L1.760,46.415 L51.240,46.415 L51.240,3.861 ZM51.240,48.197 L1.760,48.197 L1.760,53.932 L4.889,53.932 L4.889,53.941 L8.075,53.941 L9.455,53.941 L48.111,53.941 L48.111,53.932 L51.240,53.932 L51.240,48.197 ZM41.808,49.551 L43.568,49.551 L43.568,52.586 L41.808,52.586 L41.808,49.551 ZM38.288,49.551 L40.048,49.551 L40.048,52.586 L38.288,52.586 L38.288,49.551 ZM34.768,49.551 L36.528,49.551 L36.528,52.586 L34.768,52.586 L34.768,49.551 ZM16.472,49.551 L18.232,49.551 L18.232,52.586 L16.472,52.586 L16.472,49.551 ZM12.952,49.551 L14.712,49.551 L14.712,52.586 L12.952,52.586 L12.952,49.551 ZM9.430,49.551 L11.190,49.551 L11.190,52.586 L9.430,52.586 L9.430,49.551 ZM5.902,13.591 C7.059,13.553 9.058,13.542 9.058,13.542 L9.058,15.324 L6.454,15.324 L6.454,32.867 L9.052,32.849 L9.064,34.631 L5.670,34.681 C5.670,34.681 4.781,34.997 4.744,33.041 C4.669,29.034 4.744,14.880 4.744,14.880 C4.744,14.880 4.825,13.627 5.902,13.591 ZM22.007,20.810 L18.799,20.810 L18.799,19.028 L21.492,19.029 L21.491,16.303 L23.252,16.303 L23.252,19.550 L25.620,21.948 L25.620,14.805 L27.380,14.805 L27.380,21.947 L29.748,19.550 L29.748,16.303 L31.508,16.303 L31.508,19.028 L34.200,19.029 L34.200,20.810 L30.993,20.810 L28.624,23.208 L35.680,23.208 L35.680,24.989 L28.624,24.989 L30.993,27.387 L34.200,27.387 L34.200,29.168 L31.508,29.168 L31.508,31.894 L29.748,31.894 L29.748,28.647 L27.380,26.249 L27.380,33.392 L25.620,33.392 L25.620,26.249 L23.252,28.647 L23.252,31.894 L21.492,31.894 L21.491,29.168 L18.799,29.168 L18.799,27.387 L22.007,27.387 L24.375,24.989 L17.320,24.989 L17.320,23.208 L24.375,23.208 L22.007,20.810 ZM49.480,20.927 L47.720,20.927 L47.720,11.582 L49.480,11.582 L49.480,20.927 ZM49.480,44.931 L47.720,44.931 L47.720,23.303 L49.480,23.303 L49.480,44.931 Z" class="cls-3"/>
  </g>
</svg>
