<svg xmlns="http://www.w3.org/2000/svg" xmlns:xlink="http://www.w3.org/1999/xlink" preserveAspectRatio="xMidYMid" width="60" height="60" viewBox="0 0 60 60">
  <defs>
    <style>
      .cls-1 {
        fill: #4c6897;
        stroke: #fff;
        stroke-linejoin: round;
        stroke-width: 1px;
        fill-rule: evenodd;
      }
    </style>
  </defs>
  <path d="M53.734,59.008 L6.266,59.008 C3.357,59.008 0.992,56.643 0.992,53.734 L0.992,6.266 C0.992,3.357 3.357,0.992 6.266,0.992 L53.734,0.992 C56.643,0.992 59.008,3.357 59.008,6.266 L59.008,53.734 C59.008,56.643 56.643,59.008 53.734,59.008 ZM56.371,6.266 C56.371,4.812 55.188,3.629 53.734,3.629 L6.266,3.629 C4.812,3.629 3.629,4.812 3.629,6.266 L3.629,53.734 C3.629,55.188 4.812,56.371 6.266,56.371 L53.734,56.371 C55.188,56.371 56.371,55.188 56.371,53.734 L56.371,6.266 ZM30.000,53.734 C16.913,53.734 6.266,43.086 6.266,30.000 C6.266,16.913 16.913,6.266 30.000,6.266 C43.086,6.266 53.734,16.913 53.734,30.000 C53.734,43.086 43.086,53.734 30.000,53.734 ZM30.000,8.903 C18.367,8.903 8.903,18.367 8.903,30.000 C8.903,41.633 18.367,51.097 30.000,51.097 C41.633,51.097 51.097,41.633 51.097,30.000 C51.097,18.367 41.633,8.903 30.000,8.903 ZM44.417,40.569 C44.034,40.569 43.669,40.403 43.417,40.111 C40.328,36.519 37.514,35.563 36.160,35.104 C36.116,35.089 36.076,35.073 36.032,35.058 C35.654,35.508 35.234,35.916 34.766,36.273 C35.790,38.166 37.263,41.497 37.744,45.732 C37.811,46.320 37.479,46.880 36.930,47.102 C34.713,48.003 32.381,48.460 30.000,48.460 C29.780,48.460 29.564,48.446 29.349,48.431 C28.934,48.411 28.424,48.188 28.191,47.843 C27.959,47.499 27.774,47.057 27.910,46.666 C29.450,42.236 28.907,39.307 28.645,37.898 C28.637,37.854 28.632,37.815 28.624,37.772 C28.038,37.668 27.468,37.517 26.933,37.292 C25.802,39.124 23.663,42.046 20.255,44.567 C20.022,44.740 19.746,44.826 19.471,44.826 C19.184,44.826 18.898,44.732 18.660,44.547 C16.568,42.913 14.821,40.810 13.607,38.466 C13.415,38.097 13.410,37.658 13.591,37.283 C13.774,36.908 14.123,36.642 14.533,36.564 C19.190,35.686 21.425,33.725 22.501,32.782 C22.533,32.754 22.563,32.730 22.595,32.702 C22.395,32.157 22.265,31.586 22.189,30.993 C20.040,30.932 16.416,30.540 12.515,28.845 C11.973,28.609 11.654,28.041 11.735,27.455 C12.104,24.785 13.026,22.289 14.475,20.036 C14.699,19.686 15.076,19.463 15.492,19.433 C15.903,19.415 16.310,19.572 16.583,19.889 C19.672,23.480 22.487,24.437 23.840,24.896 C23.884,24.911 23.924,24.926 23.968,24.941 C24.346,24.491 24.766,24.083 25.234,23.727 C24.211,21.833 22.737,18.503 22.256,14.267 C22.189,13.680 22.521,13.120 23.070,12.897 C25.493,11.915 28.119,11.401 30.652,11.568 C31.066,11.589 31.576,11.812 31.809,12.157 C32.041,12.501 32.226,12.942 32.090,13.334 C30.550,17.763 31.093,20.693 31.355,22.101 C31.363,22.146 31.368,22.184 31.376,22.228 C31.962,22.331 32.532,22.482 33.067,22.708 C34.198,20.875 36.338,17.954 39.745,15.433 C40.221,15.081 40.873,15.089 41.340,15.453 C43.462,17.112 45.163,19.157 46.393,21.533 C46.585,21.904 46.590,22.343 46.409,22.717 C46.226,23.091 45.877,23.358 45.467,23.435 C40.810,24.313 38.574,26.275 37.499,27.217 C37.467,27.245 37.437,27.270 37.405,27.298 C37.605,27.844 37.736,28.417 37.811,29.011 C39.956,29.072 43.573,29.454 47.485,31.155 C48.027,31.391 48.347,31.958 48.266,32.544 C47.896,35.215 46.974,37.710 45.525,39.964 C45.301,40.314 44.924,40.537 44.508,40.566 C44.477,40.568 44.448,40.569 44.417,40.569 ZM15.840,22.963 C15.233,24.181 14.790,25.469 14.517,26.814 C17.662,28.015 20.517,28.311 22.264,28.360 C22.298,28.201 22.364,28.057 22.407,27.902 C22.464,27.685 22.512,27.463 22.587,27.255 C21.115,26.740 18.622,25.730 15.840,22.963 ZM34.986,45.011 C34.453,41.675 33.273,39.043 32.441,37.506 C32.323,37.546 32.202,37.564 32.083,37.598 C31.863,37.658 31.648,37.726 31.421,37.768 C31.383,37.775 31.346,37.790 31.308,37.797 C31.579,39.321 31.937,42.001 30.933,45.796 C32.313,45.713 33.668,45.452 34.986,45.011 ZM24.625,35.771 C24.473,35.629 24.330,35.480 24.189,35.327 C24.101,35.232 23.999,35.146 23.916,35.048 C22.735,36.065 20.614,37.717 16.828,38.743 C17.582,39.872 18.484,40.910 19.500,41.815 C22.120,39.687 23.806,37.355 24.720,35.868 C24.686,35.837 24.659,35.802 24.625,35.771 ZM25.014,14.988 C25.547,18.325 26.727,20.957 27.559,22.494 C27.677,22.454 27.797,22.436 27.916,22.402 C28.136,22.342 28.351,22.274 28.579,22.232 C28.616,22.225 28.653,22.210 28.692,22.203 C28.421,20.679 28.063,17.999 29.066,14.204 C27.687,14.287 26.331,14.548 25.014,14.988 ZM30.000,24.726 C27.087,24.726 24.726,27.087 24.726,30.000 C24.726,32.913 27.087,35.274 30.000,35.274 C32.913,35.274 35.274,32.913 35.274,30.000 C35.274,27.087 32.913,24.726 30.000,24.726 ZM43.175,21.255 C42.422,20.122 41.527,19.095 40.501,18.183 C37.880,20.313 36.193,22.645 35.279,24.132 C35.314,24.162 35.341,24.198 35.374,24.229 C35.527,24.371 35.669,24.519 35.810,24.673 C35.899,24.768 36.001,24.854 36.084,24.952 C37.265,23.935 39.387,22.282 43.175,21.255 ZM37.736,31.639 C37.702,31.800 37.635,31.947 37.591,32.105 C37.534,32.320 37.487,32.538 37.413,32.745 C38.885,33.260 41.378,34.270 44.160,37.037 C44.767,35.819 45.210,34.531 45.483,33.186 C42.333,31.982 39.481,31.688 37.736,31.639 ZM51.097,11.540 C49.640,11.540 48.460,10.359 48.460,8.903 C48.460,7.447 49.640,6.266 51.097,6.266 C52.553,6.266 53.734,7.447 53.734,8.903 C53.734,10.359 52.553,11.540 51.097,11.540 ZM8.903,11.540 C7.447,11.540 6.266,10.359 6.266,8.903 C6.266,7.447 7.447,6.266 8.903,6.266 C10.359,6.266 11.540,7.447 11.540,8.903 C11.540,10.359 10.359,11.540 8.903,11.540 ZM8.903,48.460 C10.359,48.460 11.540,49.640 11.540,51.097 C11.540,52.553 10.359,53.734 8.903,53.734 C7.447,53.734 6.266,52.553 6.266,51.097 C6.266,49.640 7.447,48.460 8.903,48.460 ZM51.097,48.460 C52.553,48.460 53.734,49.640 53.734,51.097 C53.734,52.553 52.553,53.734 51.097,53.734 C49.640,53.734 48.460,52.553 48.460,51.097 C48.460,49.640 49.640,48.460 51.097,48.460 Z" class="cls-1"/>
</svg>
