<svg xmlns="http://www.w3.org/2000/svg" xmlns:xlink="http://www.w3.org/1999/xlink" preserveAspectRatio="xMidYMid" width="53" height="60" viewBox="0 0 53 60">
  <defs>
    <style>
      .cls-1 {
        fill: #4c6897;
        stroke: #fff;
        stroke-linejoin: round;
        stroke-width: 1px;
        fill-rule: evenodd;
      }
    </style>
  </defs>
  <path d="M49.240,55.103 C49.240,55.103 49.244,56.090 49.244,57.322 C49.244,59.296 48.230,59.266 48.230,59.266 L5.220,59.266 C5.220,59.266 3.794,59.504 3.756,57.780 C3.729,56.553 3.760,55.103 3.760,55.103 L0.716,55.103 L0.716,55.095 L0.716,46.020 L0.716,4.491 C0.716,2.413 2.381,0.723 4.427,0.723 L15.806,0.723 L16.900,0.723 L48.573,0.723 C50.619,0.723 52.283,2.413 52.284,4.491 L52.284,46.020 L52.284,55.095 L52.284,55.103 L49.240,55.103 ZM5.473,57.527 L47.527,57.527 L47.527,55.103 L9.915,55.103 L8.573,55.103 L5.473,55.103 L5.473,57.527 ZM50.571,4.491 C50.571,3.372 49.675,2.462 48.573,2.462 L16.900,2.462 L15.806,2.462 L4.427,2.462 C3.325,2.462 2.429,3.372 2.429,4.491 L2.429,46.020 L50.571,46.020 L50.571,4.491 ZM50.571,47.759 L2.429,47.759 L2.429,53.356 L5.473,53.356 L5.473,53.364 L8.573,53.364 L9.915,53.364 L47.527,53.364 L47.527,53.356 L50.571,53.356 L50.571,47.759 ZM41.394,49.080 L43.107,49.080 L43.107,52.042 L41.394,52.042 L41.394,49.080 ZM37.969,49.080 L39.682,49.080 L39.682,52.042 L37.969,52.042 L37.969,49.080 ZM34.544,49.080 L36.257,49.080 L36.257,52.042 L34.544,52.042 L34.544,49.080 ZM16.743,49.080 L18.455,49.080 L18.455,52.042 L16.743,52.042 L16.743,49.080 ZM13.318,49.080 L15.030,49.080 L15.030,52.042 L13.318,52.042 L13.318,49.080 ZM9.892,49.080 L11.604,49.080 L11.604,52.042 L9.892,52.042 L9.892,49.080 ZM6.458,13.987 C7.585,13.949 9.530,13.939 9.530,13.939 L9.530,15.678 L6.996,15.678 L6.996,32.798 L9.524,32.781 L9.535,34.519 L6.233,34.568 C6.233,34.568 5.368,34.877 5.332,32.967 C5.259,29.057 5.332,15.244 5.332,15.244 C5.332,15.244 5.411,14.021 6.458,13.987 ZM22.129,21.032 L19.007,21.031 L19.008,19.293 L21.627,19.293 L21.627,16.633 L23.339,16.633 L23.339,19.802 L25.644,22.142 L25.644,15.171 L27.356,15.171 L27.356,22.141 L29.660,19.802 L29.660,16.633 L31.373,16.633 L31.373,19.293 L33.992,19.293 L33.992,21.032 L30.871,21.032 L28.567,23.371 L35.432,23.371 L35.432,25.110 L28.567,25.110 L30.871,27.450 L33.992,27.450 L33.992,29.188 L31.373,29.189 L31.373,31.848 L29.660,31.848 L29.660,28.679 L27.356,26.340 L27.356,33.310 L25.644,33.310 L25.644,26.340 L23.339,28.679 L23.339,31.848 L21.627,31.848 L21.627,29.188 L19.007,29.189 L19.007,27.450 L22.128,27.450 L24.432,25.110 L17.568,25.110 L17.568,23.371 L24.433,23.371 L22.129,21.032 ZM48.859,21.146 L47.146,21.146 L47.146,12.026 L48.859,12.026 L48.859,21.146 ZM48.859,44.571 L47.146,44.571 L47.146,23.464 L48.859,23.464 L48.859,44.571 Z" class="cls-1"/>
</svg>
