<svg xmlns="http://www.w3.org/2000/svg" xmlns:xlink="http://www.w3.org/1999/xlink" preserveAspectRatio="xMidYMid" width="60" height="60" viewBox="0 0 60 60">
  <defs>
    <style>
      .cls-1 {
        fill: #b7cff7;
      }

      .cls-1, .cls-2, .cls-4, .cls-5 {
        fill-rule: evenodd;
      }

      .cls-2, .cls-4 {
        fill: #517fcd;
        stroke-linejoin: round;
        stroke-width: 1px;
      }

      .cls-2 {
        stroke: #f2f2f2;
      }

      .cls-3 {
        fill: #e8e8e8;
      }

      .cls-4 {
        stroke: #d6dfee;
      }

      .cls-5 {
        fill: #8ddaeb;
      }
    </style>
  </defs>
  <g>
    <path d="M4.034,1.513 L55.966,1.513 C57.359,1.513 58.487,2.641 58.487,4.034 L58.487,55.462 C58.487,56.854 57.359,57.983 55.966,57.983 L4.034,57.983 C2.641,57.983 1.513,56.854 1.513,55.462 L1.513,4.034 C1.513,2.641 2.641,1.513 4.034,1.513 Z" class="cls-1"/>
    <path d="M54.133,59.496 L5.867,59.496 C2.909,59.496 0.504,57.091 0.504,54.133 L0.504,5.867 C0.504,2.909 2.909,0.504 5.867,0.504 L54.133,0.504 C57.091,0.504 59.496,2.909 59.496,5.867 L59.496,54.133 C59.496,57.091 57.091,59.496 54.133,59.496 ZM56.814,5.867 C56.814,4.389 55.611,3.186 54.133,3.186 L5.867,3.186 C4.389,3.186 3.186,4.389 3.186,5.867 L3.186,54.133 C3.186,55.611 4.389,56.814 5.867,56.814 L54.133,56.814 C55.611,56.814 56.814,55.611 56.814,54.133 L56.814,5.867 ZM30.000,54.133 C16.693,54.133 5.867,43.306 5.867,30.000 C5.867,16.694 16.693,5.867 30.000,5.867 C43.306,5.867 54.133,16.694 54.133,30.000 C54.133,43.306 43.306,54.133 30.000,54.133 ZM30.000,8.548 C18.172,8.548 8.548,18.172 8.548,30.000 C8.548,41.828 18.172,51.451 30.000,51.451 C41.828,51.451 51.451,41.828 51.451,30.000 C51.451,18.172 41.828,8.548 30.000,8.548 ZM44.659,40.747 C44.270,40.747 43.898,40.578 43.643,40.280 C40.502,36.629 37.640,35.656 36.264,35.190 C36.218,35.175 36.178,35.159 36.133,35.143 C35.749,35.601 35.322,36.016 34.846,36.378 C35.887,38.303 37.386,41.690 37.874,45.997 C37.942,46.594 37.605,47.163 37.047,47.390 C34.792,48.305 32.421,48.770 30.000,48.770 C29.776,48.770 29.556,48.756 29.338,48.741 C28.916,48.720 28.397,48.494 28.161,48.143 C27.925,47.793 27.736,47.344 27.875,46.946 C29.441,42.442 28.889,39.463 28.623,38.031 C28.614,37.986 28.609,37.947 28.601,37.903 C28.005,37.797 27.426,37.644 26.882,37.414 C25.732,39.278 23.556,42.248 20.091,44.812 C19.854,44.987 19.574,45.075 19.294,45.075 C19.002,45.075 18.711,44.980 18.469,44.791 C16.343,43.130 14.566,40.991 13.331,38.609 C13.136,38.233 13.131,37.786 13.316,37.405 C13.502,37.024 13.856,36.753 14.273,36.675 C19.009,35.782 21.281,33.788 22.375,32.829 C22.407,32.800 22.438,32.776 22.470,32.747 C22.268,32.194 22.135,31.612 22.058,31.010 C19.872,30.947 16.187,30.549 12.221,28.825 C11.670,28.586 11.345,28.008 11.428,27.413 C11.803,24.697 12.741,22.160 14.214,19.868 C14.442,19.512 14.825,19.286 15.248,19.256 C15.666,19.237 16.080,19.397 16.357,19.719 C19.498,23.371 22.360,24.344 23.736,24.810 C23.782,24.825 23.822,24.841 23.867,24.856 C24.251,24.399 24.678,23.984 25.154,23.621 C24.113,21.696 22.615,18.310 22.126,14.003 C22.058,13.406 22.396,12.836 22.953,12.610 C25.417,11.611 28.087,11.088 30.662,11.259 C31.084,11.279 31.603,11.506 31.840,11.857 C32.075,12.206 32.264,12.656 32.125,13.054 C30.559,17.557 31.112,20.536 31.377,21.969 C31.386,22.014 31.391,22.053 31.399,22.097 C31.995,22.202 32.575,22.356 33.118,22.585 C34.268,20.722 36.444,17.752 39.909,15.188 C40.393,14.830 41.056,14.838 41.531,15.209 C43.689,16.895 45.418,18.974 46.669,21.391 C46.864,21.768 46.869,22.215 46.684,22.594 C46.498,22.975 46.144,23.246 45.727,23.325 C40.991,24.218 38.719,26.212 37.625,27.170 C37.593,27.199 37.562,27.224 37.530,27.252 C37.733,27.807 37.866,28.390 37.943,28.994 C40.123,29.056 43.801,29.445 47.779,31.174 C48.330,31.414 48.655,31.991 48.573,32.587 C48.197,35.302 47.259,37.840 45.786,40.131 C45.559,40.487 45.175,40.714 44.752,40.744 C44.721,40.745 44.690,40.747 44.659,40.747 ZM15.602,22.845 C14.985,24.083 14.534,25.392 14.257,26.761 C17.454,27.982 20.358,28.282 22.134,28.332 C22.169,28.171 22.236,28.024 22.279,27.867 C22.338,27.646 22.386,27.421 22.462,27.208 C20.966,26.685 18.431,25.658 15.602,22.845 ZM35.069,45.264 C34.527,41.871 33.328,39.195 32.482,37.632 C32.362,37.672 32.239,37.691 32.118,37.725 C31.894,37.787 31.676,37.856 31.445,37.898 C31.407,37.906 31.369,37.921 31.330,37.928 C31.605,39.478 31.969,42.203 30.949,46.061 C32.351,45.977 33.730,45.712 35.069,45.264 ZM24.535,35.868 C24.380,35.723 24.235,35.573 24.092,35.416 C24.002,35.320 23.898,35.233 23.813,35.132 C22.613,36.167 20.456,37.847 16.607,38.890 C17.373,40.038 18.291,41.094 19.324,42.014 C21.987,39.850 23.702,37.479 24.632,35.966 C24.597,35.936 24.569,35.899 24.535,35.868 ZM24.930,14.736 C25.472,18.129 26.672,20.805 27.517,22.368 C27.638,22.328 27.760,22.309 27.881,22.275 C28.105,22.213 28.324,22.144 28.555,22.102 C28.593,22.094 28.631,22.079 28.670,22.072 C28.395,20.522 28.031,17.797 29.051,13.939 C27.648,14.023 26.270,14.288 24.930,14.736 ZM30.000,24.637 C27.038,24.637 24.637,27.038 24.637,30.000 C24.637,32.962 27.038,35.363 30.000,35.363 C32.962,35.363 35.363,32.962 35.363,30.000 C35.363,27.038 32.962,24.637 30.000,24.637 ZM43.396,21.108 C42.631,19.956 41.721,18.912 40.677,17.984 C38.013,20.150 36.297,22.521 35.368,24.033 C35.403,24.064 35.430,24.101 35.465,24.132 C35.620,24.277 35.764,24.427 35.908,24.584 C35.998,24.680 36.102,24.767 36.186,24.867 C37.387,23.833 39.545,22.152 43.396,21.108 ZM37.866,31.666 C37.831,31.831 37.763,31.980 37.718,32.141 C37.660,32.359 37.613,32.581 37.537,32.791 C39.034,33.315 41.569,34.342 44.398,37.155 C45.015,35.917 45.465,34.607 45.743,33.239 C42.541,32.015 39.640,31.716 37.866,31.666 ZM51.451,11.230 C49.970,11.230 48.770,10.029 48.770,8.548 C48.770,7.067 49.970,5.867 51.451,5.867 C52.932,5.867 54.133,7.067 54.133,8.548 C54.133,10.029 52.932,11.230 51.451,11.230 ZM8.548,11.230 C7.067,11.230 5.867,10.029 5.867,8.548 C5.867,7.067 7.067,5.867 8.548,5.867 C10.029,5.867 11.230,7.067 11.230,8.548 C11.230,10.029 10.029,11.230 8.548,11.230 ZM8.548,48.770 C10.029,48.770 11.230,49.971 11.230,51.451 C11.230,52.932 10.029,54.133 8.548,54.133 C7.067,54.133 5.867,52.932 5.867,51.451 C5.867,49.971 7.067,48.770 8.548,48.770 ZM51.451,48.770 C52.932,48.770 54.133,49.971 54.133,51.451 C54.133,52.932 52.932,54.133 51.451,54.133 C49.970,54.133 48.770,52.932 48.770,51.451 C48.770,49.971 49.970,48.770 51.451,48.770 Z" class="cls-2"/>
    <circle cx="30" cy="30" r="21.938" class="cls-3"/>
    <path d="M41.531,15.209 C41.056,14.838 40.393,14.830 39.909,15.188 C36.444,17.752 34.268,20.722 33.118,22.585 C32.575,22.356 31.995,22.202 31.399,22.097 C31.391,22.053 31.386,22.014 31.377,21.969 C31.112,20.536 30.559,17.557 32.125,13.054 C32.264,12.656 32.075,12.206 31.840,11.857 C31.603,11.506 31.084,11.279 30.662,11.259 C28.087,11.088 25.417,11.611 22.953,12.610 C22.396,12.836 22.058,13.406 22.126,14.003 C22.615,18.310 24.113,21.696 25.154,23.621 C24.678,23.984 24.251,24.399 23.867,24.856 C23.822,24.841 23.782,24.825 23.736,24.810 C22.360,24.344 19.498,23.371 16.357,19.719 C16.080,19.397 15.666,19.237 15.248,19.256 C14.825,19.286 14.442,19.512 14.214,19.868 C12.741,22.160 11.803,24.697 11.428,27.413 C11.345,28.008 11.670,28.586 12.221,28.825 C16.187,30.549 19.872,30.947 22.058,31.010 C22.135,31.612 22.268,32.194 22.470,32.747 C22.438,32.776 22.407,32.800 22.375,32.829 C21.281,33.788 19.009,35.782 14.273,36.675 C13.856,36.753 13.502,37.024 13.316,37.405 C13.131,37.786 13.136,38.233 13.331,38.609 C14.566,40.991 16.343,43.130 18.469,44.791 C18.711,44.980 19.002,45.075 19.294,45.075 C19.574,45.075 19.854,44.987 20.091,44.812 C23.556,42.248 25.732,39.278 26.882,37.414 C27.426,37.644 28.005,37.797 28.601,37.903 C28.609,37.947 28.614,37.986 28.623,38.031 C28.889,39.463 29.441,42.442 27.875,46.946 C27.736,47.344 27.925,47.793 28.161,48.143 C28.397,48.494 28.916,48.720 29.338,48.741 C29.556,48.756 29.776,48.770 30.000,48.770 C32.421,48.770 34.792,48.305 37.047,47.390 C37.605,47.163 37.942,46.594 37.874,45.997 C37.386,41.690 35.887,38.303 34.846,36.378 C35.322,36.016 35.749,35.601 36.133,35.143 C36.178,35.159 36.218,35.175 36.264,35.190 C37.640,35.656 40.502,36.629 43.643,40.280 C43.898,40.578 44.270,40.747 44.659,40.747 C44.690,40.747 44.721,40.745 44.752,40.744 C45.175,40.714 45.559,40.487 45.786,40.131 C47.259,37.840 48.197,35.302 48.573,32.587 C48.655,31.991 48.330,31.414 47.779,31.174 C43.801,29.445 40.123,29.056 37.943,28.994 C37.866,28.390 37.733,27.807 37.530,27.252 C37.562,27.224 37.593,27.199 37.625,27.170 C38.719,26.212 40.991,24.218 45.727,23.325 C46.144,23.246 46.498,22.975 46.684,22.594 C46.869,22.215 46.864,21.768 46.669,21.391 C45.418,18.974 43.689,16.895 41.531,15.209 ZM22.279,27.867 C22.236,28.024 22.169,28.171 22.134,28.332 C20.358,28.282 17.454,27.982 14.257,26.761 C14.534,25.392 14.985,24.083 15.602,22.845 C18.431,25.658 20.966,26.685 22.462,27.208 C22.386,27.421 22.338,27.646 22.279,27.867 ZM37.718,32.141 C37.763,31.980 37.831,31.831 37.866,31.666 C39.640,31.716 42.541,32.015 45.743,33.239 C45.465,34.607 45.015,35.917 44.398,37.155 C41.569,34.342 39.034,33.315 37.537,32.791 C37.613,32.581 37.660,32.359 37.718,32.141 ZM24.930,14.736 C26.270,14.288 27.648,14.023 29.051,13.939 C28.031,17.797 28.395,20.522 28.670,22.072 C28.631,22.079 28.593,22.094 28.555,22.102 C28.324,22.144 28.105,22.213 27.881,22.275 C27.760,22.309 27.638,22.328 27.517,22.368 C26.672,20.805 25.472,18.129 24.930,14.736 ZM19.324,42.014 C18.291,41.094 17.373,40.038 16.607,38.890 C20.456,37.847 22.613,36.167 23.813,35.132 C23.898,35.233 24.002,35.320 24.092,35.416 C24.235,35.573 24.380,35.723 24.535,35.868 C24.569,35.899 24.597,35.936 24.632,35.966 C23.702,37.479 21.987,39.850 19.324,42.014 ZM35.069,45.264 C33.730,45.712 32.351,45.977 30.949,46.061 C31.969,42.203 31.605,39.478 31.330,37.928 C31.369,37.921 31.407,37.906 31.445,37.898 C31.676,37.856 31.894,37.787 32.118,37.725 C32.239,37.691 32.362,37.672 32.482,37.632 C33.328,39.195 34.527,41.871 35.069,45.264 ZM30.000,35.363 C27.038,35.363 24.637,32.962 24.637,30.000 C24.637,27.038 27.038,24.637 30.000,24.637 C32.962,24.637 35.363,27.038 35.363,30.000 C35.363,32.962 32.962,35.363 30.000,35.363 ZM36.186,24.867 C36.102,24.767 35.998,24.680 35.908,24.584 C35.764,24.427 35.620,24.277 35.465,24.132 C35.430,24.101 35.403,24.064 35.368,24.033 C36.297,22.521 38.013,20.150 40.677,17.984 C41.721,18.912 42.631,19.956 43.396,21.108 C39.545,22.152 37.387,23.833 36.186,24.867 Z" class="cls-4"/>
    <path d="M24.706,14.778 C24.706,14.778 28.370,11.824 29.106,13.789 C29.114,13.809 29.400,20.033 29.106,22.195 C29.061,22.529 27.106,22.689 27.106,22.689 C27.106,22.689 24.866,19.228 24.706,14.778 Z" class="cls-5"/>
    <path d="M35.798,45.378 C35.798,45.378 31.629,48.176 30.892,46.211 C30.885,46.191 30.599,39.967 30.892,37.805 C30.938,37.471 32.893,37.311 32.893,37.311 C32.893,37.311 35.638,40.928 35.798,45.378 Z" class="cls-5"/>
    <path d="M46.193,32.730 C46.193,32.730 46.442,38.145 44.370,37.815 C44.349,37.812 38.920,34.580 37.185,33.258 C36.917,33.053 37.743,31.274 37.743,31.274 C37.743,31.274 42.244,30.672 46.193,32.730 Z" class="cls-5"/>
    <path d="M19.664,42.857 C19.664,42.857 14.835,39.967 16.134,38.319 C16.147,38.303 21.641,35.468 23.642,34.599 C23.952,34.465 25.102,36.054 25.102,36.054 C25.102,36.054 23.387,40.415 19.664,42.857 Z" class="cls-5"/>
    <path d="M44.370,21.176 C44.370,21.176 42.084,15.981 40.336,17.143 C39.688,17.574 35.899,22.275 34.773,24.143 C34.599,24.432 36.023,25.783 36.023,25.783 C36.023,25.783 40.069,23.787 44.370,21.176 Z" class="cls-5"/>
    <path d="M13.613,27.227 C13.424,26.812 13.580,22.100 15.649,22.452 C15.669,22.456 20.927,25.707 22.701,26.977 C22.975,27.173 22.689,28.739 22.689,28.739 C22.689,28.739 14.261,28.648 13.613,27.227 Z" class="cls-5"/>
  </g>
</svg>
