<svg xmlns="http://www.w3.org/2000/svg" xmlns:xlink="http://www.w3.org/1999/xlink" preserveAspectRatio="xMidYMid" width="50" height="56" viewBox="0 0 50 56">
  <defs>
    <style>
      .cls-1 {
        fill: #4c6897;
        stroke: #fff;
        stroke-linejoin: round;
        stroke-width: 1px;
        fill-rule: evenodd;
      }
    </style>
  </defs>
  <path d="M46.452,51.430 C46.452,51.430 46.456,52.350 46.456,53.501 C46.456,55.343 45.500,55.315 45.500,55.315 L4.924,55.315 C4.924,55.315 3.579,55.537 3.544,53.928 C3.518,52.783 3.547,51.430 3.547,51.430 L0.676,51.430 L0.676,51.422 L0.676,42.952 L0.676,4.191 C0.676,2.252 2.246,0.675 4.176,0.675 L14.911,0.675 L15.944,0.675 L45.824,0.675 C47.754,0.675 49.324,2.252 49.324,4.191 L49.324,42.952 L49.324,51.422 L49.324,51.430 L46.452,51.430 ZM5.163,53.692 L44.837,53.692 L44.837,51.430 L9.354,51.430 L8.087,51.430 L5.163,51.430 L5.163,53.692 ZM47.709,4.191 C47.709,3.147 46.863,2.298 45.824,2.298 L15.944,2.298 L14.911,2.298 L4.176,2.298 C3.137,2.298 2.291,3.147 2.291,4.191 L2.291,42.952 L47.709,42.952 L47.709,4.191 ZM47.709,44.575 L2.291,44.575 L2.291,49.799 L5.163,49.799 L5.163,49.807 L8.087,49.807 L9.354,49.807 L44.837,49.807 L44.837,49.799 L47.709,49.799 L47.709,44.575 ZM39.051,45.808 L40.667,45.808 L40.667,48.572 L39.051,48.572 L39.051,45.808 ZM35.820,45.808 L37.436,45.808 L37.436,48.572 L35.820,48.572 L35.820,45.808 ZM32.589,45.808 L34.205,45.808 L34.205,48.572 L32.589,48.572 L32.589,45.808 ZM15.795,45.808 L17.411,45.808 L17.411,48.572 L15.795,48.572 L15.795,45.808 ZM12.564,45.808 L14.180,45.808 L14.180,48.572 L12.564,48.572 L12.564,45.808 ZM9.332,45.808 L10.947,45.808 L10.947,48.572 L9.332,48.572 L9.332,45.808 ZM6.093,13.054 C7.155,13.019 8.990,13.009 8.990,13.009 L8.990,14.632 L6.600,14.632 L6.600,30.611 L8.985,30.595 L8.996,32.218 L5.880,32.264 C5.880,32.264 5.065,32.551 5.031,30.770 C4.961,27.120 5.031,14.228 5.031,14.228 C5.031,14.228 5.105,13.087 6.093,13.054 ZM20.876,19.630 L17.931,19.629 L17.932,18.006 L20.403,18.007 L20.403,15.524 L22.018,15.524 L22.018,18.482 L24.192,20.666 L24.192,14.160 L25.808,14.160 L25.808,20.665 L27.981,18.482 L27.981,15.524 L29.597,15.524 L29.597,18.007 L32.068,18.007 L32.068,19.630 L29.124,19.630 L26.950,21.813 L33.426,21.813 L33.426,23.436 L26.950,23.436 L29.124,25.620 L32.068,25.620 L32.068,27.243 L29.597,27.243 L29.597,29.725 L27.981,29.725 L27.981,26.767 L25.808,24.584 L25.808,31.090 L24.192,31.090 L24.192,24.584 L22.018,26.767 L22.018,29.725 L20.403,29.725 L20.403,27.243 L17.931,27.243 L17.931,25.620 L20.876,25.620 L23.049,23.436 L16.573,23.436 L16.573,21.813 L23.050,21.813 L20.876,19.630 ZM46.093,19.736 L44.478,19.736 L44.478,11.224 L46.093,11.224 L46.093,19.736 ZM46.093,41.600 L44.478,41.600 L44.478,21.900 L46.093,21.900 L46.093,41.600 Z" class="cls-1"/>
</svg>
