<svg xmlns="http://www.w3.org/2000/svg" xmlns:xlink="http://www.w3.org/1999/xlink" preserveAspectRatio="xMidYMid" width="121" height="121" viewBox="0 0 121 121">
  <defs>
    <style>
      .cls-1 {
        fill: #4c6897;
        stroke: #fff;
        stroke-linejoin: round;
        stroke-width: 3px;
        fill-rule: evenodd;
      }
    </style>
  </defs>
  <path d="M108.364,119.000 L12.636,119.000 C6.770,119.000 2.000,114.230 2.000,108.364 L2.000,12.636 C2.000,6.770 6.770,2.000 12.636,2.000 L108.364,2.000 C114.230,2.000 119.000,6.770 119.000,12.636 L119.000,108.364 C119.000,114.230 114.230,119.000 108.364,119.000 ZM113.682,12.636 C113.682,9.705 111.295,7.318 108.364,7.318 L12.636,7.318 C9.705,7.318 7.318,9.705 7.318,12.636 L7.318,108.364 C7.318,111.295 9.705,113.682 12.636,113.682 L108.364,113.682 C111.295,113.682 113.682,111.295 113.682,108.364 L113.682,12.636 ZM60.500,108.364 C34.109,108.364 12.636,86.891 12.636,60.500 C12.636,34.109 34.109,12.636 60.500,12.636 C86.891,12.636 108.364,34.109 108.364,60.500 C108.364,86.891 86.891,108.364 60.500,108.364 ZM60.500,17.954 C37.040,17.954 17.954,37.041 17.954,60.500 C17.954,83.959 37.040,103.045 60.500,103.045 C83.959,103.045 103.045,83.959 103.045,60.500 C103.045,37.041 83.959,17.954 60.500,17.954 ZM89.574,81.814 C88.803,81.814 88.065,81.479 87.559,80.890 C81.329,73.647 75.653,71.718 72.923,70.793 C72.833,70.763 72.753,70.731 72.664,70.701 C71.902,71.609 71.056,72.431 70.112,73.151 C72.176,76.968 75.148,83.685 76.117,92.227 C76.252,93.411 75.582,94.541 74.476,94.990 C70.005,96.805 65.302,97.727 60.500,97.727 C60.056,97.727 59.620,97.699 59.186,97.670 C58.350,97.628 57.322,97.179 56.852,96.483 C56.384,95.790 56.010,94.899 56.286,94.110 C59.391,85.177 58.296,79.269 57.768,76.428 C57.752,76.339 57.741,76.261 57.725,76.174 C56.542,75.965 55.394,75.660 54.316,75.205 C52.035,78.901 47.720,84.792 40.848,89.877 C40.378,90.225 39.822,90.399 39.266,90.399 C38.687,90.399 38.111,90.210 37.630,89.836 C33.413,86.540 29.889,82.300 27.441,77.574 C27.054,76.828 27.043,75.943 27.409,75.187 C27.778,74.431 28.482,73.894 29.308,73.738 C38.700,71.967 43.208,68.012 45.377,66.111 C45.442,66.054 45.503,66.005 45.566,65.949 C45.164,64.851 44.900,63.698 44.748,62.503 C40.413,62.379 33.105,61.588 25.239,58.170 C24.145,57.695 23.501,56.550 23.665,55.368 C24.410,49.983 26.269,44.950 29.191,40.406 C29.642,39.699 30.403,39.250 31.242,39.190 C32.071,39.154 32.891,39.471 33.442,40.110 C39.671,47.352 45.348,49.282 48.077,50.206 C48.167,50.236 48.247,50.268 48.336,50.298 C49.099,49.390 49.945,48.568 50.889,47.849 C48.825,44.031 45.852,37.315 44.883,28.772 C44.748,27.588 45.418,26.459 46.524,26.009 C51.411,24.028 56.706,22.992 61.814,23.329 C62.650,23.371 63.679,23.820 64.148,24.516 C64.616,25.209 64.990,26.100 64.715,26.890 C61.609,35.822 62.705,41.730 63.232,44.571 C63.248,44.660 63.259,44.738 63.275,44.826 C64.458,45.035 65.607,45.339 66.685,45.795 C68.966,42.099 73.281,36.207 80.152,31.123 C81.113,30.414 82.427,30.429 83.370,31.164 C87.649,34.509 91.079,38.632 93.560,43.426 C93.946,44.173 93.957,45.059 93.591,45.812 C93.222,46.568 92.518,47.105 91.692,47.261 C82.300,49.032 77.792,52.987 75.624,54.888 C75.559,54.945 75.498,54.994 75.434,55.050 C75.837,56.151 76.101,57.307 76.253,58.506 C80.578,58.628 87.873,59.399 95.762,62.829 C96.855,63.304 97.499,64.449 97.336,65.631 C96.590,71.016 94.731,76.049 91.810,80.593 C91.358,81.300 90.597,81.749 89.758,81.809 C89.696,81.811 89.636,81.814 89.574,81.814 ZM31.943,46.308 C30.720,48.765 29.827,51.362 29.276,54.075 C35.618,56.498 41.376,57.094 44.900,57.192 C44.968,56.873 45.101,56.581 45.187,56.269 C45.303,55.831 45.398,55.384 45.550,54.963 C42.582,53.925 37.555,51.889 31.943,46.308 ZM70.555,90.773 C69.479,84.045 67.101,78.737 65.423,75.636 C65.184,75.717 64.941,75.754 64.701,75.822 C64.257,75.944 63.824,76.081 63.366,76.165 C63.290,76.180 63.215,76.210 63.138,76.223 C63.684,79.298 64.406,84.702 62.383,92.354 C65.164,92.188 67.898,91.661 70.555,90.773 ZM49.661,72.138 C49.354,71.851 49.066,71.552 48.782,71.242 C48.603,71.051 48.398,70.878 48.230,70.679 C45.849,72.731 41.572,76.062 33.937,78.132 C35.456,80.409 37.277,82.502 39.326,84.328 C44.608,80.035 48.009,75.333 49.853,72.333 C49.783,72.272 49.729,72.200 49.661,72.138 ZM50.445,30.227 C51.520,36.955 53.899,42.263 55.576,45.363 C55.815,45.283 56.058,45.246 56.298,45.178 C56.741,45.056 57.175,44.919 57.633,44.835 C57.710,44.820 57.784,44.790 57.861,44.776 C57.316,41.702 56.594,36.298 58.617,28.645 C55.836,28.811 53.101,29.338 50.445,30.227 ZM60.500,49.863 C54.625,49.863 49.863,54.625 49.863,60.500 C49.863,66.374 54.625,71.136 60.500,71.136 C66.374,71.136 71.136,66.374 71.136,60.500 C71.136,54.625 66.374,49.863 60.500,49.863 ZM87.070,42.865 C85.551,40.580 83.746,38.508 81.676,36.669 C76.392,40.964 72.990,45.667 71.146,48.666 C71.216,48.727 71.270,48.800 71.338,48.862 C71.646,49.148 71.933,49.447 72.217,49.758 C72.396,49.949 72.602,50.122 72.769,50.320 C75.151,48.269 79.430,44.935 87.070,42.865 ZM91.723,66.924 C85.372,64.497 79.619,63.903 76.100,63.805 C76.031,64.131 75.896,64.427 75.808,64.746 C75.693,65.178 75.599,65.619 75.449,66.036 C78.417,67.075 83.445,69.111 89.056,74.691 C90.279,72.235 91.173,69.638 91.723,66.924 ZM103.045,23.272 C100.108,23.272 97.727,20.891 97.727,17.954 C97.727,15.017 100.108,12.636 103.045,12.636 C105.982,12.636 108.363,15.017 108.363,17.954 C108.363,20.891 105.982,23.272 103.045,23.272 ZM17.954,23.272 C15.017,23.272 12.636,20.891 12.636,17.954 C12.636,15.017 15.017,12.636 17.954,12.636 C20.891,12.636 23.272,15.017 23.272,17.954 C23.272,20.891 20.891,23.272 17.954,23.272 ZM17.954,97.727 C20.891,97.727 23.272,100.108 23.272,103.045 C23.272,105.982 20.891,108.363 17.954,108.363 C15.017,108.363 12.636,105.982 12.636,103.045 C12.636,100.108 15.017,97.727 17.954,97.727 ZM103.045,97.727 C105.982,97.727 108.363,100.108 108.363,103.045 C108.363,105.982 105.982,108.363 103.045,108.363 C100.108,108.363 97.727,105.982 97.727,103.045 C97.727,100.108 100.108,97.727 103.045,97.727 Z" class="cls-1"/>
</svg>
