<svg xmlns="http://www.w3.org/2000/svg" xmlns:xlink="http://www.w3.org/1999/xlink" preserveAspectRatio="xMidYMid" width="27" height="60" viewBox="0 0 27 60">
  <defs>
    <style>
      .cls-1 {
        fill: #e8e8e8;
      }

      .cls-1, .cls-2, .cls-3, .cls-4, .cls-5 {
        fill-rule: evenodd;
      }

      .cls-2 {
        fill: #ffcdd2;
      }

      .cls-3 {
        fill: #efb8bd;
      }

      .cls-4 {
        fill: #c16770;
      }

      .cls-5 {
        stroke: #c16770;
        stroke-width: 3px;
        fill: none;
      }
    </style>
  </defs>
  <g>
    <path d="M1.019,34.790 C1.019,34.790 1.493,28.117 1.528,25.714 C1.563,23.311 4.804,18.033 5.604,17.647 C6.403,17.261 6.078,13.495 8.151,13.613 C10.224,13.731 14.484,12.739 15.283,14.622 C16.082,16.505 15.757,17.781 16.302,19.160 C16.846,20.538 16.811,25.714 16.811,25.714 C16.811,25.714 20.342,27.361 21.906,29.748 C23.469,32.135 22.924,36.807 22.924,36.807 C22.924,36.807 2.547,38.571 1.019,34.790 Z" class="cls-1"/>
    <path d="M1.019,35.294 C1.019,35.294 3.980,32.805 6.623,33.277 C9.265,33.750 8.055,35.326 11.207,34.790 C14.360,34.254 15.952,33.057 18.340,33.277 C20.728,33.498 22.924,34.790 22.924,34.790 L22.924,44.874 L23.434,54.454 L20.377,57.479 L16.811,58.992 L7.641,59.496 C7.641,59.496 2.961,59.275 2.547,57.479 C2.133,55.683 1.687,57.258 1.528,49.916 C1.369,42.574 1.019,35.294 1.019,35.294 Z" class="cls-2"/>
    <path d="M6.113,17.143 C6.113,17.143 5.218,13.443 7.132,13.613 C9.046,13.784 14.773,13.109 14.773,13.109 L15.792,17.647 L6.113,17.143 Z" class="cls-3"/>
    <path d="M1.528,5.042 C1.528,5.042 4.235,2.048 7.132,1.513 C10.029,0.977 18.340,1.008 18.340,1.008 C18.340,1.008 24.867,2.552 25.981,2.521 C27.095,2.489 25.981,5.546 25.981,5.546 C25.981,5.546 23.593,4.821 21.396,6.050 C19.199,7.279 22.415,11.597 22.415,11.597 L20.377,13.613 L16.302,7.563 L13.755,8.571 L13.755,12.101 L8.151,12.605 L8.151,8.571 L1.019,8.067 L1.528,5.042 Z" class="cls-2"/>
    <path d="M22.415,2.521 L26.490,2.521 L26.490,6.050 L22.415,6.050 L22.415,2.521 Z" class="cls-3"/>
    <path d="M25.583,1.970 L22.826,1.696 C22.821,1.695 22.816,1.695 22.811,1.695 C21.910,1.339 18.220,-0.000 13.637,-0.000 C8.489,-0.000 4.130,1.657 0.682,4.925 C0.494,5.103 0.387,5.349 0.387,5.605 L0.387,8.794 C0.387,9.317 0.821,9.741 1.356,9.741 L6.777,9.741 L6.777,12.519 C5.907,12.950 5.307,13.831 5.307,14.848 L5.307,16.632 C5.160,16.640 5.016,16.678 4.886,16.748 C3.036,17.750 1.912,20.385 1.295,22.418 C0.460,25.173 -0.000,28.653 -0.000,32.219 L-0.000,50.276 L-0.000,53.611 C-0.000,54.977 0.831,56.155 2.023,56.690 L2.023,57.389 C2.023,58.828 3.221,60.000 4.693,60.000 L18.112,60.000 C19.584,60.000 21.862,58.829 21.862,57.389 L21.862,56.690 C23.054,56.155 23.885,54.977 23.885,53.611 L23.885,50.276 L23.885,32.263 L23.885,32.219 C23.885,32.208 23.884,32.198 23.883,32.188 C23.850,28.989 20.611,26.194 17.542,25.256 L17.542,20.015 C17.542,18.895 16.983,17.901 16.123,17.284 L16.123,14.849 C16.123,13.837 15.530,12.959 14.668,12.526 L14.668,9.814 L15.844,9.455 L18.127,13.324 C18.587,14.103 19.445,14.588 20.365,14.588 C20.365,14.588 20.365,14.588 20.365,14.588 C20.817,14.588 21.263,14.471 21.655,14.249 C22.253,13.912 22.680,13.367 22.859,12.715 C23.037,12.063 22.946,11.382 22.601,10.798 L20.897,7.912 L22.918,7.295 C22.919,7.295 22.920,7.294 22.921,7.294 L25.583,7.030 C26.370,6.998 27.000,6.362 27.000,5.584 L27.000,3.415 C27.000,2.637 26.370,2.001 25.583,1.970 ZM19.925,57.389 L19.925,57.389 C19.925,57.784 18.516,58.105 18.112,58.105 L4.693,58.105 C4.289,58.105 3.960,57.784 3.960,57.389 L3.960,56.997 L19.924,56.997 L19.924,57.389 L19.925,57.389 ZM1.937,55.189 L1.937,35.744 C1.937,35.744 3.527,34.570 5.880,34.570 C7.470,34.570 9.441,35.510 11.380,35.510 C13.331,35.510 15.330,34.687 17.040,34.687 C19.874,34.687 21.948,35.510 21.948,35.510 L21.948,55.189 M21.948,57.083 L21.948,53.612 C21.948,54.331 21.425,54.933 20.731,55.072 C20.724,55.073 20.718,55.074 20.711,55.075 C20.612,55.093 20.515,55.103 20.424,55.103 L3.461,55.103 C3.369,55.103 3.273,55.093 3.174,55.075 C3.167,55.074 3.160,55.073 3.154,55.072 C2.460,54.933 1.937,54.331 1.937,53.612 L1.937,55.911 M14.736,18.672 C14.739,18.673 14.741,18.674 14.744,18.675 C15.253,18.917 15.605,19.426 15.605,20.015 L15.605,25.991 C15.605,26.443 15.932,26.832 16.386,26.920 C18.645,27.357 21.724,29.349 21.854,33.615 C21.854,33.615 19.844,32.812 17.040,32.812 C15.390,32.812 13.426,33.615 11.540,33.615 C9.580,33.615 7.858,32.578 6.240,32.578 C3.852,32.578 1.949,33.615 1.949,33.615 C1.968,32.799 2.012,29.664 2.077,28.904 L4.538,28.904 C5.074,28.904 5.507,28.480 5.507,27.956 C5.507,27.433 5.074,27.009 4.538,27.009 L2.291,27.009 C2.359,26.531 2.434,26.067 2.518,25.620 L5.176,25.620 C5.711,25.620 6.144,25.196 6.144,24.673 C6.144,24.150 5.711,23.725 5.176,23.725 L2.945,23.725 C3.075,23.234 3.215,22.770 3.363,22.337 L5.951,22.337 C6.486,22.337 6.919,21.912 6.919,21.389 C6.919,20.866 6.486,20.442 5.951,20.442 L4.153,20.442 C4.621,19.532 5.127,18.876 5.633,18.524 L6.276,18.524 L14.081,18.524 C14.136,18.524 14.191,18.527 14.245,18.533 C14.253,18.534 14.261,18.536 14.268,18.537 C14.317,18.543 14.365,18.550 14.412,18.561 C14.415,18.562 14.418,18.563 14.421,18.563 C14.529,18.588 14.634,18.624 14.736,18.672 ZM7.244,16.630 L7.244,14.849 C7.244,14.453 7.573,14.132 7.977,14.132 L13.454,14.132 C13.858,14.132 14.186,14.453 14.186,14.849 L14.186,16.631 C14.151,16.630 14.116,16.630 14.081,16.630 L7.244,16.630 ZM20.923,11.745 C21.009,11.891 21.032,12.062 20.988,12.224 C20.943,12.387 20.836,12.523 20.687,12.608 C20.587,12.664 20.479,12.693 20.365,12.693 C20.135,12.693 19.920,12.572 19.805,12.377 L17.739,8.877 L19.002,8.491 L20.923,11.745 ZM21.661,5.694 L19.165,6.456 C19.165,6.456 19.165,6.456 19.165,6.456 L16.006,7.421 C16.006,7.421 16.006,7.421 16.006,7.421 L13.411,8.213 C13.006,8.337 12.731,8.703 12.731,9.118 L12.731,12.237 L8.714,12.237 L8.714,8.794 C8.714,8.271 8.281,7.847 7.746,7.847 L2.324,7.847 L2.324,6.013 C5.352,3.280 9.156,1.895 13.637,1.895 C17.305,1.895 20.417,2.852 21.661,3.295 L21.661,5.694 L21.661,5.694 ZM25.063,5.177 L23.598,5.322 L23.598,3.677 L25.063,3.822 L25.063,5.177 Z" class="cls-4"/>
  </g>
  <path d="M11.717,17.647 L11.717,46.387 " class="cls-5"/>
  <path d="M9.679,45.882 L12.226,45.882 C12.508,45.882 12.736,46.108 12.736,46.387 L12.736,48.908 C12.736,49.186 12.508,49.412 12.226,49.412 L9.679,49.412 C9.398,49.412 9.170,49.186 9.170,48.908 L9.170,46.387 C9.170,46.108 9.398,45.882 9.679,45.882 Z" class="cls-5"/>
</svg>
