<svg xmlns="http://www.w3.org/2000/svg" xmlns:xlink="http://www.w3.org/1999/xlink" preserveAspectRatio="xMidYMid" width="27" height="60" viewBox="0 0 27 60">
  <defs>
    <style>
      .cls-1 {
        fill: #4c6897;
        stroke: #fff;
        stroke-linejoin: round;
        stroke-width: 1px;
      }

      .cls-1, .cls-2 {
        fill-rule: evenodd;
      }

      .cls-2 {
        stroke: #4c6897;
        stroke-width: 2px;
        fill: none;
      }
    </style>
  </defs>
  <path d="M25.143,2.433 L22.487,2.164 C22.482,2.163 22.477,2.163 22.472,2.163 C21.604,1.813 18.048,0.496 13.633,0.496 C8.671,0.496 4.470,2.125 1.148,5.339 C0.967,5.515 0.864,5.756 0.864,6.008 L0.864,9.145 C0.864,9.659 1.282,10.076 1.797,10.076 L7.022,10.076 L7.022,12.808 C6.183,13.232 5.605,14.098 5.605,15.099 L5.605,16.853 C5.463,16.860 5.324,16.898 5.199,16.967 C3.416,17.953 2.334,20.544 1.739,22.544 C0.934,25.253 0.491,28.676 0.491,32.182 L0.491,49.941 L0.491,53.221 C0.491,54.564 1.291,55.722 2.441,56.249 L2.441,56.936 C2.441,58.352 3.595,59.504 5.013,59.504 L17.945,59.504 C19.363,59.504 21.558,58.352 21.558,56.936 L21.558,56.249 C22.707,55.722 23.507,54.564 23.507,53.221 L23.507,49.941 L23.507,32.226 L23.507,32.182 C23.507,32.172 23.506,32.162 23.506,32.152 C23.474,29.006 20.352,26.257 17.395,25.334 L17.395,20.180 C17.395,19.079 16.856,18.101 16.028,17.494 L16.028,15.099 C16.028,14.104 15.457,13.241 14.625,12.815 L14.625,10.148 L15.759,9.795 L17.959,13.600 C18.402,14.366 19.229,14.842 20.116,14.842 C20.116,14.842 20.116,14.842 20.116,14.842 C20.551,14.842 20.981,14.727 21.359,14.509 C21.935,14.177 22.346,13.642 22.519,13.001 C22.691,12.359 22.602,11.690 22.270,11.115 L20.628,8.277 L22.576,7.670 C22.577,7.670 22.578,7.669 22.579,7.669 L25.143,7.409 C25.902,7.378 26.509,6.752 26.509,5.988 L26.509,3.854 C26.509,3.090 25.902,2.464 25.143,2.433 ZM19.691,56.936 L19.691,56.936 C19.691,57.325 18.334,57.641 17.944,57.641 L5.013,57.641 C4.624,57.641 4.307,57.325 4.307,56.936 L4.307,56.551 L19.691,56.551 L19.691,56.936 L19.691,56.936 ZM2.357,54.772 L2.357,35.649 C2.357,35.649 3.890,34.495 6.157,34.495 C7.689,34.495 9.588,35.419 11.457,35.419 C13.337,35.419 15.263,34.610 16.911,34.610 C19.642,34.610 21.641,35.419 21.641,35.419 L21.641,54.772 M21.641,56.636 L21.641,53.221 C21.641,53.929 21.136,54.521 20.468,54.658 C20.462,54.659 20.455,54.659 20.449,54.660 C20.354,54.679 20.260,54.688 20.172,54.688 L3.827,54.688 C3.738,54.688 3.645,54.679 3.550,54.660 C3.543,54.659 3.536,54.659 3.530,54.658 C2.862,54.520 2.357,53.929 2.357,53.221 L2.357,55.483 M14.691,18.859 C14.694,18.860 14.696,18.861 14.698,18.862 C15.189,19.100 15.529,19.601 15.529,20.180 L15.529,26.057 C15.529,26.502 15.844,26.885 16.281,26.971 C18.458,27.401 21.425,29.360 21.550,33.555 C21.550,33.555 19.614,32.766 16.911,32.766 C15.322,32.766 13.429,33.555 11.611,33.555 C9.722,33.555 8.063,32.535 6.504,32.535 C4.203,32.535 2.369,33.555 2.369,33.555 C2.388,32.753 2.430,29.670 2.492,28.922 L4.864,28.922 C5.380,28.922 5.798,28.505 5.798,27.990 C5.798,27.476 5.380,27.058 4.864,27.058 L2.699,27.058 C2.764,26.588 2.837,26.132 2.918,25.693 L5.478,25.693 C5.994,25.693 6.412,25.275 6.412,24.761 C6.412,24.246 5.994,23.829 5.478,23.829 L3.329,23.829 C3.454,23.346 3.589,22.890 3.731,22.463 L6.225,22.463 C6.741,22.463 7.158,22.046 7.158,21.531 C7.158,21.017 6.741,20.600 6.225,20.600 L4.493,20.600 C4.944,19.705 5.431,19.059 5.919,18.714 L6.539,18.714 L14.060,18.714 C14.113,18.714 14.166,18.717 14.218,18.723 C14.226,18.724 14.233,18.726 14.240,18.726 C14.287,18.732 14.333,18.740 14.379,18.750 C14.382,18.751 14.385,18.752 14.388,18.752 C14.491,18.776 14.593,18.812 14.691,18.859 ZM7.472,16.851 L7.472,15.099 C7.472,14.710 7.789,14.394 8.178,14.394 L13.455,14.394 C13.845,14.394 14.161,14.710 14.161,15.099 L14.161,16.852 C14.127,16.851 14.094,16.851 14.060,16.851 L7.472,16.851 ZM20.653,12.047 C20.736,12.191 20.759,12.358 20.715,12.518 C20.672,12.678 20.570,12.812 20.426,12.895 C20.329,12.951 20.225,12.979 20.116,12.979 C19.894,12.979 19.686,12.860 19.576,12.668 L17.585,9.226 L18.802,8.846 L20.653,12.047 ZM21.364,6.096 L18.959,6.845 C18.959,6.845 18.959,6.845 18.959,6.845 L15.915,7.794 C15.915,7.794 15.915,7.794 15.915,7.794 L13.414,8.574 C13.024,8.695 12.759,9.055 12.759,9.463 L12.759,12.531 L8.888,12.531 L8.888,9.145 C8.888,8.630 8.471,8.213 7.955,8.213 L2.731,8.213 L2.731,6.409 C5.648,3.721 9.314,2.359 13.633,2.359 C17.167,2.359 20.166,3.300 21.364,3.736 L21.364,6.096 L21.364,6.096 ZM24.643,5.587 L23.231,5.730 L23.231,4.112 L24.643,4.255 L24.643,5.587 Z" class="cls-1"/>
  <path d="M11.291,17.851 L11.291,46.116 " class="cls-2"/>
  <path d="M9.818,45.620 L11.782,45.620 C12.053,45.620 12.273,45.842 12.273,46.116 L12.273,48.099 C12.273,48.373 12.053,48.595 11.782,48.595 L9.818,48.595 C9.547,48.595 9.327,48.373 9.327,48.099 L9.327,46.116 C9.327,45.842 9.547,45.620 9.818,45.620 Z" class="cls-2"/>
</svg>
