<svg xmlns="http://www.w3.org/2000/svg" xmlns:xlink="http://www.w3.org/1999/xlink" preserveAspectRatio="xMidYMid" width="53" height="119" viewBox="0 0 53 119">
  <defs>
    <style>
      .cls-1 {
        fill: #e8e8e8;
      }

      .cls-1, .cls-2, .cls-3, .cls-5, .cls-6 {
        fill-rule: evenodd;
      }

      .cls-2 {
        fill: #ffcdd2;
      }

      .cls-3, .cls-4 {
        fill: #efb8bd;
      }

      .cls-5 {
        fill: #c16770;
      }

      .cls-6, .cls-7 {
        stroke: #c16770;
        stroke-width: 3px;
        fill: none;
      }
    </style>
  </defs>
  <g>
    <path d="M2.000,69.000 C2.000,69.000 2.931,55.766 3.000,51.000 C3.069,46.234 9.431,35.766 11.000,35.000 C12.569,34.234 11.931,26.766 16.000,27.000 C20.069,27.234 28.431,25.266 30.000,29.000 C31.569,32.734 30.931,35.266 32.000,38.000 C33.069,40.734 33.000,51.000 33.000,51.000 C33.000,51.000 39.931,54.266 43.000,59.000 C46.069,63.734 45.000,73.000 45.000,73.000 C45.000,73.000 5.000,76.500 2.000,69.000 Z" class="cls-1"/>
    <path d="M2.000,70.000 C2.000,70.000 7.812,65.062 13.000,66.000 C18.187,66.937 15.812,70.062 22.000,69.000 C28.187,67.937 31.312,65.562 36.000,66.000 C40.687,66.437 45.000,69.000 45.000,69.000 L45.000,89.000 L46.000,108.000 L40.000,114.000 L33.000,117.000 L15.000,118.000 C15.000,118.000 5.812,117.562 5.000,114.000 C4.187,110.437 3.312,113.562 3.000,99.000 C2.687,84.437 2.000,70.000 2.000,70.000 Z" class="cls-2"/>
    <path d="M12.000,34.000 C12.000,34.000 10.243,26.662 14.000,27.000 C17.756,27.338 29.000,26.000 29.000,26.000 L31.000,35.000 L12.000,34.000 Z" class="cls-3"/>
    <path d="M3.000,10.000 C3.000,10.000 8.312,4.062 14.000,3.000 C19.687,1.937 36.000,2.000 36.000,2.000 C36.000,2.000 48.812,5.062 51.000,5.000 C53.187,4.937 51.000,11.000 51.000,11.000 C51.000,11.000 46.312,9.562 42.000,12.000 C37.687,14.437 44.000,23.000 44.000,23.000 L40.000,27.000 L32.000,15.000 L27.000,17.000 L27.000,24.000 L16.000,25.000 L16.000,17.000 L2.000,16.000 L3.000,10.000 Z" class="cls-2"/>
    <rect x="44" y="5" width="8" height="7" class="cls-4"/>
    <path d="M50.218,3.906 L44.807,3.363 C44.797,3.362 44.787,3.363 44.777,3.362 C43.009,2.655 35.764,-0.000 26.770,-0.000 C16.663,-0.000 8.106,3.286 1.338,9.767 C0.969,10.121 0.760,10.608 0.760,11.117 L0.760,17.442 C0.760,18.479 1.611,19.321 2.661,19.321 L13.303,19.321 L13.303,24.830 C11.595,25.684 10.418,27.432 10.418,29.449 L10.418,32.988 C10.129,33.002 9.846,33.078 9.591,33.217 C5.959,35.205 3.754,40.430 2.543,44.463 C0.903,49.927 -0.000,56.829 -0.000,63.900 L-0.000,99.715 L-0.000,106.329 C-0.000,109.037 1.631,111.374 3.972,112.435 L3.972,113.821 C3.972,116.676 6.322,119.000 9.212,119.000 L35.554,119.000 C38.443,119.000 42.913,116.677 42.913,113.821 L42.913,112.435 C45.254,111.374 46.885,109.037 46.885,106.329 L46.885,99.715 L46.885,63.989 L46.885,63.900 C46.885,63.880 46.883,63.860 46.882,63.840 C46.816,57.495 40.458,51.952 34.435,50.090 L34.435,39.697 C34.435,37.475 33.336,35.503 31.649,34.280 L31.649,29.450 C31.649,27.443 30.486,25.703 28.792,24.843 L28.792,19.465 L31.101,18.753 L35.583,26.426 C36.486,27.972 38.169,28.932 39.976,28.932 C39.977,28.932 39.976,28.932 39.977,28.932 C40.863,28.932 41.738,28.700 42.509,28.260 C43.681,27.591 44.521,26.511 44.871,25.218 C45.221,23.925 45.041,22.575 44.364,21.416 L41.021,15.692 L44.987,14.469 C44.990,14.468 44.991,14.467 44.994,14.466 L50.218,13.942 C51.763,13.879 53.000,12.617 53.000,11.076 L53.000,6.773 C53.000,5.231 51.763,3.969 50.218,3.906 ZM39.111,113.821 L39.111,113.821 C39.111,114.605 36.346,115.242 35.553,115.242 L9.212,115.242 C8.419,115.242 7.774,114.605 7.774,113.821 L7.774,113.045 L39.111,113.045 L39.111,113.821 L39.111,113.821 ZM3.802,109.458 L3.802,70.893 C3.802,70.893 6.924,68.564 11.542,68.564 C14.663,68.564 18.532,70.428 22.338,70.428 C26.168,70.428 30.092,68.797 33.449,68.797 C39.011,68.797 43.083,70.428 43.083,70.428 L43.083,109.458 M43.083,113.215 L43.083,106.330 C43.083,107.756 42.056,108.950 40.694,109.227 C40.681,109.229 40.668,109.229 40.655,109.232 C40.461,109.268 40.271,109.287 40.091,109.287 L6.795,109.287 C6.614,109.287 6.424,109.269 6.231,109.232 C6.217,109.229 6.204,109.229 6.191,109.227 C4.829,108.950 3.802,107.756 3.802,106.330 L3.802,110.891 M28.926,37.032 C28.931,37.035 28.936,37.036 28.941,37.038 C29.941,37.518 30.632,38.528 30.632,39.697 L30.632,51.548 C30.632,52.446 31.274,53.218 32.165,53.392 C36.599,54.258 42.644,58.209 42.899,66.670 C42.899,66.670 38.954,65.078 33.449,65.078 C30.211,65.078 26.356,66.670 22.652,66.670 C18.804,66.670 15.425,64.613 12.249,64.613 C7.562,64.613 3.826,66.670 3.826,66.670 C3.864,65.051 3.949,58.834 4.077,57.326 L8.909,57.326 C9.959,57.326 10.810,56.485 10.810,55.447 C10.810,54.409 9.959,53.568 8.909,53.568 L4.498,53.568 C4.631,52.620 4.779,51.699 4.944,50.813 L10.160,50.813 C11.210,50.813 12.061,49.972 12.061,48.934 C12.061,47.897 11.210,47.055 10.160,47.055 L5.781,47.055 C6.036,46.082 6.311,45.161 6.601,44.301 L11.681,44.301 C12.731,44.301 13.582,43.460 13.582,42.422 C13.582,41.384 12.731,40.543 11.681,40.543 L8.152,40.543 C9.071,38.738 10.063,37.437 11.057,36.740 L12.319,36.740 L27.640,36.740 C27.748,36.740 27.856,36.746 27.963,36.758 C27.978,36.760 27.993,36.763 28.008,36.765 C28.103,36.777 28.198,36.791 28.291,36.813 C28.297,36.814 28.303,36.816 28.309,36.817 C28.519,36.866 28.726,36.937 28.926,37.032 ZM14.221,32.982 L14.221,29.450 C14.221,28.666 14.866,28.029 15.659,28.029 L26.409,28.029 C27.202,28.029 27.847,28.666 27.847,29.450 L27.847,32.985 C27.778,32.983 27.709,32.982 27.640,32.982 L14.221,32.982 ZM41.071,23.295 C41.241,23.585 41.286,23.922 41.198,24.245 C41.110,24.568 40.901,24.838 40.608,25.006 C40.412,25.117 40.200,25.174 39.977,25.174 C39.524,25.174 39.102,24.934 38.876,24.547 L34.821,17.605 L37.301,16.840 L41.071,23.295 ZM42.520,11.293 L37.620,12.805 C37.620,12.805 37.620,12.805 37.620,12.805 L31.420,14.718 C31.420,14.718 31.420,14.718 31.420,14.718 L26.325,16.290 C25.531,16.535 24.990,17.261 24.990,18.083 L24.990,24.271 L17.106,24.271 L17.106,17.442 C17.106,16.404 16.255,15.563 15.204,15.563 L4.562,15.563 L4.562,11.926 C10.505,6.505 17.972,3.758 26.770,3.758 C33.970,3.758 40.078,5.656 42.520,6.534 L42.520,11.293 L42.520,11.293 ZM49.198,10.267 L46.322,10.556 L46.322,7.293 L49.198,7.581 L49.198,10.267 Z" class="cls-5"/>
  </g>
  <path d="M23.000,35.000 L23.000,92.000 " class="cls-6"/>
  <rect x="18" y="91" width="7" height="7" rx="1" ry="1" class="cls-7"/>
</svg>
