<svg xmlns="http://www.w3.org/2000/svg" xmlns:xlink="http://www.w3.org/1999/xlink" preserveAspectRatio="xMidYMid" width="55" height="121" viewBox="0 0 55 121">
  <defs>
    <style>
      .cls-1 {
        fill: #4c6897;
        stroke: #fff;
        stroke-linejoin: round;
        stroke-width: 1px;
      }

      .cls-1, .cls-2 {
        fill-rule: evenodd;
      }

      .cls-2, .cls-3 {
        stroke: #4c6897;
        stroke-width: 2px;
        fill: none;
      }
    </style>
  </defs>
  <path d="M51.218,4.906 L45.807,4.363 C45.797,4.362 45.787,4.363 45.777,4.362 C44.009,3.655 36.765,1.000 27.770,1.000 C17.663,1.000 9.107,4.286 2.339,10.767 C1.969,11.121 1.760,11.608 1.760,12.117 L1.760,18.442 C1.760,19.479 2.611,20.321 3.661,20.321 L14.303,20.321 L14.303,25.830 C12.595,26.684 11.418,28.432 11.418,30.449 L11.418,33.988 C11.129,34.002 10.846,34.078 10.591,34.217 C6.960,36.205 4.754,41.430 3.543,45.463 C1.903,50.927 1.000,57.829 1.000,64.900 L1.000,100.715 L1.000,107.329 C1.000,110.037 2.631,112.374 4.972,113.435 L4.972,114.821 C4.972,117.676 7.322,120.000 10.212,120.000 L36.554,120.000 C39.443,120.000 43.914,117.677 43.914,114.821 L43.914,113.435 C46.255,112.374 47.885,110.037 47.885,107.329 L47.885,100.715 L47.885,64.989 L47.885,64.900 C47.885,64.880 47.883,64.860 47.882,64.840 C47.817,58.495 41.458,52.952 35.435,51.090 L35.435,40.697 C35.435,38.475 34.337,36.503 32.649,35.280 L32.649,30.450 C32.649,28.443 31.486,26.703 29.792,25.843 L29.792,20.465 L32.101,19.753 L36.583,27.426 C37.486,28.972 39.170,29.932 40.977,29.932 C40.977,29.932 40.977,29.932 40.977,29.932 C41.863,29.932 42.738,29.700 43.509,29.260 C44.682,28.591 45.521,27.511 45.871,26.218 C46.221,24.925 46.041,23.575 45.364,22.416 L42.021,16.692 L45.988,15.469 C45.990,15.468 45.991,15.467 45.994,15.466 L51.218,14.942 C52.763,14.879 54.000,13.617 54.000,12.076 L54.000,7.773 C54.000,6.231 52.763,4.969 51.218,4.906 ZM40.111,114.821 L40.111,114.821 C40.111,115.605 37.346,116.242 36.553,116.242 L10.212,116.242 C9.419,116.242 8.774,115.605 8.774,114.821 L8.774,114.045 L40.111,114.045 L40.111,114.821 L40.111,114.821 ZM4.802,110.457 L4.802,71.893 C4.802,71.893 7.924,69.564 12.542,69.564 C15.663,69.564 19.532,71.428 23.338,71.428 C27.168,71.428 31.092,69.797 34.449,69.797 C40.011,69.797 44.083,71.428 44.083,71.428 L44.083,110.457 M44.083,114.215 L44.083,107.330 C44.083,108.756 43.056,109.950 41.694,110.227 C41.681,110.229 41.668,110.229 41.655,110.232 C41.461,110.268 41.271,110.287 41.091,110.287 L7.795,110.287 C7.614,110.287 7.424,110.269 7.231,110.232 C7.217,110.229 7.204,110.229 7.191,110.227 C5.829,109.950 4.802,108.756 4.802,107.330 L4.802,111.891 M29.927,38.032 C29.931,38.035 29.936,38.036 29.941,38.038 C30.941,38.518 31.633,39.528 31.633,40.697 L31.633,52.548 C31.633,53.446 32.274,54.218 33.165,54.392 C37.599,55.258 43.644,59.209 43.899,67.670 C43.899,67.670 39.954,66.078 34.449,66.078 C31.211,66.078 27.356,67.670 23.653,67.670 C19.804,67.670 16.425,65.613 13.249,65.613 C8.562,65.613 4.826,67.670 4.826,67.670 C4.864,66.051 4.949,59.834 5.077,58.326 L9.909,58.326 C10.959,58.326 11.810,57.485 11.810,56.447 C11.810,55.409 10.959,54.568 9.909,54.568 L5.498,54.568 C5.631,53.620 5.779,52.699 5.944,51.813 L11.160,51.813 C12.210,51.813 13.061,50.972 13.061,49.934 C13.061,48.897 12.210,48.055 11.160,48.055 L6.781,48.055 C7.036,47.082 7.311,46.161 7.601,45.301 L12.681,45.301 C13.731,45.301 14.582,44.460 14.582,43.422 C14.582,42.384 13.731,41.543 12.681,41.543 L9.152,41.543 C10.071,39.738 11.063,38.437 12.057,37.740 L13.319,37.740 L28.640,37.740 C28.748,37.740 28.856,37.746 28.963,37.758 C28.979,37.760 28.993,37.763 29.008,37.765 C29.103,37.777 29.198,37.791 29.291,37.813 C29.297,37.814 29.303,37.816 29.309,37.817 C29.519,37.866 29.726,37.937 29.927,38.032 ZM15.221,33.982 L15.221,30.450 C15.221,29.666 15.866,29.029 16.659,29.029 L27.409,29.029 C28.202,29.029 28.847,29.666 28.847,30.450 L28.847,33.985 C28.778,33.983 28.709,33.982 28.640,33.982 L15.221,33.982 ZM42.071,24.295 C42.241,24.585 42.286,24.922 42.198,25.245 C42.110,25.568 41.901,25.838 41.608,26.006 C41.412,26.117 41.200,26.174 40.977,26.174 C40.524,26.174 40.102,25.934 39.876,25.547 L35.821,18.605 L38.301,17.840 L42.071,24.295 ZM43.520,12.293 L38.620,13.805 C38.620,13.805 38.620,13.805 38.620,13.805 L32.420,15.718 C32.420,15.718 32.420,15.718 32.420,15.718 L27.325,17.290 C26.531,17.535 25.990,18.261 25.990,19.083 L25.990,25.271 L18.106,25.271 L18.106,18.442 C18.106,17.404 17.255,16.563 16.204,16.563 L5.562,16.563 L5.562,12.926 C11.505,7.505 18.972,4.758 27.770,4.758 C34.970,4.758 41.078,6.655 43.520,7.534 L43.520,12.293 L43.520,12.293 ZM50.198,11.267 L47.322,11.556 L47.322,8.293 L50.198,8.581 L50.198,11.267 Z" class="cls-1"/>
  <path d="M23.000,36.000 L23.000,93.000 " class="cls-2"/>
  <rect x="19" y="92" width="6" height="6" rx="1" ry="1" class="cls-3"/>
</svg>
