<svg xmlns="http://www.w3.org/2000/svg" xmlns:xlink="http://www.w3.org/1999/xlink" preserveAspectRatio="xMidYMid" width="53" height="60" viewBox="0 0 53 60">
  <defs>
    <style>
      .cls-1 {
        fill: #b7cff7;
      }

      .cls-1, .cls-2, .cls-3 {
        fill-rule: evenodd;
      }

      .cls-2 {
        fill: #8ddaeb;
      }

      .cls-3 {
        fill: #517fcd;
      }
    </style>
  </defs>
  <g>
    <path d="M2.904,29.268 L48.644,29.268 L47.192,55.610 C47.192,55.610 46.713,58.880 43.562,59.268 C40.410,59.657 7.260,58.537 7.260,58.537 C7.260,58.537 4.603,56.867 4.356,55.610 C4.109,54.352 2.904,29.268 2.904,29.268 Z" class="cls-1"/>
    <path d="M0.726,19.756 L0.726,27.073 C0.726,27.073 2.244,29.245 5.082,29.268 C7.920,29.291 48.644,28.537 48.644,28.537 C48.644,28.537 51.432,28.148 51.548,26.341 C51.664,24.535 51.548,19.024 51.548,19.024 L0.726,19.756 Z" class="cls-2"/>
    <path d="M1.452,18.293 L-0.000,14.634 L-0.000,4.390 L3.630,1.463 L48.644,1.463 L51.548,4.390 L51.548,14.634 L49.370,18.293 L47.918,17.561 L47.192,12.439 L44.288,10.244 L7.260,10.244 L4.356,13.171 L3.630,18.293 L1.452,18.293 Z" class="cls-1"/>
    <path d="M50.239,28.962 L48.969,54.593 C48.841,57.173 46.653,59.271 44.091,59.271 L8.909,59.271 C6.347,59.271 4.159,57.173 4.031,54.594 L2.761,28.962 C1.191,28.558 0.028,27.121 0.028,25.416 L0.028,18.370 C0.028,17.848 0.448,17.424 0.966,17.424 L3.782,17.424 L3.782,13.501 C3.782,10.893 5.887,8.772 8.474,8.772 L44.526,8.772 C47.113,8.772 49.218,10.893 49.218,13.501 L49.218,17.424 L52.034,17.424 C52.552,17.424 52.972,17.848 52.972,18.370 L52.972,25.416 C52.972,27.121 51.809,28.558 50.239,28.962 ZM5.905,54.499 C5.984,56.087 7.332,57.379 8.909,57.379 L44.091,57.379 C45.668,57.379 47.016,56.087 47.095,54.499 L48.354,29.076 L4.646,29.076 L5.905,54.499 ZM47.341,13.501 C47.341,11.936 46.078,10.663 44.526,10.663 L8.474,10.663 C6.922,10.663 5.659,11.936 5.659,13.501 L5.659,17.424 L47.341,17.424 L47.341,13.501 ZM51.096,19.316 L1.905,19.316 L1.905,25.416 C1.905,26.390 2.692,27.184 3.659,27.184 L49.341,27.184 C50.308,27.184 51.095,26.390 51.095,25.416 L51.096,25.416 L51.096,19.316 ZM48.280,24.196 L4.720,24.196 C4.202,24.196 3.782,23.772 3.782,23.250 C3.782,22.728 4.202,22.304 4.720,22.304 L48.280,22.304 C48.798,22.304 49.218,22.728 49.218,23.250 C49.218,23.772 48.798,24.196 48.280,24.196 ZM35.410,48.411 C35.236,48.715 34.920,48.884 34.596,48.884 C34.437,48.884 34.276,48.844 34.128,48.758 L33.232,48.236 L33.238,48.306 C33.288,48.826 32.909,49.288 32.393,49.337 C32.363,49.340 32.333,49.342 32.303,49.342 C31.825,49.342 31.416,48.975 31.370,48.486 L31.237,47.075 L27.439,44.865 L27.439,49.285 L28.584,50.107 C29.006,50.410 29.105,51.000 28.804,51.426 C28.621,51.685 28.332,51.823 28.039,51.823 C27.850,51.823 27.660,51.766 27.495,51.648 L27.439,51.607 L27.439,52.650 C27.439,53.172 27.019,53.596 26.500,53.596 C25.982,53.596 25.562,53.172 25.562,52.650 L25.562,51.607 L25.505,51.648 C25.082,51.951 24.497,51.851 24.196,51.426 C23.896,51.000 23.994,50.410 24.416,50.107 L25.562,49.285 L25.562,44.865 L21.764,47.075 L21.630,48.486 C21.584,48.975 21.175,49.342 20.697,49.342 C20.667,49.342 20.637,49.340 20.607,49.337 C20.091,49.288 19.712,48.826 19.762,48.306 L19.768,48.236 L18.872,48.758 C18.725,48.844 18.563,48.884 18.404,48.884 C18.080,48.884 17.764,48.715 17.590,48.411 C17.331,47.959 17.485,47.381 17.934,47.119 L18.830,46.598 L18.767,46.569 C18.295,46.352 18.087,45.791 18.303,45.316 C18.518,44.841 19.075,44.631 19.546,44.848 L20.825,45.437 L24.623,43.227 L20.825,41.018 L19.546,41.606 C19.420,41.664 19.287,41.692 19.157,41.692 C18.801,41.692 18.460,41.487 18.303,41.139 C18.087,40.664 18.295,40.102 18.766,39.885 L18.830,39.856 L17.934,39.335 C17.485,39.074 17.331,38.495 17.590,38.043 C17.849,37.591 18.423,37.436 18.872,37.697 L19.768,38.218 L19.762,38.148 C19.712,37.628 20.091,37.167 20.607,37.117 C21.122,37.067 21.581,37.449 21.630,37.969 L21.764,39.379 L25.561,41.589 L25.561,37.169 L24.416,36.348 C23.994,36.045 23.895,35.454 24.196,35.029 C24.497,34.603 25.082,34.503 25.505,34.807 L25.561,34.847 L25.561,33.805 C25.561,33.283 25.982,32.859 26.500,32.859 C27.018,32.859 27.438,33.283 27.438,33.805 L27.438,34.847 L27.495,34.807 C27.918,34.503 28.504,34.603 28.804,35.029 C29.105,35.454 29.006,36.045 28.584,36.348 L27.438,37.169 L27.438,41.589 L31.237,39.379 L31.370,37.969 C31.419,37.449 31.877,37.068 32.393,37.117 C32.909,37.167 33.288,37.628 33.238,38.148 L33.232,38.218 L34.128,37.697 C34.576,37.436 35.151,37.591 35.410,38.043 C35.669,38.496 35.515,39.074 35.066,39.335 L34.170,39.857 L34.233,39.886 C34.705,40.103 34.912,40.664 34.697,41.139 C34.539,41.487 34.199,41.692 33.843,41.692 C33.712,41.692 33.580,41.664 33.454,41.606 L32.175,41.018 L28.377,43.227 L32.175,45.437 L33.454,44.848 C33.925,44.631 34.482,44.841 34.697,45.316 C34.913,45.791 34.705,46.352 34.234,46.569 L34.170,46.598 L35.066,47.119 C35.515,47.380 35.669,47.959 35.410,48.411 ZM52.034,15.533 C51.515,15.533 51.095,15.109 51.095,14.587 L51.095,4.726 C51.095,3.162 49.832,1.889 48.280,1.889 L4.720,1.889 C3.168,1.889 1.905,3.162 1.905,4.726 L1.905,14.587 C1.905,15.109 1.485,15.533 0.966,15.533 C0.448,15.533 0.028,15.109 0.028,14.587 L0.028,4.726 C0.028,2.119 2.133,-0.003 4.720,-0.003 L48.280,-0.003 C50.867,-0.003 52.972,2.119 52.972,4.726 L52.972,14.587 C52.972,15.109 52.552,15.533 52.034,15.533 Z" class="cls-3"/>
  </g>
</svg>
