<svg xmlns="http://www.w3.org/2000/svg" xmlns:xlink="http://www.w3.org/1999/xlink" preserveAspectRatio="xMidYMid" width="54" height="60" viewBox="0 0 54 60">
  <defs>
    <style>
      .cls-1 {
        fill: #4c6897;
        stroke: #fff;
        stroke-linejoin: round;
        stroke-width: 1px;
        fill-rule: evenodd;
      }
    </style>
  </defs>
  <path d="M50.542,29.336 L49.283,54.659 C49.156,57.207 46.986,59.280 44.445,59.280 L9.556,59.280 C7.014,59.280 4.844,57.207 4.717,54.659 L3.458,29.336 C1.902,28.937 0.747,27.517 0.747,25.832 L0.747,18.872 C0.747,18.356 1.164,17.937 1.678,17.937 L4.470,17.937 L4.470,14.061 C4.470,11.485 6.558,9.389 9.124,9.389 L44.876,9.389 C47.442,9.389 49.530,11.485 49.530,14.061 L49.530,17.937 L52.322,17.937 C52.836,17.937 53.253,18.356 53.253,18.872 L53.253,25.832 C53.253,27.517 52.099,28.937 50.542,29.336 ZM6.576,54.565 C6.655,56.134 7.991,57.411 9.556,57.411 L44.444,57.411 C46.009,57.411 47.345,56.134 47.424,54.565 L48.673,29.448 L5.327,29.448 L6.576,54.565 ZM47.668,14.061 C47.668,12.515 46.416,11.258 44.876,11.258 L9.124,11.258 C7.584,11.258 6.332,12.515 6.332,14.061 L6.332,17.937 L47.668,17.937 L47.668,14.061 ZM51.391,19.806 L2.609,19.806 L2.609,25.832 C2.609,26.795 3.389,27.579 4.349,27.579 L49.651,27.579 C50.611,27.579 51.391,26.795 51.391,25.832 L51.391,25.832 L51.391,19.806 ZM48.599,24.627 L5.401,24.627 C4.887,24.627 4.470,24.209 4.470,23.693 C4.470,23.177 4.887,22.758 5.401,22.758 L48.599,22.758 C49.113,22.758 49.530,23.177 49.530,23.693 C49.530,24.209 49.113,24.627 48.599,24.627 ZM35.836,48.551 C35.663,48.851 35.351,49.018 35.029,49.018 C34.871,49.018 34.711,48.978 34.564,48.893 L33.676,48.378 L33.683,48.447 C33.731,48.961 33.356,49.417 32.845,49.466 C32.814,49.469 32.785,49.470 32.755,49.470 C32.281,49.470 31.876,49.108 31.830,48.624 L31.697,47.231 L27.931,45.048 L27.931,49.414 L29.067,50.226 C29.485,50.525 29.583,51.109 29.285,51.529 C29.103,51.785 28.817,51.922 28.526,51.922 C28.339,51.922 28.151,51.865 27.987,51.748 L27.931,51.708 L27.931,52.738 C27.931,53.254 27.514,53.673 27.000,53.673 C26.486,53.673 26.069,53.254 26.069,52.738 L26.069,51.708 L26.013,51.748 C25.594,52.048 25.013,51.950 24.715,51.529 C24.417,51.109 24.515,50.525 24.934,50.226 L26.069,49.414 L26.069,45.048 L22.303,47.231 L22.171,48.624 C22.125,49.108 21.719,49.470 21.245,49.470 C21.216,49.470 21.186,49.469 21.156,49.466 C20.644,49.417 20.269,48.961 20.318,48.447 L20.324,48.378 L19.436,48.893 C19.289,48.978 19.129,49.018 18.971,49.018 C18.650,49.018 18.337,48.851 18.164,48.551 C17.907,48.104 18.060,47.533 18.505,47.275 L19.393,46.760 L19.331,46.731 C18.863,46.516 18.657,45.962 18.871,45.493 C19.084,45.023 19.637,44.816 20.104,45.031 L21.372,45.613 L25.139,43.429 L21.372,41.246 L20.104,41.828 C19.979,41.885 19.847,41.913 19.718,41.913 C19.365,41.913 19.027,41.710 18.871,41.366 C18.657,40.897 18.863,40.342 19.331,40.128 L19.393,40.099 L18.505,39.584 C18.060,39.326 17.907,38.755 18.164,38.308 C18.421,37.861 18.990,37.707 19.436,37.966 L20.324,38.481 L20.318,38.412 C20.269,37.898 20.644,37.442 21.156,37.393 C21.667,37.344 22.122,37.720 22.170,38.234 L22.303,39.628 L26.069,41.811 L26.069,37.444 L24.934,36.633 C24.515,36.333 24.417,35.750 24.715,35.329 C25.013,34.909 25.594,34.811 26.013,35.110 L26.069,35.150 L26.069,34.120 C26.069,33.604 26.486,33.186 27.000,33.186 C27.514,33.186 27.931,33.604 27.931,34.120 L27.931,35.150 L27.987,35.110 C28.406,34.811 28.987,34.909 29.285,35.329 C29.583,35.750 29.485,36.333 29.066,36.633 L27.931,37.444 L27.931,41.811 L31.697,39.628 L31.829,38.234 C31.878,37.721 32.332,37.345 32.844,37.393 C33.356,37.442 33.731,37.898 33.682,38.412 L33.676,38.481 L34.564,37.966 C35.009,37.708 35.579,37.861 35.836,38.308 C36.093,38.755 35.940,39.326 35.495,39.584 L34.606,40.099 L34.669,40.128 C35.137,40.343 35.343,40.897 35.129,41.366 C34.973,41.710 34.635,41.913 34.282,41.913 C34.153,41.913 34.021,41.885 33.896,41.828 L32.628,41.246 L28.861,43.429 L32.628,45.613 L33.896,45.031 C34.364,44.816 34.916,45.023 35.129,45.492 C35.343,45.962 35.137,46.516 34.669,46.731 L34.607,46.760 L35.495,47.274 C35.940,47.533 36.093,48.104 35.836,48.551 ZM52.322,16.069 C51.808,16.069 51.391,15.650 51.391,15.134 L51.391,5.392 C51.391,3.846 50.138,2.589 48.599,2.589 L5.401,2.589 C3.861,2.589 2.609,3.846 2.609,5.392 L2.609,15.134 C2.609,15.650 2.192,16.069 1.678,16.069 C1.164,16.069 0.747,15.650 0.747,15.134 L0.747,5.392 C0.747,2.816 2.835,0.720 5.401,0.720 L48.599,0.720 C51.165,0.720 53.253,2.816 53.253,5.392 L53.253,15.134 C53.253,15.650 52.836,16.069 52.322,16.069 Z" class="cls-1"/>
</svg>
