<svg xmlns="http://www.w3.org/2000/svg" xmlns:xlink="http://www.w3.org/1999/xlink" preserveAspectRatio="xMidYMid" width="110" height="114" viewBox="0 0 110 114">
  <defs>
    <style>
      .cls-1 {
        fill: #4c6897;
        stroke: #fff;
        stroke-linejoin: round;
        stroke-width: 2px;
        fill-rule: evenodd;
      }
    </style>
  </defs>
  <path d="M69.638,112.962 C62.091,112.962 55.066,110.743 49.113,106.971 L17.654,106.971 C17.646,106.971 17.637,106.967 17.629,106.967 C17.617,106.967 17.605,106.971 17.592,106.971 C17.317,106.971 17.042,106.915 16.781,106.804 L2.450,100.620 C1.697,100.294 1.208,99.548 1.208,98.725 L1.208,3.900 C1.208,2.760 2.128,1.839 3.262,1.839 L17.592,1.839 C17.603,1.839 17.613,1.845 17.623,1.845 C17.633,1.845 17.644,1.839 17.654,1.839 L81.323,1.839 C82.457,1.839 83.377,2.760 83.377,3.900 L83.377,33.327 C83.983,32.974 84.682,32.760 85.431,32.760 L89.540,32.760 C91.806,32.760 93.648,34.609 93.648,36.883 C93.648,37.062 93.624,37.241 93.578,37.415 L86.489,64.089 C95.546,65.207 108.229,67.870 108.229,74.023 L108.229,74.238 C108.229,95.590 90.916,112.962 69.638,112.962 ZM15.538,5.961 L5.316,5.961 L5.316,97.367 L15.538,101.778 L15.538,5.961 ZM45.417,98.828 C46.093,99.500 46.799,100.144 47.531,100.758 C47.730,100.927 47.939,101.086 48.143,101.249 C48.704,101.698 49.281,102.129 49.868,102.543 C50.123,102.723 50.374,102.908 50.635,103.081 C56.089,106.711 62.619,108.839 69.640,108.839 C86.838,108.839 101.093,96.126 103.665,79.579 C95.776,83.689 79.480,84.932 69.638,84.932 C59.799,84.932 43.500,83.689 35.612,79.579 C35.688,80.057 35.737,80.542 35.832,81.014 C35.869,81.197 35.914,81.376 35.953,81.558 C36.148,82.467 36.376,83.366 36.643,84.246 C36.680,84.368 36.711,84.493 36.750,84.615 C37.054,85.584 37.405,86.534 37.792,87.464 C37.857,87.623 37.927,87.781 37.995,87.940 C38.821,89.851 39.809,91.673 40.949,93.388 C41.017,93.494 41.087,93.599 41.156,93.702 C41.740,94.561 42.358,95.394 43.015,96.196 C43.050,96.239 43.089,96.283 43.126,96.326 C43.734,97.062 44.379,97.765 45.047,98.447 C45.170,98.575 45.292,98.703 45.417,98.828 ZM79.269,5.961 L19.708,5.961 L19.708,102.848 L43.656,102.848 C43.437,102.648 43.248,102.422 43.028,102.219 C42.547,101.760 42.085,101.288 41.629,100.803 C41.177,100.323 40.731,99.841 40.306,99.342 C39.920,98.888 39.554,98.418 39.188,97.946 C38.759,97.392 38.334,96.839 37.935,96.264 C37.611,95.794 37.311,95.306 37.007,94.821 C36.631,94.221 36.251,93.625 35.908,93.005 C35.618,92.483 35.363,91.941 35.098,91.405 C34.797,90.795 34.484,90.191 34.215,89.566 C33.952,88.956 33.732,88.321 33.500,87.695 C33.287,87.118 33.052,86.549 32.866,85.959 C32.631,85.219 32.453,84.458 32.262,83.700 C32.136,83.193 31.980,82.698 31.873,82.185 C31.684,81.284 31.561,80.360 31.438,79.437 C31.384,79.045 31.300,78.662 31.259,78.268 C31.121,76.944 31.048,75.600 31.048,74.240 L31.048,74.025 C31.048,65.392 56.290,63.112 69.638,63.112 C71.208,63.112 72.746,63.143 74.260,63.191 L79.269,44.343 L79.269,5.961 ZM85.429,68.124 L84.655,71.109 C84.414,72.036 83.580,72.650 82.668,72.650 C82.498,72.650 82.323,72.628 82.151,72.585 C81.052,72.296 80.394,71.170 80.680,70.070 L81.904,65.351 C81.904,65.351 81.906,65.349 81.906,65.345 C81.906,65.345 81.906,65.343 81.906,65.341 L89.468,36.883 L85.431,36.883 C85.431,37.062 85.409,37.241 85.363,37.415 L77.810,65.842 L76.804,69.853 C76.567,70.787 75.731,71.412 74.813,71.412 C74.647,71.412 74.478,71.393 74.310,71.350 C73.209,71.071 72.541,69.952 72.818,68.847 L73.202,67.313 C72.019,67.283 70.854,67.235 69.638,67.235 C46.888,67.235 35.156,71.995 35.156,74.025 C35.156,76.054 46.888,80.814 69.638,80.814 C92.389,80.814 104.121,76.054 104.121,74.025 C104.121,73.040 99.451,69.783 85.429,68.124 ZM71.052,76.050 C69.920,76.050 68.997,76.973 68.997,78.111 L64.889,78.111 C64.889,74.702 67.654,71.927 71.052,71.927 C74.449,71.927 77.214,74.702 77.214,78.111 L73.106,78.111 C73.106,76.973 72.184,76.050 71.052,76.050 ZM54.618,73.988 C53.486,73.988 52.564,74.912 52.564,76.050 L48.455,76.050 C48.455,72.640 51.220,69.865 54.618,69.865 C58.015,69.865 60.780,72.640 60.780,76.050 L56.672,76.050 C56.672,74.912 55.750,73.988 54.618,73.988 ZM60.080,53.846 L52.566,53.846 C51.432,53.846 50.511,52.925 50.511,51.785 L50.511,44.244 C50.511,43.925 50.536,43.611 50.559,43.298 L49.893,43.966 C49.492,44.368 48.967,44.570 48.441,44.570 C47.915,44.570 47.389,44.368 46.988,43.966 L46.356,43.331 C46.376,43.632 46.401,43.935 46.401,44.242 L46.401,51.783 C46.401,52.923 45.481,53.844 44.347,53.844 L44.347,53.842 L36.832,53.842 C29.649,53.842 23.804,47.977 23.804,40.771 L23.804,33.228 C23.804,32.088 24.725,31.167 25.859,31.167 L33.373,31.167 C35.061,31.167 36.670,31.500 38.151,32.090 C37.276,27.911 38.445,23.383 41.672,20.144 L46.988,14.813 C47.792,14.007 49.090,14.007 49.893,14.813 L55.207,20.146 C58.439,23.389 59.605,27.924 58.726,32.106 C60.218,31.509 61.838,31.171 63.539,31.171 L71.054,31.171 C72.188,31.171 73.108,32.092 73.108,33.232 L73.108,40.775 C73.108,47.981 67.264,53.846 60.080,53.846 ZM33.373,35.291 L27.913,35.291 L27.913,40.773 C27.913,45.706 31.914,49.721 36.832,49.721 L42.292,49.721 L42.292,44.242 C42.292,39.305 38.291,35.291 33.373,35.291 ZM52.301,23.059 L48.439,19.183 L44.577,23.059 C41.101,26.547 41.101,32.226 44.577,35.716 L48.439,39.592 L52.301,35.716 C55.776,32.226 55.776,26.547 52.301,23.059 ZM68.997,35.291 L63.537,35.291 C58.619,35.291 54.618,39.305 54.618,44.242 L54.618,49.721 L60.078,49.721 C64.996,49.721 68.997,45.708 68.997,40.773 L68.997,35.291 Z" class="cls-1"/>
</svg>
