<svg xmlns="http://www.w3.org/2000/svg" xmlns:xlink="http://www.w3.org/1999/xlink" preserveAspectRatio="xMidYMid" width="108" height="112" viewBox="0 0 108 112">
  <defs>
    <style>
      .cls-1 {
        fill: #bea58c;
      }

      .cls-1, .cls-2, .cls-3, .cls-4, .cls-5 {
        fill-rule: evenodd;
      }

      .cls-2 {
        fill: #f3f28f;
      }

      .cls-3 {
        fill: #f6f5bf;
      }

      .cls-4 {
        fill: #e8e8e8;
      }

      .cls-5 {
        fill: #8b7667;
      }
    </style>
  </defs>
  <g>
    <path d="M2.000,3.000 L81.000,3.000 L81.000,41.000 L74.000,63.000 C74.000,63.000 47.250,62.750 39.000,67.000 C30.750,71.250 31.000,73.000 31.000,73.000 C31.000,73.000 32.250,85.250 36.000,89.000 C39.750,92.750 46.000,103.000 46.000,103.000 C46.000,103.000 27.802,103.627 20.237,103.888 C18.253,103.957 17.000,104.000 17.000,104.000 L2.000,96.000 L2.000,3.000 Z" class="cls-1"/>
    <path d="M43.000,50.000 C43.000,50.000 37.250,55.250 31.000,48.000 C24.750,40.750 25.000,32.000 25.000,32.000 C25.000,32.000 34.750,30.250 37.000,32.000 C39.250,33.750 38.250,26.750 40.000,24.000 C41.750,21.250 48.000,14.000 48.000,14.000 C48.000,14.000 54.250,19.750 55.000,23.000 C55.750,26.250 57.000,32.000 57.000,32.000 C57.000,32.000 67.750,29.250 70.000,32.000 C72.250,34.750 73.750,41.250 70.000,45.000 C66.250,48.750 54.250,51.750 52.000,51.000 C49.750,50.250 53.250,45.750 53.000,41.000 C52.750,36.250 48.000,41.000 48.000,41.000 L44.000,41.000 L43.000,50.000 Z" class="cls-2"/>
    <path d="M32.000,74.000 C32.000,74.000 53.750,82.250 65.000,82.000 C76.250,81.750 98.750,79.750 104.000,76.000 C109.250,72.250 106.750,80.250 102.000,88.000 C97.250,95.750 93.750,102.250 86.000,106.000 C78.250,109.750 68.250,112.750 59.000,109.000 C49.750,105.250 45.250,101.750 39.000,93.000 C32.750,84.250 32.000,74.000 32.000,74.000 Z" class="cls-3"/>
    <path d="M33.000,71.000 C33.000,71.000 46.750,65.750 54.000,65.000 C61.250,64.250 64.750,60.750 71.000,62.000 C77.250,63.250 73.000,68.000 73.000,68.000 L80.000,69.000 L83.000,63.000 C83.000,63.000 91.750,63.250 97.000,66.000 C102.250,68.750 105.000,72.000 105.000,72.000 C105.000,72.000 111.750,73.250 97.000,78.000 C82.250,82.750 75.250,81.750 68.000,81.000 C60.750,80.250 47.250,80.250 44.000,79.000 C40.750,77.750 34.500,78.500 33.000,71.000 Z" class="cls-2"/>
    <path d="M73.000,70.000 L83.000,34.000 L90.000,33.000 L82.000,70.000 L73.000,70.000 Z" class="cls-4"/>
    <path d="M68.638,111.962 C61.091,111.962 54.066,109.743 48.112,105.971 L16.654,105.971 C16.646,105.971 16.637,105.967 16.629,105.967 C16.617,105.967 16.605,105.971 16.592,105.971 C16.317,105.971 16.042,105.915 15.781,105.804 L1.450,99.620 C0.697,99.294 0.208,98.548 0.208,97.725 L0.208,2.900 C0.208,1.760 1.128,0.839 2.262,0.839 L16.592,0.839 C16.603,0.839 16.613,0.845 16.623,0.845 C16.633,0.845 16.644,0.839 16.654,0.839 L80.323,0.839 C81.457,0.839 82.377,1.760 82.377,2.900 L82.377,32.327 C82.983,31.974 83.681,31.760 84.431,31.760 L88.540,31.760 C90.806,31.760 92.648,33.609 92.648,35.883 C92.648,36.062 92.624,36.241 92.578,36.415 L85.489,63.089 C94.546,64.207 107.229,66.870 107.229,73.023 L107.229,73.238 C107.229,94.590 89.916,111.962 68.638,111.962 ZM14.538,4.961 L4.316,4.961 L4.316,96.367 L14.538,100.778 L14.538,4.961 ZM44.417,97.828 C45.093,98.500 45.799,99.144 46.531,99.758 C46.730,99.927 46.939,100.086 47.143,100.249 C47.704,100.698 48.281,101.129 48.868,101.543 C49.123,101.723 49.374,101.908 49.635,102.081 C55.089,105.711 61.619,107.839 68.640,107.839 C85.838,107.839 100.093,95.126 102.665,78.579 C94.776,82.689 78.480,83.932 68.638,83.932 C58.798,83.932 42.500,82.689 34.612,78.579 C34.688,79.057 34.737,79.542 34.832,80.014 C34.869,80.197 34.914,80.376 34.953,80.558 C35.148,81.467 35.376,82.366 35.643,83.246 C35.680,83.368 35.711,83.493 35.750,83.615 C36.054,84.584 36.405,85.534 36.791,86.464 C36.857,86.623 36.927,86.781 36.995,86.940 C37.821,88.851 38.809,90.673 39.949,92.388 C40.017,92.494 40.086,92.599 40.156,92.702 C40.740,93.561 41.358,94.394 42.015,95.196 C42.050,95.239 42.089,95.283 42.126,95.326 C42.734,96.062 43.379,96.765 44.047,97.447 C44.170,97.575 44.291,97.703 44.417,97.828 ZM78.269,4.961 L18.708,4.961 L18.708,101.848 L42.656,101.848 C42.437,101.648 42.248,101.422 42.028,101.219 C41.547,100.760 41.085,100.288 40.629,99.803 C40.177,99.323 39.731,98.841 39.306,98.342 C38.920,97.888 38.554,97.418 38.188,96.946 C37.759,96.392 37.334,95.839 36.935,95.264 C36.611,94.794 36.311,94.306 36.007,93.821 C35.631,93.221 35.251,92.625 34.908,92.005 C34.618,91.483 34.363,90.941 34.098,90.405 C33.796,89.795 33.484,89.191 33.215,88.566 C32.952,87.956 32.732,87.321 32.500,86.695 C32.287,86.118 32.052,85.549 31.866,84.959 C31.631,84.219 31.453,83.458 31.261,82.700 C31.136,82.193 30.980,81.698 30.873,81.185 C30.684,80.284 30.561,79.360 30.438,78.437 C30.384,78.045 30.300,77.662 30.259,77.268 C30.121,75.944 30.047,74.600 30.047,73.240 L30.047,73.025 C30.047,64.392 55.290,62.112 68.638,62.112 C70.208,62.112 71.746,62.143 73.260,62.191 L78.269,43.343 L78.269,4.961 ZM84.429,67.124 L83.655,70.109 C83.414,71.036 82.580,71.650 81.668,71.650 C81.498,71.650 81.323,71.628 81.151,71.585 C80.052,71.296 79.394,70.170 79.680,69.070 L80.904,64.351 C80.904,64.351 80.906,64.349 80.906,64.345 C80.906,64.345 80.906,64.343 80.906,64.341 L88.468,35.883 L84.431,35.883 C84.431,36.062 84.409,36.241 84.363,36.415 L76.810,64.842 L75.803,68.853 C75.567,69.787 74.731,70.412 73.813,70.412 C73.647,70.412 73.478,70.393 73.310,70.350 C72.209,70.071 71.541,68.952 71.818,67.847 L72.202,66.313 C71.019,66.283 69.854,66.235 68.638,66.235 C45.888,66.235 34.156,70.995 34.156,73.025 C34.156,75.054 45.888,79.814 68.638,79.814 C91.389,79.814 103.121,75.054 103.121,73.025 C103.121,72.040 98.451,68.783 84.429,67.124 ZM70.052,75.050 C68.920,75.050 67.997,75.973 67.997,77.111 L63.889,77.111 C63.889,73.702 66.654,70.927 70.052,70.927 C73.449,70.927 76.214,73.702 76.214,77.111 L72.106,77.111 C72.106,75.973 71.184,75.050 70.052,75.050 ZM53.618,72.988 C52.486,72.988 51.564,73.912 51.564,75.050 L47.455,75.050 C47.455,71.640 50.220,68.865 53.618,68.865 C57.015,68.865 59.780,71.640 59.780,75.050 L55.672,75.050 C55.672,73.912 54.750,72.988 53.618,72.988 ZM59.080,52.846 L51.566,52.846 C50.432,52.846 49.511,51.925 49.511,50.785 L49.511,43.244 C49.511,42.925 49.536,42.611 49.559,42.298 L48.893,42.966 C48.492,43.368 47.967,43.570 47.441,43.570 C46.915,43.570 46.389,43.368 45.988,42.966 L45.356,42.331 C45.376,42.632 45.401,42.935 45.401,43.242 L45.401,50.783 C45.401,51.923 44.481,52.844 43.347,52.844 L43.347,52.842 L35.832,52.842 C28.649,52.842 22.804,46.977 22.804,39.771 L22.804,32.228 C22.804,31.088 23.725,30.167 24.859,30.167 L32.373,30.167 C34.061,30.167 35.670,30.500 37.151,31.090 C36.276,26.911 37.445,22.383 40.672,19.144 L45.988,13.813 C46.792,13.007 48.090,13.007 48.893,13.813 L54.207,19.146 C57.439,22.389 58.605,26.924 57.726,31.106 C59.218,30.509 60.838,30.171 62.539,30.171 L70.054,30.171 C71.188,30.171 72.108,31.092 72.108,32.232 L72.108,39.775 C72.108,46.981 66.264,52.846 59.080,52.846 ZM32.373,34.291 L26.913,34.291 L26.913,39.773 C26.913,44.706 30.914,48.721 35.832,48.721 L41.292,48.721 L41.292,43.242 C41.292,38.305 37.291,34.291 32.373,34.291 ZM51.301,22.059 L47.439,18.183 L43.577,22.059 C40.101,25.547 40.101,31.226 43.577,34.716 L47.439,38.592 L51.301,34.716 C54.776,31.226 54.776,25.547 51.301,22.059 ZM67.997,34.291 L62.537,34.291 C57.619,34.291 53.618,38.305 53.618,43.242 L53.618,48.721 L59.078,48.721 C63.996,48.721 67.997,44.708 67.997,39.773 L67.997,34.291 Z" class="cls-5"/>
  </g>
</svg>
