<svg xmlns="http://www.w3.org/2000/svg" xmlns:xlink="http://www.w3.org/1999/xlink" preserveAspectRatio="xMidYMid" width="58" height="60" viewBox="0 0 58 60">
  <defs>
    <style>
      .cls-1 {
        fill: #4c6897;
        stroke: #fff;
        stroke-linejoin: round;
        stroke-width: 1px;
        fill-rule: evenodd;
      }
    </style>
  </defs>
  <path d="M36.718,59.453 C32.739,59.453 29.035,58.286 25.896,56.301 L9.308,56.301 C9.304,56.301 9.300,56.298 9.295,56.298 C9.289,56.298 9.282,56.301 9.276,56.301 C9.131,56.301 8.986,56.271 8.848,56.213 L1.292,52.958 C0.895,52.786 0.637,52.394 0.637,51.961 L0.637,2.053 C0.637,1.453 1.122,0.968 1.720,0.968 L9.276,0.968 C9.281,0.968 9.287,0.971 9.292,0.971 C9.298,0.971 9.303,0.968 9.308,0.968 L42.879,0.968 C43.477,0.968 43.962,1.453 43.962,2.053 L43.962,17.540 C44.282,17.355 44.650,17.242 45.046,17.242 L47.212,17.242 C48.407,17.242 49.378,18.215 49.378,19.412 C49.378,19.506 49.365,19.601 49.341,19.692 L45.603,33.731 C50.379,34.319 57.066,35.721 57.066,38.960 L57.066,39.073 C57.066,50.311 47.938,59.453 36.718,59.453 ZM8.193,3.138 L2.803,3.138 L2.803,51.246 L8.193,53.568 L8.193,3.138 ZM23.947,52.015 C24.303,52.369 24.676,52.707 25.062,53.030 C25.167,53.119 25.277,53.203 25.384,53.289 C25.680,53.525 25.984,53.752 26.294,53.970 C26.429,54.064 26.561,54.162 26.698,54.253 C29.574,56.164 33.017,57.284 36.719,57.284 C45.788,57.284 53.303,50.593 54.660,41.884 C50.500,44.047 41.908,44.701 36.718,44.701 C31.530,44.701 22.937,44.047 18.777,41.884 C18.817,42.135 18.843,42.390 18.893,42.639 C18.913,42.735 18.936,42.830 18.957,42.925 C19.060,43.404 19.180,43.877 19.321,44.340 C19.340,44.404 19.357,44.470 19.377,44.534 C19.538,45.044 19.723,45.544 19.926,46.034 C19.961,46.117 19.998,46.201 20.034,46.284 C20.469,47.290 20.990,48.249 21.591,49.152 C21.627,49.207 21.664,49.262 21.701,49.317 C22.008,49.769 22.334,50.207 22.681,50.629 C22.699,50.652 22.720,50.675 22.739,50.698 C23.060,51.085 23.400,51.455 23.752,51.814 C23.817,51.882 23.881,51.949 23.947,52.015 ZM41.796,3.138 L10.392,3.138 L10.392,54.131 L23.019,54.131 C22.903,54.025 22.803,53.906 22.687,53.800 C22.434,53.558 22.190,53.309 21.950,53.054 C21.711,52.802 21.476,52.548 21.252,52.285 C21.049,52.046 20.856,51.799 20.663,51.551 C20.437,51.259 20.212,50.968 20.002,50.665 C19.831,50.418 19.673,50.161 19.513,49.906 C19.314,49.590 19.114,49.277 18.933,48.950 C18.781,48.676 18.646,48.390 18.506,48.108 C18.347,47.787 18.183,47.469 18.041,47.140 C17.902,46.819 17.786,46.485 17.664,46.155 C17.551,45.851 17.428,45.552 17.329,45.242 C17.206,44.852 17.111,44.452 17.011,44.052 C16.945,43.786 16.862,43.525 16.806,43.255 C16.706,42.781 16.641,42.295 16.576,41.809 C16.548,41.603 16.504,41.401 16.482,41.194 C16.410,40.497 16.371,39.790 16.371,39.074 L16.371,38.961 C16.371,34.417 29.680,33.217 36.718,33.217 C37.546,33.217 38.357,33.233 39.155,33.258 L41.796,23.338 L41.796,3.138 ZM45.044,35.855 L44.636,37.426 C44.509,37.914 44.070,38.237 43.589,38.237 C43.499,38.237 43.407,38.225 43.316,38.202 C42.736,38.050 42.390,37.458 42.540,36.879 L43.186,34.395 C43.186,34.395 43.187,34.394 43.187,34.392 C43.187,34.392 43.187,34.391 43.187,34.390 L47.174,19.412 L45.046,19.412 C45.046,19.506 45.034,19.601 45.010,19.692 L41.027,34.653 L40.496,36.765 C40.372,37.256 39.931,37.585 39.447,37.585 C39.359,37.585 39.270,37.575 39.181,37.552 C38.601,37.406 38.249,36.817 38.395,36.235 L38.598,35.428 C37.974,35.412 37.360,35.387 36.718,35.387 C24.723,35.387 18.537,37.892 18.537,38.961 C18.537,40.028 24.723,42.534 36.718,42.534 C48.714,42.534 54.900,40.028 54.900,38.961 C54.900,38.442 52.438,36.728 45.044,35.855 ZM37.464,40.026 C36.867,40.026 36.380,40.512 36.380,41.111 L34.214,41.111 C34.214,39.317 35.672,37.856 37.464,37.856 C39.255,37.856 40.713,39.317 40.713,41.111 L38.547,41.111 C38.547,40.512 38.060,40.026 37.464,40.026 ZM28.798,38.941 C28.202,38.941 27.715,39.427 27.715,40.026 L25.549,40.026 C25.549,38.232 27.007,36.771 28.798,36.771 C30.590,36.771 32.048,38.232 32.048,40.026 L29.882,40.026 C29.882,39.427 29.395,38.941 28.798,38.941 ZM31.679,28.340 L27.716,28.340 C27.119,28.340 26.633,27.855 26.633,27.255 L26.633,23.286 C26.633,23.118 26.646,22.953 26.658,22.788 L26.307,23.140 C26.096,23.351 25.819,23.458 25.541,23.458 C25.264,23.458 24.987,23.351 24.776,23.140 L24.442,22.806 C24.453,22.964 24.466,23.124 24.466,23.285 L24.466,27.254 C24.466,27.854 23.981,28.339 23.383,28.339 L23.383,28.338 L19.421,28.338 C15.633,28.338 12.551,25.251 12.551,21.458 L12.551,17.488 C12.551,16.888 13.037,16.403 13.635,16.403 L17.597,16.403 C18.487,16.403 19.335,16.579 20.116,16.889 C19.655,14.690 20.271,12.307 21.973,10.602 L24.776,7.796 C25.199,7.372 25.884,7.372 26.307,7.796 L29.109,10.603 C30.813,12.310 31.428,14.697 30.965,16.898 C31.751,16.584 32.606,16.406 33.503,16.406 L37.465,16.406 C38.063,16.406 38.548,16.891 38.548,17.491 L38.548,21.460 C38.548,25.253 35.466,28.340 31.679,28.340 ZM17.597,18.574 L14.718,18.574 L14.718,21.459 C14.718,24.056 16.828,26.169 19.421,26.169 L22.300,26.169 L22.300,23.285 C22.300,20.687 20.190,18.574 17.597,18.574 ZM27.577,12.136 L25.540,10.097 L23.504,12.136 C21.671,13.972 21.671,16.961 23.504,18.798 L25.540,20.838 L27.577,18.798 C29.409,16.961 29.409,13.972 27.577,12.136 ZM36.380,18.574 L33.501,18.574 C30.908,18.574 28.798,20.687 28.798,23.285 L28.798,26.169 L31.677,26.169 C34.270,26.169 36.380,24.057 36.380,21.459 L36.380,18.574 Z" class="cls-1"/>
</svg>
