<svg xmlns="http://www.w3.org/2000/svg" xmlns:xlink="http://www.w3.org/1999/xlink" preserveAspectRatio="xMidYMid" width="58" height="60" viewBox="0 0 58 60">
  <defs>
    <style>
      .cls-1 {
        fill: #bea58c;
      }

      .cls-1, .cls-2, .cls-3, .cls-4, .cls-5 {
        fill-rule: evenodd;
      }

      .cls-2 {
        fill: #f3f28f;
      }

      .cls-3 {
        fill: #f6f5bf;
      }

      .cls-4 {
        fill: #e8e8e8;
      }

      .cls-5 {
        fill: #8b7667;
      }
    </style>
  </defs>
  <g>
    <path d="M1.074,1.607 L43.500,1.607 L43.500,21.964 L39.741,33.750 C39.741,33.750 25.375,33.616 20.944,35.893 C16.514,38.170 16.648,39.107 16.648,39.107 C16.648,39.107 17.319,45.670 19.333,47.679 C21.347,49.687 24.704,55.179 24.704,55.179 C24.704,55.179 14.931,55.515 10.868,55.654 C9.802,55.691 9.130,55.714 9.130,55.714 L1.074,51.429 L1.074,1.607 Z" class="cls-1"/>
    <path d="M23.093,26.786 C23.093,26.786 20.005,29.598 16.648,25.714 C13.292,21.830 13.426,17.143 13.426,17.143 C13.426,17.143 18.662,16.205 19.870,17.143 C21.079,18.080 20.542,14.330 21.481,12.857 C22.421,11.384 25.778,7.500 25.778,7.500 C25.778,7.500 29.134,10.580 29.537,12.321 C29.940,14.062 30.611,17.143 30.611,17.143 C30.611,17.143 36.384,15.670 37.593,17.143 C38.801,18.616 39.606,22.098 37.593,24.107 C35.579,26.116 29.134,27.723 27.926,27.321 C26.718,26.920 28.597,24.509 28.463,21.964 C28.329,19.420 25.778,21.964 25.778,21.964 L23.630,21.964 L23.093,26.786 Z" class="cls-2"/>
    <path d="M17.185,39.643 C17.185,39.643 28.866,44.062 34.907,43.928 C40.949,43.795 53.032,42.723 55.852,40.714 C58.671,38.705 57.329,42.991 54.778,47.143 C52.227,51.295 50.347,54.777 46.185,56.786 C42.023,58.795 36.653,60.402 31.685,58.393 C26.718,56.384 24.301,54.509 20.944,49.821 C17.588,45.134 17.185,39.643 17.185,39.643 Z" class="cls-3"/>
    <path d="M17.722,38.036 C17.722,38.036 25.106,35.223 29.000,34.821 C32.893,34.420 34.773,32.545 38.130,33.214 C41.486,33.884 39.204,36.429 39.204,36.429 L42.963,36.964 L44.574,33.750 C44.574,33.750 49.273,33.884 52.093,35.357 C54.912,36.830 56.389,38.571 56.389,38.571 C56.389,38.571 60.014,39.241 52.093,41.786 C44.171,44.330 40.412,43.795 36.518,43.393 C32.625,42.991 25.375,42.991 23.630,42.321 C21.884,41.652 18.528,42.053 17.722,38.036 Z" class="cls-2"/>
    <path d="M39.204,37.500 L44.574,18.214 L48.333,17.679 L44.037,37.500 L39.204,37.500 Z" class="cls-4"/>
    <path d="M36.861,59.979 C32.808,59.979 29.035,58.791 25.838,56.770 L8.944,56.770 C8.939,56.770 8.935,56.768 8.930,56.768 C8.924,56.768 8.917,56.770 8.911,56.770 C8.763,56.770 8.615,56.740 8.475,56.681 L0.779,53.368 C0.374,53.193 0.112,52.794 0.112,52.353 L0.112,1.554 C0.112,0.943 0.606,0.449 1.215,0.449 L8.911,0.449 C8.916,0.449 8.922,0.453 8.927,0.453 C8.933,0.453 8.938,0.449 8.944,0.449 L43.136,0.449 C43.745,0.449 44.239,0.943 44.239,1.554 L44.239,17.318 C44.565,17.129 44.940,17.014 45.343,17.014 L47.549,17.014 C48.766,17.014 49.755,18.005 49.755,19.223 C49.755,19.319 49.742,19.415 49.718,19.508 L45.911,33.798 C50.775,34.396 57.586,35.823 57.586,39.120 L57.586,39.235 C57.586,50.673 48.288,59.979 36.861,59.979 ZM7.807,2.658 L2.318,2.658 L2.318,51.625 L7.807,53.988 L7.807,2.658 ZM23.853,52.408 C24.216,52.768 24.596,53.113 24.989,53.442 C25.096,53.532 25.208,53.617 25.317,53.705 C25.619,53.945 25.929,54.176 26.244,54.398 C26.381,54.494 26.516,54.594 26.656,54.686 C29.585,56.631 33.092,57.771 36.862,57.771 C46.098,57.771 53.753,50.960 55.135,42.096 C50.898,44.298 42.147,44.964 36.861,44.964 C31.577,44.964 22.824,44.298 18.588,42.096 C18.629,42.352 18.655,42.612 18.706,42.864 C18.726,42.963 18.750,43.059 18.771,43.156 C18.876,43.643 18.998,44.125 19.142,44.596 C19.162,44.661 19.178,44.729 19.199,44.794 C19.362,45.313 19.551,45.822 19.758,46.320 C19.794,46.405 19.831,46.490 19.868,46.575 C20.311,47.599 20.842,48.575 21.454,49.494 C21.490,49.550 21.528,49.606 21.565,49.662 C21.879,50.122 22.211,50.568 22.564,50.998 C22.583,51.021 22.604,51.044 22.623,51.067 C22.950,51.462 23.296,51.838 23.655,52.204 C23.721,52.272 23.786,52.341 23.853,52.408 ZM42.033,2.658 L10.047,2.658 L10.047,54.562 L22.908,54.562 C22.790,54.454 22.689,54.333 22.570,54.225 C22.312,53.978 22.064,53.726 21.819,53.466 C21.576,53.209 21.337,52.950 21.109,52.683 C20.901,52.440 20.705,52.188 20.509,51.935 C20.278,51.638 20.050,51.342 19.836,51.034 C19.661,50.783 19.500,50.521 19.337,50.261 C19.135,49.940 18.931,49.621 18.747,49.288 C18.591,49.009 18.454,48.719 18.312,48.431 C18.150,48.105 17.982,47.781 17.838,47.446 C17.697,47.119 17.579,46.779 17.454,46.444 C17.339,46.134 17.213,45.830 17.113,45.514 C16.987,45.117 16.891,44.710 16.789,44.303 C16.721,44.032 16.637,43.767 16.580,43.492 C16.479,43.009 16.412,42.514 16.346,42.020 C16.318,41.810 16.272,41.604 16.250,41.394 C16.176,40.685 16.137,39.964 16.137,39.236 L16.137,39.121 C16.137,34.496 29.693,33.274 36.861,33.274 C37.704,33.274 38.530,33.291 39.343,33.316 L42.033,23.219 L42.033,2.658 ZM45.342,35.959 L44.926,37.558 C44.797,38.055 44.349,38.384 43.859,38.384 C43.767,38.384 43.674,38.372 43.581,38.349 C42.991,38.194 42.638,37.591 42.791,37.002 L43.449,34.474 C43.449,34.474 43.450,34.473 43.450,34.470 C43.450,34.470 43.450,34.469 43.450,34.468 L47.510,19.223 L45.343,19.223 C45.343,19.319 45.331,19.415 45.306,19.508 L41.250,34.737 L40.709,36.886 C40.582,37.386 40.133,37.720 39.640,37.720 C39.551,37.720 39.460,37.711 39.370,37.687 C38.779,37.538 38.420,36.939 38.569,36.347 L38.775,35.525 C38.140,35.509 37.514,35.483 36.861,35.483 C24.643,35.483 18.343,38.033 18.343,39.121 C18.343,40.207 24.643,42.757 36.861,42.757 C49.079,42.757 55.380,40.207 55.380,39.121 C55.380,38.593 52.872,36.848 45.342,35.959 ZM37.620,40.205 C37.012,40.205 36.517,40.700 36.517,41.310 L34.311,41.310 C34.311,39.483 35.796,37.997 37.620,37.997 C39.445,37.997 40.930,39.483 40.930,41.310 L38.723,41.310 C38.723,40.700 38.228,40.205 37.620,40.205 ZM28.795,39.101 C28.187,39.101 27.692,39.596 27.692,40.205 L25.485,40.205 C25.485,38.379 26.970,36.892 28.795,36.892 C30.619,36.892 32.104,38.379 32.104,40.205 L29.898,40.205 C29.898,39.596 29.403,39.101 28.795,39.101 ZM31.728,28.310 L27.693,28.310 C27.084,28.310 26.589,27.817 26.589,27.206 L26.589,23.166 C26.589,22.995 26.603,22.827 26.615,22.660 L26.257,23.017 C26.042,23.233 25.760,23.341 25.477,23.341 C25.195,23.341 24.913,23.233 24.697,23.017 L24.358,22.677 C24.369,22.839 24.382,23.001 24.382,23.165 L24.382,27.205 C24.382,27.816 23.888,28.309 23.279,28.309 L23.279,28.308 L19.243,28.308 C15.385,28.308 12.247,25.166 12.247,21.306 L12.247,17.265 C12.247,16.654 12.741,16.161 13.350,16.161 L17.385,16.161 C18.292,16.161 19.156,16.339 19.951,16.655 C19.482,14.417 20.109,11.991 21.842,10.256 L24.697,7.400 C25.129,6.968 25.826,6.968 26.257,7.400 L29.111,10.257 C30.847,11.994 31.473,14.423 31.001,16.664 C31.802,16.344 32.672,16.163 33.586,16.163 L37.621,16.163 C38.230,16.163 38.725,16.656 38.725,17.267 L38.725,21.308 C38.725,25.169 35.586,28.310 31.728,28.310 ZM17.385,18.370 L14.453,18.370 L14.453,21.307 C14.453,23.949 16.602,26.101 19.243,26.101 L22.176,26.101 L22.176,23.165 C22.176,20.520 20.026,18.370 17.385,18.370 ZM27.550,11.817 L25.476,9.741 L23.402,11.817 C21.536,13.686 21.536,16.728 23.402,18.598 L25.476,20.674 L27.550,18.598 C29.417,16.728 29.417,13.686 27.550,11.817 ZM36.517,18.370 L33.585,18.370 C30.944,18.370 28.795,20.520 28.795,23.165 L28.795,26.101 L31.727,26.101 C34.368,26.101 36.517,23.951 36.517,21.307 L36.517,18.370 Z" class="cls-5"/>
  </g>
</svg>
