<svg xmlns="http://www.w3.org/2000/svg" xmlns:xlink="http://www.w3.org/1999/xlink" preserveAspectRatio="xMidYMid" width="26" height="60" viewBox="0 0 26 60">
  <defs>
    <style>
      .cls-1 {
        fill: #d28383;
      }

      .cls-1, .cls-2 {
        fill-rule: evenodd;
      }

      .cls-2 {
        fill: #801f37;
      }
    </style>
  </defs>
  <g>
    <path d="M3.164,10.144 C3.164,10.144 4.920,8.444 12.389,8.470 C19.858,8.496 24.418,7.398 24.549,14.330 C24.680,21.262 24.968,49.489 24.968,49.489 C24.968,49.489 23.999,54.067 20.356,54.512 C16.713,54.956 4.842,54.093 4.842,54.093 C4.842,54.093 1.775,53.021 1.487,48.233 C1.199,43.446 1.068,43.629 1.068,43.629 L1.068,14.330 C1.068,14.330 2.116,9.935 3.164,10.144 Z" class="cls-1"/>
    <path d="M21.333,8.224 L21.333,2.275 L22.195,2.275 C22.669,2.275 23.054,1.886 23.054,1.406 C23.054,0.926 22.669,0.003 22.195,0.003 L3.841,0.003 C3.366,0.003 2.982,0.926 2.982,1.406 C2.982,1.886 3.366,2.275 3.841,2.275 L4.702,2.275 L4.702,8.224 C2.055,9.005 0.229,11.481 0.229,14.408 L0.229,49.700 C0.229,52.880 2.519,55.528 5.517,56.048 L4.843,58.777 C4.779,59.036 4.837,59.311 4.999,59.522 C5.162,59.733 5.412,59.857 5.676,59.857 L20.360,59.857 C20.624,59.857 20.874,59.733 21.037,59.522 C21.200,59.311 21.257,59.037 21.193,58.777 L20.519,56.048 C23.517,55.528 25.807,52.880 25.807,49.700 L25.807,14.408 C25.807,11.480 23.981,9.004 21.333,8.224 ZM6.954,2.693 L19.082,2.693 L19.082,7.968 C19.062,7.968 19.462,7.967 19.442,7.967 L13.991,7.967 L13.991,5.990 L15.312,5.990 C15.786,5.990 16.171,5.601 16.171,5.121 C16.171,4.641 15.786,4.136 15.312,4.136 L10.724,4.136 C10.249,4.136 9.865,4.641 9.865,5.121 C9.865,5.601 10.249,5.990 10.724,5.990 L12.045,5.990 L12.045,7.967 L7.013,7.967 C6.993,7.967 6.973,7.968 6.954,7.968 L6.954,2.693 L6.954,2.693 ZM23.556,30.651 L21.277,30.651 C20.803,30.651 20.419,31.574 20.419,32.054 C20.419,32.534 20.803,32.923 21.277,32.923 L23.556,32.923 L23.556,49.700 C23.556,52.294 21.814,53.831 19.442,53.869 L7.488,53.869 C7.014,53.869 6.630,54.793 6.630,55.273 C6.630,55.753 7.014,56.142 7.488,56.142 L18.238,56.142 L18.726,57.584 L7.310,57.584 L7.798,56.142 L8.429,56.142 C8.904,56.142 9.288,55.753 9.288,55.273 C9.288,54.793 8.904,53.869 8.429,53.869 L6.594,53.869 C4.413,53.869 2.480,52.294 2.480,49.700 L2.480,32.923 L17.607,32.923 C18.081,32.923 18.465,32.534 18.465,32.054 C18.465,31.574 18.081,30.651 17.607,30.651 L2.480,30.651 L2.480,14.827 C2.480,12.581 4.031,10.239 6.594,10.239 L19.442,10.239 C22.005,10.239 23.441,12.697 23.556,14.827 L23.556,30.651 Z" class="cls-2"/>
  </g>
</svg>
