<svg xmlns="http://www.w3.org/2000/svg" xmlns:xlink="http://www.w3.org/1999/xlink" preserveAspectRatio="xMidYMid" width="25" height="56" viewBox="0 0 25 56">
  <defs>
    <style>
      .cls-1 {
        fill: #4c6897;
        stroke: #fff;
        stroke-linejoin: round;
        stroke-width: 1px;
        fill-rule: evenodd;
      }
    </style>
  </defs>
  <path d="M20.079,8.165 L20.079,2.747 L20.864,2.747 C21.295,2.747 21.645,2.392 21.645,1.955 C21.645,1.518 21.295,0.677 20.864,0.677 L4.169,0.677 C3.738,0.677 3.388,1.518 3.388,1.955 C3.388,2.392 3.738,2.747 4.169,2.747 L4.953,2.747 L4.953,8.166 C2.545,8.876 0.884,11.132 0.884,13.798 L0.884,45.944 C0.884,48.841 2.967,51.252 5.694,51.725 L5.081,54.211 C5.022,54.448 5.075,54.698 5.223,54.890 C5.371,55.082 5.598,55.195 5.838,55.195 L19.194,55.195 C19.435,55.195 19.662,55.082 19.810,54.890 C19.958,54.698 20.010,54.448 19.952,54.211 L19.339,51.725 C22.066,51.252 24.149,48.841 24.149,45.944 L24.149,13.798 C24.149,11.132 22.488,8.876 20.079,8.165 ZM7.000,3.128 L18.032,3.128 L18.032,7.933 C18.014,7.932 18.378,7.931 18.360,7.931 L13.402,7.931 L13.402,6.130 L14.603,6.130 C15.034,6.130 15.384,5.776 15.384,5.339 C15.384,4.902 15.034,4.442 14.603,4.442 L10.430,4.442 C9.998,4.442 9.649,4.902 9.649,5.339 C9.649,5.776 9.998,6.130 10.430,6.130 L11.631,6.130 L11.631,7.931 L7.055,7.931 C7.036,7.931 7.018,7.932 7.000,7.933 L7.000,3.128 L7.000,3.128 ZM22.101,28.593 L20.029,28.593 C19.597,28.593 19.248,29.434 19.248,29.871 C19.248,30.308 19.597,30.663 20.029,30.663 L22.101,30.663 L22.101,45.944 C22.101,48.306 20.517,49.706 18.360,49.741 L7.487,49.741 C7.055,49.741 6.706,50.582 6.706,51.019 C6.706,51.457 7.055,51.811 7.487,51.811 L17.264,51.811 L17.708,53.125 L7.324,53.125 L7.769,51.811 L8.343,51.811 C8.774,51.811 9.124,51.457 9.124,51.019 C9.124,50.582 8.774,49.741 8.343,49.741 L6.673,49.741 C4.690,49.741 2.932,48.306 2.932,45.944 L2.932,30.663 L16.690,30.663 C17.121,30.663 17.471,30.308 17.471,29.871 C17.471,29.434 17.121,28.593 16.690,28.593 L2.932,28.593 L2.932,14.180 C2.932,12.134 4.342,10.001 6.673,10.001 L18.360,10.001 C20.691,10.001 21.997,12.239 22.101,14.180 L22.101,28.593 Z" class="cls-1"/>
</svg>
