<svg xmlns="http://www.w3.org/2000/svg" xmlns:xlink="http://www.w3.org/1999/xlink" preserveAspectRatio="xMidYMid" width="27" height="60" viewBox="0 0 27 60">
  <defs>
    <style>
      .cls-1 {
        fill: #4c6897;
        stroke: #fff;
        stroke-linejoin: round;
        stroke-width: 1px;
        fill-rule: evenodd;
      }
    </style>
  </defs>
  <path d="M21.686,8.749 L21.686,2.943 L22.533,2.943 C22.999,2.943 23.376,2.563 23.376,2.095 C23.376,1.627 22.999,0.725 22.533,0.725 L4.503,0.725 C4.037,0.725 3.659,1.627 3.659,2.095 C3.659,2.563 4.037,2.943 4.503,2.943 L5.349,2.943 L5.349,8.749 C2.748,9.511 0.955,11.927 0.955,14.784 L0.955,49.225 C0.955,52.329 3.204,54.913 6.150,55.420 L5.487,58.083 C5.424,58.337 5.481,58.605 5.641,58.811 C5.800,59.017 6.046,59.137 6.306,59.137 L20.730,59.137 C20.990,59.137 21.235,59.017 21.395,58.811 C21.555,58.605 21.611,58.337 21.548,58.083 L20.886,55.420 C23.831,54.913 26.081,52.329 26.081,49.225 L26.081,14.784 C26.081,11.927 24.287,9.510 21.686,8.749 ZM7.560,3.351 L19.474,3.351 L19.474,8.499 C19.455,8.499 19.848,8.498 19.828,8.498 L14.474,8.498 L14.474,6.568 L15.771,6.568 C16.237,6.568 16.615,6.189 16.615,5.720 C16.615,5.252 16.237,4.759 15.771,4.759 L11.264,4.759 C10.798,4.759 10.420,5.252 10.420,5.720 C10.420,6.189 10.798,6.568 11.264,6.568 L12.561,6.568 L12.561,8.498 L7.619,8.498 C7.599,8.498 7.580,8.499 7.560,8.499 L7.560,3.351 L7.560,3.351 ZM23.869,30.635 L21.631,30.635 C21.165,30.635 20.788,31.536 20.788,32.005 C20.788,32.473 21.165,32.853 21.631,32.853 L23.869,32.853 L23.869,49.226 C23.869,51.757 22.158,53.256 19.828,53.294 L8.086,53.294 C7.620,53.294 7.242,54.195 7.242,54.664 C7.242,55.132 7.620,55.512 8.086,55.512 L18.645,55.512 L19.125,56.920 L7.910,56.920 L8.390,55.512 L9.010,55.512 C9.476,55.512 9.854,55.132 9.854,54.664 C9.854,54.195 9.476,53.294 9.010,53.294 L7.207,53.294 C5.065,53.294 3.166,51.757 3.166,49.225 L3.166,32.853 L18.025,32.853 C18.491,32.853 18.869,32.473 18.869,32.005 C18.869,31.536 18.491,30.635 18.025,30.635 L3.166,30.635 L3.166,15.192 C3.166,13.001 4.690,10.715 7.207,10.715 L19.828,10.715 C22.346,10.715 23.757,13.114 23.869,15.192 L23.869,30.635 Z" class="cls-1"/>
</svg>
