<svg xmlns="http://www.w3.org/2000/svg" xmlns:xlink="http://www.w3.org/1999/xlink" preserveAspectRatio="xMidYMid" width="30" height="69" viewBox="0 0 30 69">
  <defs>
    <style>
      .cls-1 {
        fill: #d28383;
      }

      .cls-1, .cls-2 {
        fill-rule: evenodd;
      }

      .cls-2 {
        fill: #801f37;
      }
    </style>
  </defs>
  <g>
    <path d="M3.651,11.666 C3.651,11.666 5.677,9.711 14.295,9.741 C22.913,9.771 28.175,8.507 28.326,16.479 C28.477,24.452 28.810,56.912 28.810,56.912 C28.810,56.912 27.691,62.177 23.488,62.689 C19.284,63.200 5.586,62.207 5.586,62.207 C5.586,62.207 2.048,60.974 1.716,55.468 C1.383,49.963 1.232,50.174 1.232,50.174 L1.232,16.479 C1.232,16.479 2.442,11.425 3.651,11.666 Z" class="cls-1"/>
    <path d="M24.615,9.458 L24.615,2.616 L25.610,2.616 C26.157,2.616 26.601,2.169 26.601,1.617 C26.601,1.065 26.157,0.003 25.610,0.003 L4.432,0.003 C3.884,0.003 3.441,1.065 3.441,1.617 C3.441,2.169 3.884,2.616 4.432,2.616 L5.426,2.616 L5.426,9.458 C2.371,10.355 0.264,13.203 0.264,16.569 L0.264,57.155 C0.264,60.813 2.906,63.857 6.366,64.455 L5.588,67.593 C5.514,67.892 5.581,68.208 5.768,68.451 C5.956,68.693 6.244,68.835 6.549,68.835 L23.492,68.835 C23.797,68.835 24.085,68.693 24.273,68.451 C24.461,68.208 24.527,67.892 24.453,67.593 L23.675,64.455 C27.135,63.857 29.777,60.813 29.777,57.155 L29.777,16.569 C29.777,13.202 27.670,10.355 24.615,9.458 ZM8.023,3.097 L22.017,3.097 L22.017,9.164 C21.995,9.163 22.456,9.162 22.433,9.162 L16.144,9.162 L16.144,6.888 L17.668,6.888 C18.215,6.888 18.659,6.441 18.659,5.889 C18.659,5.337 18.215,4.756 17.668,4.756 L12.373,4.756 C11.826,4.756 11.383,5.337 11.383,5.889 C11.383,6.441 11.826,6.888 12.373,6.888 L13.898,6.888 L13.898,9.162 L8.092,9.162 C8.069,9.162 8.046,9.163 8.023,9.164 L8.023,3.097 L8.023,3.097 ZM27.180,35.249 L24.551,35.249 C24.004,35.249 23.560,36.311 23.560,36.862 C23.560,37.414 24.004,37.862 24.551,37.862 L27.180,37.862 L27.180,57.155 C27.180,60.138 25.170,61.905 22.433,61.950 L8.640,61.950 C8.093,61.950 7.650,63.012 7.650,63.564 C7.650,64.115 8.093,64.563 8.640,64.563 L21.044,64.563 L21.607,66.222 L8.434,66.222 L8.998,64.563 L9.726,64.563 C10.273,64.563 10.717,64.115 10.717,63.564 C10.717,63.012 10.273,61.950 9.726,61.950 L7.608,61.950 C5.092,61.950 2.862,60.138 2.862,57.155 L2.862,37.862 L20.315,37.862 C20.862,37.862 21.306,37.414 21.306,36.862 C21.306,36.311 20.862,35.249 20.315,35.249 L2.862,35.249 L2.862,17.051 C2.862,14.468 4.651,11.775 7.608,11.775 L22.433,11.775 C25.390,11.775 27.047,14.601 27.180,17.051 L27.180,35.249 Z" class="cls-2"/>
  </g>
</svg>
