<svg xmlns="http://www.w3.org/2000/svg" xmlns:xlink="http://www.w3.org/1999/xlink" preserveAspectRatio="xMidYMid" width="50" height="56" viewBox="0 0 50 56">
  <defs>
    <style>
      .cls-1 {
        fill: #b7cff7;
      }

      .cls-1, .cls-2, .cls-3 {
        fill-rule: evenodd;
      }

      .cls-2 {
        fill: #8ddaeb;
      }

      .cls-3 {
        fill: #517fcd;
      }
    </style>
  </defs>
  <g>
    <path d="M0.694,3.457 C0.694,3.457 1.316,0.758 2.778,0.691 C4.239,0.624 46.528,0.691 46.528,0.691 C46.528,0.691 49.233,1.450 49.306,3.457 C49.378,5.464 49.306,51.160 49.306,51.160 L45.833,50.469 L45.833,53.926 C45.833,53.926 45.298,55.145 43.750,55.309 C42.202,55.472 4.167,55.309 4.167,55.309 C4.167,55.309 3.400,54.684 3.472,53.234 C3.544,51.785 3.472,51.160 3.472,51.160 L-0.000,51.160 L0.694,3.457 Z" class="cls-1"/>
    <path d="M0.694,43.555 L48.611,43.555 L48.611,51.160 L0.694,50.469 L0.694,43.555 Z" class="cls-2"/>
    <path d="M47.048,52.008 C47.048,52.008 47.052,52.951 47.052,54.131 C47.052,56.018 46.070,55.990 46.070,55.990 L4.367,55.990 C4.367,55.990 2.984,56.217 2.948,54.568 C2.922,53.394 2.952,52.008 2.952,52.008 L-0.000,52.008 L-0.000,52.000 L-0.000,43.321 L-0.000,3.603 C-0.000,1.616 1.614,-0.000 3.598,-0.000 L14.631,-0.000 L15.692,-0.000 L46.402,-0.000 C48.386,-0.000 50.000,1.616 50.000,3.603 L50.000,43.321 L50.000,52.000 L50.000,52.008 L47.048,52.008 ZM4.612,54.327 L45.388,54.327 L45.388,52.008 L8.919,52.008 L7.618,52.008 L4.612,52.008 L4.612,54.327 ZM48.339,3.603 C48.339,2.533 47.470,1.663 46.402,1.663 L15.692,1.663 L14.631,1.663 L3.598,1.663 C2.529,1.663 1.660,2.533 1.660,3.603 L1.660,43.321 L48.339,43.321 L48.339,3.603 ZM48.339,44.984 L1.660,44.984 L1.660,50.337 L4.612,50.337 L4.612,50.345 L7.618,50.345 L8.919,50.345 L45.388,50.345 L45.388,50.337 L48.339,50.337 L48.339,44.984 ZM39.442,46.247 L41.102,46.247 L41.102,49.080 L39.442,49.080 L39.442,46.247 ZM36.121,46.247 L37.781,46.247 L37.781,49.080 L36.121,49.080 L36.121,46.247 ZM32.800,46.247 L34.460,46.247 L34.460,49.080 L32.800,49.080 L32.800,46.247 ZM15.539,46.247 L17.200,46.247 L17.200,49.080 L15.539,49.080 L15.539,46.247 ZM12.219,46.247 L13.879,46.247 L13.879,49.080 L12.219,49.080 L12.219,46.247 ZM8.896,46.247 L10.557,46.247 L10.557,49.080 L8.896,49.080 L8.896,46.247 ZM5.568,12.685 C6.660,12.649 8.545,12.639 8.545,12.639 L8.545,14.302 L6.089,14.302 L6.089,30.676 L8.540,30.659 L8.551,32.322 L5.349,32.369 C5.349,32.369 4.511,32.664 4.476,30.838 C4.404,27.099 4.476,13.888 4.476,13.888 C4.476,13.888 4.552,12.718 5.568,12.685 ZM20.761,19.423 L17.735,19.423 L17.735,17.760 L20.275,17.760 L20.275,15.216 L21.935,15.216 L21.936,18.247 L24.170,20.485 L24.170,13.818 L25.830,13.818 L25.830,20.484 L28.064,18.247 L28.064,15.216 L29.725,15.216 L29.725,17.760 L32.264,17.760 L32.264,19.423 L29.238,19.423 L27.004,21.660 L33.660,21.660 L33.660,23.323 L27.004,23.323 L29.238,25.561 L32.264,25.561 L32.264,27.224 L29.725,27.224 L29.725,29.768 L28.064,29.768 L28.064,26.737 L25.830,24.499 L25.830,31.166 L24.170,31.166 L24.170,24.499 L21.936,26.737 L21.936,29.768 L20.275,29.768 L20.275,27.224 L17.735,27.224 L17.735,25.561 L20.761,25.561 L22.995,23.323 L16.339,23.323 L16.339,21.660 L22.996,21.660 L20.761,19.423 ZM46.679,19.532 L45.019,19.532 L45.019,10.810 L46.679,10.810 L46.679,19.532 ZM46.679,41.936 L45.019,41.936 L45.019,21.749 L46.679,21.749 L46.679,41.936 Z" class="cls-3"/>
  </g>
</svg>
