<svg xmlns="http://www.w3.org/2000/svg" xmlns:xlink="http://www.w3.org/1999/xlink" preserveAspectRatio="xMidYMid" width="110" height="119" viewBox="0 0 110 119">
  <defs>
    <style>
      .cls-1 {
        fill: #c684d1;
      }

      .cls-1, .cls-2, .cls-3, .cls-4 {
        fill-rule: evenodd;
      }

      .cls-2 {
        fill: #f3f28f;
      }

      .cls-3 {
        fill: #e1bee7;
      }

      .cls-4 {
        fill: #aa67b5;
      }
    </style>
  </defs>
  <g>
    <path d="M37.000,66.000 L65.000,68.000 L63.000,76.000 L58.000,77.000 L58.000,111.000 C58.000,111.000 55.712,116.843 52.000,117.000 C48.288,117.157 43.712,113.343 43.000,110.000 C42.288,106.657 43.000,77.000 43.000,77.000 C43.000,77.000 39.000,81.500 37.000,66.000 Z" class="cls-1"/>
    <path d="M5.000,9.000 C5.000,9.000 4.712,2.843 10.000,2.000 C15.288,1.157 52.000,1.000 52.000,1.000 L89.000,3.000 C89.000,3.000 97.712,-0.657 98.000,7.000 C98.288,14.657 98.000,25.000 98.000,25.000 C98.000,25.000 99.712,29.843 91.000,30.000 C82.288,30.157 50.000,30.000 50.000,30.000 L10.000,30.000 C10.000,30.000 6.212,31.843 6.000,23.000 C5.788,14.157 5.000,9.000 5.000,9.000 Z" class="cls-2"/>
    <path d="M9.000,31.000 L9.000,43.000 C9.000,43.000 19.212,55.843 21.000,46.000 C22.788,36.157 21.000,37.000 21.000,37.000 L22.000,62.000 C22.000,62.000 28.712,67.843 32.000,62.000 C35.288,56.157 33.000,35.000 33.000,35.000 C33.000,35.000 34.712,42.843 39.000,43.000 C43.288,43.157 43.000,30.000 43.000,30.000 L9.000,31.000 Z" class="cls-3"/>
    <path d="M100.532,45.501 C98.765,45.894 64.010,48.838 57.138,49.427 C54.782,49.427 53.014,51.194 53.014,53.353 L53.014,65.131 L64.796,65.131 C65.385,65.131 65.974,65.328 66.367,65.916 C66.759,66.309 66.956,66.898 66.759,67.487 L64.796,77.302 C64.600,78.283 63.814,78.872 62.832,78.872 L60.869,78.872 L60.869,108.317 C60.869,113.814 56.549,118.132 51.051,118.132 C45.553,118.132 41.233,113.813 41.233,108.317 L41.233,78.872 L39.270,78.872 C38.288,78.872 37.503,78.283 37.307,77.302 L35.343,67.487 C35.147,66.898 35.343,66.309 35.736,65.916 C36.129,65.524 36.718,65.131 37.307,65.131 L49.088,65.131 L49.088,53.353 C49.088,49.035 52.622,45.502 56.942,45.502 C73.239,44.127 98.176,41.968 99.747,41.575 C103.281,40.790 106.031,37.453 106.031,33.724 L106.031,25.872 C106.031,22.230 103.518,19.147 100.140,18.270 L100.140,25.872 C100.140,29.209 97.587,31.760 94.249,31.760 L45.161,31.760 L45.161,38.631 C45.161,42.361 42.019,45.502 38.289,45.502 C37.307,45.502 36.325,45.305 35.343,44.913 L35.343,59.242 C35.343,63.561 31.809,67.094 27.489,67.094 C23.170,67.094 19.635,63.561 19.635,59.242 L19.635,50.409 C18.457,50.997 17.083,51.390 15.708,51.390 C11.388,51.390 7.854,47.857 7.854,43.538 L7.854,31.444 C5.529,30.664 3.927,28.515 3.927,25.872 L3.927,18.020 L1.963,18.020 C0.785,18.020 -0.000,17.234 -0.000,16.056 C-0.000,14.879 0.785,14.094 1.963,14.094 L3.927,14.094 L3.927,6.242 C3.927,2.905 6.479,0.353 9.817,0.353 L94.250,0.353 C97.588,0.353 100.140,2.905 100.140,6.242 L100.140,14.262 C105.693,15.204 109.958,20.062 109.957,25.872 L109.957,33.723 C109.957,39.416 106.030,44.323 100.532,45.501 ZM39.663,69.057 L40.841,74.946 L43.198,74.946 C44.376,74.946 45.161,75.731 45.161,76.909 L45.161,96.539 L49.088,96.539 C50.266,96.539 51.052,97.324 51.052,98.502 C51.052,99.680 50.266,100.465 49.088,100.465 L45.161,100.465 L45.161,104.391 L49.088,104.391 C50.266,104.391 51.052,105.176 51.052,106.354 C51.052,107.532 50.266,108.317 49.088,108.317 L45.161,108.317 C45.161,111.654 47.714,114.206 51.052,114.206 C54.390,114.206 56.943,111.654 56.943,108.317 L56.943,76.909 C56.943,75.731 57.728,74.946 58.906,74.946 L61.262,74.946 L62.440,69.057 L39.663,69.057 ZM11.781,43.538 C11.781,45.698 13.548,47.464 15.708,47.464 C17.868,47.464 19.635,45.698 19.635,43.538 L19.635,37.649 C19.635,36.472 20.421,35.687 21.599,35.687 C22.777,35.687 23.562,36.472 23.562,37.649 L23.562,43.538 L23.562,59.242 C23.562,61.402 25.330,63.168 27.490,63.168 C29.650,63.168 31.417,61.402 31.417,59.242 L31.417,39.613 L31.417,38.631 L31.417,35.687 C31.417,34.509 32.202,33.724 33.380,33.724 C34.558,33.724 35.344,34.509 35.344,35.687 L35.344,38.631 C35.344,40.201 36.718,41.575 38.289,41.575 C39.860,41.575 41.234,40.201 41.234,38.631 L41.234,31.760 L11.781,31.760 L11.781,43.538 ZM96.213,25.872 L96.213,6.242 C96.213,5.064 95.428,4.279 94.249,4.279 L9.817,4.279 C8.836,4.279 7.854,5.260 7.854,6.242 L7.854,25.872 C7.854,27.049 8.639,27.834 9.817,27.834 L43.198,27.834 L94.250,27.834 C95.428,27.834 96.213,27.049 96.213,25.872 L96.213,25.872 ZM82.076,23.320 C81.683,23.713 81.094,23.909 80.505,23.909 C80.112,23.909 79.523,23.712 79.327,23.516 C78.541,22.731 78.345,21.553 79.130,20.768 L88.948,8.990 C89.733,8.205 90.912,8.009 91.697,8.794 C92.482,9.579 92.679,10.757 91.893,11.542 L82.076,23.320 ZM70.294,23.320 C69.901,23.712 69.312,23.909 68.723,23.909 C68.330,23.909 67.741,23.712 67.545,23.516 C66.760,22.731 66.564,21.553 67.349,20.768 L77.167,8.990 C77.952,8.205 79.130,8.009 79.916,8.794 C80.701,9.579 80.898,10.757 80.112,11.542 L70.294,23.320 ZM56.550,23.320 C56.157,23.712 55.568,23.909 54.979,23.909 C54.586,23.909 53.997,23.712 53.800,23.516 C53.015,22.731 52.819,21.553 53.604,20.768 L63.422,8.990 C64.208,8.205 65.386,8.009 66.171,8.794 C66.956,9.579 67.153,10.757 66.367,11.542 L56.550,23.320 ZM42.805,23.320 C42.412,23.712 41.823,23.909 41.234,23.909 C40.841,23.909 40.252,23.712 40.056,23.516 C39.270,22.731 39.074,21.553 39.860,20.768 L49.677,8.990 C50.463,8.205 51.641,8.009 52.426,8.794 C53.212,9.579 53.408,10.757 52.623,11.542 L42.805,23.320 ZM29.060,23.320 C28.667,23.712 28.078,23.909 27.489,23.909 C27.096,23.909 26.507,23.712 26.311,23.516 C25.526,22.731 25.329,21.553 26.115,20.768 L35.932,8.990 C36.718,8.205 37.896,8.009 38.681,8.794 C39.467,9.579 39.663,10.757 38.878,11.542 L29.060,23.320 ZM15.315,23.320 C14.923,23.712 14.333,23.909 13.744,23.909 C13.352,23.909 12.763,23.712 12.566,23.516 C11.781,22.731 11.585,21.553 12.370,20.768 L22.188,8.990 C22.973,8.205 24.151,8.009 24.937,8.794 C25.722,9.579 25.919,10.757 25.133,11.542 L15.315,23.320 Z" class="cls-4"/>
  </g>
</svg>
