<svg xmlns="http://www.w3.org/2000/svg" xmlns:xlink="http://www.w3.org/1999/xlink" preserveAspectRatio="xMidYMid" width="119" height="119" viewBox="0 0 119 119">
  <defs>
    <style>
      .cls-1 {
        fill: #b7cff7;
      }

      .cls-2, .cls-4 {
        fill: #517fcd;
        stroke-linejoin: round;
        stroke-width: 2px;
      }

      .cls-2 {
        stroke: #f2f2f2;
      }

      .cls-2, .cls-4, .cls-5 {
        fill-rule: evenodd;
      }

      .cls-3 {
        fill: #e8e8e8;
      }

      .cls-4 {
        stroke: #d6dfee;
      }

      .cls-5 {
        fill: #8ddaeb;
      }
    </style>
  </defs>
  <g>
    <rect x="3" y="3" width="113" height="112" rx="5" ry="5" class="cls-1"/>
    <path d="M107.364,118.000 L11.636,118.000 C5.770,118.000 1.000,113.230 1.000,107.364 L1.000,11.636 C1.000,5.770 5.770,1.000 11.636,1.000 L107.364,1.000 C113.230,1.000 118.000,5.770 118.000,11.636 L118.000,107.364 C118.000,113.230 113.230,118.000 107.364,118.000 ZM112.682,11.636 C112.682,8.705 110.295,6.318 107.364,6.318 L11.636,6.318 C8.705,6.318 6.318,8.705 6.318,11.636 L6.318,107.364 C6.318,110.295 8.705,112.682 11.636,112.682 L107.364,112.682 C110.295,112.682 112.682,110.295 112.682,107.364 L112.682,11.636 ZM59.500,107.364 C33.109,107.364 11.636,85.891 11.636,59.500 C11.636,33.109 33.109,11.636 59.500,11.636 C85.891,11.636 107.364,33.109 107.364,59.500 C107.364,85.891 85.891,107.364 59.500,107.364 ZM59.500,16.954 C36.040,16.954 16.954,36.041 16.954,59.500 C16.954,82.959 36.040,102.045 59.500,102.045 C82.959,102.045 102.045,82.959 102.045,59.500 C102.045,36.041 82.959,16.954 59.500,16.954 ZM88.574,80.814 C87.803,80.814 87.065,80.479 86.559,79.890 C80.329,72.647 74.652,70.718 71.923,69.793 C71.833,69.763 71.753,69.731 71.664,69.701 C70.902,70.609 70.056,71.431 69.112,72.151 C71.176,75.968 74.148,82.685 75.117,91.227 C75.252,92.411 74.582,93.541 73.476,93.990 C69.004,95.805 64.302,96.727 59.500,96.727 C59.056,96.727 58.620,96.699 58.186,96.670 C57.350,96.628 56.322,96.179 55.852,95.483 C55.384,94.790 55.010,93.899 55.286,93.110 C58.391,84.177 57.296,78.269 56.768,75.428 C56.752,75.339 56.741,75.261 56.725,75.174 C55.542,74.965 54.394,74.660 53.316,74.205 C51.035,77.901 46.720,83.792 39.848,88.877 C39.378,89.225 38.822,89.399 38.266,89.399 C37.687,89.399 37.111,89.210 36.630,88.836 C32.413,85.540 28.889,81.300 26.440,76.574 C26.054,75.828 26.043,74.943 26.409,74.187 C26.778,73.431 27.482,72.894 28.308,72.738 C37.700,70.967 42.208,67.012 44.376,65.111 C44.441,65.054 44.503,65.005 44.566,64.949 C44.164,63.851 43.900,62.698 43.748,61.503 C39.413,61.379 32.105,60.588 24.239,57.170 C23.145,56.695 22.501,55.550 22.665,54.368 C23.410,48.983 25.269,43.950 28.191,39.406 C28.642,38.699 29.403,38.250 30.242,38.190 C31.071,38.154 31.891,38.471 32.442,39.110 C38.671,46.352 44.348,48.282 47.077,49.206 C47.167,49.236 47.247,49.268 47.336,49.298 C48.099,48.390 48.945,47.568 49.889,46.849 C47.825,43.031 44.852,36.315 43.883,27.772 C43.748,26.588 44.418,25.459 45.524,25.009 C50.411,23.028 55.706,21.992 60.814,22.329 C61.650,22.371 62.679,22.820 63.148,23.516 C63.616,24.209 63.990,25.100 63.715,25.890 C60.609,34.822 61.705,40.730 62.232,43.571 C62.248,43.660 62.259,43.738 62.275,43.826 C63.458,44.035 64.607,44.339 65.685,44.795 C67.965,41.099 72.281,35.207 79.152,30.123 C80.113,29.414 81.427,29.429 82.369,30.164 C86.649,33.509 90.079,37.632 92.560,42.426 C92.946,43.173 92.957,44.059 92.591,44.812 C92.222,45.568 91.518,46.105 90.692,46.261 C81.300,48.032 76.792,51.987 74.624,53.888 C74.559,53.945 74.498,53.994 74.434,54.050 C74.837,55.151 75.101,56.307 75.253,57.506 C79.578,57.628 86.873,58.399 94.762,61.829 C95.855,62.304 96.499,63.449 96.336,64.631 C95.590,70.016 93.731,75.049 90.809,79.593 C90.358,80.300 89.597,80.749 88.758,80.809 C88.696,80.811 88.636,80.814 88.574,80.814 ZM30.943,45.308 C29.720,47.765 28.827,50.362 28.276,53.075 C34.618,55.498 40.376,56.094 43.900,56.192 C43.968,55.873 44.101,55.581 44.187,55.269 C44.303,54.831 44.398,54.384 44.550,53.963 C41.582,52.925 36.555,50.889 30.943,45.308 ZM69.554,89.773 C68.479,83.045 66.101,77.737 64.423,74.636 C64.184,74.717 63.941,74.754 63.701,74.822 C63.257,74.944 62.824,75.081 62.366,75.165 C62.290,75.180 62.215,75.210 62.138,75.223 C62.684,78.298 63.405,83.702 61.382,91.354 C64.164,91.188 66.898,90.661 69.554,89.773 ZM48.661,71.138 C48.354,70.851 48.066,70.552 47.782,70.242 C47.603,70.051 47.398,69.878 47.230,69.679 C44.849,71.731 40.572,75.062 32.937,77.132 C34.456,79.409 36.277,81.502 38.326,83.328 C43.608,79.035 47.009,74.333 48.853,71.333 C48.783,71.272 48.729,71.200 48.661,71.138 ZM49.445,29.227 C50.520,35.955 52.899,41.263 54.576,44.363 C54.815,44.283 55.058,44.246 55.298,44.178 C55.741,44.056 56.175,43.919 56.633,43.835 C56.710,43.820 56.784,43.790 56.861,43.776 C56.316,40.702 55.594,35.298 57.617,27.645 C54.836,27.811 52.101,28.338 49.445,29.227 ZM59.500,48.863 C53.625,48.863 48.863,53.625 48.863,59.500 C48.863,65.374 53.625,70.136 59.500,70.136 C65.374,70.136 70.136,65.374 70.136,59.500 C70.136,53.625 65.374,48.863 59.500,48.863 ZM86.070,41.865 C84.551,39.580 82.746,37.508 80.676,35.669 C75.392,39.964 71.990,44.667 70.146,47.666 C70.216,47.727 70.270,47.800 70.338,47.862 C70.646,48.148 70.933,48.447 71.217,48.758 C71.396,48.949 71.602,49.122 71.769,49.320 C74.151,47.269 78.430,43.935 86.070,41.865 ZM90.723,65.924 C84.372,63.497 78.619,62.903 75.100,62.805 C75.031,63.131 74.896,63.427 74.808,63.746 C74.693,64.178 74.599,64.619 74.449,65.036 C77.417,66.075 82.445,68.111 88.056,73.691 C89.279,71.235 90.173,68.638 90.723,65.924 ZM102.045,22.272 C99.108,22.272 96.727,19.891 96.727,16.954 C96.727,14.017 99.108,11.636 102.045,11.636 C104.982,11.636 107.363,14.017 107.363,16.954 C107.363,19.891 104.982,22.272 102.045,22.272 ZM16.954,22.272 C14.017,22.272 11.636,19.891 11.636,16.954 C11.636,14.017 14.017,11.636 16.954,11.636 C19.891,11.636 22.272,14.017 22.272,16.954 C22.272,19.891 19.891,22.272 16.954,22.272 ZM16.954,96.727 C19.891,96.727 22.272,99.108 22.272,102.045 C22.272,104.982 19.891,107.363 16.954,107.363 C14.017,107.363 11.636,104.982 11.636,102.045 C11.636,99.108 14.017,96.727 16.954,96.727 ZM102.045,96.727 C104.982,96.727 107.363,99.108 107.363,102.045 C107.363,104.982 104.982,107.363 102.045,107.363 C99.108,107.363 96.727,104.982 96.727,102.045 C96.727,99.108 99.108,96.727 102.045,96.727 Z" class="cls-2"/>
    <circle cx="59.5" cy="59.5" r="43.5" class="cls-3"/>
    <path d="M82.369,30.164 C81.427,29.429 80.113,29.414 79.152,30.123 C72.281,35.207 67.965,41.099 65.685,44.795 C64.607,44.339 63.458,44.035 62.275,43.826 C62.259,43.738 62.248,43.660 62.232,43.571 C61.705,40.730 60.609,34.822 63.715,25.890 C63.990,25.100 63.616,24.209 63.148,23.516 C62.679,22.820 61.650,22.371 60.814,22.329 C55.706,21.992 50.411,23.028 45.524,25.009 C44.418,25.459 43.748,26.588 43.883,27.772 C44.852,36.315 47.825,43.031 49.889,46.849 C48.945,47.568 48.099,48.390 47.336,49.298 C47.247,49.268 47.167,49.236 47.077,49.206 C44.348,48.282 38.671,46.352 32.442,39.110 C31.891,38.471 31.071,38.154 30.242,38.190 C29.403,38.250 28.642,38.699 28.191,39.406 C25.269,43.950 23.410,48.983 22.665,54.368 C22.501,55.550 23.145,56.695 24.239,57.170 C32.105,60.588 39.413,61.379 43.748,61.503 C43.900,62.698 44.164,63.851 44.566,64.949 C44.503,65.005 44.441,65.054 44.376,65.111 C42.208,67.012 37.700,70.967 28.308,72.738 C27.482,72.894 26.778,73.431 26.409,74.187 C26.043,74.943 26.054,75.828 26.440,76.574 C28.889,81.300 32.413,85.540 36.630,88.836 C37.111,89.210 37.687,89.399 38.266,89.399 C38.822,89.399 39.378,89.225 39.848,88.877 C46.720,83.792 51.035,77.901 53.316,74.205 C54.394,74.660 55.542,74.965 56.725,75.174 C56.741,75.261 56.752,75.339 56.768,75.428 C57.296,78.269 58.391,84.177 55.286,93.110 C55.010,93.899 55.384,94.790 55.852,95.483 C56.322,96.179 57.350,96.628 58.186,96.670 C58.620,96.699 59.056,96.727 59.500,96.727 C64.302,96.727 69.004,95.805 73.476,93.990 C74.582,93.541 75.252,92.411 75.117,91.227 C74.148,82.685 71.176,75.968 69.112,72.151 C70.056,71.431 70.902,70.609 71.664,69.701 C71.753,69.731 71.833,69.763 71.923,69.793 C74.652,70.718 80.329,72.647 86.559,79.890 C87.065,80.479 87.803,80.814 88.574,80.814 C88.636,80.814 88.696,80.811 88.758,80.809 C89.597,80.749 90.358,80.300 90.809,79.593 C93.731,75.049 95.590,70.016 96.336,64.631 C96.499,63.449 95.855,62.304 94.762,61.829 C86.873,58.399 79.578,57.628 75.253,57.506 C75.101,56.307 74.837,55.151 74.434,54.050 C74.498,53.994 74.559,53.945 74.624,53.888 C76.792,51.987 81.300,48.032 90.692,46.261 C91.518,46.105 92.222,45.568 92.591,44.812 C92.957,44.059 92.946,43.173 92.560,42.426 C90.079,37.632 86.649,33.509 82.369,30.164 ZM44.187,55.269 C44.101,55.581 43.968,55.873 43.900,56.192 C40.376,56.094 34.618,55.498 28.276,53.075 C28.827,50.362 29.720,47.765 30.943,45.308 C36.555,50.889 41.582,52.925 44.550,53.963 C44.398,54.384 44.303,54.831 44.187,55.269 ZM74.808,63.746 C74.896,63.427 75.031,63.131 75.100,62.805 C78.619,62.903 84.372,63.497 90.723,65.924 C90.173,68.638 89.279,71.235 88.056,73.691 C82.445,68.111 77.417,66.075 74.449,65.036 C74.599,64.619 74.693,64.178 74.808,63.746 ZM49.445,29.227 C52.101,28.338 54.836,27.811 57.617,27.645 C55.594,35.298 56.316,40.702 56.861,43.776 C56.784,43.790 56.710,43.820 56.633,43.835 C56.175,43.919 55.741,44.056 55.298,44.178 C55.058,44.246 54.815,44.283 54.576,44.363 C52.899,41.263 50.520,35.955 49.445,29.227 ZM38.326,83.328 C36.277,81.502 34.456,79.409 32.937,77.132 C40.572,75.062 44.849,71.731 47.230,69.679 C47.398,69.878 47.603,70.051 47.782,70.242 C48.066,70.552 48.354,70.851 48.661,71.138 C48.729,71.200 48.783,71.272 48.853,71.333 C47.009,74.333 43.608,79.035 38.326,83.328 ZM69.554,89.773 C66.898,90.661 64.164,91.188 61.382,91.354 C63.405,83.702 62.684,78.298 62.138,75.223 C62.215,75.210 62.290,75.180 62.366,75.165 C62.824,75.081 63.257,74.944 63.701,74.822 C63.941,74.754 64.184,74.717 64.423,74.636 C66.101,77.737 68.479,83.045 69.554,89.773 ZM59.500,70.136 C53.625,70.136 48.863,65.374 48.863,59.500 C48.863,53.625 53.625,48.863 59.500,48.863 C65.374,48.863 70.136,53.625 70.136,59.500 C70.136,65.374 65.374,70.136 59.500,70.136 ZM71.769,49.320 C71.602,49.122 71.396,48.949 71.217,48.758 C70.933,48.447 70.646,48.148 70.338,47.862 C70.270,47.800 70.216,47.727 70.146,47.666 C71.990,44.667 75.392,39.964 80.676,35.669 C82.746,37.508 84.551,39.580 86.070,41.865 C78.430,43.935 74.151,47.269 71.769,49.320 Z" class="cls-4"/>
    <path d="M49.000,29.310 C49.000,29.310 56.267,23.451 57.727,27.348 C57.742,27.387 58.310,39.732 57.727,44.019 C57.637,44.682 53.760,45.000 53.760,45.000 C53.760,45.000 49.317,38.135 49.000,29.310 Z" class="cls-5"/>
    <path d="M71.000,90.000 C71.000,90.000 62.730,95.549 61.270,91.651 C61.255,91.612 60.687,79.267 61.270,74.981 C61.360,74.318 65.238,74.000 65.238,74.000 C65.238,74.000 70.682,81.174 71.000,90.000 Z" class="cls-5"/>
    <path d="M91.615,64.914 C91.615,64.914 92.110,75.654 88.000,75.000 C87.959,74.993 77.191,68.584 73.750,65.961 C73.219,65.556 74.856,62.026 74.856,62.026 C74.856,62.026 83.783,60.833 91.615,64.914 Z" class="cls-5"/>
    <path d="M39.000,85.000 C39.000,85.000 29.422,79.268 32.000,76.000 C32.026,75.967 42.922,70.344 46.891,68.622 C47.504,68.356 49.785,71.508 49.785,71.508 C49.785,71.508 46.385,80.156 39.000,85.000 Z" class="cls-5"/>
    <path d="M88.000,42.000 C88.000,42.000 83.466,31.696 80.000,34.000 C78.714,34.855 71.200,44.178 68.967,47.884 C68.622,48.457 71.445,51.136 71.445,51.136 C71.445,51.136 79.471,47.178 88.000,42.000 Z" class="cls-5"/>
    <path d="M27.000,54.000 C26.625,53.178 26.933,43.832 31.037,44.530 C31.078,44.537 41.505,50.986 45.024,53.504 C45.568,53.893 45.000,57.000 45.000,57.000 C45.000,57.000 28.284,56.819 27.000,54.000 Z" class="cls-5"/>
  </g>
</svg>
