<svg xmlns="http://www.w3.org/2000/svg" xmlns:xlink="http://www.w3.org/1999/xlink" preserveAspectRatio="xMidYMid" width="61" height="60" viewBox="0 0 61 60">
  <defs>
    <style>
      .cls-1 {
        fill: #3e5c8f;
        stroke: #fff;
      }

      .cls-1, .cls-2, .cls-3, .cls-4 {
        stroke-linejoin: round;
        stroke-width: 2px;
        fill-rule: evenodd;
      }

      .cls-2 {
        fill: #517fcd;
      }

      .cls-2, .cls-3, .cls-4 {
        stroke: #3e5c8f;
      }

      .cls-3 {
        fill: #6aacd2;
      }

      .cls-4 {
        fill: #c7e5ee;
      }
    </style>
  </defs>
  <g>
    <path d="M52.879,21.107 L51.427,21.727 C51.325,21.771 51.219,21.791 51.115,21.791 C50.809,21.791 50.517,21.613 50.389,21.314 C49.667,19.641 48.410,17.924 46.544,16.066 C44.677,14.208 42.953,12.955 41.272,12.237 C41.079,12.155 40.927,12.000 40.850,11.806 C40.772,11.612 40.775,11.396 40.857,11.204 L41.480,9.758 C41.652,9.359 42.117,9.174 42.518,9.345 C44.575,10.224 46.623,11.694 48.778,13.840 C50.934,15.986 52.411,18.025 53.293,20.074 C53.465,20.473 53.280,20.936 52.879,21.107 ZM37.200,57.478 C35.121,58.305 32.629,58.707 29.580,58.707 C26.532,58.707 24.040,58.305 21.961,57.478 C21.556,57.317 21.359,56.860 21.520,56.456 L22.107,54.995 C22.184,54.801 22.336,54.646 22.529,54.564 C22.722,54.482 22.939,54.479 23.133,54.556 C24.833,55.232 26.941,55.560 29.580,55.560 C32.220,55.560 34.328,55.232 36.027,54.556 C36.222,54.479 36.440,54.481 36.632,54.564 C36.825,54.646 36.977,54.801 37.054,54.995 L37.641,56.456 C37.802,56.859 37.605,57.317 37.200,57.478 ZM17.889,12.237 C16.208,12.955 14.484,14.208 12.617,16.066 C10.751,17.924 9.493,19.640 8.772,21.314 C8.644,21.613 8.352,21.791 8.046,21.791 C7.942,21.791 7.836,21.771 7.734,21.727 L6.282,21.107 C5.881,20.936 5.695,20.473 5.868,20.074 C6.750,18.025 8.227,15.986 10.383,13.840 C12.538,11.694 14.586,10.224 16.643,9.345 C17.044,9.174 17.509,9.358 17.681,9.758 L18.304,11.204 C18.387,11.396 18.389,11.612 18.312,11.806 C18.234,12.000 18.082,12.155 17.889,12.237 Z" class="cls-1"/>
    <path d="M59.804,50.784 C59.804,52.891 58.726,54.387 56.601,55.230 C55.045,55.848 52.884,56.136 49.800,56.136 C46.716,56.136 44.555,55.848 42.999,55.230 C40.874,54.387 39.796,52.891 39.796,50.784 C39.796,46.697 42.706,43.226 46.718,42.027 C44.905,40.780 43.683,38.468 43.683,35.827 C43.683,32.251 44.410,28.596 49.800,28.596 C55.190,28.596 55.917,32.251 55.917,35.827 C55.917,38.468 54.696,40.780 52.882,42.027 C56.895,43.226 59.804,46.697 59.804,50.784 ZM37.442,28.188 C35.887,28.806 33.726,29.093 30.641,29.093 C27.557,29.093 25.396,28.806 23.840,28.188 C21.715,27.345 20.637,25.848 20.637,23.742 C20.637,19.655 23.547,16.184 27.560,14.985 C25.746,13.737 24.525,11.426 24.525,8.785 C24.525,5.209 25.251,1.553 30.641,1.553 C36.031,1.553 36.758,5.209 36.758,8.785 C36.758,11.426 35.537,13.737 33.723,14.985 C37.736,16.184 40.646,19.655 40.645,23.742 C40.645,25.849 39.568,27.345 37.442,28.188 ZM21.487,50.784 C21.487,52.891 20.409,54.387 18.284,55.230 C16.728,55.848 14.567,56.136 11.483,56.136 C8.399,56.136 6.238,55.848 4.682,55.230 C2.556,54.387 1.479,52.891 1.479,50.784 C1.479,46.697 4.388,43.226 8.401,42.027 C6.587,40.780 5.366,38.468 5.366,35.827 C5.366,32.251 6.093,28.596 11.483,28.596 C16.873,28.596 17.599,32.251 17.599,35.827 C17.599,38.468 16.378,40.780 14.565,42.027 C18.577,43.226 21.487,46.697 21.487,50.784 Z" class="cls-2"/>
    <path d="M52.882,42.027 C54.696,40.780 55.917,38.468 55.917,35.827 C55.917,32.251 55.190,28.596 49.800,28.596 C44.410,28.596 43.683,32.251 43.683,35.827 C43.683,38.468 44.905,40.780 46.718,42.027 C42.706,43.226 39.796,46.697 39.796,50.784 C39.796,52.891 40.874,54.387 42.999,55.230 C44.555,55.848 46.716,56.136 49.800,56.136 C52.884,56.136 55.045,55.848 56.601,55.230 C58.726,54.387 59.804,52.891 59.804,50.784 C59.804,46.697 56.895,43.226 52.882,42.027 Z" class="cls-3"/>
    <path d="M14.682,42.027 C16.496,40.780 17.717,38.468 17.717,35.827 C17.717,32.251 16.990,28.596 11.600,28.596 C6.210,28.596 5.483,32.251 5.483,35.827 C5.483,38.468 6.704,40.780 8.518,42.027 C4.506,43.226 1.596,46.697 1.596,50.784 C1.596,52.891 2.673,54.387 4.799,55.230 C6.354,55.848 8.516,56.136 11.600,56.136 C14.684,56.136 16.845,55.848 18.401,55.230 C20.526,54.387 21.604,52.891 21.604,50.784 C21.604,46.697 18.694,43.226 14.682,42.027 Z" class="cls-4"/>
  </g>
</svg>
