<svg xmlns="http://www.w3.org/2000/svg" xmlns:xlink="http://www.w3.org/1999/xlink" preserveAspectRatio="xMidYMid" width="60" height="60" viewBox="0 0 60 60">
  <defs>
    <style>
      .cls-1 {
        fill: #3e5c8f;
        stroke: #fff;
        stroke-width: 3px;
      }

      .cls-1, .cls-2 {
        stroke-linejoin: round;
        fill-rule: evenodd;
      }

      .cls-2 {
        stroke: #3e5c8f;
        stroke-width: 1px;
        fill: none;
      }
    </style>
  </defs>
  <g>
    <path d="M52.601,20.643 L51.148,21.267 C51.046,21.311 50.940,21.331 50.836,21.331 C50.529,21.331 50.238,21.152 50.109,20.852 C49.387,19.167 48.128,17.440 46.261,15.570 C44.393,13.701 42.667,12.441 40.984,11.718 C40.792,11.635 40.640,11.479 40.562,11.284 C40.484,11.089 40.487,10.871 40.570,10.678 L41.193,9.223 C41.366,8.821 41.831,8.636 42.232,8.808 C44.291,9.692 46.340,11.172 48.497,13.331 C50.655,15.490 52.133,17.542 53.016,19.603 C53.188,20.005 53.002,20.471 52.601,20.643 ZM36.909,57.240 C34.829,58.072 32.334,58.477 29.284,58.477 C26.233,58.477 23.738,58.072 21.658,57.240 C21.252,57.078 21.055,56.617 21.217,56.211 L21.803,54.741 C21.881,54.546 22.033,54.390 22.226,54.307 C22.419,54.225 22.637,54.222 22.831,54.300 C24.532,54.980 26.642,55.310 29.284,55.310 C31.925,55.310 34.035,54.980 35.736,54.300 C35.931,54.222 36.148,54.225 36.341,54.307 C36.534,54.390 36.686,54.546 36.764,54.741 L37.350,56.211 C37.512,56.617 37.315,57.078 36.909,57.240 ZM17.583,11.718 C15.900,12.441 14.175,13.701 12.306,15.570 C10.439,17.440 9.180,19.167 8.458,20.852 C8.330,21.152 8.038,21.331 7.731,21.331 C7.627,21.331 7.521,21.311 7.419,21.267 L5.966,20.643 C5.564,20.471 5.379,20.005 5.551,19.603 C6.434,17.542 7.912,15.490 10.070,13.331 C12.227,11.172 14.276,9.692 16.335,8.808 C16.736,8.636 17.202,8.821 17.374,9.223 L17.998,10.678 C18.080,10.871 18.083,11.089 18.005,11.284 C17.927,11.479 17.775,11.635 17.583,11.718 Z" class="cls-1"/>
    <path d="M59.532,50.504 C59.532,52.624 58.454,54.129 56.327,54.978 C54.770,55.600 52.607,55.889 49.520,55.889 C46.433,55.889 44.270,55.600 42.713,54.978 C40.586,54.129 39.507,52.624 39.507,50.504 C39.507,46.392 42.420,42.899 46.435,41.693 C44.621,40.438 43.398,38.112 43.398,35.454 C43.398,31.856 44.125,28.178 49.520,28.178 C54.915,28.178 55.642,31.856 55.642,35.454 C55.642,38.112 54.420,40.438 52.605,41.693 C56.620,42.899 59.533,46.392 59.532,50.504 ZM37.152,27.768 C35.595,28.389 33.432,28.679 30.345,28.679 C27.259,28.679 25.096,28.389 23.539,27.768 C21.411,26.919 20.333,25.414 20.333,23.294 C20.333,19.182 23.245,15.689 27.261,14.483 C25.446,13.228 24.224,10.902 24.224,8.244 C24.224,4.646 24.951,0.968 30.345,0.968 C35.740,0.968 36.467,4.646 36.467,8.244 C36.467,10.902 35.245,13.228 33.430,14.483 C37.446,15.689 40.358,19.182 40.358,23.294 C40.358,25.414 39.279,26.919 37.152,27.768 ZM21.183,50.504 C21.183,52.624 20.105,54.129 17.978,54.978 C16.421,55.600 14.258,55.889 11.171,55.889 C8.084,55.889 5.921,55.600 4.364,54.978 C2.237,54.129 1.158,52.624 1.158,50.504 C1.158,46.392 4.071,42.899 8.086,41.693 C6.271,40.438 5.049,38.112 5.049,35.454 C5.049,31.856 5.776,28.178 11.171,28.178 C16.565,28.178 17.293,31.856 17.293,35.454 C17.293,38.112 16.070,40.438 14.255,41.693 C18.271,42.899 21.183,46.392 21.183,50.504 Z" class="cls-2"/>
  </g>
</svg>
