<svg xmlns="http://www.w3.org/2000/svg" xmlns:xlink="http://www.w3.org/1999/xlink" preserveAspectRatio="xMidYMid" width="61" height="60" viewBox="0 0 61 60">
  <defs>
    <style>
      .cls-1 {
        fill: #ffcdd2;
      }

      .cls-1, .cls-2 {
        fill-rule: evenodd;
      }

      .cls-2 {
        fill: #c16770;
      }
    </style>
  </defs>
  <g>
    <path d="M1.760,26.796 L3.519,2.913 L28.154,0.582 L58.654,30.291 C58.654,30.291 60.611,33.438 59.240,35.534 C57.869,37.629 36.952,57.670 36.952,57.670 C36.952,57.670 33.826,59.264 31.673,57.670 C29.520,56.076 1.173,29.126 1.173,29.126 L1.760,26.796 Z" class="cls-1"/>
    <path d="M60.910,33.248 C60.910,34.621 60.374,35.911 59.396,36.881 L37.969,58.163 C36.961,59.165 35.636,59.665 34.312,59.665 C32.987,59.665 31.662,59.165 30.653,58.163 L0.549,29.764 C0.311,29.541 0.192,29.222 0.222,28.899 L2.704,2.459 C2.754,1.931 3.188,1.522 3.721,1.501 L29.276,0.443 C29.569,0.422 29.858,0.541 30.069,0.748 L33.026,3.658 C33.773,3.630 34.549,3.615 35.355,3.615 C38.183,3.615 52.228,3.917 52.391,9.855 C52.458,10.275 52.531,11.425 51.616,12.587 C50.440,14.085 48.130,14.956 44.738,15.186 L59.393,29.611 C60.374,30.585 60.910,31.875 60.910,33.248 ZM49.938,11.285 C50.377,10.728 50.296,10.222 50.295,10.217 C50.273,10.133 50.263,10.047 50.263,9.960 C50.263,7.042 41.545,5.730 35.356,5.730 C35.280,5.730 35.206,5.730 35.132,5.731 L42.663,13.144 C42.711,13.138 42.760,13.133 42.809,13.133 C47.749,13.133 49.396,11.976 49.938,11.285 ZM57.891,31.111 L32.192,5.816 C24.393,6.256 20.475,8.310 18.531,10.066 C18.518,10.077 18.506,10.089 18.494,10.100 C19.686,11.071 20.448,12.544 20.448,14.191 C20.448,17.106 18.060,19.479 15.124,19.479 C12.189,19.479 9.800,17.106 9.800,14.191 C9.800,11.275 12.188,8.903 15.124,8.903 C15.592,8.903 16.046,8.963 16.478,9.076 C18.613,6.838 22.630,4.560 30.189,3.844 L28.900,2.575 L4.739,3.576 L2.390,28.584 L32.139,56.648 C33.346,57.845 35.275,57.845 36.463,56.668 L57.891,35.385 C59.077,34.206 59.077,32.289 57.891,31.111 ZM15.030,11.020 C13.312,11.070 11.930,12.473 11.930,14.191 C11.930,15.940 13.363,17.363 15.124,17.363 C16.885,17.363 18.319,15.940 18.319,14.191 C18.319,13.187 17.846,12.291 17.112,11.709 C16.228,13.072 16.190,14.141 16.189,14.202 C16.176,14.778 15.702,15.242 15.124,15.242 L15.112,15.242 C14.529,15.236 14.059,14.770 14.059,14.191 C14.059,14.040 14.089,12.699 15.030,11.020 ZM42.358,26.710 C43.131,27.782 43.549,29.063 43.549,30.407 C43.549,32.110 42.881,33.711 41.668,34.915 C41.253,35.328 40.579,35.328 40.163,34.915 C39.748,34.502 39.748,33.832 40.163,33.419 C40.973,32.615 41.419,31.545 41.419,30.407 C41.419,29.631 41.211,28.887 40.822,28.236 L35.306,33.714 L35.792,37.572 C35.946,38.797 35.586,40.050 34.803,41.008 C34.039,41.943 32.966,42.512 31.777,42.610 C31.597,42.625 31.418,42.632 31.240,42.632 C29.899,42.632 28.601,42.216 27.519,41.449 L26.525,42.436 C26.317,42.642 26.045,42.746 25.772,42.746 C25.500,42.746 25.227,42.642 25.019,42.436 C24.603,42.022 24.603,41.354 25.019,40.941 L26.013,39.954 C24.227,37.466 24.456,33.980 26.702,31.749 C27.118,31.335 27.792,31.335 28.207,31.749 C28.623,32.161 28.623,32.830 28.207,33.244 C26.795,34.647 26.576,36.794 27.549,38.428 L33.065,32.950 L32.579,29.092 C32.425,27.867 32.785,26.614 33.569,25.656 C34.331,24.721 35.406,24.152 36.594,24.054 C38.123,23.925 39.627,24.344 40.854,25.213 L42.056,24.019 C42.473,23.605 43.146,23.605 43.562,24.019 C43.978,24.432 43.978,25.101 43.562,25.514 L42.358,26.710 ZM33.679,37.834 L33.399,35.608 L29.056,39.922 C29.814,40.368 30.699,40.575 31.601,40.502 C32.205,40.452 32.755,40.159 33.149,39.675 C33.569,39.162 33.762,38.491 33.679,37.834 ZM36.771,26.162 C36.167,26.212 35.616,26.505 35.222,26.988 C34.803,27.501 34.610,28.173 34.692,28.830 L34.972,31.055 L39.315,26.741 C38.558,26.295 37.675,26.088 36.771,26.162 ZM15.124,23.709 C14.537,23.709 14.060,23.235 14.060,22.651 C14.060,22.068 14.537,21.594 15.124,21.594 C19.234,21.594 22.578,18.273 22.578,14.191 C22.578,13.607 23.055,13.133 23.643,13.133 C24.230,13.133 24.707,13.607 24.708,14.190 C24.708,19.438 20.408,23.709 15.124,23.709 Z" class="cls-2"/>
  </g>
</svg>
