<svg xmlns="http://www.w3.org/2000/svg" xmlns:xlink="http://www.w3.org/1999/xlink" preserveAspectRatio="xMidYMid" width="60" height="58" viewBox="0 0 60 58">
  <defs>
    <style>
      .cls-1 {
        fill: #2b4673;
        stroke: #fff;
        stroke-linejoin: round;
        stroke-width: 1px;
        fill-rule: evenodd;
      }
    </style>
  </defs>
  <path d="M59.347,32.140 C59.347,33.467 58.830,34.714 57.886,35.652 L37.208,56.224 C36.235,57.192 34.957,57.676 33.678,57.676 C32.400,57.676 31.122,57.192 30.147,56.224 L1.095,28.772 C0.866,28.556 0.751,28.248 0.780,27.936 L3.175,2.377 C3.223,1.867 3.643,1.471 4.156,1.451 L28.819,0.428 C29.101,0.408 29.381,0.522 29.584,0.723 L32.438,3.536 C33.158,3.509 33.907,3.494 34.686,3.494 C37.415,3.494 50.969,3.787 51.126,9.527 C51.191,9.933 51.261,11.044 50.378,12.168 C49.243,13.615 47.014,14.457 43.740,14.680 L57.883,28.624 C58.830,29.565 59.347,30.813 59.347,32.140 ZM48.759,10.909 C49.182,10.371 49.104,9.881 49.103,9.877 C49.082,9.795 49.072,9.712 49.072,9.628 C49.072,6.808 40.659,5.539 34.686,5.539 C34.613,5.539 34.542,5.539 34.470,5.540 L41.738,12.706 C41.784,12.700 41.831,12.695 41.879,12.695 C46.646,12.695 48.235,11.577 48.759,10.909 ZM56.433,30.074 L31.633,5.622 C24.107,6.048 20.325,8.033 18.449,9.730 C18.437,9.741 18.425,9.752 18.413,9.763 C19.564,10.702 20.299,12.126 20.299,13.718 C20.299,16.536 17.995,18.829 15.162,18.829 C12.329,18.829 10.024,16.536 10.024,13.718 C10.024,10.899 12.328,8.606 15.162,8.606 C15.613,8.606 16.051,8.665 16.468,8.774 C18.528,6.610 22.405,4.408 29.700,3.716 L28.456,2.490 L5.139,3.457 L2.872,27.631 L31.582,54.760 C32.746,55.916 34.608,55.916 35.755,54.779 L56.433,34.206 C57.578,33.066 57.578,31.212 56.433,30.074 ZM15.071,10.653 C13.413,10.701 12.079,12.057 12.079,13.718 C12.079,15.409 13.462,16.785 15.162,16.785 C16.861,16.785 18.244,15.409 18.244,13.718 C18.244,12.747 17.788,11.882 17.079,11.319 C16.227,12.636 16.191,13.670 16.189,13.729 C16.177,14.285 15.719,14.734 15.162,14.734 L15.150,14.734 C14.587,14.728 14.134,14.278 14.134,13.718 C14.134,13.572 14.163,12.276 15.071,10.653 ZM41.444,25.819 C42.189,26.856 42.593,28.094 42.593,29.394 C42.593,31.040 41.948,32.588 40.778,33.751 C40.377,34.151 39.727,34.151 39.325,33.751 C38.924,33.352 38.924,32.704 39.325,32.306 C40.107,31.527 40.538,30.494 40.538,29.394 C40.538,28.643 40.337,27.924 39.961,27.295 L34.638,32.590 L35.107,36.319 C35.256,37.504 34.908,38.715 34.152,39.641 C33.415,40.545 32.379,41.095 31.233,41.190 C31.059,41.204 30.885,41.211 30.714,41.211 C29.420,41.211 28.168,40.809 27.123,40.068 L26.164,41.021 C25.964,41.221 25.700,41.321 25.437,41.321 C25.174,41.321 24.911,41.221 24.711,41.021 C24.309,40.622 24.309,39.976 24.711,39.576 L25.669,38.622 C23.946,36.217 24.167,32.847 26.334,30.690 C26.736,30.291 27.386,30.291 27.787,30.690 C28.189,31.089 28.189,31.736 27.787,32.136 C26.425,33.493 26.213,35.568 27.152,37.147 L32.475,31.851 L32.007,28.122 C31.858,26.938 32.205,25.727 32.961,24.800 C33.697,23.897 34.735,23.347 35.881,23.253 C37.356,23.128 38.807,23.532 39.992,24.373 L41.152,23.218 C41.554,22.819 42.204,22.819 42.605,23.218 C43.007,23.618 43.007,24.264 42.605,24.664 L41.444,25.819 ZM33.068,36.573 L32.798,34.421 L28.607,38.591 C29.338,39.022 30.192,39.223 31.062,39.152 C31.645,39.103 32.176,38.820 32.556,38.353 C32.961,37.857 33.148,37.208 33.068,36.573 ZM36.052,25.290 C35.468,25.338 34.937,25.622 34.557,26.089 C34.152,26.584 33.966,27.234 34.045,27.869 L34.316,30.020 L38.507,25.850 C37.777,25.419 36.924,25.218 36.052,25.290 ZM15.162,22.919 C14.594,22.919 14.134,22.461 14.134,21.896 C14.134,21.332 14.594,20.874 15.162,20.874 C19.128,20.874 22.355,17.664 22.355,13.718 C22.355,13.153 22.815,12.695 23.382,12.695 C23.949,12.695 24.410,13.153 24.410,13.717 C24.410,18.790 20.261,22.919 15.162,22.919 Z" class="cls-1"/>
</svg>
