<svg xmlns="http://www.w3.org/2000/svg" xmlns:xlink="http://www.w3.org/1999/xlink" preserveAspectRatio="xMidYMid" width="60" height="60" viewBox="0 0 60 60">
  <defs>
    <style>
      .cls-1 {
        fill: #2b4673;
        stroke: #fff;
        stroke-linejoin: round;
        stroke-width: 1px;
        fill-rule: evenodd;
      }
    </style>
  </defs>
  <path d="M55.605,21.075 L45.131,21.075 C44.516,21.075 43.955,20.791 43.592,20.295 C43.334,19.942 43.207,19.527 43.222,19.105 L42.200,19.105 L37.547,23.759 C37.370,23.936 37.134,24.029 36.893,24.029 C36.774,24.029 36.655,24.006 36.540,23.959 C36.195,23.816 35.970,23.480 35.970,23.106 L35.970,18.994 C34.276,18.579 33.016,17.048 33.016,15.228 L33.016,4.395 C33.016,2.257 34.755,0.517 36.894,0.517 L48.352,0.517 C48.967,0.517 49.528,0.802 49.891,1.297 C50.150,1.650 50.276,2.065 50.261,2.487 L55.605,2.487 C57.743,2.487 59.483,4.226 59.483,6.364 L59.483,17.197 C59.483,19.336 57.743,21.075 55.605,21.075 ZM48.402,2.389 C48.383,2.364 48.363,2.364 48.352,2.364 L36.894,2.364 C35.774,2.364 34.862,3.275 34.862,4.395 L34.862,15.228 C34.862,16.348 35.774,17.259 36.894,17.259 C37.404,17.259 37.817,17.672 37.817,18.182 L37.817,20.877 L41.165,17.529 C41.338,17.356 41.573,17.259 41.818,17.259 L43.733,17.259 L44.705,14.178 C44.613,14.172 44.520,14.152 44.429,14.115 C43.446,13.722 42.574,13.187 41.827,12.531 C41.133,13.139 40.273,13.688 39.206,14.115 C39.094,14.160 38.977,14.182 38.863,14.182 C38.497,14.182 38.150,13.962 38.006,13.601 C37.816,13.127 38.047,12.590 38.520,12.401 C39.356,12.066 40.030,11.634 40.575,11.156 C40.251,10.706 39.968,10.222 39.732,9.705 C39.520,9.241 39.724,8.693 40.188,8.482 C40.652,8.270 41.200,8.474 41.412,8.938 C41.532,9.201 41.668,9.452 41.815,9.691 C42.366,8.804 42.628,7.921 42.752,7.288 L37.878,7.288 C37.368,7.288 36.955,6.874 36.955,6.364 C36.955,5.854 37.368,5.441 37.878,5.441 L40.894,5.441 L40.894,5.380 C40.894,4.870 41.308,4.456 41.818,4.456 C42.328,4.456 42.741,4.870 42.741,5.380 L42.741,5.441 L45.757,5.441 C46.267,5.441 46.680,5.854 46.680,6.364 C46.680,6.874 46.267,7.288 45.757,7.288 L44.628,7.288 C44.486,8.224 44.103,9.731 43.066,11.168 C43.649,11.675 44.332,12.088 45.115,12.401 C45.161,12.419 45.205,12.442 45.246,12.467 L48.411,2.444 C48.414,2.434 48.420,2.414 48.402,2.389 ZM57.636,17.197 L57.636,6.365 C57.636,5.245 56.725,4.333 55.605,4.333 L49.751,4.333 L45.072,19.148 C45.069,19.158 45.063,19.178 45.081,19.203 C45.100,19.229 45.121,19.229 45.131,19.229 L55.605,19.229 C56.725,19.229 57.636,18.317 57.636,17.197 L57.636,17.197 ZM54.874,16.115 C54.789,16.140 54.704,16.151 54.620,16.151 C54.218,16.151 53.848,15.887 53.733,15.481 L53.361,14.181 L50.956,14.181 L50.584,15.481 C50.444,15.972 49.933,16.255 49.443,16.115 C48.952,15.975 48.669,15.464 48.809,14.974 L50.778,8.080 C50.891,7.684 51.254,7.411 51.666,7.411 L52.651,7.411 C53.063,7.411 53.425,7.684 53.538,8.080 L55.508,14.974 C55.648,15.464 55.364,15.975 54.874,16.115 ZM52.158,9.971 L51.483,12.335 L52.834,12.335 L52.158,9.971 ZM33.391,23.512 L32.493,29.125 C33.839,29.372 34.862,30.553 34.862,31.970 L34.862,33.939 C34.862,35.534 33.565,36.832 31.969,36.832 L31.260,36.832 L31.145,37.551 C30.959,38.712 30.359,39.766 29.456,40.518 L28.953,40.937 L28.953,44.302 C28.953,44.764 29.250,45.166 29.692,45.302 L38.324,47.958 C40.377,48.590 41.756,50.458 41.756,52.605 L41.756,56.590 C41.756,58.185 40.458,59.483 38.863,59.483 L3.410,59.483 C1.815,59.483 0.517,58.185 0.517,56.590 L0.517,52.605 C0.517,50.458 1.897,48.590 3.950,47.958 L12.581,45.302 C13.023,45.166 13.320,44.764 13.320,44.302 L13.320,40.937 L12.817,40.518 C11.914,39.765 11.314,38.712 11.128,37.551 L11.013,36.832 L10.304,36.832 C8.709,36.832 7.411,35.534 7.411,33.939 L7.411,31.970 C7.411,30.553 8.434,29.372 9.780,29.125 L8.882,23.512 C8.474,20.963 9.201,18.375 10.876,16.411 C12.551,14.446 14.992,13.320 17.573,13.320 L24.700,13.320 C27.281,13.320 29.722,14.447 31.397,16.411 C33.072,18.375 33.799,20.963 33.391,23.512 ZM34.862,57.636 L38.863,57.636 C39.440,57.636 39.910,57.167 39.910,56.590 L39.910,52.606 C39.910,52.083 39.776,51.588 39.540,51.155 L35.593,54.444 C35.129,54.831 34.862,55.399 34.862,56.004 L34.862,57.636 ZM2.734,51.155 C2.497,51.588 2.364,52.083 2.364,52.605 L2.364,56.590 C2.364,57.167 2.833,57.636 3.410,57.636 L7.411,57.636 L7.411,56.004 C7.411,55.399 7.144,54.830 6.680,54.443 L2.734,51.155 ZM10.828,47.774 L4.493,49.723 C4.353,49.766 4.218,49.820 4.089,49.881 L7.862,53.025 C8.749,53.764 9.257,54.850 9.257,56.004 L9.257,57.636 L33.016,57.636 L33.016,56.004 C33.016,54.850 33.524,53.764 34.411,53.025 L38.184,49.881 C38.055,49.820 37.920,49.766 37.780,49.723 L31.445,47.774 C27.347,54.449 21.540,55.489 21.288,55.531 C21.238,55.539 21.187,55.543 21.136,55.543 C21.086,55.543 21.035,55.539 20.985,55.531 C20.733,55.489 14.927,54.449 10.828,47.774 ZM13.124,47.067 L12.658,47.211 C15.943,52.259 20.269,53.479 21.134,53.677 C21.991,53.476 26.342,52.232 29.615,47.210 L29.149,47.067 C27.928,46.691 27.107,45.580 27.107,44.302 L27.107,42.476 L25.504,43.812 C24.808,44.392 23.927,44.711 23.021,44.711 L19.252,44.711 C18.347,44.711 17.465,44.392 16.769,43.812 L15.166,42.476 L15.166,44.302 C15.166,45.580 14.346,46.691 13.124,47.067 ZM12.952,37.259 C13.067,37.979 13.439,38.633 13.999,39.100 L17.951,42.393 C18.316,42.697 18.778,42.864 19.252,42.864 L23.021,42.864 C23.496,42.864 23.957,42.697 24.322,42.393 L28.274,39.100 C28.622,38.810 28.897,38.447 29.084,38.042 C27.540,38.899 25.007,39.787 21.137,39.787 C20.627,39.787 20.213,39.373 20.213,38.863 C20.213,38.353 20.627,37.940 21.137,37.940 C27.168,37.940 29.410,35.601 29.626,35.358 L30.335,30.923 L29.849,30.923 C28.913,30.923 28.121,30.253 27.967,29.329 L27.257,25.066 C27.252,25.036 27.226,25.014 27.196,25.014 L15.077,25.014 C15.047,25.014 15.022,25.036 15.016,25.066 L14.306,29.329 C14.152,30.253 13.360,30.923 12.424,30.923 L11.938,30.923 L12.952,37.259 ZM9.257,31.970 L9.257,33.939 C9.257,34.516 9.727,34.986 10.304,34.986 L10.718,34.986 L10.072,30.950 C9.606,31.056 9.257,31.472 9.257,31.970 ZM29.992,17.609 C28.669,16.056 26.740,15.166 24.700,15.166 L17.573,15.166 C15.534,15.166 13.605,16.056 12.281,17.609 C10.958,19.161 10.383,21.206 10.706,23.220 L11.643,29.077 L12.424,29.077 C12.454,29.077 12.480,29.055 12.485,29.025 L13.195,24.762 C13.349,23.838 14.141,23.168 15.077,23.168 L27.196,23.168 C28.133,23.168 28.924,23.838 29.078,24.762 L29.789,29.025 C29.794,29.055 29.819,29.077 29.850,29.077 L30.631,29.077 L31.568,23.220 C31.890,21.206 31.316,19.161 29.992,17.609 ZM31.555,34.986 L31.970,34.986 C32.546,34.986 33.016,34.516 33.016,33.939 L33.016,31.970 C33.016,31.472 32.667,31.056 32.201,30.950 L31.555,34.986 Z" class="cls-1"/>
</svg>
