<svg xmlns="http://www.w3.org/2000/svg" xmlns:xlink="http://www.w3.org/1999/xlink" preserveAspectRatio="xMidYMid" width="60" height="60" viewBox="0 0 60 60">
  <defs>
    <style>
      .cls-1 {
        fill: #f7e6ce;
      }

      .cls-1, .cls-2, .cls-3, .cls-4, .cls-5, .cls-6 {
        fill-rule: evenodd;
      }

      .cls-2, .cls-4, .cls-5 {
        fill: #dcedc8;
      }

      .cls-3 {
        fill: #ffc;
      }

      .cls-4 {
        opacity: 0.1;
      }

      .cls-5 {
        opacity: 0.3;
      }

      .cls-6 {
        fill: #929e85;
      }
    </style>
  </defs>
  <g>
    <path d="M10.000,30.000 C10.000,30.000 10.872,30.574 12.632,29.474 C14.391,28.373 13.684,24.210 13.684,24.210 L27.895,23.684 L28.421,28.947 C28.421,28.947 29.819,30.837 31.053,30.000 C32.286,29.163 34.174,30.145 34.210,31.053 C34.247,31.960 34.210,34.737 34.210,34.737 L32.105,35.789 L30.526,34.737 L30.000,38.421 L27.895,41.053 L27.895,45.263 L31.053,46.842 L28.421,51.053 L22.632,54.737 L19.474,54.737 L14.211,51.053 L11.053,46.842 L13.684,45.263 L13.684,40.526 L11.579,37.368 L11.053,35.789 L8.947,35.789 C8.947,35.789 7.858,34.487 7.895,32.631 C7.931,30.776 10.000,30.000 10.000,30.000 Z" class="cls-1"/>
    <path d="M0.526,58.421 L1.053,51.053 L11.053,46.316 C11.053,46.316 14.256,55.688 20.000,55.263 C25.744,54.839 30.526,47.368 30.526,47.368 L39.474,49.474 C39.474,49.474 41.098,54.635 41.053,56.842 C41.007,59.049 40.046,59.372 37.368,59.474 C34.691,59.575 4.210,60.789 0.526,58.421 Z" class="cls-2"/>
    <path d="M10.526,28.947 L8.947,22.105 C8.947,22.105 10.166,14.887 14.211,14.210 C18.255,13.534 26.842,14.210 26.842,14.210 C26.842,14.210 32.335,16.302 32.632,18.947 C33.342,25.288 31.579,30.000 31.579,30.000 C31.579,30.000 29.465,30.852 28.947,30.000 C28.430,29.148 29.425,26.454 27.895,24.210 C27.553,23.709 14.211,24.210 14.211,24.210 C14.211,24.210 12.973,26.291 13.158,28.421 C13.342,30.551 10.526,28.947 10.526,28.947 Z" class="cls-3"/>
    <path d="M36.842,22.105 L36.842,17.368 C36.842,17.368 34.342,17.763 34.210,15.789 C34.079,13.816 34.210,3.158 34.210,3.158 C34.210,3.158 35.395,0.658 37.895,0.526 C40.395,0.395 49.474,0.526 49.474,0.526 L44.737,17.368 C44.737,17.368 43.816,16.184 42.105,17.368 C40.395,18.553 36.842,22.105 36.842,22.105 Z" class="cls-4"/>
    <path d="M49.474,3.158 L56.842,3.158 C56.842,3.158 59.342,2.237 59.474,6.316 C59.605,10.395 58.947,17.368 58.947,17.368 C58.947,17.368 58.816,20.395 56.842,20.526 C54.868,20.658 45.263,20.000 45.263,20.000 C45.263,20.000 43.553,19.605 44.210,17.895 C44.868,16.184 49.474,3.158 49.474,3.158 Z" class="cls-5"/>
    <path d="M56.054,20.919 L45.396,20.919 C44.771,20.919 44.200,20.629 43.830,20.125 C43.567,19.766 43.439,19.343 43.454,18.914 L42.414,18.914 L37.679,23.650 C37.499,23.829 37.259,23.925 37.014,23.925 C36.893,23.925 36.771,23.901 36.655,23.853 C36.304,23.708 36.075,23.365 36.075,22.985 L36.075,18.801 C34.351,18.379 33.069,16.821 33.069,14.969 L33.069,3.946 C33.069,1.770 34.839,-0.000 37.015,-0.000 L48.674,-0.000 C49.300,-0.000 49.871,0.289 50.240,0.794 C50.503,1.152 50.632,1.575 50.617,2.004 L56.054,2.004 C58.230,2.004 60.000,3.774 60.000,5.950 L60.000,16.973 C60.000,19.148 58.230,20.919 56.054,20.919 ZM48.725,1.904 C48.706,1.879 48.685,1.879 48.674,1.879 L37.015,1.879 C35.875,1.879 34.948,2.806 34.948,3.946 L34.948,14.969 C34.948,16.108 35.875,17.035 37.015,17.035 C37.533,17.035 37.954,17.456 37.954,17.975 L37.954,20.717 L41.361,17.311 C41.537,17.134 41.776,17.035 42.025,17.035 L43.974,17.035 L44.963,13.901 C44.869,13.894 44.774,13.874 44.682,13.837 C43.682,13.436 42.794,12.893 42.034,12.224 C41.328,12.843 40.454,13.402 39.367,13.837 C39.253,13.882 39.135,13.904 39.019,13.904 C38.646,13.904 38.293,13.681 38.146,13.313 C37.954,12.831 38.188,12.285 38.670,12.092 C39.521,11.752 40.206,11.312 40.761,10.825 C40.431,10.368 40.143,9.875 39.903,9.349 C39.687,8.877 39.895,8.320 40.367,8.104 C40.839,7.889 41.396,8.096 41.612,8.568 C41.734,8.836 41.872,9.091 42.023,9.335 C42.583,8.432 42.850,7.534 42.976,6.889 L38.017,6.889 C37.498,6.889 37.077,6.469 37.077,5.950 C37.077,5.431 37.498,5.010 38.017,5.010 L41.085,5.010 L41.085,4.948 C41.085,4.429 41.506,4.008 42.025,4.008 C42.544,4.008 42.964,4.429 42.964,4.948 L42.964,5.010 L46.033,5.010 C46.552,5.010 46.973,5.431 46.973,5.950 C46.973,6.469 46.552,6.889 46.033,6.889 L44.884,6.889 C44.740,7.842 44.350,9.376 43.295,10.838 C43.888,11.354 44.584,11.774 45.380,12.092 C45.427,12.111 45.471,12.134 45.513,12.159 L48.734,1.960 C48.737,1.950 48.744,1.930 48.725,1.904 ZM58.121,16.973 L58.121,5.950 C58.121,4.810 57.194,3.883 56.054,3.883 L50.097,3.883 L45.337,18.958 C45.334,18.968 45.327,18.988 45.346,19.014 C45.365,19.040 45.386,19.040 45.396,19.040 L56.054,19.040 C57.194,19.040 58.121,18.112 58.121,16.973 L58.121,16.973 ZM55.310,15.872 C55.224,15.897 55.137,15.908 55.052,15.908 C54.643,15.908 54.267,15.639 54.149,15.227 L53.771,13.904 L51.323,13.904 L50.945,15.227 C50.803,15.726 50.283,16.014 49.784,15.872 C49.285,15.729 48.996,15.209 49.139,14.710 L51.143,7.696 C51.258,7.293 51.626,7.015 52.046,7.015 L53.048,7.015 C53.468,7.015 53.836,7.293 53.951,7.696 L55.956,14.710 C56.098,15.209 55.809,15.729 55.310,15.872 ZM52.547,9.620 L51.860,12.025 L53.234,12.025 L52.547,9.620 ZM33.450,23.398 L32.537,29.110 C33.906,29.361 34.948,30.563 34.948,32.004 L34.948,34.008 C34.948,35.632 33.627,36.952 32.004,36.952 L31.282,36.952 L31.165,37.683 C30.976,38.864 30.366,39.937 29.447,40.703 L28.935,41.129 L28.935,44.553 C28.935,45.023 29.237,45.432 29.687,45.571 L38.470,48.273 C40.559,48.916 41.962,50.816 41.962,53.002 L41.962,57.056 C41.962,58.679 40.642,60.000 39.019,60.000 L2.944,60.000 C1.320,60.000 -0.000,58.679 -0.000,57.056 L-0.000,53.002 C-0.000,50.816 1.404,48.916 3.493,48.273 L12.275,45.571 C12.725,45.432 13.027,45.023 13.027,44.553 L13.027,41.129 L12.515,40.703 C11.596,39.937 10.986,38.864 10.797,37.683 L10.680,36.952 L9.958,36.952 C8.335,36.952 7.015,35.631 7.015,34.008 L7.015,32.004 C7.015,30.563 8.056,29.361 9.425,29.110 L8.512,23.398 C8.097,20.805 8.836,18.171 10.540,16.172 C12.245,14.173 14.728,13.027 17.355,13.027 L24.607,13.027 C27.233,13.027 29.717,14.174 31.422,16.172 C33.126,18.171 33.865,20.805 33.450,23.398 ZM34.948,58.121 L39.019,58.121 C39.606,58.121 40.083,57.643 40.083,57.056 L40.083,53.002 C40.083,52.470 39.948,51.967 39.707,51.526 L35.691,54.872 C35.219,55.266 34.948,55.845 34.948,56.460 L34.948,58.121 ZM2.255,51.526 C2.014,51.967 1.879,52.470 1.879,53.002 L1.879,57.056 C1.879,57.643 2.356,58.121 2.944,58.121 L7.015,58.121 L7.015,56.460 C7.015,55.845 6.743,55.266 6.271,54.872 L2.255,51.526 ZM10.491,48.086 L4.045,50.069 C3.903,50.113 3.766,50.168 3.634,50.230 L7.474,53.429 C8.376,54.181 8.893,55.286 8.893,56.460 L8.893,58.121 L33.069,58.121 L33.069,56.460 C33.069,55.286 33.586,54.181 34.488,53.429 L38.327,50.230 C38.196,50.168 38.059,50.113 37.917,50.069 L31.471,48.086 C27.300,54.878 21.392,55.936 21.135,55.979 C21.084,55.987 21.033,55.992 20.981,55.992 C20.929,55.992 20.878,55.987 20.827,55.979 C20.570,55.936 14.662,54.878 10.491,48.086 ZM12.828,47.367 L12.353,47.513 C15.696,52.649 20.098,53.891 20.979,54.092 C21.851,53.888 26.278,52.622 29.608,47.512 L29.134,47.367 C27.891,46.984 27.056,45.854 27.056,44.553 L27.056,42.695 L25.425,44.054 C24.717,44.644 23.820,44.969 22.899,44.969 L19.063,44.969 C18.142,44.969 17.245,44.644 16.537,44.054 L14.906,42.695 L14.906,44.553 C14.906,45.854 14.071,46.984 12.828,47.367 ZM12.653,37.386 C12.770,38.119 13.148,38.784 13.718,39.259 L17.740,42.611 C18.111,42.920 18.581,43.090 19.063,43.090 L22.899,43.090 C23.382,43.090 23.851,42.920 24.222,42.611 L28.244,39.259 C28.598,38.964 28.878,38.595 29.067,38.183 C27.497,39.055 24.920,39.958 20.981,39.958 C20.462,39.958 20.042,39.538 20.042,39.019 C20.042,38.500 20.462,38.079 20.981,38.079 C27.118,38.079 29.400,35.699 29.619,35.452 L30.341,30.939 L29.847,30.939 C28.894,30.939 28.088,30.257 27.931,29.317 L27.209,24.979 C27.203,24.949 27.178,24.927 27.147,24.927 L14.815,24.927 C14.785,24.927 14.759,24.949 14.754,24.979 L14.031,29.317 C13.874,30.257 13.069,30.939 12.116,30.939 L11.621,30.939 L12.653,37.386 ZM8.893,32.004 L8.893,34.008 C8.893,34.595 9.371,35.073 9.958,35.073 L10.380,35.073 L9.722,30.966 C9.248,31.074 8.893,31.498 8.893,32.004 ZM29.992,17.391 C28.645,15.812 26.683,14.906 24.607,14.906 L17.355,14.906 C15.280,14.906 13.317,15.812 11.970,17.391 C10.623,18.971 10.039,21.052 10.367,23.101 L11.321,29.060 L12.116,29.060 C12.147,29.060 12.172,29.038 12.178,29.008 L12.901,24.670 C13.057,23.730 13.863,23.048 14.816,23.048 L27.147,23.048 C28.100,23.048 28.905,23.730 29.062,24.670 L29.785,29.008 C29.790,29.038 29.816,29.060 29.847,29.060 L30.642,29.060 L31.595,23.101 C31.923,21.052 31.339,18.970 29.992,17.391 ZM31.583,35.073 L32.004,35.073 C32.591,35.073 33.069,34.595 33.069,34.008 L33.069,32.004 C33.069,31.498 32.714,31.074 32.240,30.966 L31.583,35.073 Z" class="cls-6"/>
  </g>
</svg>
