<svg xmlns="http://www.w3.org/2000/svg" xmlns:xlink="http://www.w3.org/1999/xlink" preserveAspectRatio="xMidYMid" width="60" height="60" viewBox="0 0 60 60">
  <defs>
    <style>
      .cls-1 {
        fill: #4c6897;
        stroke: #fff;
        stroke-linejoin: round;
        stroke-width: 1px;
        fill-rule: evenodd;
      }
    </style>
  </defs>
  <path d="M58.190,18.657 C57.726,18.727 57.250,18.794 56.771,18.858 C56.529,19.662 56.206,20.441 55.808,21.181 C56.101,21.564 56.390,21.948 56.670,22.326 C57.290,23.166 57.201,24.356 56.461,25.095 L54.609,26.947 C53.870,27.687 52.679,27.776 51.841,27.156 C51.462,26.875 51.077,26.586 50.695,26.294 C49.955,26.692 49.176,27.015 48.372,27.256 C48.308,27.736 48.241,28.212 48.172,28.675 C48.017,29.708 47.112,30.486 46.067,30.486 L43.447,30.486 C42.402,30.486 41.497,29.707 41.342,28.675 C41.273,28.212 41.205,27.736 41.142,27.256 C40.338,27.015 39.559,26.692 38.819,26.294 C38.437,26.586 38.052,26.875 37.673,27.156 C36.834,27.776 35.644,27.687 34.905,26.947 L33.052,25.095 C32.313,24.356 32.223,23.165 32.844,22.327 C33.124,21.948 33.413,21.564 33.706,21.181 C33.308,20.441 32.985,19.662 32.743,18.858 C32.264,18.794 31.788,18.727 31.324,18.657 C30.292,18.503 29.514,17.598 29.514,16.553 L29.514,13.933 C29.514,12.887 30.292,11.982 31.324,11.828 C31.788,11.759 32.264,11.691 32.744,11.627 C32.985,10.824 33.308,10.045 33.706,9.305 C33.413,8.921 33.124,8.537 32.844,8.159 C32.224,7.320 32.313,6.129 33.053,5.390 L34.905,3.538 C35.644,2.799 36.834,2.709 37.673,3.330 C38.052,3.610 38.437,3.899 38.819,4.192 C39.559,3.794 40.338,3.471 41.142,3.229 C41.206,2.749 41.273,2.273 41.342,1.810 C41.497,0.778 42.402,-0.000 43.447,-0.000 L46.067,-0.000 C47.112,-0.000 48.017,0.778 48.172,1.810 C48.241,2.274 48.308,2.750 48.372,3.229 C49.176,3.471 49.955,3.794 50.695,4.192 C51.077,3.900 51.462,3.610 51.841,3.330 C52.680,2.709 53.870,2.799 54.609,3.538 L56.462,5.391 C57.201,6.130 57.291,7.320 56.670,8.159 C56.391,8.537 56.101,8.921 55.808,9.305 C56.206,10.045 56.529,10.824 56.771,11.627 C57.250,11.691 57.726,11.759 58.190,11.828 C59.222,11.982 60.000,12.887 60.000,13.933 L60.000,16.553 C60.000,17.598 59.222,18.503 58.190,18.657 ZM57.449,14.298 C57.028,14.237 56.598,14.178 56.167,14.121 C55.315,14.010 54.617,13.405 54.390,12.580 C54.172,11.791 53.857,11.029 53.452,10.315 C53.029,9.571 53.094,8.650 53.618,7.968 C53.883,7.624 54.145,7.278 54.399,6.937 L53.063,5.600 C52.720,5.856 52.374,6.118 52.031,6.382 C51.350,6.906 50.429,6.971 49.684,6.548 C48.971,6.143 48.209,5.827 47.419,5.610 C46.594,5.382 45.990,4.685 45.878,3.832 C45.822,3.402 45.763,2.972 45.702,2.551 L43.812,2.551 C43.751,2.972 43.691,3.402 43.635,3.833 C43.524,4.685 42.919,5.382 42.094,5.610 C41.305,5.827 40.543,6.143 39.830,6.548 C39.085,6.972 38.163,6.906 37.482,6.382 C37.139,6.118 36.794,5.856 36.451,5.600 L35.114,6.937 C35.369,7.278 35.631,7.624 35.896,7.968 C36.420,8.649 36.485,9.571 36.062,10.315 C35.657,11.029 35.341,11.791 35.123,12.580 C34.896,13.405 34.199,14.010 33.346,14.121 C32.915,14.177 32.486,14.237 32.065,14.298 L32.065,16.188 C32.486,16.249 32.916,16.308 33.346,16.364 C34.199,16.475 34.896,17.080 35.124,17.905 C35.341,18.695 35.657,19.457 36.062,20.170 C36.485,20.914 36.420,21.836 35.896,22.517 C35.632,22.861 35.370,23.207 35.114,23.549 L36.451,24.885 C36.794,24.630 37.139,24.368 37.482,24.104 C38.164,23.580 39.085,23.514 39.830,23.938 C40.543,24.343 41.305,24.659 42.095,24.876 C42.920,25.103 43.524,25.801 43.635,26.653 C43.692,27.084 43.751,27.514 43.812,27.934 L45.702,27.934 C45.763,27.514 45.823,27.084 45.879,26.653 C45.989,25.801 46.594,25.103 47.420,24.876 C48.209,24.658 48.971,24.342 49.684,23.937 C50.429,23.515 51.350,23.579 52.032,24.104 C52.375,24.367 52.720,24.630 53.063,24.885 L54.399,23.549 C54.144,23.207 53.882,22.861 53.618,22.518 C53.094,21.836 53.029,20.915 53.452,20.170 C53.857,19.457 54.173,18.695 54.390,17.905 C54.617,17.081 55.315,16.476 56.167,16.364 C56.598,16.308 57.028,16.249 57.449,16.188 L57.449,14.298 ZM44.757,20.680 C41.759,20.680 39.320,18.241 39.320,15.243 C39.320,12.244 41.759,9.805 44.757,9.805 C47.755,9.805 50.195,12.244 50.195,15.243 C50.195,18.241 47.755,20.680 44.757,20.680 ZM44.757,12.222 C43.092,12.222 41.737,13.577 41.737,15.243 C41.737,16.908 43.092,18.263 44.757,18.263 C46.422,18.263 47.777,16.908 47.777,15.243 C47.777,13.577 46.422,12.222 44.757,12.222 ZM30.889,24.747 C30.712,25.459 30.523,26.186 30.329,26.910 C31.354,27.719 32.282,28.647 33.090,29.670 C33.815,29.476 34.542,29.288 35.253,29.111 C36.450,28.812 37.709,29.449 38.182,30.591 L39.561,33.921 C39.561,33.921 39.561,33.921 39.561,33.921 C40.034,35.063 39.594,36.403 38.537,37.038 C37.909,37.416 37.262,37.797 36.612,38.172 C36.764,39.466 36.763,40.779 36.611,42.076 C37.259,42.449 37.906,42.831 38.537,43.210 C39.594,43.845 40.034,45.185 39.561,46.327 L38.182,49.657 C37.709,50.799 36.450,51.436 35.253,51.137 C34.541,50.960 33.814,50.772 33.090,50.578 C32.281,51.602 31.353,52.530 30.330,53.339 C30.525,54.067 30.713,54.794 30.890,55.501 C31.188,56.698 30.551,57.957 29.410,58.430 L26.079,59.809 C24.937,60.282 23.597,59.842 22.962,58.785 C22.582,58.153 22.201,57.506 21.829,56.860 C20.533,57.011 19.221,57.011 17.925,56.859 C17.547,57.513 17.166,58.160 16.791,58.785 C16.327,59.555 15.489,59.998 14.626,59.998 C14.306,59.998 13.982,59.937 13.673,59.809 L10.343,58.430 C9.201,57.957 8.564,56.697 8.863,55.501 C9.040,54.790 9.228,54.063 9.423,53.338 C8.398,52.528 7.470,51.601 6.661,50.578 C5.937,50.772 5.210,50.960 4.499,51.137 C3.301,51.436 2.043,50.799 1.570,49.657 L0.191,46.327 C-0.282,45.185 0.158,43.845 1.215,43.210 C1.844,42.831 2.491,42.451 3.140,42.076 C2.988,40.781 2.989,39.469 3.141,38.172 C2.492,37.798 1.845,37.417 1.215,37.038 C0.158,36.403 -0.282,35.063 0.191,33.921 L1.570,30.591 C2.043,29.449 3.302,28.812 4.499,29.111 C5.209,29.288 5.936,29.476 6.662,29.671 C7.471,28.646 8.399,27.718 9.422,26.909 C9.228,26.187 9.040,25.460 8.863,24.747 C8.564,23.550 9.201,22.291 10.343,21.818 L13.673,20.439 C14.815,19.966 16.155,20.406 16.790,21.463 C17.167,22.090 17.548,22.738 17.924,23.388 C19.219,23.236 20.531,23.237 21.828,23.389 C22.202,22.740 22.583,22.093 22.961,21.463 C23.597,20.406 24.937,19.966 26.079,20.439 L29.409,21.818 C30.551,22.291 31.187,23.550 30.889,24.747 ZM28.587,28.957 C27.788,28.335 27.443,27.299 27.707,26.318 C27.894,25.624 28.075,24.927 28.247,24.243 L25.186,22.975 C24.823,23.581 24.458,24.202 24.100,24.824 C23.593,25.704 22.617,26.193 21.612,26.068 C20.458,25.924 19.289,25.924 18.137,26.067 C17.135,26.193 16.158,25.703 15.651,24.823 C15.292,24.199 14.927,23.578 14.566,22.975 L11.505,24.243 C11.676,24.928 11.858,25.625 12.044,26.317 C12.308,27.298 11.963,28.334 11.166,28.955 C10.250,29.668 9.423,30.495 8.709,31.412 C8.087,32.211 7.051,32.556 6.070,32.292 C5.374,32.105 4.677,31.924 3.995,31.753 L2.728,34.814 C3.333,35.177 3.954,35.542 4.576,35.899 C5.457,36.407 5.945,37.383 5.820,38.388 C5.676,39.541 5.676,40.711 5.819,41.863 C5.944,42.866 5.456,43.842 4.575,44.349 C3.953,44.707 3.332,45.071 2.728,45.434 L3.996,48.495 C4.678,48.324 5.375,48.143 6.069,47.956 C7.050,47.692 8.086,48.036 8.707,48.834 C9.420,49.750 10.247,50.577 11.165,51.291 C11.963,51.912 12.309,52.948 12.044,53.930 C11.857,54.624 11.676,55.321 11.505,56.004 L14.566,57.272 C14.926,56.671 15.291,56.050 15.652,55.424 C16.158,54.543 17.134,54.055 18.140,54.180 C19.293,54.323 20.463,54.324 21.615,54.180 C22.618,54.056 23.594,54.544 24.101,55.425 C24.457,56.044 24.822,56.665 25.186,57.272 L28.247,56.004 C28.077,55.325 27.896,54.628 27.708,53.931 C27.444,52.950 27.788,51.914 28.586,51.293 C29.502,50.580 30.329,49.753 31.043,48.835 C31.664,48.037 32.700,47.692 33.682,47.956 C34.375,48.142 35.072,48.323 35.756,48.495 L37.024,45.433 C36.417,45.070 35.796,44.705 35.176,44.348 C34.295,43.841 33.807,42.864 33.932,41.860 C34.075,40.706 34.075,39.536 33.932,38.385 C33.807,37.381 34.296,36.406 35.176,35.899 C35.799,35.540 36.420,35.175 37.024,34.813 L35.756,31.752 C35.073,31.924 34.376,32.105 33.683,32.292 C32.701,32.556 31.666,32.211 31.045,31.413 C30.331,30.497 29.504,29.671 28.587,28.957 ZM23.379,48.580 C22.249,49.048 21.063,49.282 19.876,49.282 C18.689,49.282 17.503,49.048 16.373,48.580 C14.115,47.644 12.355,45.885 11.420,43.626 C9.488,38.964 11.711,33.599 16.373,31.668 C21.037,29.736 26.401,31.959 28.332,36.621 C28.332,36.621 28.332,36.621 28.332,36.621 C30.263,41.284 28.041,46.649 23.379,48.580 ZM25.851,37.649 C24.820,35.161 22.407,33.657 19.868,33.657 C19.044,33.657 18.208,33.815 17.401,34.149 C14.107,35.514 12.536,39.304 13.901,42.599 C14.562,44.195 15.805,45.438 17.401,46.099 C18.997,46.760 20.755,46.760 22.351,46.099 C25.645,44.734 27.216,40.944 25.851,37.649 Z" class="cls-1"/>
</svg>
