<svg xmlns="http://www.w3.org/2000/svg" xmlns:xlink="http://www.w3.org/1999/xlink" preserveAspectRatio="xMidYMid" width="60" height="60" viewBox="0 0 60 60">
  <defs>
    <style>
      .cls-1 {
        fill: #929e85;
        stroke: #fff;
        stroke-linejoin: round;
        stroke-width: 1px;
      }

      .cls-1, .cls-2, .cls-3 {
        fill-rule: evenodd;
      }

      .cls-2 {
        fill: #dcedc8;
      }

      .cls-3 {
        fill: #cadab6;
      }
    </style>
  </defs>
  <g>
    <path d="M57.518,18.928 C57.066,18.995 56.601,19.061 56.133,19.124 C55.897,19.908 55.582,20.669 55.194,21.391 C55.479,21.765 55.762,22.140 56.035,22.509 C56.641,23.328 56.553,24.490 55.831,25.212 L54.023,27.020 C53.302,27.742 52.140,27.829 51.321,27.223 C50.951,26.950 50.575,26.667 50.202,26.382 C49.480,26.770 48.719,27.086 47.935,27.321 C47.872,27.790 47.807,28.254 47.739,28.707 C47.588,29.715 46.705,30.474 45.684,30.474 L43.127,30.474 C42.106,30.474 41.223,29.714 41.072,28.707 C41.005,28.254 40.939,27.790 40.876,27.322 C40.092,27.086 39.331,26.771 38.609,26.382 C38.236,26.667 37.860,26.950 37.491,27.223 C36.671,27.829 35.510,27.742 34.788,27.020 L32.980,25.211 C32.258,24.490 32.170,23.328 32.776,22.509 C33.049,22.140 33.332,21.765 33.618,21.391 C33.229,20.668 32.914,19.908 32.678,19.123 C32.210,19.061 31.745,18.995 31.293,18.927 C30.285,18.777 29.526,17.893 29.526,16.873 L29.526,14.315 C29.526,13.295 30.285,12.411 31.293,12.261 C31.745,12.193 32.210,12.127 32.678,12.065 C32.914,11.280 33.229,10.520 33.618,9.798 C33.331,9.423 33.049,9.048 32.777,8.679 C32.171,7.860 32.258,6.698 32.980,5.976 L34.788,4.168 C35.510,3.446 36.672,3.359 37.491,3.965 C37.861,4.238 38.236,4.521 38.609,4.806 C39.331,4.418 40.092,4.103 40.876,3.867 C40.939,3.398 41.005,2.933 41.072,2.481 C41.223,1.474 42.106,0.714 43.127,0.714 L45.684,0.714 C46.705,0.714 47.588,1.474 47.739,2.481 C47.807,2.934 47.872,3.398 47.935,3.867 C48.719,4.103 49.480,4.418 50.202,4.806 C50.576,4.521 50.951,4.239 51.321,3.965 C52.140,3.359 53.301,3.447 54.023,4.168 L55.831,5.977 C56.553,6.698 56.641,7.860 56.035,8.679 C55.762,9.048 55.480,9.423 55.194,9.798 C55.582,10.520 55.897,11.280 56.133,12.065 C56.601,12.127 57.066,12.193 57.519,12.261 C58.526,12.411 59.286,13.295 59.286,14.316 L59.286,16.873 C59.286,17.894 58.526,18.777 57.518,18.928 ZM56.795,14.672 C56.384,14.612 55.965,14.554 55.544,14.499 C54.712,14.391 54.031,13.800 53.809,12.995 C53.597,12.225 53.289,11.481 52.893,10.784 C52.480,10.057 52.544,9.158 53.055,8.493 C53.314,8.157 53.570,7.819 53.818,7.486 L52.514,6.181 C52.179,6.431 51.842,6.687 51.507,6.944 C50.842,7.456 49.943,7.520 49.216,7.107 C48.519,6.711 47.775,6.403 47.005,6.190 C46.199,5.969 45.609,5.287 45.500,4.455 C45.446,4.035 45.388,3.616 45.328,3.205 L43.483,3.205 C43.423,3.616 43.366,4.035 43.311,4.456 C43.202,5.287 42.612,5.969 41.806,6.190 C41.036,6.403 40.292,6.711 39.596,7.107 C38.868,7.520 37.969,7.456 37.304,6.944 C36.969,6.687 36.632,6.431 36.297,6.181 L34.993,7.486 C35.241,7.819 35.497,8.157 35.756,8.493 C36.267,9.158 36.331,10.057 35.918,10.784 C35.522,11.480 35.214,12.224 35.002,12.995 C34.780,13.800 34.099,14.391 33.267,14.499 C32.846,14.554 32.427,14.612 32.016,14.672 L32.016,16.516 C32.427,16.576 32.846,16.634 33.267,16.689 C34.099,16.797 34.780,17.388 35.002,18.193 C35.214,18.964 35.522,19.708 35.918,20.404 C36.331,21.131 36.267,22.030 35.756,22.695 C35.497,23.031 35.242,23.368 34.993,23.702 L36.297,25.007 C36.632,24.757 36.969,24.502 37.304,24.244 C37.969,23.732 38.869,23.669 39.596,24.082 C40.292,24.477 41.036,24.786 41.806,24.998 C42.612,25.220 43.202,25.901 43.311,26.733 C43.366,27.153 43.423,27.573 43.483,27.984 L45.328,27.984 C45.388,27.573 45.446,27.153 45.501,26.733 C45.609,25.901 46.199,25.220 47.005,24.998 C47.775,24.786 48.519,24.477 49.215,24.082 C49.942,23.669 50.842,23.732 51.507,24.244 C51.842,24.502 52.179,24.757 52.514,25.007 L53.819,23.702 C53.569,23.369 53.314,23.031 53.056,22.696 C52.544,22.030 52.480,21.131 52.893,20.404 C53.289,19.708 53.597,18.964 53.809,18.193 C54.031,17.388 54.712,16.798 55.544,16.689 C55.965,16.634 56.384,16.576 56.795,16.517 L56.795,14.672 ZM44.406,20.902 C41.479,20.902 39.098,18.521 39.098,15.594 C39.098,12.667 41.479,10.286 44.406,10.286 C47.333,10.286 49.714,12.667 49.714,15.594 C49.714,18.521 47.333,20.902 44.406,20.902 ZM44.406,12.645 C42.780,12.645 41.457,13.968 41.457,15.594 C41.457,17.220 42.780,18.543 44.406,18.543 C46.031,18.543 47.354,17.220 47.354,15.594 C47.354,13.968 46.031,12.645 44.406,12.645 ZM30.868,24.872 C30.695,25.567 30.511,26.277 30.321,26.984 C31.321,27.774 32.227,28.679 33.017,29.678 C33.724,29.489 34.433,29.305 35.128,29.132 C36.297,28.841 37.525,29.462 37.987,30.577 L39.334,33.828 C39.334,33.828 39.334,33.828 39.334,33.828 C39.795,34.943 39.365,36.251 38.333,36.871 C37.721,37.239 37.089,37.611 36.454,37.977 C36.603,39.241 36.602,40.522 36.454,41.788 C37.086,42.153 37.718,42.525 38.334,42.895 C39.365,43.515 39.795,44.823 39.334,45.938 L37.987,49.189 C37.525,50.304 36.296,50.925 35.128,50.634 C34.433,50.461 33.723,50.277 33.016,50.088 C32.226,51.088 31.321,51.994 30.322,52.783 C30.513,53.494 30.696,54.204 30.868,54.894 C31.159,56.062 30.538,57.291 29.424,57.753 L26.173,59.100 C25.058,59.561 23.750,59.131 23.129,58.100 C22.759,57.483 22.387,56.851 22.023,56.220 C20.759,56.368 19.478,56.368 18.212,56.220 C17.844,56.858 17.472,57.489 17.105,58.100 C16.653,58.852 15.835,59.284 14.992,59.284 C14.680,59.284 14.364,59.224 14.062,59.099 L10.811,57.753 C9.696,57.291 9.075,56.062 9.366,54.894 C9.539,54.200 9.723,53.490 9.912,52.782 C8.912,51.992 8.006,51.086 7.217,50.088 C6.509,50.277 5.800,50.461 5.106,50.634 C3.937,50.925 2.709,50.304 2.247,49.189 L0.900,45.938 C0.439,44.823 0.869,43.515 1.900,42.895 C2.514,42.526 3.146,42.154 3.780,41.789 C3.632,40.524 3.632,39.243 3.780,37.977 C3.147,37.612 2.515,37.240 1.901,36.871 C0.869,36.251 0.439,34.942 0.900,33.828 L2.247,30.577 C2.709,29.462 3.937,28.841 5.106,29.132 C5.799,29.305 6.509,29.488 7.218,29.679 C8.008,28.678 8.913,27.772 9.912,26.983 C9.723,26.278 9.539,25.568 9.366,24.872 C9.075,23.704 9.696,22.475 10.811,22.013 L14.061,20.666 C15.176,20.205 16.484,20.635 17.105,21.666 C17.473,22.279 17.845,22.910 18.211,23.545 C19.475,23.397 20.756,23.398 22.022,23.546 C22.387,22.913 22.760,22.281 23.129,21.666 C23.749,20.634 25.058,20.205 26.172,20.666 L29.423,22.013 C30.538,22.475 31.159,23.704 30.868,24.872 ZM28.621,28.981 C27.841,28.375 27.504,27.363 27.762,26.405 C27.944,25.728 28.121,25.048 28.288,24.380 L25.300,23.143 C24.946,23.734 24.590,24.340 24.241,24.947 C23.746,25.806 22.793,26.283 21.812,26.161 C20.685,26.021 19.544,26.021 18.419,26.161 C17.441,26.283 16.487,25.806 15.992,24.946 C15.642,24.337 15.286,23.731 14.933,23.143 L11.945,24.380 C12.113,25.049 12.289,25.729 12.471,26.404 C12.729,27.362 12.393,28.373 11.614,28.980 C10.720,29.676 9.913,30.483 9.216,31.379 C8.609,32.158 7.597,32.496 6.640,32.237 C5.961,32.055 5.280,31.878 4.615,31.711 L3.377,34.699 C3.968,35.054 4.574,35.410 5.181,35.759 C6.041,36.254 6.518,37.208 6.396,38.188 C6.256,39.314 6.255,40.456 6.395,41.580 C6.517,42.560 6.040,43.512 5.180,44.007 C4.573,44.357 3.967,44.713 3.377,45.066 L4.615,48.055 C5.281,47.888 5.961,47.711 6.639,47.528 C7.597,47.270 8.608,47.607 9.214,48.386 C9.910,49.280 10.717,50.087 11.613,50.784 C12.393,51.391 12.730,52.402 12.472,53.360 C12.289,54.038 12.113,54.718 11.945,55.385 L14.934,56.623 C15.285,56.036 15.641,55.430 15.993,54.818 C16.488,53.959 17.440,53.482 18.422,53.604 C19.548,53.744 20.690,53.744 21.814,53.605 C22.794,53.483 23.746,53.960 24.241,54.819 C24.589,55.424 24.945,56.030 25.300,56.623 L28.289,55.385 C28.122,54.722 27.946,54.042 27.762,53.361 C27.504,52.403 27.841,51.392 28.619,50.786 C29.514,50.090 30.321,49.282 31.018,48.387 C31.625,47.607 32.636,47.270 33.594,47.528 C34.271,47.710 34.952,47.887 35.619,48.054 L36.857,45.066 C36.265,44.711 35.658,44.355 35.052,44.006 C34.193,43.511 33.716,42.558 33.838,41.578 C33.978,40.451 33.978,39.309 33.838,38.185 C33.717,37.206 34.194,36.253 35.053,35.758 C35.661,35.408 36.267,35.052 36.857,34.699 L35.619,31.711 C34.952,31.878 34.272,32.055 33.595,32.237 C32.637,32.495 31.626,32.158 31.020,31.380 C30.323,30.486 29.516,29.679 28.621,28.981 ZM23.536,48.138 C22.434,48.594 21.275,48.823 20.117,48.823 C18.959,48.823 17.800,48.594 16.698,48.138 C14.493,47.224 12.776,45.507 11.862,43.302 C9.977,38.750 12.146,33.513 16.698,31.628 C21.250,29.743 26.487,31.912 28.372,36.464 C28.372,36.464 28.372,36.464 28.372,36.464 C30.257,41.015 28.088,46.252 23.536,48.138 ZM25.950,37.467 C24.944,35.038 22.587,33.569 20.109,33.569 C19.305,33.569 18.489,33.724 17.701,34.050 C14.485,35.382 12.952,39.083 14.285,42.299 C14.930,43.857 16.143,45.070 17.701,45.716 C19.259,46.361 20.975,46.361 22.533,45.716 C25.749,44.383 27.282,40.683 25.950,37.467 Z" class="cls-1"/>
    <path d="M34.286,37.143 L34.286,42.143 L37.143,45.000 L35.714,48.571 L32.857,47.857 L28.571,51.429 L28.571,55.714 L25.000,57.143 L23.571,54.286 L16.429,54.286 L15.000,57.143 L11.429,55.714 L11.429,51.429 L9.286,48.571 L4.286,48.571 L2.857,45.000 L5.714,42.857 L5.714,36.429 L2.857,35.000 L4.286,31.429 L8.571,31.429 L12.143,27.857 L11.429,24.286 L15.000,22.857 L17.143,25.714 L22.857,25.714 L25.714,22.143 L28.571,23.571 L28.571,28.571 L31.429,31.429 L36.429,31.429 L37.857,34.286 L34.286,37.143 ZM20.000,31.429 C15.266,31.429 11.429,35.266 11.429,40.000 C11.429,44.734 15.266,48.571 20.000,48.571 C24.734,48.571 28.571,44.734 28.571,40.000 C28.571,35.266 24.734,31.429 20.000,31.429 Z" class="cls-2"/>
    <path d="M54.286,17.857 L52.857,20.714 L54.286,23.571 L52.857,25.714 L50.000,24.286 L46.429,25.714 L45.714,28.571 L42.857,28.571 L42.143,25.714 L39.286,24.286 L36.429,25.714 L34.286,23.571 L35.714,21.429 L34.286,17.857 L31.429,17.143 L31.429,14.286 L34.286,13.571 L35.714,10.000 L34.286,7.857 L35.714,5.714 L39.286,7.143 L42.143,5.714 L42.857,2.857 L45.714,2.857 L46.429,5.714 L49.286,7.143 L52.143,5.714 L54.286,7.143 L52.857,10.000 L54.286,13.571 L57.143,14.286 L57.143,17.143 L54.286,17.857 ZM44.286,10.714 C41.524,10.714 39.286,12.953 39.286,15.714 C39.286,18.476 41.524,20.714 44.286,20.714 C47.047,20.714 49.286,18.476 49.286,15.714 C49.286,12.953 47.047,10.714 44.286,10.714 Z" class="cls-3"/>
  </g>
</svg>
