<svg xmlns="http://www.w3.org/2000/svg" xmlns:xlink="http://www.w3.org/1999/xlink" preserveAspectRatio="xMidYMid" width="20" height="27" viewBox="0 0 20 27">
  <defs>
    <style>
      .cls-1 {
        fill: #f8ca43;
      }

      .cls-1, .cls-2 {
        fill-rule: evenodd;
      }

      .cls-2 {
        stroke: #333;
        stroke-width: 1px;
        fill: none;
      }
    </style>
  </defs>
  <g>
    <path d="M9.987,6.522 C8.092,6.522 6.558,8.050 6.558,9.940 C6.558,11.827 8.097,13.362 9.996,13.362 C11.895,13.362 13.445,11.831 13.445,9.940 C13.445,8.050 11.895,6.522 9.987,6.522 ZM9.987,-0.000 C4.473,-0.000 0.000,4.453 0.000,9.940 C0.000,16.797 9.987,27.000 9.987,27.000 C9.987,27.000 20.000,16.797 20.000,9.940 C20.000,4.453 15.510,-0.000 9.987,-0.000 ZM9.987,15.736 C6.787,15.723 4.172,13.130 4.172,9.940 C4.172,6.750 6.787,4.150 9.987,4.150 C13.209,4.150 15.828,6.750 15.828,9.940 C15.828,13.130 13.209,15.736 9.987,15.736 Z" class="cls-1"/>
    <path d="M9.987,6.522 C8.092,6.522 6.558,8.050 6.558,9.940 C6.558,11.827 8.097,13.362 9.996,13.362 C11.895,13.362 13.445,11.831 13.445,9.940 C13.445,8.050 11.895,6.522 9.987,6.522 ZM9.987,-0.000 C4.473,-0.000 0.000,4.453 0.000,9.940 C0.000,16.797 9.987,27.000 9.987,27.000 C9.987,27.000 20.000,16.797 20.000,9.940 C20.000,4.453 15.510,-0.000 9.987,-0.000 ZM9.987,15.736 C6.787,15.723 4.172,13.130 4.172,9.940 C4.172,6.750 6.787,4.150 9.987,4.150 C13.209,4.150 15.828,6.750 15.828,9.940 C15.828,13.130 13.209,15.736 9.987,15.736 Z" class="cls-2"/>
  </g>
</svg>
