<svg xmlns="http://www.w3.org/2000/svg" xmlns:xlink="http://www.w3.org/1999/xlink" preserveAspectRatio="xMidYMid" width="60" height="60" viewBox="0 0 60 60">
  <defs>
    <style>
      .cls-1 {
        fill: #c7f8af;
      }

      .cls-1, .cls-3, .cls-4, .cls-5 {
        fill-rule: evenodd;
      }

      .cls-2 {
        fill: #f9ea80;
      }

      .cls-3 {
        fill: #f4aa62;
      }

      .cls-4 {
        fill: #f3b87f;
      }

      .cls-5 {
        fill: #279957;
      }
    </style>
  </defs>
  <g>
    <path d="M22.143,15.000 L13.571,7.143 L19.286,2.143 L25.000,14.286 L23.571,0.714 L31.429,0.714 L29.286,13.571 L35.000,2.857 L40.714,7.143 L32.857,15.000 C32.857,15.000 25.714,14.524 22.143,15.000 Z" class="cls-1"/>
    <path d="M47.857,36.428 L45.000,36.428 L43.571,22.857 L49.286,22.857 L47.857,36.428 " class="cls-1"/>
    <circle cx="12.859" cy="47.141" r="11.422" class="cls-2"/>
    <path d="M42.143,39.286 C42.143,39.286 42.395,38.141 40.000,37.857 C37.605,37.574 35.788,39.926 35.000,42.857 C34.212,45.788 33.645,47.962 34.286,51.428 C34.926,54.895 35.431,57.605 37.143,58.571 C38.855,59.538 40.967,58.498 42.143,57.857 C43.319,57.216 44.002,58.498 45.714,58.571 C47.426,58.645 50.000,56.428 50.000,56.428 C50.000,56.428 51.324,58.498 52.857,58.571 C54.391,58.645 56.145,57.248 57.143,55.714 C58.141,54.181 58.467,48.855 58.571,46.429 C58.676,44.002 58.288,40.819 57.143,39.286 C55.998,37.752 54.002,37.069 52.857,37.143 C51.712,37.216 49.286,39.286 49.286,39.286 C49.286,39.286 47.574,36.533 45.714,37.143 C43.855,37.752 42.143,39.286 42.143,39.286 Z" class="cls-3"/>
    <path d="M19.286,16.429 C19.286,16.429 21.502,15.105 25.000,15.000 C28.498,14.895 31.502,13.855 33.571,15.714 C35.641,17.573 36.681,20.105 37.143,23.571 C37.605,27.038 37.574,30.462 37.143,33.571 C36.712,36.681 34.538,41.712 34.286,44.286 C34.033,46.859 34.359,50.105 33.571,51.428 C32.783,52.752 31.681,56.355 28.571,57.857 C25.462,59.359 24.538,57.248 23.571,55.714 C22.605,54.181 22.217,54.391 23.571,50.714 C24.926,47.038 24.359,43.676 22.857,41.428 C21.355,39.181 17.217,37.248 17.143,35.714 C17.069,34.181 15.967,29.926 16.429,25.714 C16.891,21.502 18.036,18.036 19.286,16.429 Z" class="cls-4"/>
    <path d="M52.949,59.643 C51.749,59.643 50.602,59.126 49.597,58.147 C48.619,59.097 47.482,59.643 46.256,59.643 C45.030,59.643 43.893,59.097 42.915,58.147 C41.910,59.126 40.761,59.643 39.562,59.643 C36.859,59.643 34.584,57.021 33.519,53.154 C31.598,57.464 29.456,59.643 27.131,59.643 C25.306,59.643 23.576,58.268 21.976,55.555 C19.700,58.059 16.430,59.643 12.788,59.643 C5.934,59.643 0.357,54.066 0.357,47.212 C0.357,40.680 5.424,35.321 11.832,34.830 L11.832,32.868 C11.832,31.287 10.545,30.000 8.963,30.000 L7.051,30.000 L7.051,28.087 L8.963,28.087 C11.599,28.087 13.744,30.232 13.744,32.868 L13.744,34.830 C14.597,34.895 15.426,35.045 16.223,35.274 C15.858,32.371 15.657,29.579 15.657,27.131 C15.657,19.155 17.618,15.906 20.798,14.600 L12.300,7.047 L19.574,0.658 L23.389,8.646 L22.204,0.357 L32.059,0.357 L30.874,8.646 L34.688,0.658 L41.962,7.047 L33.464,14.600 C36.645,15.906 38.606,19.155 38.606,27.131 C38.606,30.107 38.320,33.569 37.800,37.094 C38.360,36.841 38.948,36.693 39.562,36.693 C40.754,36.693 41.911,37.216 42.915,38.189 C43.340,37.776 43.793,37.435 44.273,37.189 L42.295,22.350 L50.217,22.350 L48.238,37.189 C48.718,37.435 49.171,37.776 49.597,38.189 C50.602,37.210 51.750,36.693 52.949,36.693 C56.702,36.693 59.643,41.734 59.643,48.168 C59.643,54.603 56.702,59.643 52.949,59.643 ZM13.744,36.741 L13.744,42.379 C16.901,42.062 17.612,40.235 17.619,40.215 L19.432,40.820 C19.384,40.965 18.195,44.343 12.788,44.343 C7.381,44.343 6.192,40.965 6.143,40.820 L7.952,40.201 C7.983,40.284 8.694,42.069 11.832,42.380 L11.832,36.742 C6.479,37.227 2.270,41.735 2.270,47.212 C2.270,53.011 6.988,57.730 12.788,57.730 C18.587,57.730 23.306,53.011 23.306,47.212 C23.306,41.735 19.097,37.227 13.744,36.741 ZM18.937,3.762 L15.189,7.054 L22.985,13.985 L22.969,14.003 C23.232,13.960 23.501,13.924 23.774,13.893 L18.937,3.762 ZM24.409,2.269 L26.048,13.744 L28.215,13.744 L29.854,2.269 L24.409,2.269 ZM39.074,7.055 L35.325,3.763 L30.489,13.894 C30.762,13.925 31.031,13.960 31.294,14.004 L31.277,13.986 L39.074,7.055 ZM36.649,25.219 L30.000,25.219 L30.000,23.306 L36.497,23.306 C35.607,15.658 31.798,15.657 27.131,15.657 C21.789,15.657 17.569,15.657 17.569,27.131 C17.569,29.788 17.809,32.868 18.252,36.063 C22.370,38.090 25.219,42.319 25.219,47.212 C25.219,49.675 24.489,51.968 23.249,53.902 C24.568,56.367 25.936,57.730 27.131,57.730 C28.944,57.730 31.099,54.646 32.913,49.472 C32.886,49.045 32.869,48.611 32.869,48.168 C32.869,44.323 33.923,40.987 35.569,38.916 C35.699,38.174 35.818,37.433 35.926,36.693 L33.825,36.693 L33.825,34.781 L36.185,34.781 C36.344,33.475 36.465,32.194 36.550,30.956 L26.175,30.956 L26.175,29.044 L36.652,29.044 C36.676,28.390 36.693,27.746 36.693,27.131 C36.693,26.453 36.677,25.819 36.649,25.219 ZM39.562,38.606 C38.779,38.606 38.034,39.011 37.373,39.712 C37.372,39.719 37.371,39.725 37.370,39.731 L37.357,39.729 C35.841,41.353 34.781,44.564 34.781,48.168 C34.781,53.351 36.971,57.730 39.562,57.730 C40.455,57.730 41.196,57.185 41.713,56.647 C40.386,54.563 39.562,51.565 39.562,48.168 C39.562,44.773 40.386,41.776 41.711,39.692 C41.155,39.107 40.429,38.606 39.562,38.606 ZM44.480,24.263 L46.138,36.703 C46.177,36.702 46.216,36.693 46.256,36.693 C46.296,36.693 46.334,36.702 46.374,36.703 L48.032,24.263 L44.480,24.263 ZM46.256,38.606 C43.664,38.606 41.475,42.985 41.475,48.168 C41.475,53.351 43.664,57.730 46.256,57.730 C48.847,57.730 51.037,53.351 51.037,48.168 C51.037,42.985 48.847,38.606 46.256,38.606 ZM52.949,38.606 C52.056,38.606 51.315,39.151 50.799,39.690 C52.125,41.773 52.949,44.772 52.949,48.168 C52.949,51.565 52.125,54.562 50.799,56.646 C51.314,57.185 52.055,57.730 52.949,57.730 C55.541,57.730 57.730,53.351 57.730,48.168 C57.730,42.985 55.541,38.606 52.949,38.606 ZM26.175,23.306 L28.088,23.306 L28.088,25.219 L26.175,25.219 L26.175,23.306 ZM31.912,36.693 L26.175,36.693 L26.175,34.781 L31.912,34.781 L31.912,36.693 Z" class="cls-5"/>
  </g>
</svg>
