<svg xmlns="http://www.w3.org/2000/svg" xmlns:xlink="http://www.w3.org/1999/xlink" preserveAspectRatio="xMidYMid" width="53" height="60" viewBox="0 0 53 60">
  <defs>
    <style>
      .cls-1 {
        fill: #b7cff7;
      }

      .cls-1, .cls-2, .cls-3 {
        fill-rule: evenodd;
      }

      .cls-2 {
        fill: #dce6f7;
      }

      .cls-3 {
        fill: #517fcd;
      }
    </style>
  </defs>
  <g>
    <path d="M-0.000,15.963 L25.680,29.174 L50.814,15.413 L51.907,44.037 L25.680,58.349 L-0.000,44.037 L-0.000,15.963 Z" class="cls-1"/>
    <path d="M8.196,4.404 L32.783,18.716 L25.680,28.624 L0.546,14.862 L8.196,4.404 Z" class="cls-1"/>
    <path d="M15.845,1.651 L25.680,0.550 L50.268,14.312 L38.794,14.862 L15.845,1.651 Z" class="cls-1"/>
    <path d="M13.660,7.706 L19.124,4.404 L39.340,15.413 L49.175,15.963 L27.320,28.073 L32.783,18.165 L13.660,7.706 Z" class="cls-2"/>
    <path d="M52.946,24.265 L52.946,44.324 C52.946,44.689 52.750,45.026 52.435,45.205 L27.029,59.635 C26.876,59.722 26.706,59.766 26.536,59.766 C26.366,59.766 26.196,59.722 26.043,59.635 L0.636,45.205 C0.320,45.026 0.125,44.689 0.125,44.324 L0.125,15.461 C0.125,15.454 0.126,15.449 0.127,15.442 C0.130,15.249 0.188,15.058 0.298,14.895 L7.605,4.019 C7.898,3.583 8.474,3.446 8.929,3.705 L14.356,6.787 L18.444,4.466 L14.371,2.152 C13.977,1.928 13.780,1.466 13.890,1.024 C14.001,0.582 14.391,0.269 14.844,0.260 L26.515,0.019 C26.694,0.016 26.872,0.060 27.029,0.149 L52.434,14.580 C52.745,14.757 52.931,15.082 52.942,15.428 C52.944,15.439 52.946,15.450 52.946,15.461 L52.946,24.265 C52.946,24.265 52.946,24.265 52.946,24.265 ZM2.133,43.733 L25.532,57.023 L25.532,30.484 L6.590,19.710 C6.571,19.701 6.550,19.701 6.531,19.691 L2.133,17.193 L2.133,43.733 ZM8.749,5.924 L2.572,15.119 L5.431,16.743 C5.452,16.754 5.475,16.753 5.496,16.765 L26.223,28.553 L32.400,19.359 L8.749,5.924 ZM34.674,19.584 L29.757,26.902 L47.972,16.555 L40.291,16.714 C40.284,16.714 40.277,16.714 40.270,16.714 C40.098,16.714 39.928,16.669 39.777,16.583 L27.540,9.632 L27.540,14.276 L34.335,18.136 C34.580,18.275 34.755,18.510 34.820,18.785 C34.884,19.060 34.831,19.350 34.674,19.584 ZM16.401,7.949 L25.532,13.135 L25.532,8.492 L20.489,5.627 L16.401,7.949 ZM26.281,2.047 L18.556,2.207 L40.524,14.685 L48.250,14.526 L26.281,2.047 ZM50.938,17.193 L27.540,30.483 L27.540,57.023 L50.938,43.733 L50.938,24.265 L50.938,22.806 L50.938,17.193 ZM41.348,31.633 L40.189,30.821 L40.189,45.357 C40.189,45.916 39.739,46.369 39.185,46.369 C38.630,46.369 38.180,45.916 38.180,45.358 L38.180,32.753 L37.236,34.447 C37.051,34.778 36.710,34.964 36.359,34.964 C36.193,34.964 36.024,34.922 35.868,34.834 C35.385,34.560 35.213,33.944 35.485,33.457 L38.309,28.391 C38.448,28.142 38.684,27.964 38.960,27.900 C39.236,27.837 39.525,27.893 39.758,28.056 L42.494,29.971 C42.950,30.290 43.062,30.921 42.746,31.379 C42.430,31.838 41.804,31.952 41.348,31.633 Z" class="cls-3"/>
  </g>
</svg>
