<svg xmlns="http://www.w3.org/2000/svg" xmlns:xlink="http://www.w3.org/1999/xlink" preserveAspectRatio="xMidYMid" width="60" height="60" viewBox="0 0 60 60">
  <defs>
    <style>
      .cls-1 {
        fill: #4c6897;
        stroke: #fff;
        stroke-linejoin: round;
        stroke-width: 1px;
        fill-rule: evenodd;
      }
    </style>
  </defs>
  <path d="M58.301,16.337 L57.325,16.337 L57.108,55.663 C56.964,57.358 56.057,59.277 54.217,59.277 L5.783,59.277 C4.039,59.277 2.892,57.647 2.892,55.663 L2.675,16.337 L1.699,16.337 C1.160,16.337 0.723,15.900 0.723,15.361 L0.723,4.337 C0.578,2.786 1.340,0.723 3.614,0.723 L56.385,0.723 C58.226,0.723 59.277,2.642 59.277,4.337 L59.277,15.361 C59.277,15.900 58.840,16.337 58.301,16.337 ZM4.626,55.607 C4.626,56.701 5.783,57.108 5.783,57.108 L54.217,57.108 C54.217,57.108 55.373,56.700 55.373,55.604 C55.373,47.827 55.373,16.337 55.373,16.337 L4.626,16.337 C4.626,16.337 4.626,47.835 4.626,55.607 ZM57.325,2.675 L2.675,2.675 L2.675,14.385 L57.325,14.385 L57.325,2.675 ZM47.566,53.422 L12.434,53.422 C11.895,53.422 11.458,52.985 11.458,52.446 L11.458,38.783 C11.458,38.244 11.895,37.807 12.434,37.807 L47.566,37.807 C48.105,37.807 48.542,38.244 48.542,38.783 L48.542,52.446 C48.542,52.985 48.105,53.422 47.566,53.422 ZM46.590,39.759 L13.410,39.759 L13.410,51.470 L46.590,51.470 L46.590,39.759 ZM21.217,44.638 L17.313,44.638 L17.313,42.687 L21.217,42.687 L21.217,44.638 ZM42.687,48.542 L17.313,48.542 L17.313,46.590 L42.687,46.590 L42.687,48.542 ZM23.169,42.687 L42.687,42.687 L42.687,44.638 L23.169,44.638 L23.169,42.687 ZM35.855,26.096 L24.145,26.096 C22.528,26.096 21.217,24.786 21.217,23.169 L21.217,21.217 C21.217,19.600 22.528,18.289 24.145,18.289 L35.855,18.289 C37.472,18.289 38.783,19.600 38.783,21.217 L38.783,23.169 C38.783,24.786 37.472,26.096 35.855,26.096 ZM36.831,21.217 C36.831,20.678 36.394,20.241 35.855,20.241 L24.145,20.241 C23.606,20.241 23.169,20.678 23.169,21.217 L23.169,23.169 C23.169,23.708 23.606,24.144 24.145,24.144 L35.855,24.144 C36.394,24.144 36.831,23.708 36.831,23.169 L36.831,21.217 Z" class="cls-1"/>
</svg>
