<svg xmlns="http://www.w3.org/2000/svg" xmlns:xlink="http://www.w3.org/1999/xlink" preserveAspectRatio="xMidYMid" width="54" height="60" viewBox="0 0 54 60">
  <defs>
    <style>
      .cls-1 {
        fill: #2b4673;
        stroke: #fff;
        stroke-linejoin: round;
        stroke-width: 1px;
        fill-rule: evenodd;
      }
    </style>
  </defs>
  <path d="M53.400,24.369 L53.400,44.066 C53.400,44.424 53.205,44.755 52.890,44.931 L27.528,59.101 C27.375,59.187 27.206,59.229 27.036,59.229 C26.866,59.229 26.696,59.186 26.543,59.101 L1.180,44.931 C0.865,44.755 0.670,44.424 0.670,44.066 L0.670,15.723 C0.670,15.717 0.671,15.711 0.672,15.705 C0.676,15.514 0.733,15.327 0.843,15.167 L8.137,4.487 C8.430,4.059 9.005,3.924 9.459,4.178 L14.877,7.206 L18.958,4.926 L14.892,2.654 C14.498,2.434 14.302,1.980 14.412,1.546 C14.522,1.112 14.912,0.805 15.364,0.796 L27.015,0.559 C27.194,0.556 27.371,0.600 27.528,0.687 L52.890,14.858 C53.200,15.032 53.385,15.351 53.397,15.691 C53.398,15.701 53.400,15.712 53.400,15.723 L53.400,24.368 C53.400,24.368 53.400,24.369 53.400,24.369 ZM2.675,43.485 L26.034,56.536 L26.034,30.475 L7.124,19.896 C7.105,19.886 7.084,19.887 7.065,19.877 L2.675,17.424 L2.675,43.485 ZM9.280,6.358 L3.113,15.387 L5.967,16.982 C5.988,16.992 6.011,16.992 6.032,17.003 L26.723,28.579 L32.890,19.550 L9.280,6.358 ZM35.160,19.772 L30.252,26.957 L48.435,16.798 L40.767,16.953 C40.761,16.953 40.754,16.953 40.747,16.953 C40.574,16.953 40.405,16.909 40.254,16.825 L28.038,9.999 L28.038,14.559 L34.822,18.350 C35.066,18.486 35.241,18.717 35.305,18.987 C35.369,19.257 35.317,19.542 35.160,19.772 ZM16.918,8.346 L26.033,13.439 L26.033,8.879 L20.999,6.066 L16.918,8.346 ZM26.782,2.551 L19.069,2.707 L41.000,14.961 L48.713,14.805 L26.782,2.551 ZM51.396,17.423 L28.038,30.475 L28.038,56.536 L51.396,43.486 L51.396,24.368 L51.396,22.936 L51.396,17.423 ZM41.823,31.603 L40.665,30.806 L40.665,45.081 C40.665,45.629 40.216,46.074 39.663,46.074 C39.109,46.074 38.660,45.629 38.660,45.081 L38.660,32.703 L37.717,34.367 C37.533,34.692 37.193,34.874 36.842,34.874 C36.676,34.874 36.508,34.833 36.352,34.747 C35.870,34.478 35.698,33.873 35.969,33.394 L38.789,28.420 C38.927,28.176 39.163,28.001 39.438,27.938 C39.714,27.876 40.003,27.931 40.235,28.091 L42.967,29.972 C43.421,30.285 43.534,30.904 43.218,31.354 C42.902,31.805 42.278,31.916 41.823,31.603 Z" class="cls-1"/>
</svg>
