<svg xmlns="http://www.w3.org/2000/svg" xmlns:xlink="http://www.w3.org/1999/xlink" preserveAspectRatio="xMidYMid" width="60" height="60" viewBox="0 0 60 60">
  <defs>
    <style>
      .cls-1 {
        fill: #d9b089;
      }

      .cls-1, .cls-2, .cls-3 {
        fill-rule: evenodd;
      }

      .cls-2 {
        fill: #dba571;
      }

      .cls-3 {
        fill: #b36347;
      }
    </style>
  </defs>
  <g>
    <path d="M1.481,0.741 L58.518,1.481 L59.259,14.815 L56.296,14.815 L57.037,56.296 C57.037,56.296 57.713,58.212 55.555,58.518 C53.398,58.824 4.444,58.518 4.444,58.518 C4.444,58.518 3.269,58.583 2.963,56.296 C2.657,54.010 2.963,14.815 2.963,14.815 L0.741,14.815 L0.741,2.222 C0.741,2.222 -0.000,0.926 1.481,0.741 Z" class="cls-1"/>
    <path d="M12.592,39.259 L48.148,39.259 L48.148,52.592 L11.852,52.592 L12.592,39.259 Z" class="cls-2"/>
    <path d="M24.444,18.519 L35.556,18.519 C37.192,18.519 38.519,19.845 38.519,21.481 C38.519,23.118 37.192,24.444 35.556,24.444 L24.444,24.444 C22.808,24.444 21.481,23.118 21.481,21.481 C21.481,19.845 22.808,18.519 24.444,18.519 Z" class="cls-2"/>
    <path d="M59.000,16.000 L58.000,16.000 L57.778,56.296 C57.630,58.034 56.700,60.000 54.815,60.000 L5.185,60.000 C3.398,60.000 2.222,58.330 2.222,56.296 L2.000,16.000 L1.000,16.000 C0.448,16.000 -0.000,15.552 -0.000,15.000 L-0.000,3.704 C-0.148,2.114 0.633,-0.000 2.963,-0.000 L57.037,-0.000 C58.923,-0.000 60.000,1.966 60.000,3.704 L60.000,15.000 C60.000,15.552 59.552,16.000 59.000,16.000 ZM4.000,56.240 C4.000,57.361 5.185,57.778 5.185,57.778 L54.815,57.778 C54.815,57.778 56.000,57.359 56.000,56.237 C56.000,48.267 56.000,16.000 56.000,16.000 L4.000,16.000 C4.000,16.000 4.000,48.275 4.000,56.240 ZM58.000,2.000 L2.000,2.000 L2.000,14.000 L58.000,14.000 L58.000,2.000 ZM48.000,54.000 L12.000,54.000 C11.448,54.000 11.000,53.552 11.000,53.000 L11.000,39.000 C11.000,38.448 11.448,38.000 12.000,38.000 L48.000,38.000 C48.552,38.000 49.000,38.448 49.000,39.000 L49.000,53.000 C49.000,53.552 48.552,54.000 48.000,54.000 ZM47.000,40.000 L13.000,40.000 L13.000,52.000 L47.000,52.000 L47.000,40.000 ZM21.000,45.000 L17.000,45.000 L17.000,43.000 L21.000,43.000 L21.000,45.000 ZM43.000,49.000 L17.000,49.000 L17.000,47.000 L43.000,47.000 L43.000,49.000 ZM23.000,43.000 L43.000,43.000 L43.000,45.000 L23.000,45.000 L23.000,43.000 ZM36.000,26.000 L24.000,26.000 C22.343,26.000 21.000,24.657 21.000,23.000 L21.000,21.000 C21.000,19.343 22.343,18.000 24.000,18.000 L36.000,18.000 C37.657,18.000 39.000,19.343 39.000,21.000 L39.000,23.000 C39.000,24.657 37.657,26.000 36.000,26.000 ZM37.000,21.000 C37.000,20.448 36.552,20.000 36.000,20.000 L24.000,20.000 C23.448,20.000 23.000,20.448 23.000,21.000 L23.000,23.000 C23.000,23.552 23.448,24.000 24.000,24.000 L36.000,24.000 C36.552,24.000 37.000,23.552 37.000,23.000 L37.000,21.000 Z" class="cls-3"/>
  </g>
</svg>
