<svg xmlns="http://www.w3.org/2000/svg" xmlns:xlink="http://www.w3.org/1999/xlink" preserveAspectRatio="xMidYMid" width="112" height="120" viewBox="0 0 112 120">
  <defs>
    <style>
      .cls-1 {
        fill: #4c6897;
        stroke: #fff;
        stroke-linejoin: round;
        stroke-width: 1px;
        fill-rule: evenodd;
      }
    </style>
  </defs>
  <path d="M101.532,46.501 C99.765,46.894 65.010,49.838 58.138,50.427 C55.782,50.427 54.014,52.194 54.014,54.353 L54.014,66.131 L65.796,66.131 C66.385,66.131 66.974,66.328 67.366,66.916 C67.759,67.309 67.956,67.898 67.759,68.487 L65.796,78.302 C65.600,79.283 64.814,79.872 63.832,79.872 L61.869,79.872 L61.869,109.317 C61.869,114.814 57.549,119.132 52.051,119.132 C46.553,119.132 42.233,114.813 42.233,109.317 L42.233,79.872 L40.270,79.872 C39.288,79.872 38.503,79.283 38.306,78.302 L36.343,68.487 C36.147,67.898 36.343,67.309 36.736,66.916 C37.129,66.524 37.718,66.131 38.307,66.131 L50.088,66.131 L50.088,54.353 C50.088,50.035 53.622,46.502 57.942,46.502 C74.239,45.127 99.176,42.968 100.747,42.575 C104.281,41.790 107.031,38.453 107.031,34.724 L107.031,26.872 C107.031,23.230 104.518,20.147 101.140,19.270 L101.140,26.872 C101.140,30.209 98.587,32.760 95.249,32.760 L46.161,32.760 L46.161,39.631 C46.161,43.361 43.019,46.502 39.289,46.502 C38.307,46.502 37.325,46.305 36.343,45.913 L36.343,60.242 C36.343,64.561 32.809,68.094 28.489,68.094 C24.170,68.094 20.635,64.561 20.635,60.242 L20.635,51.409 C19.457,51.997 18.082,52.390 16.708,52.390 C12.388,52.390 8.854,48.857 8.854,44.538 L8.854,32.444 C6.529,31.664 4.927,29.515 4.927,26.872 L4.927,19.020 L2.963,19.020 C1.785,19.020 1.000,18.234 1.000,17.056 C1.000,15.879 1.785,15.094 2.963,15.094 L4.927,15.094 L4.927,7.242 C4.927,3.905 7.479,1.353 10.817,1.353 L95.250,1.353 C98.588,1.353 101.140,3.905 101.140,7.242 L101.140,15.262 C106.693,16.204 110.958,21.062 110.957,26.872 L110.957,34.723 C110.957,40.416 107.030,45.323 101.532,46.501 ZM40.663,70.057 L41.841,75.946 L44.198,75.946 C45.376,75.946 46.161,76.731 46.161,77.909 L46.161,97.539 L50.088,97.539 C51.266,97.539 52.052,98.324 52.052,99.502 C52.052,100.680 51.266,101.465 50.088,101.465 L46.161,101.465 L46.161,105.391 L50.088,105.391 C51.266,105.391 52.052,106.176 52.052,107.354 C52.052,108.532 51.266,109.317 50.088,109.317 L46.161,109.317 C46.161,112.654 48.714,115.206 52.052,115.206 C55.390,115.206 57.942,112.654 57.942,109.317 L57.942,77.909 C57.942,76.731 58.728,75.946 59.906,75.946 L62.262,75.946 L63.440,70.057 L40.663,70.057 ZM12.781,44.538 C12.781,46.698 14.548,48.464 16.708,48.464 C18.868,48.464 20.635,46.698 20.635,44.538 L20.635,38.649 C20.635,37.472 21.421,36.687 22.599,36.687 C23.777,36.687 24.562,37.472 24.562,38.649 L24.562,44.538 L24.562,60.242 C24.562,62.402 26.330,64.168 28.489,64.168 C30.649,64.168 32.417,62.402 32.417,60.242 L32.417,40.613 L32.417,39.631 L32.417,36.687 C32.417,35.509 33.202,34.724 34.380,34.724 C35.558,34.724 36.343,35.509 36.343,36.687 L36.343,39.631 C36.343,41.201 37.718,42.575 39.289,42.575 C40.860,42.575 42.234,41.201 42.234,39.631 L42.234,32.760 L12.781,32.760 L12.781,44.538 ZM97.213,26.872 L97.213,7.242 C97.213,6.064 96.427,5.279 95.249,5.279 L10.817,5.279 C9.836,5.279 8.854,6.260 8.854,7.242 L8.854,26.872 C8.854,28.049 9.639,28.834 10.817,28.834 L44.198,28.834 L95.250,28.834 C96.428,28.834 97.213,28.049 97.213,26.872 L97.213,26.872 ZM83.076,24.320 C82.683,24.713 82.094,24.909 81.505,24.909 C81.112,24.909 80.523,24.712 80.327,24.516 C79.541,23.731 79.345,22.553 80.130,21.768 L89.948,9.990 C90.733,9.205 91.912,9.009 92.697,9.794 C93.482,10.579 93.679,11.757 92.893,12.542 L83.076,24.320 ZM71.294,24.320 C70.901,24.712 70.312,24.909 69.723,24.909 C69.330,24.909 68.741,24.712 68.545,24.516 C67.760,23.731 67.564,22.553 68.349,21.768 L78.167,9.990 C78.952,9.205 80.130,9.009 80.916,9.794 C81.701,10.579 81.897,11.757 81.112,12.542 L71.294,24.320 ZM57.549,24.320 C57.157,24.712 56.568,24.909 55.979,24.909 C55.586,24.909 54.997,24.712 54.800,24.516 C54.015,23.731 53.819,22.553 54.604,21.768 L64.422,9.990 C65.208,9.205 66.386,9.009 67.171,9.794 C67.956,10.579 68.153,11.757 67.367,12.542 L57.549,24.320 ZM43.805,24.320 C43.412,24.712 42.823,24.909 42.234,24.909 C41.841,24.909 41.252,24.712 41.056,24.516 C40.270,23.731 40.074,22.553 40.860,21.768 L50.677,9.990 C51.463,9.205 52.641,9.009 53.426,9.794 C54.212,10.579 54.408,11.757 53.623,12.542 L43.805,24.320 ZM30.060,24.320 C29.667,24.712 29.078,24.909 28.489,24.909 C28.096,24.909 27.507,24.712 27.311,24.516 C26.526,23.731 26.329,22.553 27.115,21.768 L36.932,9.990 C37.718,9.205 38.896,9.009 39.681,9.794 C40.467,10.579 40.663,11.757 39.878,12.542 L30.060,24.320 ZM16.315,24.320 C15.923,24.712 15.333,24.909 14.744,24.909 C14.352,24.909 13.763,24.712 13.566,24.516 C12.781,23.731 12.585,22.553 13.370,21.768 L23.188,9.990 C23.973,9.205 25.151,9.009 25.937,9.794 C26.722,10.579 26.919,11.757 26.133,12.542 L16.315,24.320 Z" class="cls-1"/>
</svg>
