<svg xmlns="http://www.w3.org/2000/svg" xmlns:xlink="http://www.w3.org/1999/xlink" preserveAspectRatio="xMidYMid" width="56" height="60" viewBox="0 0 56 60">
  <defs>
    <style>
      .cls-1 {
        fill: #4c6897;
        stroke: #fff;
        stroke-linejoin: round;
        stroke-width: 1px;
        fill-rule: evenodd;
      }
    </style>
  </defs>
  <path d="M50.766,23.251 C49.882,23.447 32.505,24.919 29.069,25.214 C27.891,25.214 27.007,26.097 27.007,27.177 L27.007,33.066 L32.898,33.066 C33.192,33.066 33.487,33.164 33.683,33.458 C33.880,33.655 33.978,33.949 33.880,34.243 L32.898,39.151 C32.800,39.642 32.407,39.936 31.916,39.936 L30.934,39.936 L30.934,54.659 C30.934,57.407 28.775,59.566 26.026,59.566 C23.277,59.566 21.117,57.407 21.117,54.659 L21.117,39.936 L20.135,39.936 C19.644,39.936 19.251,39.642 19.153,39.151 L18.172,34.243 C18.073,33.949 18.172,33.654 18.368,33.458 C18.564,33.262 18.859,33.066 19.153,33.066 L25.044,33.066 L25.044,27.177 C25.044,25.017 26.811,23.251 28.971,23.251 C37.120,22.564 49.588,21.484 50.374,21.288 C52.141,20.895 53.515,19.227 53.515,17.362 L53.515,13.436 C53.515,11.615 52.259,10.074 50.570,9.635 L50.570,13.436 C50.570,15.104 49.294,16.380 47.625,16.380 L23.081,16.380 L23.081,19.816 C23.081,21.680 21.510,23.251 19.644,23.251 C19.153,23.251 18.663,23.153 18.172,22.956 L18.172,30.121 C18.172,32.280 16.404,34.047 14.245,34.047 C12.085,34.047 10.318,32.280 10.318,30.121 L10.318,25.704 C9.729,25.999 9.041,26.195 8.354,26.195 C6.194,26.195 4.427,24.428 4.427,22.269 L4.427,16.222 C3.264,15.832 2.463,14.757 2.463,13.436 L2.463,9.510 L1.482,9.510 C0.893,9.510 0.500,9.117 0.500,8.528 C0.500,7.939 0.893,7.547 1.482,7.547 L2.463,7.547 L2.463,3.621 C2.463,1.952 3.740,0.676 5.409,0.676 L47.625,0.676 C49.294,0.676 50.570,1.952 50.570,3.621 L50.570,7.631 C53.347,8.102 55.479,10.531 55.478,13.436 L55.478,17.362 C55.478,20.208 53.515,22.662 50.766,23.251 ZM20.332,35.029 L20.921,37.973 L22.099,37.973 C22.688,37.973 23.081,38.366 23.081,38.955 L23.081,48.770 L25.044,48.770 C25.633,48.770 26.026,49.162 26.026,49.751 C26.026,50.340 25.633,50.732 25.044,50.732 L23.081,50.732 L23.081,52.695 L25.044,52.695 C25.633,52.695 26.026,53.088 26.026,53.677 C26.026,54.266 25.633,54.658 25.044,54.658 L23.081,54.658 C23.081,56.327 24.357,57.603 26.026,57.603 C27.695,57.603 28.971,56.327 28.971,54.658 L28.971,38.955 C28.971,38.366 29.364,37.973 29.953,37.973 L31.131,37.973 L31.720,35.029 L20.332,35.029 ZM6.391,22.269 C6.391,23.349 7.274,24.232 8.354,24.232 C9.434,24.232 10.318,23.349 10.318,22.269 L10.318,19.325 C10.318,18.736 10.710,18.343 11.299,18.343 C11.888,18.343 12.281,18.736 12.281,19.325 L12.281,22.269 L12.281,30.121 C12.281,31.201 13.165,32.084 14.245,32.084 C15.325,32.084 16.208,31.201 16.208,30.121 L16.208,20.306 L16.208,19.816 L16.208,18.343 C16.208,17.754 16.601,17.362 17.190,17.362 C17.779,17.362 18.172,17.754 18.172,18.343 L18.172,19.816 C18.172,20.601 18.859,21.288 19.644,21.288 C20.430,21.288 21.117,20.601 21.117,19.816 L21.117,16.380 L6.391,16.380 L6.391,22.269 ZM48.606,13.436 L48.606,3.621 C48.606,3.032 48.214,2.639 47.625,2.639 L5.409,2.639 C4.918,2.639 4.427,3.130 4.427,3.621 L4.427,13.436 C4.427,14.025 4.820,14.417 5.409,14.417 L22.099,14.417 L47.625,14.417 C48.214,14.417 48.606,14.025 48.606,13.436 L48.606,13.436 ZM41.538,12.160 C41.341,12.356 41.047,12.454 40.752,12.454 C40.556,12.454 40.261,12.356 40.163,12.258 C39.771,11.865 39.672,11.277 40.065,10.884 L44.974,4.995 C45.367,4.602 45.956,4.504 46.349,4.897 C46.741,5.290 46.839,5.878 46.447,6.271 L41.538,12.160 ZM35.647,12.160 C35.451,12.356 35.156,12.454 34.862,12.454 C34.665,12.454 34.371,12.356 34.273,12.258 C33.880,11.865 33.782,11.276 34.174,10.884 L39.083,4.995 C39.476,4.602 40.065,4.504 40.458,4.897 C40.851,5.289 40.949,5.878 40.556,6.271 L35.647,12.160 ZM28.775,12.160 C28.578,12.356 28.284,12.454 27.989,12.454 C27.793,12.454 27.498,12.356 27.400,12.258 C27.008,11.865 26.909,11.276 27.302,10.884 L32.211,4.995 C32.604,4.602 33.193,4.504 33.585,4.897 C33.978,5.289 34.076,5.878 33.684,6.271 L28.775,12.160 ZM21.902,12.160 C21.706,12.356 21.411,12.454 21.117,12.454 C20.921,12.454 20.626,12.356 20.528,12.258 C20.135,11.865 20.037,11.276 20.430,10.884 L25.339,4.995 C25.731,4.602 26.320,4.504 26.713,4.897 C27.106,5.289 27.204,5.878 26.811,6.271 L21.902,12.160 ZM15.030,12.160 C14.834,12.356 14.539,12.454 14.245,12.454 C14.048,12.454 13.754,12.356 13.655,12.258 C13.263,11.865 13.165,11.276 13.557,10.884 L18.466,4.995 C18.859,4.602 19.448,4.504 19.841,4.897 C20.233,5.289 20.332,5.878 19.939,6.271 L15.030,12.160 ZM8.158,12.160 C7.961,12.356 7.667,12.454 7.372,12.454 C7.176,12.454 6.881,12.356 6.783,12.258 C6.390,11.865 6.292,11.276 6.685,10.884 L11.594,4.995 C11.987,4.602 12.576,4.504 12.968,4.897 C13.361,5.289 13.459,5.878 13.067,6.271 L8.158,12.160 Z" class="cls-1"/>
</svg>
