<svg xmlns="http://www.w3.org/2000/svg" xmlns:xlink="http://www.w3.org/1999/xlink" preserveAspectRatio="xMidYMid" width="55" height="60" viewBox="0 0 55 60">
  <defs>
    <style>
      .cls-1 {
        fill: #c684d1;
      }

      .cls-1, .cls-2, .cls-3, .cls-4 {
        fill-rule: evenodd;
      }

      .cls-2 {
        fill: #f3f28f;
      }

      .cls-3 {
        fill: #e1bee7;
      }

      .cls-4 {
        fill: #aa67b5;
      }
    </style>
  </defs>
  <g>
    <path d="M18.500,33.277 L32.500,34.286 L31.500,38.319 L29.000,38.823 L29.000,55.966 C29.000,55.966 27.856,58.912 26.000,58.992 C24.144,59.071 21.856,57.148 21.500,55.462 C21.144,53.777 21.500,38.823 21.500,38.823 C21.500,38.823 19.500,41.092 18.500,33.277 Z" class="cls-1"/>
    <path d="M2.500,4.538 C2.500,4.538 2.356,1.433 5.000,1.008 C7.644,0.583 26.000,0.504 26.000,0.504 L44.500,1.513 C44.500,1.513 48.856,-0.331 49.000,3.529 C49.144,7.390 49.000,12.605 49.000,12.605 C49.000,12.605 49.856,15.047 45.500,15.126 C41.144,15.205 25.000,15.126 25.000,15.126 L5.000,15.126 C5.000,15.126 3.106,16.055 3.000,11.597 C2.894,7.138 2.500,4.538 2.500,4.538 Z" class="cls-2"/>
    <path d="M4.500,15.630 L4.500,21.681 C4.500,21.681 9.606,28.156 10.500,23.193 C11.394,18.230 10.500,18.655 10.500,18.655 L11.000,31.260 C11.000,31.260 14.356,34.207 16.000,31.260 C17.644,28.314 16.500,17.647 16.500,17.647 C16.500,17.647 17.356,21.601 19.500,21.681 C21.644,21.760 21.500,15.126 21.500,15.126 L4.500,15.630 Z" class="cls-3"/>
    <path d="M50.266,22.942 C49.382,23.140 32.005,24.624 28.569,24.921 C27.391,24.921 26.507,25.812 26.507,26.901 L26.507,32.839 L32.398,32.839 C32.692,32.839 32.987,32.938 33.183,33.235 C33.380,33.433 33.478,33.730 33.380,34.027 L32.398,38.976 C32.300,39.471 31.907,39.768 31.416,39.768 L30.434,39.768 L30.434,54.614 C30.434,57.385 28.275,59.562 25.526,59.562 C22.777,59.562 20.617,57.385 20.617,54.614 L20.617,39.768 L19.635,39.768 C19.144,39.768 18.751,39.471 18.653,38.976 L17.672,34.027 C17.573,33.730 17.672,33.433 17.868,33.235 C18.064,33.037 18.359,32.839 18.653,32.839 L24.544,32.839 L24.544,26.901 C24.544,24.723 26.311,22.942 28.471,22.942 C36.620,22.249 49.088,21.160 49.874,20.962 C51.641,20.567 53.015,18.884 53.015,17.003 L53.015,13.045 C53.015,11.209 51.759,9.654 50.070,9.212 L50.070,13.044 C50.070,14.727 48.794,16.014 47.125,16.014 L22.581,16.014 L22.581,19.478 C22.581,21.358 21.010,22.942 19.144,22.942 C18.653,22.942 18.163,22.843 17.672,22.645 L17.672,29.870 C17.672,32.047 15.905,33.829 13.745,33.829 C11.585,33.829 9.818,32.047 9.818,29.870 L9.818,25.416 C9.229,25.713 8.541,25.911 7.854,25.911 C5.694,25.911 3.927,24.129 3.927,21.952 L3.927,15.854 C2.765,15.461 1.963,14.377 1.963,13.044 L1.963,9.086 L0.982,9.086 C0.393,9.086 -0.000,8.690 -0.000,8.096 C-0.000,7.502 0.393,7.106 0.982,7.106 L1.963,7.106 L1.963,3.147 C1.963,1.465 3.240,0.178 4.909,0.178 L47.125,0.178 C48.794,0.178 50.070,1.465 50.070,3.147 L50.070,7.191 C52.847,7.666 54.979,10.115 54.979,13.044 L54.979,17.003 C54.979,19.874 53.015,22.348 50.266,22.942 ZM19.832,34.819 L20.421,37.788 L21.599,37.788 C22.188,37.788 22.581,38.184 22.581,38.778 L22.581,48.675 L24.544,48.675 C25.133,48.675 25.526,49.071 25.526,49.665 C25.526,50.259 25.133,50.655 24.544,50.655 L22.581,50.655 L22.581,52.634 L24.544,52.634 C25.133,52.634 25.526,53.030 25.526,53.624 C25.526,54.218 25.133,54.613 24.544,54.613 L22.581,54.613 C22.581,56.296 23.857,57.583 25.526,57.583 C27.195,57.583 28.471,56.296 28.471,54.613 L28.471,38.778 C28.471,38.184 28.864,37.788 29.453,37.788 L30.631,37.788 L31.220,34.819 L19.832,34.819 ZM5.891,21.952 C5.891,23.041 6.774,23.932 7.854,23.932 C8.934,23.932 9.818,23.041 9.818,21.952 L9.818,18.983 C9.818,18.389 10.210,17.993 10.799,17.993 C11.388,17.993 11.781,18.389 11.781,18.983 L11.781,21.952 L11.781,29.870 C11.781,30.959 12.665,31.850 13.745,31.850 C14.825,31.850 15.708,30.959 15.708,29.870 L15.708,19.973 L15.708,19.478 L15.708,17.993 C15.708,17.399 16.101,17.003 16.690,17.003 C17.279,17.003 17.672,17.399 17.672,17.993 L17.672,19.478 C17.672,20.270 18.359,20.962 19.144,20.962 C19.930,20.962 20.617,20.270 20.617,19.478 L20.617,16.014 L5.891,16.014 L5.891,21.952 ZM48.106,13.044 L48.106,3.147 C48.106,2.553 47.714,2.157 47.125,2.157 L4.909,2.157 C4.418,2.157 3.927,2.652 3.927,3.147 L3.927,13.044 C3.927,13.638 4.320,14.034 4.909,14.034 L21.599,14.034 L47.125,14.034 C47.714,14.034 48.107,13.638 48.107,13.044 L48.106,13.044 ZM41.038,11.758 C40.841,11.956 40.547,12.055 40.252,12.055 C40.056,12.055 39.761,11.956 39.663,11.857 C39.271,11.461 39.172,10.867 39.565,10.471 L44.474,4.533 C44.867,4.137 45.456,4.038 45.849,4.434 C46.241,4.830 46.339,5.424 45.947,5.819 L41.038,11.758 ZM35.147,11.758 C34.951,11.956 34.656,12.055 34.362,12.055 C34.165,12.055 33.871,11.956 33.773,11.857 C33.380,11.461 33.282,10.867 33.674,10.471 L38.583,4.533 C38.976,4.137 39.565,4.038 39.958,4.434 C40.351,4.830 40.449,5.424 40.056,5.819 L35.147,11.758 ZM28.275,11.758 C28.078,11.956 27.784,12.055 27.489,12.055 C27.293,12.055 26.998,11.956 26.900,11.857 C26.508,11.461 26.409,10.867 26.802,10.471 L31.711,4.533 C32.104,4.137 32.693,4.038 33.085,4.434 C33.478,4.830 33.576,5.424 33.184,5.819 L28.275,11.758 ZM21.402,11.758 C21.206,11.956 20.912,12.055 20.617,12.055 C20.421,12.055 20.126,11.956 20.028,11.857 C19.635,11.461 19.537,10.867 19.930,10.471 L24.839,4.533 C25.231,4.137 25.820,4.038 26.213,4.434 C26.606,4.830 26.704,5.424 26.311,5.819 L21.402,11.758 ZM14.530,11.758 C14.334,11.956 14.039,12.055 13.745,12.055 C13.548,12.055 13.254,11.956 13.155,11.857 C12.763,11.461 12.665,10.867 13.057,10.471 L17.966,4.533 C18.359,4.137 18.948,4.038 19.341,4.434 C19.733,4.830 19.832,5.424 19.439,5.819 L14.530,11.758 ZM7.658,11.758 C7.461,11.956 7.167,12.055 6.872,12.055 C6.676,12.055 6.381,11.956 6.283,11.857 C5.890,11.461 5.792,10.867 6.185,10.471 L11.094,4.533 C11.487,4.137 12.076,4.038 12.468,4.434 C12.861,4.830 12.959,5.424 12.567,5.819 L7.658,11.758 Z" class="cls-4"/>
  </g>
</svg>
