<svg xmlns="http://www.w3.org/2000/svg" xmlns:xlink="http://www.w3.org/1999/xlink" preserveAspectRatio="xMidYMid" width="86" height="58" viewBox="0 0 86 58">
  <defs>
    <style>
      .cls-1 {
        fill: #f7e6ce;
      }

      .cls-1, .cls-2, .cls-3 {
        fill-rule: evenodd;
      }

      .cls-2 {
        fill: #3e5c8f;
        stroke: #fff;
        stroke-linejoin: round;
        stroke-width: 1px;
      }

      .cls-3 {
        fill: #6aacd2;
      }
    </style>
  </defs>
  <g>
    <path d="M21.269,13.884 L33.333,13.249 C33.333,13.249 37.619,11.822 40.952,10.713 C44.286,9.603 49.048,9.286 52.381,10.713 C55.714,12.140 65.080,16.420 65.080,16.420 L73.334,37.982 L66.985,41.787 C66.985,41.787 65.556,48.604 61.270,47.495 C56.984,46.385 62.064,53.678 53.651,50.665 C45.238,47.653 65.061,53.574 46.032,53.836 C45.530,53.843 43.492,55.739 43.492,55.739 C43.492,55.739 35.774,54.451 32.698,51.300 C29.623,48.149 12.380,34.177 12.380,34.177 L21.269,13.884 Z" class="cls-1"/>
    <path d="M84.432,4.943 C83.962,4.613 83.359,4.531 82.819,4.731 L68.440,9.956 C66.658,10.603 65.239,11.907 64.445,13.628 C64.296,13.951 64.198,14.286 64.100,14.620 C61.632,13.919 57.043,12.455 52.483,10.107 C45.593,6.560 40.329,8.312 35.814,11.753 C33.526,11.798 30.373,12.068 27.274,12.341 C25.296,12.515 23.428,12.676 21.913,12.768 C21.875,11.859 21.662,10.956 21.270,10.104 C20.476,8.383 19.057,7.079 17.274,6.432 L2.895,1.207 C2.356,1.009 1.750,1.090 1.282,1.419 C0.810,1.749 0.529,2.288 0.529,2.862 L0.529,38.105 C0.529,39.079 1.318,39.867 2.293,39.867 L7.444,39.867 C9.635,39.867 11.674,38.835 12.991,37.168 C13.693,37.701 14.524,38.325 15.396,38.980 C17.454,40.527 19.707,42.214 20.696,43.042 C27.263,48.535 35.158,54.467 36.731,55.500 C38.200,56.463 40.845,57.489 42.857,57.489 C43.644,57.489 45.626,57.489 47.018,56.313 C48.453,56.876 49.999,56.849 51.438,56.215 C52.872,55.584 54.033,54.393 54.708,52.946 C56.086,53.228 57.669,53.021 59.104,52.302 C60.449,51.629 61.439,50.610 61.969,49.419 C63.244,49.536 64.605,49.122 65.822,48.191 C67.562,46.862 68.359,44.900 68.134,42.964 L72.607,40.491 C73.917,42.265 76.000,43.391 78.270,43.391 L83.421,43.391 C84.396,43.391 85.185,42.603 85.185,41.629 L85.185,6.387 C85.185,5.812 84.904,5.273 84.432,4.943 ZM10.747,34.056 C10.234,35.424 8.906,36.343 7.444,36.343 L4.056,36.343 L4.056,5.378 L16.068,9.742 C16.960,10.068 17.670,10.720 18.066,11.580 C18.463,12.440 18.498,13.404 18.166,14.290 L10.747,34.056 ZM63.682,45.391 C63.084,45.849 62.247,46.104 61.875,45.732 C61.856,45.713 61.827,45.715 61.807,45.697 C61.773,45.666 61.757,45.624 61.720,45.594 C60.459,44.599 54.810,38.825 51.319,35.187 C50.645,34.483 49.528,34.457 48.827,35.133 C48.122,35.806 48.098,36.921 48.773,37.623 C49.593,38.478 56.171,45.323 58.803,47.717 C58.607,48.491 57.889,48.969 57.525,49.151 C56.395,49.717 55.217,49.623 54.776,49.213 C54.762,49.201 54.743,49.202 54.730,49.190 C54.708,49.171 54.698,49.144 54.675,49.126 C52.561,47.437 47.254,41.803 46.054,40.499 C45.394,39.781 44.280,39.736 43.561,40.394 C42.845,41.053 42.797,42.168 43.456,42.884 C43.514,42.947 48.715,48.551 51.635,51.155 C51.348,51.979 50.764,52.661 50.013,52.992 C49.459,53.238 48.593,53.364 47.604,52.633 C45.071,50.488 39.988,45.082 38.989,44.013 C38.326,43.300 37.206,43.264 36.496,43.929 C35.785,44.593 35.747,45.708 36.412,46.419 C37.597,47.686 41.100,51.396 43.763,53.908 C43.466,53.944 43.154,53.965 42.857,53.965 C41.689,53.965 39.683,53.219 38.668,52.553 C37.432,51.741 29.667,45.952 22.962,40.342 C21.948,39.492 19.633,37.753 17.514,36.163 C16.379,35.311 15.333,34.525 14.562,33.933 L21.165,16.336 C22.880,16.261 25.165,16.064 27.583,15.851 C28.951,15.731 30.321,15.613 31.629,15.511 C29.618,17.574 26.627,21.269 27.022,24.732 C27.203,26.309 28.065,27.622 29.521,28.530 C32.402,30.332 37.737,28.821 40.306,25.663 C41.965,25.424 43.086,25.001 44.309,24.395 C46.376,26.336 49.147,28.618 52.058,31.015 C57.125,35.187 62.869,39.915 64.388,42.567 C65.233,44.042 64.061,45.102 63.682,45.391 ZM66.707,39.724 C64.357,36.583 59.263,32.381 54.300,28.295 C50.992,25.570 47.867,22.998 45.867,21.000 C45.317,20.453 44.471,20.329 43.789,20.692 C41.992,21.654 41.183,22.051 39.154,22.254 C38.613,22.310 38.128,22.609 37.838,23.068 C36.455,25.261 32.611,26.304 31.391,25.543 C30.699,25.109 30.565,24.669 30.527,24.333 C30.356,22.834 31.875,20.239 34.395,17.720 C40.635,11.486 45.096,10.265 50.868,13.239 C56.351,16.064 61.763,17.661 64.035,18.264 C64.100,18.528 64.148,18.795 64.245,19.054 L71.093,37.300 L66.707,39.724 ZM81.658,39.867 L78.270,39.867 C76.807,39.867 75.480,38.948 74.966,37.580 L67.548,17.816 C67.216,16.929 67.250,15.965 67.648,15.104 C68.044,14.244 68.754,13.592 69.646,13.266 L81.658,8.902 L81.658,39.867 L81.658,39.867 Z" class="cls-2"/>
    <path d="M3.491,4.371 L16.825,9.444 C16.825,9.444 19.682,11.188 19.365,12.615 C18.297,17.415 11.745,34.177 11.745,34.177 C11.745,34.177 10.476,37.506 8.571,37.348 C4.274,36.990 3.491,37.348 3.491,37.348 L3.491,4.371 Z" class="cls-3"/>
    <path d="M82.223,8.176 L68.889,12.615 C68.889,12.615 66.032,14.359 66.350,15.786 C67.418,20.586 73.969,37.348 73.969,37.348 C73.969,37.348 74.598,40.466 76.508,40.519 C80.806,40.637 82.223,40.519 82.223,40.519 L82.223,8.176 Z" class="cls-3"/>
  </g>
</svg>
