<svg xmlns="http://www.w3.org/2000/svg" xmlns:xlink="http://www.w3.org/1999/xlink" preserveAspectRatio="xMidYMid" width="88" height="60" viewBox="0 0 88 60">
  <defs>
    <style>
      .cls-1 {
        fill: #3e5c8f;
        stroke: #fff;
        stroke-linejoin: round;
        stroke-width: 2px;
        fill-rule: evenodd;
      }
    </style>
  </defs>
  <path d="M85.905,5.290 C85.433,4.958 84.828,4.876 84.286,5.077 L69.856,10.334 C68.067,10.985 66.643,12.298 65.846,14.029 C65.697,14.354 65.599,14.691 65.500,15.028 C63.023,14.322 58.418,12.849 53.842,10.487 C46.927,6.917 41.644,8.680 37.113,12.142 C34.817,12.188 31.653,12.460 28.542,12.734 C26.558,12.910 24.683,13.071 23.162,13.164 C23.125,12.249 22.911,11.341 22.517,10.484 C21.720,8.752 20.296,7.439 18.507,6.789 L4.077,1.531 C3.536,1.332 2.927,1.413 2.457,1.744 C1.984,2.077 1.702,2.619 1.702,3.197 L1.702,38.659 C1.702,39.639 2.494,40.432 3.472,40.432 L8.642,40.432 C10.841,40.432 12.886,39.393 14.208,37.715 C14.913,38.252 15.747,38.880 16.622,39.538 C18.688,41.095 20.949,42.793 21.941,43.626 C28.531,49.153 36.455,55.122 38.033,56.161 C39.507,57.130 42.162,58.163 44.181,58.163 C44.971,58.163 46.961,58.163 48.357,56.980 C49.797,57.546 51.349,57.518 52.793,56.881 C54.232,56.246 55.397,55.047 56.075,53.591 C57.458,53.875 59.046,53.667 60.486,52.943 C61.836,52.267 62.830,51.242 63.362,50.043 C64.641,50.161 66.007,49.744 67.229,48.807 C68.975,47.470 69.774,45.495 69.548,43.548 L74.038,41.059 C75.353,42.845 77.442,43.978 79.720,43.978 L84.890,43.978 C85.869,43.978 86.660,43.185 86.660,42.205 L86.660,6.743 C86.660,6.165 86.379,5.623 85.905,5.290 ZM11.957,34.585 C11.442,35.961 10.109,36.886 8.642,36.886 L5.242,36.886 L5.242,5.728 L17.296,10.120 C18.192,10.447 18.904,11.103 19.301,11.969 C19.700,12.834 19.735,13.804 19.402,14.696 L11.957,34.585 ZM65.080,45.990 C64.480,46.451 63.640,46.707 63.267,46.333 C63.248,46.314 63.219,46.316 63.199,46.297 C63.165,46.266 63.148,46.224 63.112,46.194 C61.846,45.193 56.177,39.383 52.673,35.722 C51.998,35.014 50.876,34.988 50.172,35.668 C49.465,36.345 49.441,37.467 50.119,38.174 C50.941,39.034 57.542,45.921 60.185,48.330 C59.987,49.109 59.267,49.589 58.901,49.773 C57.767,50.343 56.585,50.248 56.142,49.836 C56.129,49.824 56.110,49.824 56.096,49.812 C56.075,49.793 56.065,49.766 56.042,49.748 C53.919,48.049 48.594,42.380 47.389,41.067 C46.727,40.345 45.609,40.300 44.888,40.962 C44.169,41.625 44.121,42.747 44.783,43.467 C44.841,43.530 50.060,49.170 52.991,51.789 C52.703,52.619 52.116,53.305 51.363,53.638 C50.807,53.885 49.938,54.012 48.945,53.277 C46.403,51.118 41.302,45.679 40.299,44.603 C39.634,43.886 38.510,43.850 37.798,44.518 C37.084,45.186 37.046,46.309 37.713,47.024 C38.903,48.299 42.418,52.032 45.091,54.559 C44.792,54.596 44.479,54.617 44.181,54.617 C43.009,54.617 40.996,53.867 39.977,53.196 C38.736,52.379 30.944,46.555 24.215,40.909 C23.197,40.054 20.874,38.304 18.748,36.704 C17.609,35.847 16.559,35.057 15.785,34.460 L22.412,16.755 C24.132,16.679 26.426,16.481 28.853,16.266 C30.226,16.145 31.600,16.027 32.913,15.925 C30.895,18.000 27.894,21.718 28.290,25.203 C28.471,26.789 29.337,28.110 30.797,29.024 C33.689,30.837 39.042,29.317 41.621,26.140 C43.286,25.899 44.411,25.473 45.638,24.863 C47.713,26.817 50.493,29.113 53.415,31.525 C58.500,35.722 64.264,40.480 65.789,43.148 C66.638,44.633 65.460,45.699 65.080,45.990 ZM68.117,40.288 C65.758,37.127 60.646,32.899 55.665,28.787 C52.345,26.046 49.209,23.458 47.202,21.447 C46.649,20.897 45.801,20.772 45.116,21.137 C43.313,22.105 42.501,22.505 40.465,22.709 C39.922,22.765 39.435,23.066 39.144,23.528 C37.756,25.734 33.898,26.784 32.675,26.018 C31.980,25.582 31.845,25.139 31.807,24.801 C31.636,23.293 33.160,20.682 35.689,18.147 C41.951,11.874 46.428,10.646 52.220,13.638 C57.723,16.480 63.155,18.087 65.435,18.694 C65.500,18.960 65.548,19.228 65.645,19.489 L72.518,37.849 L68.117,40.288 ZM83.120,40.432 L79.721,40.432 C78.253,40.432 76.920,39.507 76.405,38.131 L68.961,18.244 C68.627,17.350 68.662,16.381 69.061,15.515 C69.459,14.649 70.171,13.993 71.066,13.666 L83.120,9.274 L83.120,40.432 L83.120,40.432 Z" class="cls-1"/>
</svg>
