<svg xmlns="http://www.w3.org/2000/svg" xmlns:xlink="http://www.w3.org/1999/xlink" preserveAspectRatio="xMidYMid" width="30" height="65" viewBox="0 0 30 65">
  <defs>
    <style>
      .cls-1 {
        fill: #4c6897;
        stroke: #fff;
        stroke-linejoin: round;
        stroke-width: 1px;
      }

      .cls-1, .cls-2 {
        fill-rule: evenodd;
      }

      .cls-2 {
        stroke: #4c6897;
        stroke-width: 2px;
        fill: none;
      }
    </style>
  </defs>
  <path d="M27.937,2.636 L24.986,2.344 C24.980,2.343 24.975,2.344 24.969,2.343 C24.005,1.964 20.053,0.537 15.147,0.537 C9.634,0.537 4.967,2.302 1.276,5.784 C1.074,5.974 0.960,6.236 0.960,6.509 L0.960,9.907 C0.960,10.464 1.424,10.916 1.997,10.916 L7.802,10.916 L7.802,13.875 C6.870,14.334 6.228,15.273 6.228,16.357 L6.228,18.258 C6.070,18.265 5.916,18.306 5.777,18.381 C3.796,19.449 2.593,22.256 1.932,24.422 C1.038,27.357 0.545,31.065 0.545,34.864 L0.545,54.103 L0.545,57.656 C0.545,59.111 1.435,60.366 2.712,60.936 L2.712,61.681 C2.712,63.215 3.994,64.463 5.570,64.463 L19.938,64.463 C21.514,64.463 23.953,63.215 23.953,61.681 L23.953,60.936 C25.230,60.366 26.119,59.111 26.119,57.656 L26.119,54.103 L26.119,34.912 L26.119,34.864 C26.119,34.853 26.118,34.842 26.118,34.831 C26.082,31.423 22.614,28.445 19.328,27.445 L19.328,21.862 C19.328,20.669 18.729,19.609 17.809,18.952 L17.809,16.357 C17.809,15.279 17.174,14.344 16.250,13.883 L16.250,10.994 L17.509,10.611 L19.955,14.733 C20.447,15.563 21.365,16.079 22.351,16.079 C22.351,16.079 22.351,16.079 22.351,16.079 C22.834,16.079 23.312,15.955 23.732,15.718 C24.372,15.359 24.829,14.778 25.021,14.084 C25.212,13.389 25.113,12.664 24.744,12.042 L22.920,8.967 L25.084,8.310 C25.085,8.309 25.086,8.309 25.087,8.308 L27.937,8.027 C28.780,7.993 29.455,7.315 29.455,6.487 L29.455,4.176 C29.455,3.347 28.780,2.669 27.937,2.636 ZM21.879,61.681 L21.879,61.681 C21.879,62.102 20.371,62.444 19.938,62.444 L5.570,62.444 C5.138,62.444 4.786,62.102 4.786,61.681 L4.786,61.264 L21.879,61.264 L21.879,61.681 L21.879,61.681 ZM2.619,59.337 L2.619,38.620 C2.619,38.620 4.322,37.369 6.841,37.369 C8.544,37.369 10.654,38.370 12.730,38.370 C14.819,38.370 16.959,37.494 18.790,37.494 C21.824,37.494 24.045,38.370 24.045,38.370 L24.045,59.337 M24.045,61.355 L24.045,57.656 C24.045,58.423 23.485,59.064 22.742,59.213 C22.735,59.214 22.728,59.214 22.721,59.215 C22.615,59.235 22.512,59.245 22.413,59.245 L4.252,59.245 C4.153,59.245 4.050,59.235 3.944,59.215 C3.937,59.214 3.929,59.214 3.922,59.213 C3.180,59.064 2.619,58.423 2.619,57.656 L2.619,60.107 M16.324,20.431 C16.326,20.432 16.329,20.433 16.332,20.434 C16.877,20.691 17.254,21.234 17.254,21.862 L17.254,28.229 C17.254,28.710 17.604,29.125 18.090,29.219 C20.509,29.684 23.806,31.806 23.945,36.352 C23.945,36.352 21.793,35.497 18.790,35.497 C17.024,35.497 14.921,36.352 12.901,36.352 C10.802,36.352 8.959,35.247 7.227,35.247 C4.670,35.247 2.632,36.352 2.632,36.352 C2.653,35.482 2.699,32.142 2.769,31.332 L5.405,31.332 C5.978,31.332 6.442,30.880 6.442,30.323 C6.442,29.765 5.978,29.313 5.405,29.313 L2.999,29.313 C3.072,28.804 3.152,28.309 3.242,27.834 L6.087,27.834 C6.660,27.834 7.124,27.382 7.124,26.824 C7.124,26.267 6.660,25.815 6.087,25.815 L3.699,25.815 C3.838,25.292 3.988,24.797 4.146,24.335 L6.917,24.335 C7.490,24.335 7.954,23.883 7.954,23.326 C7.954,22.768 7.490,22.316 6.917,22.316 L4.992,22.316 C5.493,21.347 6.035,20.648 6.576,20.273 L7.265,20.273 L15.622,20.273 C15.681,20.273 15.740,20.277 15.798,20.283 C15.806,20.284 15.814,20.286 15.823,20.287 C15.874,20.293 15.926,20.301 15.977,20.313 C15.980,20.313 15.983,20.314 15.987,20.315 C16.101,20.341 16.214,20.379 16.324,20.431 ZM8.302,18.255 L8.302,16.357 C8.302,15.936 8.654,15.594 9.087,15.594 L14.950,15.594 C15.383,15.594 15.735,15.936 15.735,16.357 L15.735,18.256 C15.697,18.255 15.660,18.255 15.622,18.255 L8.302,18.255 ZM22.948,13.051 C23.040,13.207 23.065,13.388 23.017,13.561 C22.969,13.735 22.855,13.880 22.695,13.970 C22.588,14.030 22.473,14.060 22.351,14.060 C22.104,14.060 21.874,13.931 21.751,13.724 L19.539,9.995 L20.891,9.584 L22.948,13.051 ZM23.738,6.604 L21.066,7.416 C21.066,7.416 21.066,7.416 21.065,7.416 L17.684,8.443 C17.684,8.443 17.684,8.443 17.683,8.443 L14.904,9.288 C14.471,9.419 14.176,9.810 14.176,10.251 L14.176,13.575 L9.876,13.575 L9.876,9.907 C9.876,9.349 9.412,8.897 8.839,8.897 L3.034,8.897 L3.034,6.943 C6.276,4.032 10.349,2.556 15.147,2.556 C19.075,2.556 22.406,3.575 23.738,4.047 L23.738,6.604 L23.738,6.604 ZM27.381,6.053 L25.812,6.208 L25.812,4.455 L27.381,4.610 L27.381,6.053 Z" class="cls-1"/>
  <path d="M12.545,19.339 L12.545,49.959 " class="cls-2"/>
  <path d="M10.909,49.421 L13.091,49.421 C13.392,49.421 13.636,49.662 13.636,49.959 L13.636,52.107 C13.636,52.404 13.392,52.645 13.091,52.645 L10.909,52.645 C10.608,52.645 10.364,52.404 10.364,52.107 L10.364,49.959 C10.364,49.662 10.608,49.421 10.909,49.421 Z" class="cls-2"/>
</svg>
